<svg width="792" height="611" viewBox="0 0 792 611" fill="none" xmlns="http://www.w3.org/2000/svg">
<path opacity="0.2" d="M737.67 331.865L712.929 351.894H606.893M580.973 351.894H378.327L288.786 421.406H256.976M242.837 421.406H232.234M212.205 421.406H146.227" stroke="#5E6294" stroke-width="5" stroke-linecap="round" stroke-linejoin="round"/>
<path opacity="0.2" d="M656.376 418.406H597.468M553.875 418.406H406.604" stroke="#5E6294" stroke-width="5" stroke-linecap="round" stroke-linejoin="round"/>
<path opacity="0.2" d="M363.011 418.406H406.604L460.8 469.068H494.967M525.599 469.068H513.817" stroke="#5E6294" stroke-width="5" stroke-linecap="round" stroke-linejoin="round"/>
<path opacity="0.2" d="M421.92 304.876H334.735L266.401 357.894H158.009M135.624 357.894H103.813" stroke="#5E6294" stroke-width="5" stroke-linecap="round" stroke-linejoin="round"/>
<path opacity="0.2" d="M760.056 254.215H664.624L619.853 294.273H483.817" stroke="#5E6294" stroke-width="5" stroke-linecap="round" stroke-linejoin="round"/>
<path opacity="0.2" d="M563.301 254.215H547.985M526.777 254.215H218.096L172.147 294.273H31.9437" stroke="#5E6294" stroke-width="5" stroke-linecap="round" stroke-linejoin="round"/>
<path opacity="0.2" d="M331.5 254.22H37.908" stroke="#5E6294" stroke-width="5" stroke-linecap="round" stroke-linejoin="round"/>
<path opacity="0.2" d="M551.036 97.1615H471.403L414.851 46.5M585.686 97.1615H630.457" stroke="#5E6294" stroke-width="5" stroke-linecap="round" stroke-linejoin="round"/>
<path opacity="0.2" d="M433.528 191.415H247.55" stroke="#5E6294" stroke-width="5" stroke-linecap="round" stroke-linejoin="round"/>
<path opacity="0.2" d="M539.737 149.001L155.653 149.001M621.031 149.001H601.002" stroke="#5E6294" stroke-width="5" stroke-linecap="round" stroke-linejoin="round"/>
<path opacity="0.2" d="M589.221 191.415H367.724L274.648 106.587H142.693M669.336 191.415H656.377" stroke="#5E6294" stroke-width="5" stroke-linecap="round" stroke-linejoin="round"/>
<path opacity="0.2" d="M485.541 564.5H359.476L269.935 479.672H192.176" stroke="#5E6294" stroke-width="5" stroke-linecap="round" stroke-linejoin="round"/>
<path opacity="0.2" d="M533.846 522.086H155.652" stroke="#5E6294" stroke-width="5" stroke-linecap="round" stroke-linejoin="round"/>
<path opacity="0.9" d="M277.303 392.716V480.586" stroke="url(#paint0_linear_218_787)" stroke-width="12.0822" stroke-linecap="round"/>
<path opacity="0.9" d="M556.809 394.859V482.73" stroke="url(#paint1_linear_218_787)" stroke-width="12.0822" stroke-linecap="round"/>
<path opacity="0.5" d="M319.042 348.231V427.315" stroke="url(#paint2_linear_218_787)" stroke-width="6.59026" stroke-linecap="round"/>
<path opacity="0.5" d="M515.071 350.375V429.459" stroke="url(#paint3_linear_218_787)" stroke-width="12.0822" stroke-linecap="round"/>
<path opacity="0.5" d="M332.222 458.069V504.201" stroke="url(#paint4_linear_218_787)" stroke-width="12.0822" stroke-linecap="round"/>
<path opacity="0.5" d="M501.89 460.213V506.345" stroke="url(#paint5_linear_218_787)" stroke-width="6.59026" stroke-linecap="round"/>
<path d="M486.957 361.228C488.473 361.228 489.703 359.998 489.703 358.482C489.703 356.965 488.473 355.736 486.957 355.736C485.44 355.736 484.211 356.965 484.211 358.482C484.211 359.998 485.44 361.228 486.957 361.228Z" fill="#CC4F83"/>
<path d="M293.23 353.723C294.747 353.723 295.976 352.493 295.976 350.977C295.976 349.46 294.747 348.231 293.23 348.231C291.714 348.231 290.484 349.46 290.484 350.977C290.484 352.493 291.714 353.723 293.23 353.723Z" fill="#5E6294"/>
<path d="M306.41 441.594C307.927 441.594 309.156 440.365 309.156 438.848C309.156 437.331 307.927 436.102 306.41 436.102C304.894 436.102 303.665 437.331 303.665 438.848C303.665 440.365 304.894 441.594 306.41 441.594Z" fill="#CC4F83"/>
<path d="M528.801 452.524C530.318 452.524 531.547 451.295 531.547 449.778C531.547 448.262 530.318 447.032 528.801 447.032C527.285 447.032 526.055 448.262 526.055 449.778C526.055 451.295 527.285 452.524 528.801 452.524Z" fill="#5E6294"/>
<path d="M562.85 372.343C564.366 372.343 565.596 371.114 565.596 369.597C565.596 368.08 564.366 366.851 562.85 366.851C561.333 366.851 560.104 368.08 560.104 369.597C560.104 371.114 561.333 372.343 562.85 372.343Z" fill="#5E6294"/>
<path opacity="0.9" fill-rule="evenodd" clip-rule="evenodd" d="M357.534 555.426V180.256H470.792V555.426H357.534Z" fill="url(#paint6_linear_218_787)"/>
<path opacity="0.9" d="M415.596 302.17V474.093" stroke="url(#paint7_linear_218_787)" stroke-width="12" stroke-linecap="round"/>
<path opacity="0.9" d="M427.596 269.029V443.023" stroke="url(#paint8_linear_218_787)" stroke-width="12" stroke-linecap="round"/>
<path opacity="0.9" d="M403.596 250.387V422.309" stroke="url(#paint9_linear_218_787)" stroke-width="12" stroke-linecap="round"/>
<path opacity="0.2" d="M414.58 285.743C475.865 285.743 525.545 236.062 525.545 174.778C525.545 113.494 475.865 63.813 414.58 63.813C353.296 63.813 303.615 113.494 303.615 174.778C303.615 236.062 353.296 285.743 414.58 285.743Z" fill="url(#paint10_linear_218_787)"/>
<path opacity="0.14" fill-rule="evenodd" clip-rule="evenodd" d="M414.58 313.303C491.085 313.303 553.105 251.283 553.105 174.778C553.105 98.2727 491.085 36.2529 414.58 36.2529C338.074 36.2529 276.055 98.2727 276.055 174.778C276.055 251.283 338.074 313.303 414.58 313.303ZM414.58 285.743C475.864 285.743 525.545 236.062 525.545 174.778C525.545 113.494 475.864 63.8128 414.58 63.8128C353.295 63.8128 303.615 113.494 303.615 174.778C303.615 236.062 353.295 285.743 414.58 285.743Z" fill="#5E6294"/>
<path d="M351.17 232.918C335.991 226.343 325.372 211.229 325.372 193.634C325.372 177.182 334.656 162.899 348.271 155.738C347.327 118.127 377.57 87.0205 415.305 87.0205C453.04 87.0205 483.283 118.127 482.339 155.738C495.953 162.899 505.237 177.182 505.237 193.634C505.237 211.229 494.618 226.343 479.439 232.918L476.962 298.748C477.671 315.788 482.809 317.201 502.138 322.516C504.003 323.029 506 323.578 508.138 324.181C492.217 327.82 482.216 328.321 475.92 326.421L474.776 356.818C472.223 385.548 472.479 385.615 491.872 390.662C494.508 391.348 497.499 392.126 500.885 393.081C459.129 402.625 458.585 383.713 458.094 366.61C457.996 363.193 457.899 359.849 457.477 356.818H455.921C455.828 357.969 455.736 359.086 455.648 360.172L455.646 360.199C453.698 384.119 453.029 392.328 456.785 395.949C458.747 397.841 461.917 398.479 466.744 399.452C471.791 400.468 478.649 401.85 487.831 405.41C438.594 412.266 438.632 396.627 438.696 370C438.706 365.857 438.716 361.449 438.542 356.818H437.064C434.782 408.147 437.434 408.797 454.894 413.081C459.637 414.244 465.473 415.676 472.601 418.465C422.425 424.04 420.417 409.782 417.325 387.817C416.777 383.926 416.195 379.793 415.305 375.485C414.415 379.793 413.833 383.925 413.285 387.816C410.192 409.781 408.185 424.04 358.009 418.465C365.137 415.676 370.973 414.244 375.716 413.081C393.176 408.797 395.828 408.147 393.546 356.818H392.068C391.894 361.449 391.904 365.857 391.914 370C391.978 396.627 392.016 412.266 342.779 405.41C351.96 401.85 358.818 400.468 363.866 399.452C368.693 398.479 371.863 397.841 373.825 395.949C377.581 392.328 376.912 384.119 374.964 360.199C374.875 359.106 374.783 357.979 374.689 356.818H373.133C372.711 359.849 372.614 363.193 372.516 366.61C372.025 383.713 371.481 402.625 329.725 393.081C333.111 392.126 336.101 391.348 338.738 390.662C358.131 385.615 358.387 385.548 355.833 356.818L354.689 326.421C348.394 328.321 338.393 327.82 322.471 324.181C324.609 323.578 326.607 323.029 328.472 322.516C347.801 317.201 352.938 315.788 353.648 298.748L351.17 232.918Z" fill="#EF7B4D"/>
<path d="M365.987 226.272C383.611 226.272 397.899 211.984 397.899 194.36C397.899 176.736 383.611 162.449 365.987 162.449C348.363 162.449 334.076 176.736 334.076 194.36C334.076 211.984 348.363 226.272 365.987 226.272Z" fill="#FEFEFE"/>
<path d="M365.262 200.161C371.27 200.161 376.141 195.29 376.141 189.282C376.141 183.274 371.27 178.403 365.262 178.403C359.254 178.403 354.383 183.274 354.383 189.282C354.383 195.29 359.254 200.161 365.262 200.161Z" fill="black"/>
<path d="M460.271 226.272C477.895 226.272 492.182 211.984 492.182 194.36C492.182 176.736 477.895 162.449 460.271 162.449C442.647 162.449 428.359 176.736 428.359 194.36C428.359 211.984 442.647 226.272 460.271 226.272Z" fill="#FEFEFE"/>
<path d="M459.546 200.161C465.554 200.161 470.425 195.29 470.425 189.282C470.425 183.274 465.554 178.403 459.546 178.403C453.538 178.403 448.667 183.274 448.667 189.282C448.667 195.29 453.538 200.161 459.546 200.161Z" fill="black"/>
<path d="M390.646 253.831C390.646 253.831 402.25 265.435 415.305 265.435C428.36 265.435 439.964 253.831 439.964 253.831V268.336C439.964 281.955 428.924 292.995 415.305 292.995C401.686 292.995 390.646 281.955 390.646 268.336V253.831Z" fill="#FAFAFA"/>
<path d="M390.646 265.435C390.646 265.435 402.25 277.039 415.305 277.039C428.36 277.039 439.964 265.435 439.964 265.435V268.336C439.964 281.955 428.924 292.995 415.305 292.995C401.686 292.995 390.646 281.955 390.646 268.336V265.435Z" fill="#202124"/>
<path opacity="0.16" d="M322.446 244.163C308.021 224.999 299.431 201.187 299.324 175.357C299.153 133.731 321.059 97.1646 354.039 76.7539" stroke="#5E6294" stroke-width="8.70314" stroke-linecap="round"/>
<path opacity="0.45" d="M368.888 72.5158C372.092 72.5158 374.69 69.9181 374.69 66.7137C374.69 63.5093 372.092 60.9116 368.888 60.9116C365.684 60.9116 363.086 63.5093 363.086 66.7137C363.086 69.9181 365.684 72.5158 368.888 72.5158Z" fill="#5E6294"/>
<path d="M270.253 142.141H268.802C265.598 142.141 263 144.739 263 147.943V203.063C263 206.268 265.598 208.865 268.802 208.865H270.253C273.457 208.865 276.055 206.268 276.055 203.063V147.943C276.055 144.739 273.457 142.141 270.253 142.141Z" fill="#5E6294"/>
<path d="M560.358 142.141H558.907C555.703 142.141 553.105 144.739 553.105 147.943V203.063C553.105 206.268 555.703 208.865 558.907 208.865H560.358C563.562 208.865 566.16 206.268 566.16 203.063V147.943C566.16 144.739 563.562 142.141 560.358 142.141Z" fill="#5E6294"/>
<path fill-rule="evenodd" clip-rule="evenodd" d="M414.58 320.555C495.091 320.555 560.357 255.288 560.357 174.778C560.357 94.2669 495.091 29 414.58 29C334.069 29 268.802 94.2669 268.802 174.778C268.802 255.288 334.069 320.555 414.58 320.555ZM414.58 313.303C491.085 313.303 553.105 251.283 553.105 174.778C553.105 98.2725 491.085 36.2527 414.58 36.2527C338.075 36.2527 276.055 98.2725 276.055 174.778C276.055 251.283 338.075 313.303 414.58 313.303Z" fill="#5E6294" fill-opacity="0.2"/>
<path d="M399.997 119.791C398.539 126.613 392.615 131.13 386.765 129.88C380.914 128.63 377.163 123.168 378.621 116.346C380.079 109.524 388.995 102.276 394.845 103.526C400.696 104.777 401.455 112.968 399.997 119.791Z" fill="#F77F4F"/>
<defs>
<linearGradient id="paint0_linear_218_787" x1="-nan" y1="-nan" x2="-nan" y2="-nan" gradientUnits="userSpaceOnUse">
<stop stop-color="#EB5795"/>
<stop offset="1" stop-color="#EB5795" stop-opacity="0"/>
</linearGradient>
<linearGradient id="paint1_linear_218_787" x1="-nan" y1="-nan" x2="-nan" y2="-nan" gradientUnits="userSpaceOnUse">
<stop stop-color="#EB5795"/>
<stop offset="1" stop-color="#EB5795" stop-opacity="0"/>
</linearGradient>
<linearGradient id="paint2_linear_218_787" x1="-nan" y1="-nan" x2="-nan" y2="-nan" gradientUnits="userSpaceOnUse">
<stop stop-color="#5E6294"/>
<stop offset="1" stop-color="#5E6294" stop-opacity="0"/>
</linearGradient>
<linearGradient id="paint3_linear_218_787" x1="-nan" y1="-nan" x2="-nan" y2="-nan" gradientUnits="userSpaceOnUse">
<stop stop-color="#5E6294"/>
<stop offset="1" stop-color="#5E6294" stop-opacity="0"/>
</linearGradient>
<linearGradient id="paint4_linear_218_787" x1="-nan" y1="-nan" x2="-nan" y2="-nan" gradientUnits="userSpaceOnUse">
<stop stop-color="#5E6294"/>
<stop offset="1" stop-color="#5E6294" stop-opacity="0"/>
</linearGradient>
<linearGradient id="paint5_linear_218_787" x1="-nan" y1="-nan" x2="-nan" y2="-nan" gradientUnits="userSpaceOnUse">
<stop stop-color="#5E6294"/>
<stop offset="1" stop-color="#5E6294" stop-opacity="0"/>
</linearGradient>
<linearGradient id="paint6_linear_218_787" x1="470.792" y1="-184.909" x2="470.792" y2="544.808" gradientUnits="userSpaceOnUse">
<stop stop-color="#EB5795"/>
<stop offset="1" stop-color="#EB5795" stop-opacity="0"/>
</linearGradient>
<linearGradient id="paint7_linear_218_787" x1="-nan" y1="-nan" x2="-nan" y2="-nan" gradientUnits="userSpaceOnUse">
<stop stop-color="#EB5795"/>
<stop offset="1" stop-color="#EB5795" stop-opacity="0"/>
</linearGradient>
<linearGradient id="paint8_linear_218_787" x1="-nan" y1="-nan" x2="-nan" y2="-nan" gradientUnits="userSpaceOnUse">
<stop stop-color="#EB5795"/>
<stop offset="1" stop-color="#EB5795" stop-opacity="0"/>
</linearGradient>
<linearGradient id="paint9_linear_218_787" x1="-nan" y1="-nan" x2="-nan" y2="-nan" gradientUnits="userSpaceOnUse">
<stop stop-color="#EB5795"/>
<stop offset="1" stop-color="#EB5795" stop-opacity="0"/>
</linearGradient>
<linearGradient id="paint10_linear_218_787" x1="414.58" y1="63.8125" x2="478.287" y2="282.731" gradientUnits="userSpaceOnUse">
<stop stop-color="#5E6294"/>
<stop offset="1" stop-color="#878BB2"/>
</linearGradient>
</defs>
</svg>
