<?xml version="1.0" encoding="iso-8859-1"?>
<!-- Generator: Adobe Illustrator 19.0.0, SVG Export Plug-In . SVG Version: 6.00 Build 0)  -->
<svg version="1.1" id="Layer_1" xmlns="http://www.w3.org/2000/svg" xmlns:xlink="http://www.w3.org/1999/xlink" x="0px" y="0px"
	viewBox="0 0 512 512" style="enable-background:new 0 0 512 512;" xml:space="preserve">
	<g transform="translate(1 1)">
		<g>
			<g>
				<path d="M58.733,24.6C39.96,24.6,24.6,39.96,24.6,58.733s15.36,34.133,34.133,34.133s34.133-15.36,34.133-34.133
				S77.507,24.6,58.733,24.6z M58.733,75.8c-9.387,0-17.067-7.68-17.067-17.067s7.68-17.067,17.067-17.067S75.8,49.347,75.8,58.733
				S68.12,75.8,58.733,75.8z" />
				<path d="M135.533,24.6c-18.773,0-34.133,15.36-34.133,34.133s15.36,34.133,34.133,34.133c18.773,0,34.133-15.36,34.133-34.133
				S154.307,24.6,135.533,24.6z M135.533,75.8c-9.387,0-17.067-7.68-17.067-17.067s7.68-17.067,17.067-17.067
				s17.067,7.68,17.067,17.067S144.92,75.8,135.533,75.8z" />
				<path d="M212.333,24.6c-18.773,0-34.133,15.36-34.133,34.133s15.36,34.133,34.133,34.133c18.773,0,34.133-15.36,34.133-34.133
				S231.107,24.6,212.333,24.6z M212.333,75.8c-9.387,0-17.067-7.68-17.067-17.067s7.68-17.067,17.067-17.067
				c9.387,0,17.067,7.68,17.067,17.067S221.72,75.8,212.333,75.8z" />
				<path d="M487.107-1H23.747C10.093-1-1,10.093-1,23.747V101.4v17.067v365.227C-1,499.053,10.947,511,26.307,511h457.387
				c15.36,0,27.307-11.947,27.307-27.307V118.467V101.4V23.747C511,10.093,499.907-1,487.107-1z M493.933,483.693
				c0,5.973-4.267,10.24-10.24,10.24H26.307c-5.973,0-10.24-4.267-10.24-10.24V118.467h477.867V483.693z M16.067,101.4V23.747
				c0-4.267,3.413-7.68,7.68-7.68h462.507c4.267,0,7.68,3.413,7.68,7.68V101.4H16.067z" />
				<path d="M260.12,236.227l45.227-41.813c9.387-9.387,22.187-14.507,34.987-14.507c13.653,0,25.6,5.12,34.987,14.507
				c18.773,18.773,18.773,50.347,0,69.12l-63.147,63.147c-18.773,18.773-50.347,18.773-69.12,0c-3.413-3.413-8.533-3.413-11.947,0
				s-3.413,8.533,0,11.947c12.8,12.8,29.867,19.627,46.933,19.627c17.067,0,34.133-6.827,46.933-18.773l63.147-63.147
				c25.6-26.453,25.6-68.267,0-93.867c-12.8-12.8-29.013-19.627-46.933-19.627c-17.92,0-34.987,6.827-46.933,18.773l-45.227,41.813
				c-3.413,3.413-4.267,8.533-0.853,11.947S256.707,239.64,260.12,236.227z" />
				<path d="M189.293,447c17.067,0,33.28-6.827,46.933-19.627l41.813-38.4c3.413-3.413,4.267-8.533,0.853-11.947
				s-8.533-4.267-11.947-0.853l-42.667,38.4c-18.773,18.773-50.347,18.773-69.12,0c-18.773-18.773-18.773-50.347,0-69.12
				l58.88-59.733c18.773-18.773,50.347-18.773,69.12,0c3.413,3.413,8.533,3.413,11.947,0c3.413-3.413,3.413-8.533,0-11.947
				c-26.453-25.6-68.267-25.6-93.867,0l-58.88,59.733c-25.6,26.453-25.6,68.267,0,93.867C155.16,440.173,172.227,447,189.293,447z"
				/>
			</g>
		</g>
	</g>
</svg>