<svg width="304" height="49" viewBox="0 0 304 49" fill="none" xmlns="http://www.w3.org/2000/svg">
<g clip-path="url(#clip0_245_10094)">
<path d="M72.2047 20.9747C73.371 20.9975 74.5259 20.7474 75.5745 20.245C76.6229 19.7426 77.5349 19.0025 78.235 18.0856L81.4762 21.3452C78.9134 24.1602 75.9737 25.5677 72.5063 25.5677C70.9449 25.6294 69.387 25.3817 67.925 24.8396C66.463 24.2974 65.1268 23.4718 63.9961 22.4119C62.8965 21.3709 62.0327 20.1137 61.4612 18.7222C60.8897 17.3308 60.6234 15.8366 60.6794 14.3371C60.6365 12.8216 60.9161 11.3139 61.5001 9.91071C62.0842 8.50748 62.9601 7.23959 64.0715 6.18818C65.2669 5.07969 66.6785 4.22073 68.221 3.66316C69.7634 3.1056 71.4049 2.86097 73.0463 2.94405C74.6876 3.02713 76.2948 3.43619 77.7709 4.14655C79.247 4.8569 80.5613 5.85383 81.6345 7.07715L78.5441 10.559C77.8632 9.65803 76.9763 8.92711 75.955 8.42523C74.9335 7.92333 73.8064 7.66456 72.6646 7.66979C70.8846 7.63614 69.1589 8.27215 67.8403 9.44775C67.1561 10.0655 66.619 10.8239 66.2672 11.6691C65.9154 12.5141 65.7576 13.4252 65.8051 14.3371C65.7575 15.2471 65.9001 16.1569 66.2243 17.0106C66.5483 17.8643 67.047 18.6437 67.6896 19.3005C68.9323 20.3878 70.5408 20.9843 72.2047 20.9747Z" fill="black"/>
<path d="M85.4036 25.2711V3.26904H90.3786V20.9299H99.9515V25.3007L85.4036 25.2711Z" fill="black"/>
<path d="M121.812 22.2337C119.546 24.3277 116.554 25.4937 113.444 25.4937C110.335 25.4937 107.342 24.3277 105.077 22.2337C103.973 21.1929 103.101 19.9373 102.517 18.5471C101.933 17.157 101.65 15.6625 101.685 14.1589C101.642 12.6545 101.923 11.158 102.507 9.76678C103.091 8.37561 103.967 7.12086 105.077 6.0841C107.342 3.99012 110.335 2.82422 113.444 2.82422C116.554 2.82422 119.546 3.99012 121.812 6.0841C122.916 7.12507 123.788 8.38059 124.371 9.77077C124.955 11.1609 125.238 12.6553 125.203 14.1589C125.246 15.6634 124.966 17.1599 124.381 18.5511C123.797 19.9422 122.921 21.197 121.812 22.2337ZM120.077 14.1589C120.091 12.2974 119.392 10.4989 118.118 9.12143C117.518 8.46866 116.785 7.94686 115.967 7.58974C115.149 7.2326 114.264 7.04807 113.369 7.04807C112.474 7.04807 111.588 7.2326 110.771 7.58974C109.953 7.94686 109.22 8.46866 108.62 9.12143C107.331 10.4902 106.629 12.2944 106.66 14.1589C106.646 16.0204 107.346 17.819 108.62 19.1965C109.22 19.8491 109.953 20.371 110.771 20.7281C111.588 21.0853 112.474 21.2698 113.369 21.2698C114.264 21.2698 115.149 21.0853 115.967 20.7281C116.785 20.371 117.518 19.8491 118.118 19.1965C118.77 18.5282 119.28 17.7381 119.617 16.8729C119.953 16.0075 120.11 15.0848 120.077 14.1589Z" fill="black"/>
<path d="M135.38 19.641C135.777 20.1477 136.293 20.5534 136.883 20.824C137.473 21.0948 138.121 21.2225 138.771 21.1968C139.412 21.2302 140.052 21.1054 140.631 20.8337C141.211 20.5619 141.712 20.152 142.088 19.641C142.953 18.4311 143.379 16.9694 143.294 15.4926V3.34326H148.269V15.6407C148.269 18.8262 147.365 21.2709 145.555 22.9748C144.645 23.8331 143.568 24.5044 142.391 24.9496C141.213 25.3949 139.957 25.6048 138.696 25.5676C137.423 25.605 136.156 25.3951 134.965 24.9502C133.776 24.5053 132.686 23.834 131.761 22.9748C129.952 21.2709 129.048 18.8262 129.048 15.6407V3.34326H134.015V15.4926C134.015 16.9818 134.493 18.4332 135.38 19.641Z" fill="black"/>
<path d="M170.581 6.15821C172.692 8.08431 173.822 10.7512 173.822 14.159C173.822 17.5667 172.767 20.3077 170.731 22.3079C168.696 24.3081 165.455 25.2711 161.234 25.2711H153.47V3.26904H161.385C165.38 3.26904 168.471 4.2321 170.581 6.15821ZM166.963 19.2705C168.169 18.1593 168.771 16.4555 168.771 14.3071C168.771 12.1588 168.169 10.4549 166.963 9.34368C165.757 8.23247 163.872 7.56574 161.31 7.56574H158.52V20.9744H161.687C163.6 21.0746 165.482 20.4667 166.963 19.2705Z" fill="black"/>
<path d="M202.24 3.26904H207.215V25.2711H202.24L191.536 11.492V25.2711H186.561V3.26904H191.234L202.24 17.4186V3.26904Z" fill="black"/>
<path d="M228.697 25.2711L226.587 20.53H217.164L215.055 25.2711H209.702L219.351 3.26904H224.175L233.823 25.2711H228.697ZM221.988 9.86225L219.2 16.2333H224.778L221.988 9.86225Z" fill="black"/>
<path d="M244.527 7.59566V25.3751H239.545V7.59566H233.212V3.37305H250.926V7.59566H244.527Z" fill="black"/>
<path d="M254.476 3.26904H259.452V25.2711H254.476V3.26904Z" fill="black"/>
<path d="M273.246 17.2704L278.975 3.26904H284.402L275.431 25.2711H271.203L262.233 3.26904H267.66L273.246 17.2704Z" fill="black"/>
<path d="M303.171 3.26904V7.63983H292.015V12.1588H302.04V16.3814H292.015V20.9744H303.548V25.3748H287.032V3.34313H303.163L303.171 3.26904Z" fill="black"/>
<path d="M66.4836 44.0136C67.14 44.0259 67.7899 43.8844 68.3797 43.6011C68.9694 43.3177 69.4822 42.9005 69.8756 42.3838L71.6846 44.2359C71.0704 44.97 70.3 45.5628 69.4272 45.9723C68.5546 46.3819 67.6013 46.5984 66.6342 46.6065C65.7613 46.6431 64.8899 46.5044 64.0733 46.1987C63.2568 45.893 62.5123 45.4268 61.8855 44.8285C61.2653 44.248 60.777 43.5454 60.4523 42.7667C60.1275 41.988 59.9738 41.1507 60.0009 40.3095C59.9735 39.4574 60.1268 38.6088 60.4512 37.8181C60.7757 37.0273 61.2641 36.3116 61.8855 35.7165C62.4953 35.1117 63.2243 34.6354 64.0278 34.317C64.8315 33.9985 65.6927 33.8445 66.559 33.8645C67.5442 33.8493 68.5206 34.0473 69.4193 34.4441C70.3182 34.841 71.1172 35.4271 71.76 36.161L70.0263 38.0871C69.6482 37.5727 69.1491 37.1558 68.5715 36.872C67.9941 36.5882 67.3552 36.446 66.7096 36.4573C65.7037 36.4509 64.7332 36.8218 63.996 37.4944C63.6136 37.8411 63.3138 38.2667 63.1184 38.7405C62.9229 39.2145 62.8365 39.7249 62.8653 40.2355C62.8422 40.7388 62.924 41.2416 63.1054 41.7128C63.2869 42.1842 63.5643 42.6142 63.9207 42.9764C64.2461 43.3211 64.6439 43.5924 65.0863 43.7715C65.5288 43.9504 66.0054 44.0331 66.4836 44.0136Z" fill="black"/>
<path d="M84.1221 44.7544C82.8701 45.9478 81.1927 46.6125 79.4486 46.6064C78.5815 46.6335 77.7181 46.4828 76.9135 46.1639C76.1089 45.845 75.3806 45.365 74.7752 44.7544C73.5672 43.5499 72.8901 41.9266 72.8901 40.2354C72.8901 38.5443 73.5672 36.9209 74.7752 35.7165C76.0272 34.5231 77.7045 33.8583 79.4486 33.8644C80.3158 33.8374 81.1791 33.9881 81.9836 34.307C82.7883 34.6258 83.5165 35.1058 84.1221 35.7165C85.3299 36.9209 86.0071 38.5443 86.0071 40.2354C86.0071 41.9266 85.3299 43.5499 84.1221 44.7544ZM83.2175 40.2354C83.2383 39.2 82.8616 38.1949 82.1623 37.4204C81.8297 37.0542 81.4237 36.7598 80.9695 36.5559C80.5154 36.3518 80.0232 36.2426 79.524 36.235C79.0208 36.2183 78.5206 36.3165 78.0628 36.5222C77.6049 36.728 77.202 37.0353 76.8858 37.4204C76.5246 37.7946 76.245 38.2372 76.0635 38.7212C75.8821 39.2052 75.8028 39.7204 75.8304 40.2354C75.8232 41.2684 76.1983 42.2689 76.8858 43.0505C77.2182 43.4166 77.6243 43.711 78.0784 43.9149C78.5325 44.119 79.0247 44.2283 79.524 44.2358C80.0271 44.2527 80.5273 44.1543 80.9852 43.9486C81.443 43.7429 81.846 43.4355 82.1623 43.0505C82.8616 42.2759 83.2383 41.2708 83.2175 40.2354Z" fill="black"/>
<path d="M99.6499 38.7096L96.258 45.451H94.5996L91.2076 38.7096V46.4881H88.4187V34.0869H92.1876L95.4288 40.8283L98.6701 34.0869H102.439V46.4584H99.6499V38.7096Z" fill="black"/>
<path d="M114.198 35.2722C114.674 35.7005 115.044 36.2303 115.279 36.8211C115.515 37.4118 115.609 38.0477 115.555 38.6799C115.555 40.2357 115.103 41.3469 114.198 42.0135C113.293 42.7544 111.937 43.0507 110.052 43.0507H108.386V46.4584H105.597V34.0869H110.045C111.937 34.161 113.293 34.5313 114.198 35.2722ZM112.163 40.0875C112.527 39.6216 112.714 39.0449 112.69 38.4577C112.723 38.1736 112.677 37.8861 112.558 37.6254C112.439 37.3648 112.25 37.1405 112.012 36.9761C111.391 36.6393 110.685 36.485 109.977 36.5315H108.386V40.6801H110.271C110.609 40.7094 110.95 40.672 111.274 40.5703C111.597 40.4685 111.897 40.3044 112.155 40.0875H112.163Z" fill="black"/>
<path d="M121.057 43.2728C121.283 43.5507 121.57 43.7751 121.897 43.9293C122.223 44.0835 122.58 44.1637 122.941 44.1637C123.304 44.1637 123.661 44.0835 123.987 43.9293C124.313 43.7751 124.6 43.5507 124.826 43.2728C125.317 42.58 125.556 41.7449 125.505 40.9022V34.0867H128.294V40.9763C128.337 41.7317 128.226 42.4879 127.967 43.2004C127.708 43.9129 127.307 44.5672 126.786 45.1248C125.72 46.044 124.346 46.5447 122.928 46.531C121.509 46.5174 120.145 45.9903 119.097 45.0507C118.577 44.4932 118.176 43.8388 117.917 43.1263C117.658 42.4139 117.547 41.6576 117.59 40.9022V34.0127H120.379V40.8281C120.305 41.696 120.546 42.5616 121.057 43.2728Z" fill="black"/>
<path d="M136.509 36.5318V46.4587H133.721V36.5318H130.178V34.1611H140.128V36.5318H136.509Z" fill="black"/>
<path d="M142.163 34.1611H144.952V46.5327H142.163V34.1611Z" fill="black"/>
<path d="M156.786 34.1611H159.576V46.5327H156.786L150.832 38.8283V46.5327H148.043V34.1611H150.681L156.862 42.0879V34.1611H156.786Z" fill="black"/>
<path d="M170.882 40.2359H173.672V44.6362C173.005 45.3267 172.197 45.869 171.299 46.2268C170.402 46.5845 169.438 46.7495 168.471 46.7105C166.736 46.7437 165.056 46.1051 163.796 44.9325C163.176 44.3521 162.689 43.6496 162.364 42.8708C162.039 42.0921 161.885 41.2548 161.913 40.4136C161.896 39.5691 162.053 38.73 162.371 37.9457C162.69 37.1615 163.167 36.448 163.771 35.8473C164.374 35.2467 165.095 34.7709 165.889 34.4482C166.683 34.1256 167.536 33.9625 168.395 33.9685C170.129 33.9354 171.809 34.574 173.068 35.7465L171.636 37.8208C171.202 37.3703 170.657 37.0385 170.053 36.8577C169.57 36.6813 169.061 36.5812 168.546 36.5613C167.539 36.5549 166.569 36.9258 165.832 37.5986C165.453 37.9631 165.156 38.4023 164.96 38.8874C164.766 39.3725 164.678 39.8926 164.701 40.4136C164.667 41.4512 165.045 42.4612 165.757 43.2287C166.078 43.5588 166.464 43.8211 166.891 43.9993C167.319 44.1777 167.779 44.2683 168.245 44.2659C169.081 44.3131 169.915 44.1337 170.656 43.7472V40.2655L170.882 40.2359Z" fill="black"/>
<path d="M189.5 34.1611V36.6059H183.696V39.2728H189.199V41.7174H183.696V46.5327H180.908V34.1611H189.5Z" fill="black"/>
<path d="M202.465 44.7544C201.214 45.9478 199.536 46.6125 197.792 46.6064C196.925 46.6335 196.062 46.4828 195.257 46.1639C194.453 45.845 193.725 45.365 193.119 44.7544C191.91 43.5499 191.233 41.9266 191.233 40.2354C191.233 38.5443 191.91 36.9209 193.119 35.7165C194.37 34.5231 196.049 33.8583 197.792 33.8644C198.659 33.8374 199.523 33.9881 200.328 34.307C201.131 34.6258 201.86 35.1058 202.465 35.7165C203.674 36.9209 204.35 38.5443 204.35 40.2354C204.35 41.9266 203.674 43.5499 202.465 44.7544ZM201.485 40.2354C201.507 39.2 201.13 38.1949 200.431 37.4204C200.098 37.0542 199.692 36.7598 199.238 36.5559C198.783 36.3518 198.292 36.2426 197.792 36.235C197.289 36.2183 196.789 36.3165 196.331 36.5222C195.873 36.728 195.47 37.0353 195.154 37.4204C194.792 37.7946 194.513 38.2372 194.332 38.7212C194.15 39.2052 194.071 39.7204 194.099 40.2354C194.092 41.2684 194.466 42.2689 195.154 43.0505C195.487 43.4166 195.893 43.711 196.346 43.9149C196.801 44.119 197.292 44.2283 197.792 44.2358C198.296 44.2527 198.795 44.1543 199.254 43.9486C199.711 43.7429 200.114 43.4355 200.431 43.0505C200.791 42.6762 201.072 42.2336 201.253 41.7496C201.434 41.2656 201.513 40.7505 201.485 40.2354Z" fill="black"/>
<path d="M210.079 43.2728C210.305 43.5507 210.592 43.7751 210.918 43.9293C211.244 44.0835 211.601 44.1637 211.963 44.1637C212.326 44.1637 212.683 44.0835 213.009 43.9293C213.335 43.7751 213.622 43.5507 213.848 43.2728C214.338 42.58 214.578 41.7449 214.527 40.9022V34.0867H217.315V40.9763C217.359 41.7317 217.247 42.4879 216.988 43.2004C216.729 43.9129 216.328 44.5672 215.807 45.1248C214.741 46.044 213.368 46.5447 211.949 46.531C210.531 46.5174 209.167 45.9903 208.12 45.0507C207.599 44.4932 207.197 43.8388 206.939 43.1263C206.68 42.4139 206.568 41.6576 206.612 40.9022V34.0127H209.393V40.8281C209.285 41.6999 209.531 42.5785 210.079 43.2728Z" fill="black"/>
<path d="M228.991 34.1611H231.781V46.5327H228.991L223.036 38.8283V46.5327H220.248V34.1611H222.886L229.066 42.0879V34.1611H228.991Z" fill="black"/>
<path d="M244.451 35.791C245.064 36.3734 245.542 37.0781 245.855 37.8576C246.167 38.6372 246.304 39.4733 246.261 40.3099C246.3 41.1395 246.167 41.9684 245.869 42.7456C245.571 43.5227 245.114 44.2316 244.527 44.8288C243.396 45.9401 241.586 46.5327 239.175 46.5327H234.878V34.1611H239.326C241.586 34.1611 243.32 34.6798 244.451 35.791ZM242.416 43.1249C242.772 42.7627 243.049 42.3327 243.232 41.8614C243.413 41.3901 243.494 40.8874 243.471 40.384C243.495 39.8693 243.414 39.3551 243.233 38.8717C243.052 38.3884 242.774 37.9454 242.416 37.569C241.979 37.2111 241.474 36.9418 240.931 36.7765C240.387 36.6113 239.816 36.5532 239.25 36.6059H237.667V44.088H239.477C240.538 44.1014 241.574 43.7621 242.416 43.1249Z" fill="black"/>
<path d="M257.266 46.4584L256.135 43.7915H250.858L249.728 46.4584H246.713L252.14 34.0869H254.854L260.281 46.4584H257.266ZM253.497 37.7909L251.914 41.3469H255.079L253.497 37.7909Z" fill="black"/>
<path d="M266.161 36.5318V46.4587H263.371V36.5318H259.753V34.1611H269.695V36.5318H266.161Z" fill="black"/>
<path d="M271.738 34.1611H274.527V46.5327H271.738V34.1611Z" fill="black"/>
<path d="M288.17 44.7544C286.919 45.9478 285.241 46.6125 283.497 46.6064C282.63 46.6335 281.767 46.4828 280.962 46.1639C280.158 45.845 279.43 45.365 278.824 44.7544C277.615 43.5499 276.939 41.9266 276.939 40.2354C276.939 38.5443 277.615 36.9209 278.824 35.7165C280.075 34.5231 281.753 33.8583 283.497 33.8644C284.364 33.8374 285.227 33.9881 286.032 34.307C286.837 34.6258 287.565 35.1058 288.17 35.7165C289.379 36.9209 290.056 38.5443 290.056 40.2354C290.056 41.9266 289.379 43.5499 288.17 44.7544ZM287.267 40.2354C287.287 39.2 286.91 38.1949 286.211 37.4204C285.878 37.0542 285.472 36.7598 285.018 36.5559C284.564 36.3518 284.072 36.2426 283.572 36.235C283.069 36.2183 282.569 36.3165 282.111 36.5222C281.654 36.728 281.251 37.0353 280.935 37.4204C280.574 37.7946 280.294 38.2372 280.112 38.7212C279.931 39.2052 279.852 39.7204 279.879 40.2354C279.872 41.2684 280.247 42.2689 280.935 43.0505C281.267 43.4166 281.673 43.711 282.127 43.9149C282.581 44.119 283.074 44.2283 283.572 44.2358C284.076 44.2527 284.576 44.1543 285.034 43.9486C285.491 43.7429 285.895 43.4355 286.211 43.0505C286.91 42.2759 287.287 41.2708 287.267 40.2354Z" fill="black"/>
<path d="M301.211 34.1611H304V46.5327H301.211L295.256 38.8283V46.5327H292.468V34.1611H295.105L301.286 42.0879L301.211 34.1611Z" fill="black"/>
<g opacity="0.8">
<path opacity="0.8" d="M30.7185 16.1548L21.688 7.07728H31.6068V0.231934H15.7664V7.07728L24.7969 16.1548H30.7185Z" fill="black"/>
<path opacity="0.8" d="M22.5762 32.0034H16.6545L24.1307 39.5184L25.6111 41.0809H15.7664V47.9263H31.6068V41.0066L27.0915 36.5422L22.5762 32.0034Z" fill="black"/>
<path opacity="0.8" d="M40.6375 16.1548V26.0508L39.0757 24.4882L31.5996 16.9732V23.0001L36.0409 27.4645L40.5562 32.0032H47.366V16.1548H40.6375Z" fill="black"/>
<path opacity="0.8" d="M15.7664 25.1579L6.80993 16.1548H0V32.0032H6.7359V22.1073L15.7664 31.1848V25.1579Z" fill="black"/>
<path d="M6.7359 32.0034H0V47.9263H15.7664V41.1107H6.7359V32.0034Z" fill="black"/>
<path d="M40.6376 32.0778V41.1107H31.6069V47.9561H47.3735V32.0034H40.5561L40.6376 32.0778Z" fill="black"/>
<path d="M0 16.1548H6.80993L6.7359 16.0804V7.07728H15.7664V0.231934H0V16.1548Z" fill="black"/>
<path d="M31.6069 0.231934V7.07728H40.6376V16.1548H47.3735V0.231934H31.6069Z" fill="black"/>
</g>
</g>
<defs>
<clipPath id="clip0_245_10094">
<rect width="304" height="49" fill="white"/>
</clipPath>
</defs>
</svg>
