<svg width="503" height="187" viewBox="0 0 503 187" fill="none" xmlns="http://www.w3.org/2000/svg">
<g clip-path="url(#clip0_252_21361)">
<ellipse cx="251.108" cy="71.5676" rx="36.0827" ry="4.86716" stroke="#FF8D4D" stroke-width="2.04725"/>
<path d="M215.024 126.886C215.024 129.545 231.179 131.7 251.107 131.7C271.035 131.7 287.19 129.545 287.19 126.886" stroke="#FF8D4D" stroke-width="2.04725"/>
<path d="M215.024 88.3671C215.024 91.0262 231.179 93.1819 251.107 93.1819C271.035 93.1819 287.19 91.0262 287.19 88.3671" stroke="#FF8D4D" stroke-width="2.04725"/>
<path d="M215.024 107.627C215.024 110.286 231.179 112.441 251.107 112.441C271.035 112.441 287.19 110.286 287.19 107.627" stroke="#FF8D4D" stroke-width="2.04725"/>
<path d="M215.025 71.6355V127.005M287.19 71.6355V127.005" stroke="#FF8D4D" stroke-width="2.04725"/>
<path d="M237.995 97.8459H239.631L242.475 104.79H242.58L245.424 97.8459H247.06V106.779H245.777V100.315H245.694L243.06 106.766H241.995L239.361 100.31H239.278V106.779H237.995V97.8459ZM250.864 106.928C250.44 106.928 250.056 106.849 249.713 106.692C249.37 106.532 249.098 106.301 248.897 105.998C248.699 105.696 248.601 105.325 248.601 104.886C248.601 104.508 248.673 104.197 248.819 103.953C248.964 103.708 249.16 103.515 249.408 103.373C249.655 103.23 249.931 103.122 250.236 103.05C250.542 102.977 250.853 102.922 251.17 102.884C251.571 102.837 251.897 102.8 252.147 102.771C252.397 102.739 252.579 102.688 252.692 102.618C252.806 102.548 252.862 102.435 252.862 102.278V102.247C252.862 101.866 252.755 101.571 252.539 101.362C252.327 101.152 252.01 101.048 251.589 101.048C251.149 101.048 250.803 101.145 250.55 101.34C250.3 101.532 250.127 101.746 250.031 101.981L248.806 101.702C248.951 101.295 249.163 100.966 249.442 100.716C249.724 100.463 250.049 100.28 250.415 100.166C250.782 100.05 251.167 99.992 251.571 99.992C251.839 99.992 252.122 100.024 252.422 100.088C252.724 100.149 253.006 100.262 253.268 100.428C253.533 100.594 253.749 100.831 253.918 101.139C254.087 101.445 254.171 101.841 254.171 102.33V106.779H252.897V105.863H252.845C252.76 106.032 252.634 106.198 252.465 106.361C252.297 106.523 252.08 106.659 251.815 106.766C251.551 106.874 251.234 106.928 250.864 106.928ZM251.148 105.881C251.509 105.881 251.817 105.809 252.073 105.667C252.332 105.524 252.528 105.338 252.662 105.109C252.798 104.876 252.867 104.627 252.867 104.363V103.499C252.82 103.546 252.73 103.589 252.596 103.63C252.465 103.668 252.316 103.701 252.147 103.73C251.978 103.756 251.814 103.781 251.654 103.804C251.494 103.825 251.36 103.842 251.253 103.857C251 103.889 250.768 103.943 250.559 104.018C250.353 104.094 250.187 104.203 250.062 104.345C249.94 104.485 249.879 104.671 249.879 104.904C249.879 105.226 249.998 105.471 250.236 105.636C250.475 105.799 250.779 105.881 251.148 105.881ZM255.908 106.779V100.079H257.212V106.779H255.908ZM256.567 99.0454C256.34 99.0454 256.145 98.9698 255.982 98.8186C255.822 98.6645 255.742 98.4813 255.742 98.269C255.742 98.0538 255.822 97.8706 255.982 97.7194C256.145 97.5652 256.34 97.4882 256.567 97.4882C256.794 97.4882 256.987 97.5652 257.147 97.7194C257.31 97.8706 257.391 98.0538 257.391 98.269C257.391 98.4813 257.31 98.6645 257.147 98.8186C256.987 98.9698 256.794 99.0454 256.567 99.0454ZM260.271 102.801V106.779H258.967V100.079H260.219V101.17H260.302C260.456 100.815 260.697 100.53 261.026 100.315C261.357 100.1 261.775 99.992 262.278 99.992C262.734 99.992 263.134 100.088 263.477 100.28C263.82 100.469 264.086 100.751 264.275 101.126C264.465 101.501 264.559 101.965 264.559 102.518V106.779H263.255V102.675C263.255 102.189 263.128 101.809 262.875 101.536C262.622 101.26 262.275 101.122 261.833 101.122C261.53 101.122 261.261 101.187 261.026 101.318C260.793 101.449 260.608 101.641 260.472 101.894C260.338 102.144 260.271 102.446 260.271 102.801Z" fill="#2F5DFF"/>
<ellipse cx="86.3044" cy="71.5676" rx="36.0827" ry="4.86716" stroke="#FF8D4D" stroke-width="2.04725"/>
<path d="M50.2217 126.886C50.2217 129.545 66.3765 131.7 86.3045 131.7C106.232 131.7 122.387 129.545 122.387 126.886" stroke="#FF8D4D" stroke-width="2.04725"/>
<path d="M50.2217 88.3671C50.2217 91.0262 66.3765 93.1819 86.3045 93.1819C106.232 93.1819 122.387 91.0262 122.387 88.3671" stroke="#FF8D4D" stroke-width="2.04725"/>
<path d="M50.2217 107.627C50.2217 110.286 66.3765 112.441 86.3045 112.441C106.232 112.441 122.387 110.286 122.387 107.627" stroke="#FF8D4D" stroke-width="2.04725"/>
<path d="M50.2217 71.6355V127.005M122.387 71.6355V127.005" stroke="#FF8D4D" stroke-width="2.04725"/>
<path d="M65.9862 106.779V97.8459H69.1705C69.8626 97.8459 70.437 97.9651 70.8935 98.2035C71.353 98.442 71.6961 98.7721 71.923 99.1937C72.1498 99.6125 72.2632 100.097 72.2632 100.646C72.2632 101.193 72.1483 101.674 71.9186 102.09C71.6918 102.503 71.3486 102.824 70.8892 103.054C70.4326 103.284 69.8583 103.399 69.1662 103.399H66.754V102.238H69.044C69.4802 102.238 69.835 102.176 70.1084 102.051C70.3846 101.926 70.5867 101.744 70.7147 101.506C70.8426 101.267 70.9066 100.981 70.9066 100.646C70.9066 100.309 70.8412 100.017 70.7103 99.7695C70.5824 99.5223 70.3803 99.3333 70.104 99.2024C69.8306 99.0687 69.4715 99.0018 69.0266 99.0018H67.3341V106.779H65.9862ZM70.3963 102.749L72.6034 106.779H71.068L68.9044 102.749H70.3963ZM76.6023 106.915C75.9422 106.915 75.3737 106.773 74.8968 106.491C74.4228 106.206 74.0564 105.807 73.7976 105.292C73.5416 104.774 73.4137 104.168 73.4137 103.473C73.4137 102.787 73.5416 102.182 73.7976 101.658C74.0564 101.135 74.417 100.726 74.8793 100.433C75.3446 100.139 75.8884 99.992 76.5107 99.992C76.8888 99.992 77.2552 100.054 77.61 100.18C77.9647 100.305 78.2832 100.501 78.5653 100.768C78.8473 101.036 79.0698 101.383 79.2326 101.811C79.3955 102.236 79.4769 102.752 79.4769 103.359V103.822H74.1509V102.845H78.1988C78.1988 102.502 78.1291 102.198 77.9895 101.933C77.8499 101.666 77.6536 101.455 77.4006 101.301C77.1505 101.146 76.8568 101.069 76.5195 101.069C76.1531 101.069 75.8332 101.16 75.5598 101.34C75.2894 101.517 75.08 101.75 74.9317 102.038C74.7863 102.323 74.7136 102.632 74.7136 102.967V103.73C74.7136 104.178 74.7921 104.559 74.9491 104.873C75.1091 105.187 75.3315 105.427 75.6165 105.593C75.9015 105.756 76.2345 105.837 76.6154 105.837C76.8626 105.837 77.088 105.802 77.2915 105.732C77.4951 105.66 77.671 105.552 77.8193 105.41C77.9677 105.267 78.0811 105.091 78.1596 104.882L79.394 105.104C79.2952 105.468 79.1178 105.786 78.8619 106.06C78.6089 106.33 78.2904 106.541 77.9066 106.692C77.5256 106.84 77.0909 106.915 76.6023 106.915ZM80.924 109.292V100.079H82.1977V101.165H82.3068C82.3824 101.026 82.4914 100.864 82.6339 100.681C82.7764 100.498 82.9742 100.338 83.2272 100.201C83.4802 100.062 83.8146 99.992 84.2304 99.992C84.7713 99.992 85.2541 100.129 85.6786 100.402C86.1032 100.675 86.4362 101.069 86.6775 101.584C86.9218 102.099 87.044 102.718 87.044 103.442C87.044 104.166 86.9233 104.787 86.6819 105.305C86.4405 105.82 86.109 106.217 85.6874 106.496C85.2657 106.772 84.7844 106.91 84.2435 106.91C83.8364 106.91 83.5034 106.842 83.2446 106.705C82.9887 106.568 82.7881 106.409 82.6427 106.225C82.4973 106.042 82.3853 105.879 82.3068 105.737H82.2283V109.292H80.924ZM82.2021 103.429C82.2021 103.9 82.2704 104.313 82.4071 104.668C82.5438 105.023 82.7415 105.301 83.0004 105.501C83.2592 105.699 83.5761 105.798 83.9513 105.798C84.3409 105.798 84.6666 105.695 84.9284 105.488C85.1901 105.279 85.3878 104.995 85.5216 104.638C85.6583 104.28 85.7266 103.877 85.7266 103.429C85.7266 102.987 85.6597 102.59 85.526 102.238C85.3951 101.887 85.1974 101.609 84.9327 101.405C84.671 101.202 84.3439 101.1 83.9513 101.1C83.5732 101.1 83.2533 101.197 82.9916 101.392C82.7328 101.587 82.5365 101.859 82.4028 102.208C82.269 102.557 82.2021 102.964 82.2021 103.429ZM89.8095 97.8459V106.779H88.5052V97.8459H89.8095ZM91.5641 106.779V100.079H92.8684V106.779H91.5641ZM92.2228 99.0454C91.9959 99.0454 91.8011 98.9698 91.6383 98.8186C91.4783 98.6645 91.3984 98.4813 91.3984 98.269C91.3984 98.0538 91.4783 97.8706 91.6383 97.7194C91.8011 97.5652 91.9959 97.4882 92.2228 97.4882C92.4496 97.4882 92.643 97.5652 92.8029 97.7194C92.9658 97.8706 93.0472 98.0538 93.0472 98.269C93.0472 98.4813 92.9658 98.6645 92.8029 98.8186C92.643 98.9698 92.4496 99.0454 92.2228 99.0454ZM97.4452 106.915C96.7967 106.915 96.2384 106.768 95.7702 106.474C95.3049 106.177 94.9472 105.769 94.6971 105.248C94.447 104.728 94.322 104.132 94.322 103.46C94.322 102.779 94.45 102.179 94.7059 101.658C94.9618 101.135 95.3224 100.726 95.7876 100.433C96.2529 100.139 96.8011 99.992 97.4321 99.992C97.941 99.992 98.3947 100.086 98.7931 100.276C99.1915 100.462 99.5128 100.723 99.7571 101.061C100.004 101.398 100.151 101.792 100.198 102.243H98.9283C98.8585 101.929 98.6986 101.658 98.4485 101.431C98.2013 101.205 97.8698 101.091 97.4539 101.091C97.0904 101.091 96.772 101.187 96.4987 101.379C96.2282 101.568 96.0174 101.839 95.8662 102.19C95.7149 102.539 95.6393 102.952 95.6393 103.429C95.6393 103.918 95.7135 104.339 95.8618 104.694C96.0101 105.049 96.2195 105.324 96.4899 105.519C96.7633 105.714 97.0846 105.811 97.4539 105.811C97.7011 105.811 97.925 105.766 98.1257 105.676C98.3293 105.583 98.4994 105.45 98.6361 105.279C98.7756 105.107 98.8731 104.901 98.9283 104.659H100.198C100.151 105.093 100.01 105.479 99.7745 105.82C99.539 106.16 99.2235 106.427 98.828 106.622C98.4354 106.817 97.9745 106.915 97.4452 106.915ZM103.542 106.928C103.118 106.928 102.734 106.849 102.391 106.692C102.048 106.532 101.776 106.301 101.575 105.998C101.377 105.696 101.278 105.325 101.278 104.886C101.278 104.508 101.351 104.197 101.496 103.953C101.642 103.708 101.838 103.515 102.085 103.373C102.333 103.23 102.609 103.122 102.914 103.05C103.219 102.977 103.531 102.922 103.848 102.884C104.249 102.837 104.575 102.8 104.825 102.771C105.075 102.739 105.257 102.688 105.37 102.618C105.483 102.548 105.54 102.435 105.54 102.278V102.247C105.54 101.866 105.432 101.571 105.217 101.362C105.005 101.152 104.688 101.048 104.266 101.048C103.827 101.048 103.481 101.145 103.228 101.34C102.978 101.532 102.805 101.746 102.709 101.981L101.483 101.702C101.629 101.295 101.841 100.966 102.12 100.716C102.402 100.463 102.727 100.28 103.093 100.166C103.459 100.05 103.845 99.992 104.249 99.992C104.516 99.992 104.8 100.024 105.099 100.088C105.402 100.149 105.684 100.262 105.946 100.428C106.21 100.594 106.427 100.831 106.596 101.139C106.764 101.445 106.849 101.841 106.849 102.33V106.779H105.575V105.863H105.523C105.438 106.032 105.312 106.198 105.143 106.361C104.974 106.523 104.758 106.659 104.493 106.766C104.229 106.874 103.912 106.928 103.542 106.928ZM103.826 105.881C104.186 105.881 104.495 105.809 104.751 105.667C105.009 105.524 105.206 105.338 105.339 105.109C105.476 104.876 105.544 104.627 105.544 104.363V103.499C105.498 103.546 105.408 103.589 105.274 103.63C105.143 103.668 104.993 103.701 104.825 103.73C104.656 103.756 104.492 103.781 104.332 103.804C104.172 103.825 104.038 103.842 103.93 103.857C103.677 103.889 103.446 103.943 103.237 104.018C103.03 104.094 102.865 104.203 102.74 104.345C102.617 104.485 102.556 104.671 102.556 104.904C102.556 105.226 102.676 105.471 102.914 105.636C103.153 105.799 103.456 105.881 103.826 105.881Z" fill="black"/>
<ellipse cx="415.911" cy="71.5676" rx="36.0827" ry="4.86716" stroke="#FF8D4D" stroke-width="2.04725"/>
<path d="M379.828 126.886C379.828 129.545 395.982 131.7 415.91 131.7C435.838 131.7 451.993 129.545 451.993 126.886" stroke="#FF8D4D" stroke-width="2.04725"/>
<path d="M379.828 88.3671C379.828 91.0262 395.982 93.1819 415.91 93.1819C435.838 93.1819 451.993 91.0262 451.993 88.3671" stroke="#FF8D4D" stroke-width="2.04725"/>
<path d="M379.828 107.627C379.828 110.286 395.982 112.441 415.91 112.441C435.838 112.441 451.993 110.286 451.993 107.627" stroke="#FF8D4D" stroke-width="2.04725"/>
<path d="M379.828 71.6355V127.005M451.994 71.6355V127.005" stroke="#FF8D4D" stroke-width="2.04725"/>
<path d="M395.593 106.779V97.8459H398.777C399.469 97.8459 400.043 97.9651 400.5 98.2035C400.959 98.442 401.303 98.7721 401.529 99.1937C401.756 99.6125 401.87 100.097 401.87 100.646C401.87 101.193 401.755 101.674 401.525 102.09C401.298 102.503 400.955 102.824 400.496 103.054C400.039 103.284 399.465 103.399 398.773 103.399H396.36V102.238H398.65C399.087 102.238 399.441 102.176 399.715 102.051C399.991 101.926 400.193 101.744 400.321 101.506C400.449 101.267 400.513 100.981 400.513 100.646C400.513 100.309 400.448 100.017 400.317 99.7695C400.189 99.5223 399.987 99.3333 399.71 99.2024C399.437 99.0687 399.078 99.0018 398.633 99.0018H396.941V106.779H395.593ZM400.003 102.749L402.21 106.779H400.674L398.511 102.749H400.003ZM406.209 106.915C405.549 106.915 404.98 106.773 404.503 106.491C404.029 106.206 403.663 105.807 403.404 105.292C403.148 104.774 403.02 104.168 403.02 103.473C403.02 102.787 403.148 102.182 403.404 101.658C403.663 101.135 404.023 100.726 404.486 100.433C404.951 100.139 405.495 99.992 406.117 99.992C406.495 99.992 406.862 100.054 407.216 100.18C407.571 100.305 407.89 100.501 408.172 100.768C408.454 101.036 408.676 101.383 408.839 101.811C409.002 102.236 409.083 102.752 409.083 103.359V103.822H403.757V102.845H407.805C407.805 102.502 407.735 102.198 407.596 101.933C407.456 101.666 407.26 101.455 407.007 101.301C406.757 101.146 406.463 101.069 406.126 101.069C405.759 101.069 405.44 101.16 405.166 101.34C404.896 101.517 404.686 101.75 404.538 102.038C404.393 102.323 404.32 102.632 404.32 102.967V103.73C404.32 104.178 404.399 104.559 404.556 104.873C404.716 105.187 404.938 105.427 405.223 105.593C405.508 105.756 405.841 105.837 406.222 105.837C406.469 105.837 406.694 105.802 406.898 105.732C407.102 105.66 407.277 105.552 407.426 105.41C407.574 105.267 407.688 105.091 407.766 104.882L409 105.104C408.902 105.468 408.724 105.786 408.468 106.06C408.215 106.33 407.897 106.541 407.513 106.692C407.132 106.84 406.697 106.915 406.209 106.915ZM410.53 109.292V100.079H411.804V101.165H411.913C411.989 101.026 412.098 100.864 412.24 100.681C412.383 100.498 412.581 100.338 412.834 100.201C413.087 100.062 413.421 99.992 413.837 99.992C414.378 99.992 414.861 100.129 415.285 100.402C415.71 100.675 416.043 101.069 416.284 101.584C416.528 102.099 416.65 102.718 416.65 103.442C416.65 104.166 416.53 104.787 416.288 105.305C416.047 105.82 415.715 106.217 415.294 106.496C414.872 106.772 414.391 106.91 413.85 106.91C413.443 106.91 413.11 106.842 412.851 106.705C412.595 106.568 412.395 106.409 412.249 106.225C412.104 106.042 411.992 105.879 411.913 105.737H411.835V109.292H410.53ZM411.809 103.429C411.809 103.9 411.877 104.313 412.014 104.668C412.15 105.023 412.348 105.301 412.607 105.501C412.866 105.699 413.183 105.798 413.558 105.798C413.947 105.798 414.273 105.695 414.535 105.488C414.797 105.279 414.994 104.995 415.128 104.638C415.265 104.28 415.333 103.877 415.333 103.429C415.333 102.987 415.266 102.59 415.132 102.238C415.002 101.887 414.804 101.609 414.539 101.405C414.277 101.202 413.95 101.1 413.558 101.1C413.18 101.1 412.86 101.197 412.598 101.392C412.339 101.587 412.143 101.859 412.009 102.208C411.875 102.557 411.809 102.964 411.809 103.429ZM419.416 97.8459V106.779H418.112V97.8459H419.416ZM421.171 106.779V100.079H422.475V106.779H421.171ZM421.829 99.0454C421.602 99.0454 421.408 98.9698 421.245 98.8186C421.085 98.6645 421.005 98.4813 421.005 98.269C421.005 98.0538 421.085 97.8706 421.245 97.7194C421.408 97.5652 421.602 97.4882 421.829 97.4882C422.056 97.4882 422.249 97.5652 422.409 97.7194C422.572 97.8706 422.654 98.0538 422.654 98.269C422.654 98.4813 422.572 98.6645 422.409 98.8186C422.249 98.9698 422.056 99.0454 421.829 99.0454ZM427.052 106.915C426.403 106.915 425.845 106.768 425.377 106.474C424.911 106.177 424.554 105.769 424.304 105.248C424.053 104.728 423.928 104.132 423.928 103.46C423.928 102.779 424.056 102.179 424.312 101.658C424.568 101.135 424.929 100.726 425.394 100.433C425.859 100.139 426.408 99.992 427.039 99.992C427.547 99.992 428.001 100.086 428.4 100.276C428.798 100.462 429.119 100.723 429.364 101.061C429.611 101.398 429.758 101.792 429.804 102.243H428.535C428.465 101.929 428.305 101.658 428.055 101.431C427.808 101.205 427.476 101.091 427.06 101.091C426.697 101.091 426.378 101.187 426.105 101.379C425.835 101.568 425.624 101.839 425.473 102.19C425.321 102.539 425.246 102.952 425.246 103.429C425.246 103.918 425.32 104.339 425.468 104.694C425.617 105.049 425.826 105.324 426.096 105.519C426.37 105.714 426.691 105.811 427.06 105.811C427.308 105.811 427.531 105.766 427.732 105.676C427.936 105.583 428.106 105.45 428.242 105.279C428.382 105.107 428.48 104.901 428.535 104.659H429.804C429.758 105.093 429.617 105.479 429.381 105.82C429.145 106.16 428.83 106.427 428.434 106.622C428.042 106.817 427.581 106.915 427.052 106.915ZM433.149 106.928C432.724 106.928 432.34 106.849 431.997 106.692C431.654 106.532 431.382 106.301 431.181 105.998C430.984 105.696 430.885 105.325 430.885 104.886C430.885 104.508 430.958 104.197 431.103 103.953C431.248 103.708 431.445 103.515 431.692 103.373C431.939 103.23 432.215 103.122 432.521 103.05C432.826 102.977 433.137 102.922 433.454 102.884C433.855 102.837 434.181 102.8 434.431 102.771C434.681 102.739 434.863 102.688 434.976 102.618C435.09 102.548 435.147 102.435 435.147 102.278V102.247C435.147 101.866 435.039 101.571 434.824 101.362C434.611 101.152 434.294 101.048 433.873 101.048C433.434 101.048 433.088 101.145 432.835 101.34C432.585 101.532 432.412 101.746 432.316 101.981L431.09 101.702C431.235 101.295 431.448 100.966 431.727 100.716C432.009 100.463 432.333 100.28 432.699 100.166C433.066 100.05 433.451 99.992 433.855 99.992C434.123 99.992 434.406 100.024 434.706 100.088C435.008 100.149 435.29 100.262 435.552 100.428C435.817 100.594 436.033 100.831 436.202 101.139C436.371 101.445 436.455 101.841 436.455 102.33V106.779H435.181V105.863H435.129C435.045 106.032 434.918 106.198 434.75 106.361C434.581 106.523 434.364 106.659 434.1 106.766C433.835 106.874 433.518 106.928 433.149 106.928ZM433.432 105.881C433.793 105.881 434.101 105.809 434.357 105.667C434.616 105.524 434.812 105.338 434.946 105.109C435.083 104.876 435.151 104.627 435.151 104.363V103.499C435.104 103.546 435.014 103.589 434.88 103.63C434.75 103.668 434.6 103.701 434.431 103.73C434.262 103.756 434.098 103.781 433.938 103.804C433.778 103.825 433.645 103.842 433.537 103.857C433.284 103.889 433.053 103.943 432.843 104.018C432.637 104.094 432.471 104.203 432.346 104.345C432.224 104.485 432.163 104.671 432.163 104.904C432.163 105.226 432.282 105.471 432.521 105.636C432.759 105.799 433.063 105.881 433.432 105.881Z" fill="black"/>
<line x1="287.19" y1="98.4329" x2="379.828" y2="98.4329" stroke="#FF8D4D" stroke-opacity="0.8" stroke-width="2.04725" stroke-dasharray="4.09 4.09"/>
<line x1="122.387" y1="98.4329" x2="215.025" y2="98.4329" stroke="#FF8D4D" stroke-opacity="0.8" stroke-width="2.04725" stroke-dasharray="4.09 4.09"/>
<path d="M216.615 151.378V142.444H219.8C220.492 142.444 221.066 142.564 221.523 142.802C221.982 143.041 222.325 143.371 222.552 143.792C222.779 144.211 222.892 144.695 222.892 145.245C222.892 145.792 222.777 146.273 222.548 146.689C222.321 147.102 221.978 147.423 221.518 147.653C221.062 147.882 220.487 147.997 219.795 147.997H217.383V146.837H219.673C220.109 146.837 220.464 146.775 220.737 146.649C221.014 146.524 221.216 146.343 221.344 146.104C221.472 145.866 221.536 145.579 221.536 145.245C221.536 144.908 221.47 144.615 221.339 144.368C221.211 144.121 221.009 143.932 220.733 143.801C220.46 143.667 220.101 143.6 219.656 143.6H217.963V151.378H216.615ZM221.025 147.347L223.232 151.378H221.697L219.533 147.347H221.025ZM227.231 151.513C226.571 151.513 226.003 151.372 225.526 151.09C225.052 150.805 224.685 150.405 224.427 149.89C224.171 149.373 224.043 148.767 224.043 148.072C224.043 147.385 224.171 146.78 224.427 146.257C224.685 145.733 225.046 145.325 225.508 145.031C225.974 144.737 226.517 144.591 227.14 144.591C227.518 144.591 227.884 144.653 228.239 144.778C228.594 144.903 228.912 145.1 229.194 145.367C229.476 145.635 229.699 145.982 229.862 146.41C230.025 146.834 230.106 147.35 230.106 147.958V148.42H224.78V147.443H228.828C228.828 147.1 228.758 146.796 228.619 146.532C228.479 146.264 228.283 146.053 228.03 145.899C227.78 145.745 227.486 145.668 227.149 145.668C226.782 145.668 226.462 145.758 226.189 145.938C225.918 146.116 225.709 146.349 225.561 146.636C225.415 146.921 225.343 147.231 225.343 147.566V148.329C225.343 148.777 225.421 149.158 225.578 149.472C225.738 149.786 225.961 150.026 226.246 150.191C226.531 150.354 226.864 150.436 227.244 150.436C227.492 150.436 227.717 150.401 227.921 150.331C228.124 150.258 228.3 150.151 228.448 150.008C228.597 149.866 228.71 149.69 228.789 149.48L230.023 149.703C229.924 150.066 229.747 150.385 229.491 150.658C229.238 150.929 228.919 151.139 228.536 151.291C228.155 151.439 227.72 151.513 227.231 151.513ZM233.503 151.526C233.078 151.526 232.694 151.448 232.351 151.291C232.008 151.131 231.736 150.9 231.536 150.597C231.338 150.295 231.239 149.924 231.239 149.485C231.239 149.107 231.312 148.796 231.457 148.551C231.602 148.307 231.799 148.114 232.046 147.971C232.293 147.829 232.569 147.721 232.875 147.648C233.18 147.576 233.491 147.52 233.808 147.483C234.21 147.436 234.535 147.398 234.785 147.369C235.035 147.337 235.217 147.286 235.331 147.217C235.444 147.147 235.501 147.033 235.501 146.876V146.846C235.501 146.465 235.393 146.17 235.178 145.96C234.966 145.751 234.649 145.646 234.227 145.646C233.788 145.646 233.442 145.744 233.189 145.938C232.939 146.13 232.766 146.344 232.67 146.58L231.444 146.301C231.589 145.893 231.802 145.565 232.081 145.315C232.363 145.062 232.687 144.879 233.054 144.765C233.42 144.649 233.805 144.591 234.21 144.591C234.477 144.591 234.761 144.623 235.06 144.687C235.363 144.748 235.645 144.861 235.906 145.027C236.171 145.193 236.388 145.43 236.556 145.738C236.725 146.043 236.809 146.44 236.809 146.929V151.378H235.536V150.462H235.483C235.399 150.631 235.272 150.796 235.104 150.959C234.935 151.122 234.718 151.257 234.454 151.365C234.189 151.472 233.872 151.526 233.503 151.526ZM233.786 150.479C234.147 150.479 234.455 150.408 234.711 150.266C234.97 150.123 235.166 149.937 235.3 149.707C235.437 149.475 235.505 149.226 235.505 148.961V148.098C235.459 148.144 235.368 148.188 235.235 148.229C235.104 148.266 234.954 148.3 234.785 148.329C234.617 148.355 234.452 148.38 234.292 148.403C234.132 148.423 233.999 148.441 233.891 148.455C233.638 148.487 233.407 148.541 233.198 148.617C232.991 148.692 232.825 148.801 232.7 148.944C232.578 149.084 232.517 149.27 232.517 149.502C232.517 149.825 232.636 150.069 232.875 150.235C233.113 150.398 233.417 150.479 233.786 150.479ZM241.055 151.509C240.514 151.509 240.031 151.371 239.606 151.094C239.185 150.815 238.853 150.418 238.612 149.904C238.373 149.386 238.254 148.765 238.254 148.041C238.254 147.317 238.375 146.697 238.616 146.183C238.861 145.668 239.195 145.274 239.62 145.001C240.044 144.727 240.525 144.591 241.063 144.591C241.479 144.591 241.814 144.66 242.067 144.8C242.323 144.937 242.52 145.097 242.66 145.28C242.802 145.463 242.913 145.624 242.991 145.764H243.07V142.444H244.374V151.378H243.1V150.335H242.991C242.913 150.478 242.799 150.641 242.651 150.824C242.506 151.007 242.305 151.167 242.049 151.304C241.793 151.44 241.462 151.509 241.055 151.509ZM241.343 150.396C241.718 150.396 242.035 150.298 242.293 150.1C242.555 149.899 242.753 149.621 242.887 149.267C243.023 148.912 243.092 148.499 243.092 148.028C243.092 147.563 243.025 147.155 242.891 146.807C242.757 146.458 242.561 146.186 242.302 145.991C242.043 145.796 241.724 145.699 241.343 145.699C240.95 145.699 240.623 145.8 240.361 146.004C240.099 146.207 239.902 146.485 239.768 146.837C239.637 147.189 239.572 147.586 239.572 148.028C239.572 148.476 239.638 148.878 239.772 149.236C239.906 149.594 240.104 149.877 240.365 150.087C240.63 150.293 240.956 150.396 241.343 150.396ZM252.889 142.026L250.01 152.721H248.845L251.724 142.026H252.889ZM259.101 151.378L256.624 142.444H258.042L259.782 149.363H259.865L261.675 142.444H263.08L264.89 149.367H264.973L266.709 142.444H268.131L265.649 151.378H264.292L262.412 144.687H262.342L260.462 151.378H259.101ZM268.835 151.378V144.678H270.096V145.742H270.166C270.288 145.382 270.503 145.098 270.811 144.892C271.123 144.682 271.474 144.578 271.867 144.578C271.948 144.578 272.044 144.58 272.155 144.586C272.268 144.592 272.357 144.599 272.421 144.608V145.856C272.369 145.841 272.276 145.825 272.142 145.808C272.008 145.787 271.874 145.777 271.74 145.777C271.432 145.777 271.157 145.843 270.916 145.973C270.678 146.101 270.489 146.28 270.349 146.51C270.209 146.737 270.14 146.996 270.14 147.286V151.378H268.835ZM273.55 151.378V144.678H274.854V151.378H273.55ZM274.208 143.644C273.981 143.644 273.787 143.568 273.624 143.417C273.464 143.263 273.384 143.08 273.384 142.868C273.384 142.652 273.464 142.469 273.624 142.318C273.787 142.164 273.981 142.087 274.208 142.087C274.435 142.087 274.628 142.164 274.788 142.318C274.951 142.469 275.033 142.652 275.033 142.868C275.033 143.08 274.951 143.263 274.788 143.417C274.628 143.568 274.435 143.644 274.208 143.644ZM279.736 144.678V145.725H276.076V144.678H279.736ZM277.058 143.073H278.362V149.411C278.362 149.664 278.4 149.854 278.475 149.982C278.551 150.107 278.648 150.193 278.768 150.239C278.89 150.283 279.022 150.305 279.165 150.305C279.269 150.305 279.361 150.298 279.439 150.283C279.518 150.269 279.579 150.257 279.623 150.248L279.858 151.326C279.783 151.355 279.675 151.384 279.535 151.413C279.396 151.445 279.221 151.462 279.012 151.465C278.669 151.471 278.349 151.41 278.052 151.282C277.756 151.154 277.516 150.956 277.333 150.689C277.149 150.421 277.058 150.085 277.058 149.681V143.073ZM283.994 151.513C283.334 151.513 282.766 151.372 282.289 151.09C281.815 150.805 281.449 150.405 281.19 149.89C280.934 149.373 280.806 148.767 280.806 148.072C280.806 147.385 280.934 146.78 281.19 146.257C281.449 145.733 281.809 145.325 282.271 145.031C282.737 144.737 283.281 144.591 283.903 144.591C284.281 144.591 284.647 144.653 285.002 144.778C285.357 144.903 285.675 145.1 285.957 145.367C286.239 145.635 286.462 145.982 286.625 146.41C286.788 146.834 286.869 147.35 286.869 147.958V148.42H281.543V147.443H285.591C285.591 147.1 285.521 146.796 285.382 146.532C285.242 146.264 285.046 146.053 284.793 145.899C284.543 145.745 284.249 145.668 283.912 145.668C283.545 145.668 283.225 145.758 282.952 145.938C282.682 146.116 282.472 146.349 282.324 146.636C282.178 146.921 282.106 147.231 282.106 147.566V148.329C282.106 148.777 282.184 149.158 282.341 149.472C282.501 149.786 282.724 150.026 283.009 150.191C283.294 150.354 283.627 150.436 284.008 150.436C284.255 150.436 284.48 150.401 284.684 150.331C284.887 150.258 285.063 150.151 285.212 150.008C285.36 149.866 285.473 149.69 285.552 149.48L286.786 149.703C286.687 150.066 286.51 150.385 286.254 150.658C286.001 150.929 285.683 151.139 285.299 151.291C284.918 151.439 284.483 151.513 283.994 151.513Z" fill="#5379FF"/>
<path d="M58.5013 151.378V142.444H61.6856C62.3777 142.444 62.952 142.564 63.4086 142.802C63.868 143.041 64.2112 143.371 64.438 143.792C64.6648 144.211 64.7782 144.695 64.7782 145.245C64.7782 145.792 64.6634 146.273 64.4336 146.689C64.2068 147.102 63.8637 147.423 63.4042 147.653C62.9476 147.882 62.3733 147.997 61.6812 147.997H59.269V146.837H61.5591C61.9953 146.837 62.35 146.775 62.6234 146.649C62.8997 146.524 63.1018 146.343 63.2297 146.104C63.3577 145.866 63.4217 145.579 63.4217 145.245C63.4217 144.908 63.3562 144.615 63.2254 144.368C63.0974 144.121 62.8953 143.932 62.619 143.801C62.3457 143.667 61.9865 143.6 61.5416 143.6H59.8492V151.378H58.5013ZM62.9113 147.347L65.1185 151.378H63.583L61.4195 147.347H62.9113ZM69.1174 151.513C68.4573 151.513 67.8887 151.372 67.4118 151.09C66.9378 150.805 66.5714 150.405 66.3126 149.89C66.0567 149.373 65.9287 148.767 65.9287 148.072C65.9287 147.385 66.0567 146.78 66.3126 146.257C66.5714 145.733 66.932 145.325 67.3944 145.031C67.8597 144.737 68.4035 144.591 69.0258 144.591C69.4038 144.591 69.7702 144.653 70.125 144.778C70.4798 144.903 70.7982 145.1 71.0803 145.367C71.3624 145.635 71.5848 145.982 71.7477 146.41C71.9105 146.834 71.992 147.35 71.992 147.958V148.42H66.6659V147.443H70.7139C70.7139 147.1 70.6441 146.796 70.5045 146.532C70.3649 146.264 70.1686 146.053 69.9156 145.899C69.6655 145.745 69.3718 145.668 69.0345 145.668C68.6681 145.668 68.3482 145.758 68.0749 145.938C67.8044 146.116 67.595 146.349 67.4467 146.636C67.3013 146.921 67.2286 147.231 67.2286 147.566V148.329C67.2286 148.777 67.3071 149.158 67.4642 149.472C67.6241 149.786 67.8466 150.026 68.1316 150.191C68.4165 150.354 68.7495 150.436 69.1305 150.436C69.3776 150.436 69.603 150.401 69.8066 150.331C70.0101 150.258 70.1861 150.151 70.3344 150.008C70.4827 149.866 70.5961 149.69 70.6746 149.48L71.9091 149.703C71.8102 150.066 71.6328 150.385 71.3769 150.658C71.1239 150.929 70.8055 151.139 70.4216 151.291C70.0407 151.439 69.6059 151.513 69.1174 151.513ZM75.3889 151.526C74.9643 151.526 74.5805 151.448 74.2373 151.291C73.8942 151.131 73.6223 150.9 73.4216 150.597C73.2239 150.295 73.125 149.924 73.125 149.485C73.125 149.107 73.1977 148.796 73.3431 148.551C73.4885 148.307 73.6848 148.114 73.932 147.971C74.1792 147.829 74.4554 147.721 74.7608 147.648C75.0661 147.576 75.3773 147.52 75.6942 147.483C76.0955 147.436 76.4212 147.398 76.6713 147.369C76.9214 147.337 77.1032 147.286 77.2166 147.217C77.33 147.147 77.3867 147.033 77.3867 146.876V146.846C77.3867 146.465 77.2791 146.17 77.0639 145.96C76.8516 145.751 76.5346 145.646 76.113 145.646C75.6739 145.646 75.3278 145.744 75.0748 145.938C74.8247 146.13 74.6517 146.344 74.5557 146.58L73.33 146.301C73.4754 145.893 73.6877 145.565 73.9669 145.315C74.2489 145.062 74.5732 144.879 74.9396 144.765C75.306 144.649 75.6913 144.591 76.0955 144.591C76.3631 144.591 76.6466 144.623 76.9461 144.687C77.2486 144.748 77.5306 144.861 77.7924 145.027C78.057 145.193 78.2736 145.43 78.4423 145.738C78.611 146.043 78.6953 146.44 78.6953 146.929V151.378H77.4216V150.462H77.3693C77.2849 150.631 77.1584 150.796 76.9898 150.959C76.8211 151.122 76.6044 151.257 76.3398 151.365C76.0752 151.472 75.7582 151.526 75.3889 151.526ZM75.6724 150.479C76.033 150.479 76.3413 150.408 76.5972 150.266C76.856 150.123 77.0523 149.937 77.186 149.707C77.3227 149.475 77.3911 149.226 77.3911 148.961V148.098C77.3445 148.144 77.2544 148.188 77.1206 148.229C76.9898 148.266 76.84 148.3 76.6713 148.329C76.5027 148.355 76.3384 148.38 76.1784 148.403C76.0185 148.423 75.8847 148.441 75.7771 148.455C75.5241 148.487 75.2929 148.541 75.0835 148.617C74.8771 148.692 74.7113 148.801 74.5863 148.944C74.4641 149.084 74.4031 149.27 74.4031 149.502C74.4031 149.825 74.5223 150.069 74.7608 150.235C74.9992 150.398 75.3031 150.479 75.6724 150.479ZM82.9407 151.509C82.3998 151.509 81.917 151.371 81.4925 151.094C81.0708 150.815 80.7393 150.418 80.4979 149.904C80.2595 149.386 80.1402 148.765 80.1402 148.041C80.1402 147.317 80.2609 146.697 80.5023 146.183C80.7466 145.668 81.081 145.274 81.5055 145.001C81.9301 144.727 82.4114 144.591 82.9494 144.591C83.3652 144.591 83.6996 144.66 83.9526 144.8C84.2086 144.937 84.4063 145.097 84.5459 145.28C84.6884 145.463 84.7989 145.624 84.8774 145.764H84.9559V142.444H86.2602V151.378H84.9864V150.335H84.8774C84.7989 150.478 84.6855 150.641 84.5372 150.824C84.3918 151.007 84.1911 151.167 83.9352 151.304C83.6793 151.44 83.3478 151.509 82.9407 151.509ZM83.2286 150.396C83.6037 150.396 83.9207 150.298 84.1795 150.1C84.4412 149.899 84.6389 149.621 84.7727 149.267C84.9094 148.912 84.9777 148.499 84.9777 148.028C84.9777 147.563 84.9108 147.155 84.7771 146.807C84.6433 146.458 84.447 146.186 84.1882 145.991C83.9294 145.796 83.6095 145.699 83.2286 145.699C82.836 145.699 82.5088 145.8 82.2471 146.004C81.9854 146.207 81.7876 146.485 81.6539 146.837C81.523 147.189 81.4576 147.586 81.4576 148.028C81.4576 148.476 81.5244 148.878 81.6582 149.236C81.792 149.594 81.9897 149.877 82.2515 150.087C82.5161 150.293 82.8418 150.396 83.2286 150.396ZM94.1947 151.513C93.5666 151.513 93.0184 151.369 92.5502 151.081C92.082 150.793 91.7185 150.391 91.4597 149.873C91.2009 149.355 91.0715 148.751 91.0715 148.058C91.0715 147.363 91.2009 146.756 91.4597 146.235C91.7185 145.715 92.082 145.31 92.5502 145.022C93.0184 144.735 93.5666 144.591 94.1947 144.591C94.8228 144.591 95.371 144.735 95.8392 145.022C96.3074 145.31 96.6709 145.715 96.9297 146.235C97.1885 146.756 97.3179 147.363 97.3179 148.058C97.3179 148.751 97.1885 149.355 96.9297 149.873C96.6709 150.391 96.3074 150.793 95.8392 151.081C95.371 151.369 94.8228 151.513 94.1947 151.513ZM94.1991 150.418C94.6062 150.418 94.9435 150.311 95.211 150.095C95.4786 149.88 95.6763 149.594 95.8043 149.236C95.9351 148.878 96.0006 148.484 96.0006 148.054C96.0006 147.627 95.9351 147.234 95.8043 146.876C95.6763 146.516 95.4786 146.226 95.211 146.008C94.9435 145.79 94.6062 145.681 94.1991 145.681C93.789 145.681 93.4488 145.79 93.1783 146.008C92.9108 146.226 92.7116 146.516 92.5807 146.876C92.4528 147.234 92.3888 147.627 92.3888 148.054C92.3888 148.484 92.4528 148.878 92.5807 149.236C92.7116 149.594 92.9108 149.88 93.1783 150.095C93.4488 150.311 93.789 150.418 94.1991 150.418ZM100.078 147.4V151.378H98.7737V144.678H100.026V145.768H100.109C100.263 145.414 100.504 145.129 100.833 144.913C101.164 144.698 101.581 144.591 102.085 144.591C102.541 144.591 102.941 144.687 103.284 144.879C103.627 145.068 103.893 145.35 104.082 145.725C104.271 146.1 104.366 146.564 104.366 147.116V151.378H103.062V147.273C103.062 146.788 102.935 146.408 102.682 146.135C102.429 145.859 102.082 145.72 101.64 145.72C101.337 145.72 101.068 145.786 100.833 145.917C100.6 146.048 100.415 146.239 100.279 146.492C100.145 146.743 100.078 147.045 100.078 147.4ZM107.419 142.444V151.378H106.115V142.444H107.419ZM109.998 153.89C109.804 153.89 109.626 153.874 109.466 153.842C109.306 153.813 109.187 153.781 109.108 153.747L109.423 152.678C109.661 152.742 109.873 152.769 110.059 152.761C110.246 152.752 110.41 152.682 110.552 152.551C110.698 152.42 110.826 152.207 110.936 151.91L111.098 151.465L108.646 144.678H110.042L111.739 149.877H111.809L113.505 144.678H114.906L112.144 152.272C112.017 152.621 111.854 152.916 111.656 153.158C111.458 153.402 111.223 153.585 110.949 153.707C110.676 153.829 110.359 153.89 109.998 153.89Z" fill="#646464"/>
<path d="M388.108 151.378V142.444H391.292C391.984 142.444 392.558 142.564 393.015 142.802C393.474 143.041 393.818 143.371 394.044 143.792C394.271 144.211 394.385 144.695 394.385 145.245C394.385 145.792 394.27 146.273 394.04 146.689C393.813 147.102 393.47 147.423 393.011 147.653C392.554 147.882 391.98 147.997 391.288 147.997H388.875V146.837H391.166C391.602 146.837 391.956 146.775 392.23 146.649C392.506 146.524 392.708 146.343 392.836 146.104C392.964 145.866 393.028 145.579 393.028 145.245C393.028 144.908 392.963 144.615 392.832 144.368C392.704 144.121 392.502 143.932 392.225 143.801C391.952 143.667 391.593 143.6 391.148 143.6H389.456V151.378H388.108ZM392.518 147.347L394.725 151.378H393.189L391.026 147.347H392.518ZM398.724 151.513C398.064 151.513 397.495 151.372 397.018 151.09C396.544 150.805 396.178 150.405 395.919 149.89C395.663 149.373 395.535 148.767 395.535 148.072C395.535 147.385 395.663 146.78 395.919 146.257C396.178 145.733 396.538 145.325 397.001 145.031C397.466 144.737 398.01 144.591 398.632 144.591C399.01 144.591 399.377 144.653 399.731 144.778C400.086 144.903 400.405 145.1 400.687 145.367C400.969 145.635 401.191 145.982 401.354 146.41C401.517 146.834 401.598 147.35 401.598 147.958V148.42H396.272V147.443H400.32C400.32 147.1 400.251 146.796 400.111 146.532C399.971 146.264 399.775 146.053 399.522 145.899C399.272 145.745 398.978 145.668 398.641 145.668C398.275 145.668 397.955 145.758 397.681 145.938C397.411 146.116 397.201 146.349 397.053 146.636C396.908 146.921 396.835 147.231 396.835 147.566V148.329C396.835 148.777 396.914 149.158 397.071 149.472C397.231 149.786 397.453 150.026 397.738 150.191C398.023 150.354 398.356 150.436 398.737 150.436C398.984 150.436 399.209 150.401 399.413 150.331C399.617 150.258 399.793 150.151 399.941 150.008C400.089 149.866 400.203 149.69 400.281 149.48L401.516 149.703C401.417 150.066 401.239 150.385 400.983 150.658C400.73 150.929 400.412 151.139 400.028 151.291C399.647 151.439 399.212 151.513 398.724 151.513ZM404.995 151.526C404.571 151.526 404.187 151.448 403.844 151.291C403.501 151.131 403.229 150.9 403.028 150.597C402.83 150.295 402.731 149.924 402.731 149.485C402.731 149.107 402.804 148.796 402.95 148.551C403.095 148.307 403.291 148.114 403.538 147.971C403.786 147.829 404.062 147.721 404.367 147.648C404.673 147.576 404.984 147.52 405.301 147.483C405.702 147.436 406.028 147.398 406.278 147.369C406.528 147.337 406.71 147.286 406.823 147.217C406.936 147.147 406.993 147.033 406.993 146.876V146.846C406.993 146.465 406.886 146.17 406.67 145.96C406.458 145.751 406.141 145.646 405.719 145.646C405.28 145.646 404.934 145.744 404.681 145.938C404.431 146.13 404.258 146.344 404.162 146.58L402.936 146.301C403.082 145.893 403.294 145.565 403.573 145.315C403.855 145.062 404.18 144.879 404.546 144.765C404.912 144.649 405.298 144.591 405.702 144.591C405.97 144.591 406.253 144.623 406.553 144.687C406.855 144.748 407.137 144.861 407.399 145.027C407.663 145.193 407.88 145.43 408.049 145.738C408.217 146.043 408.302 146.44 408.302 146.929V151.378H407.028V150.462H406.976C406.891 150.631 406.765 150.796 406.596 150.959C406.428 151.122 406.211 151.257 405.946 151.365C405.682 151.472 405.365 151.526 404.995 151.526ZM405.279 150.479C405.639 150.479 405.948 150.408 406.204 150.266C406.462 150.123 406.659 149.937 406.792 149.707C406.929 149.475 406.998 149.226 406.998 148.961V148.098C406.951 148.144 406.861 148.188 406.727 148.229C406.596 148.266 406.446 148.3 406.278 148.329C406.109 148.355 405.945 148.38 405.785 148.403C405.625 148.423 405.491 148.441 405.384 148.455C405.131 148.487 404.899 148.541 404.69 148.617C404.484 148.692 404.318 148.801 404.193 148.944C404.071 149.084 404.01 149.27 404.01 149.502C404.01 149.825 404.129 150.069 404.367 150.235C404.606 150.398 404.91 150.479 405.279 150.479ZM412.547 151.509C412.006 151.509 411.523 151.371 411.099 151.094C410.677 150.815 410.346 150.418 410.104 149.904C409.866 149.386 409.747 148.765 409.747 148.041C409.747 147.317 409.867 146.697 410.109 146.183C410.353 145.668 410.687 145.274 411.112 145.001C411.537 144.727 412.018 144.591 412.556 144.591C412.972 144.591 413.306 144.66 413.559 144.8C413.815 144.937 414.013 145.097 414.152 145.28C414.295 145.463 414.405 145.624 414.484 145.764H414.562V142.444H415.867V151.378H414.593V150.335H414.484C414.405 150.478 414.292 150.641 414.144 150.824C413.998 151.007 413.798 151.167 413.542 151.304C413.286 151.44 412.954 151.509 412.547 151.509ZM412.835 150.396C413.21 150.396 413.527 150.298 413.786 150.1C414.048 149.899 414.245 149.621 414.379 149.267C414.516 148.912 414.584 148.499 414.584 148.028C414.584 147.563 414.517 147.155 414.384 146.807C414.25 146.458 414.053 146.186 413.795 145.991C413.536 145.796 413.216 145.699 412.835 145.699C412.442 145.699 412.115 145.8 411.854 146.004C411.592 146.207 411.394 146.485 411.26 146.837C411.129 147.189 411.064 147.586 411.064 148.028C411.064 148.476 411.131 148.878 411.265 149.236C411.398 149.594 411.596 149.877 411.858 150.087C412.123 150.293 412.448 150.396 412.835 150.396ZM423.801 151.513C423.173 151.513 422.625 151.369 422.157 151.081C421.688 150.793 421.325 150.391 421.066 149.873C420.807 149.355 420.678 148.751 420.678 148.058C420.678 147.363 420.807 146.756 421.066 146.235C421.325 145.715 421.688 145.31 422.157 145.022C422.625 144.735 423.173 144.591 423.801 144.591C424.429 144.591 424.977 144.735 425.446 145.022C425.914 145.31 426.277 145.715 426.536 146.235C426.795 146.756 426.924 147.363 426.924 148.058C426.924 148.751 426.795 149.355 426.536 149.873C426.277 150.391 425.914 150.793 425.446 151.081C424.977 151.369 424.429 151.513 423.801 151.513ZM423.806 150.418C424.213 150.418 424.55 150.311 424.817 150.095C425.085 149.88 425.283 149.594 425.411 149.236C425.542 148.878 425.607 148.484 425.607 148.054C425.607 147.627 425.542 147.234 425.411 146.876C425.283 146.516 425.085 146.226 424.817 146.008C424.55 145.79 424.213 145.681 423.806 145.681C423.395 145.681 423.055 145.79 422.785 146.008C422.517 146.226 422.318 146.516 422.187 146.876C422.059 147.234 421.995 147.627 421.995 148.054C421.995 148.484 422.059 148.878 422.187 149.236C422.318 149.594 422.517 149.88 422.785 150.095C423.055 150.311 423.395 150.418 423.806 150.418ZM429.684 147.4V151.378H428.38V144.678H429.632V145.768H429.715C429.869 145.414 430.11 145.129 430.439 144.913C430.771 144.698 431.188 144.591 431.691 144.591C432.148 144.591 432.547 144.687 432.891 144.879C433.234 145.068 433.5 145.35 433.689 145.725C433.878 146.1 433.972 146.564 433.972 147.116V151.378H432.668V147.273C432.668 146.788 432.542 146.408 432.289 146.135C432.036 145.859 431.688 145.72 431.246 145.72C430.944 145.72 430.675 145.786 430.439 145.917C430.206 146.048 430.022 146.239 429.885 146.492C429.751 146.743 429.684 147.045 429.684 147.4ZM437.026 142.444V151.378H435.721V142.444H437.026ZM439.605 153.89C439.41 153.89 439.233 153.874 439.073 153.842C438.913 153.813 438.793 153.781 438.715 153.747L439.029 152.678C439.267 152.742 439.48 152.769 439.666 152.761C439.852 152.752 440.016 152.682 440.159 152.551C440.304 152.42 440.432 152.207 440.543 151.91L440.704 151.465L438.253 144.678H439.648L441.345 149.877H441.415L443.112 144.678H444.512L441.751 152.272C441.623 152.621 441.46 152.916 441.262 153.158C441.065 153.402 440.829 153.585 440.556 153.707C440.282 153.829 439.965 153.89 439.605 153.89Z" fill="#646464"/>
<rect x="11.182" y="30.0153" width="480.636" height="147.133" rx="2.94267" stroke="#636363" stroke-width="0.392356"/>
<rect x="0.784711" y="12.5555" width="501.431" height="173.421" rx="3.92356" stroke="#4A86E8" stroke-width="1.56942"/>
<path d="M488.964 5.58522C488.816 5.10957 488.46 4.72271 488.016 4.48594L478.985 0.147981C478.747 0.0295962 478.482 0 478.243 0C478.005 0 477.74 0 477.504 0.0591924L468.471 4.42674C468.027 4.63392 467.702 5.02078 467.582 5.52603L465.363 15.2991C465.274 15.8044 465.392 16.3096 465.689 16.7261L471.938 24.4782C472.294 24.8354 472.798 25.0722 473.299 25.1018H483.249C483.782 25.161 484.285 24.9242 484.61 24.4782L490.859 16.7261C491.156 16.3096 491.274 15.8044 491.215 15.2991L488.964 5.58522Z" fill="#326DE6"/>
<path d="M487.563 14.6386C487.533 14.6386 487.504 14.6386 487.504 14.6096C487.504 14.5806 487.445 14.5806 487.386 14.5806C487.268 14.5516 487.151 14.5516 487.031 14.5516C486.972 14.5516 486.913 14.5516 486.854 14.5226H486.825C486.499 14.4936 486.146 14.4356 485.82 14.3486C485.731 14.3196 485.643 14.2326 485.614 14.1457C485.643 14.1457 485.614 14.1457 485.614 14.1457L485.378 14.0877C485.496 13.2427 485.437 12.3708 485.26 11.5258C485.054 10.6809 484.699 9.86696 484.226 9.14003L484.403 8.96607V8.93708C484.403 8.85009 484.432 8.73412 484.491 8.67613C484.756 8.44418 485.023 8.26814 485.317 8.09418C485.376 8.06518 485.435 8.03619 485.494 8.00719C485.612 7.94921 485.7 7.89122 485.82 7.83323C485.849 7.80424 485.879 7.80424 485.908 7.77524C485.937 7.74625 485.908 7.74625 485.908 7.71725C486.173 7.51429 486.234 7.16429 486.026 6.90335C485.937 6.78737 485.761 6.70039 485.612 6.70039C485.464 6.70039 485.315 6.75838 485.197 6.84536L485.168 6.87435C485.139 6.90335 485.109 6.93234 485.08 6.93234C484.991 7.01932 484.903 7.10631 484.844 7.19329C484.815 7.25128 484.756 7.28027 484.726 7.30926C484.52 7.54122 484.253 7.77524 483.988 7.94921C483.93 7.9782 483.871 8.00719 483.812 8.00719C483.782 8.00719 483.724 8.00719 483.694 7.9782H483.665L483.429 8.12317C483.194 7.89122 482.927 7.65719 482.691 7.42524C481.598 6.58027 480.24 6.05838 478.85 5.91134L478.821 5.67938V5.70838C478.732 5.65039 478.703 5.56341 478.673 5.47642C478.673 5.15542 478.673 4.83648 478.732 4.48648V4.45749C478.732 4.3995 478.762 4.34151 478.762 4.28352C478.791 4.16755 478.791 4.05157 478.821 3.93352V3.75542C478.85 3.46341 478.615 3.17347 478.318 3.14447C478.141 3.11548 477.963 3.20246 477.816 3.34743C477.698 3.46341 477.639 3.60838 477.639 3.75542V3.90039C477.639 4.01637 477.668 4.13234 477.698 4.25039C477.727 4.30838 477.727 4.36636 477.727 4.42435V4.45335C477.786 4.77435 477.786 5.09329 477.786 5.44329C477.757 5.53027 477.727 5.61725 477.639 5.67524V5.73323L477.61 5.96518C477.284 5.99418 476.96 6.05216 476.605 6.11015C475.217 6.40216 473.945 7.12909 472.971 8.14802L472.795 8.03205H472.765C472.736 8.03205 472.707 8.06104 472.648 8.06104C472.589 8.06104 472.53 8.03205 472.471 8.00305C472.206 7.80009 471.939 7.56607 471.733 7.33412C471.704 7.27613 471.645 7.24713 471.615 7.21814C471.527 7.13116 471.468 7.04418 471.38 6.95719C471.35 6.9282 471.321 6.9282 471.292 6.89921C471.262 6.87021 471.262 6.87021 471.262 6.87021C471.144 6.78323 470.997 6.72524 470.848 6.72524C470.671 6.72524 470.522 6.78323 470.434 6.9282C470.257 7.18915 470.316 7.53915 470.552 7.74211C470.581 7.74211 470.581 7.7711 470.581 7.7711C470.581 7.7711 470.64 7.82909 470.669 7.82909C470.758 7.88708 470.875 7.94506 470.995 8.00305C471.054 8.03205 471.113 8.06104 471.172 8.09003C471.468 8.264 471.763 8.44003 471.998 8.67199C472.057 8.72997 472.116 8.84595 472.086 8.93293V8.90394L472.263 9.0779C472.234 9.13589 472.204 9.16489 472.175 9.22287C471.258 10.6498 470.875 12.3377 471.14 13.9965L470.905 14.0545C470.905 14.0835 470.875 14.0835 470.875 14.0835C470.846 14.1705 470.758 14.2285 470.669 14.2865C470.343 14.3735 470.02 14.4315 469.664 14.4604C469.605 14.4604 469.547 14.4604 469.488 14.4894C469.37 14.4894 469.252 14.5184 469.132 14.5184C469.103 14.5184 469.073 14.5474 469.015 14.5474C468.985 14.5474 468.985 14.5474 468.956 14.5764C468.63 14.6344 468.424 14.9264 468.483 15.2454C468.542 15.5063 468.809 15.6823 469.073 15.6533C469.132 15.6533 469.162 15.6533 469.221 15.6244C469.25 15.6244 469.25 15.6244 469.25 15.5954C469.25 15.5664 469.338 15.5954 469.368 15.5954C469.486 15.5664 469.603 15.5084 469.694 15.4794C469.753 15.4504 469.811 15.4214 469.87 15.4214H469.9C470.226 15.3054 470.52 15.2184 470.875 15.1604H470.905C470.993 15.1604 471.081 15.1894 471.14 15.2474C471.17 15.2474 471.17 15.2764 471.17 15.2764L471.435 15.2474C471.878 16.5853 472.704 17.7803 473.857 18.6522C474.122 18.8551 474.359 19.0312 474.653 19.1761L474.506 19.3791C474.506 19.4081 474.536 19.4081 474.536 19.4081C474.595 19.4951 474.595 19.611 474.565 19.7001C474.447 19.9921 474.269 20.282 474.092 20.5451V20.5741C474.063 20.632 474.033 20.661 473.974 20.719C473.915 20.777 473.857 20.893 473.768 21.011C473.739 21.04 473.739 21.069 473.709 21.098C473.709 21.098 473.709 21.127 473.68 21.127C473.533 21.419 473.651 21.767 473.915 21.9119C473.974 21.9409 474.063 21.9699 474.122 21.9699C474.357 21.9699 474.565 21.8249 474.683 21.6199C474.683 21.6199 474.683 21.5909 474.712 21.5909C474.712 21.5619 474.742 21.5329 474.771 21.5039C474.801 21.388 474.86 21.301 474.889 21.1829L474.948 21.009C475.036 20.688 475.183 20.398 475.333 20.106C475.391 20.019 475.48 19.961 475.568 19.932C475.597 19.932 475.597 19.932 475.597 19.9031L475.715 19.6711C476.541 19.9921 477.399 20.1371 478.284 20.1371C478.816 20.1371 479.348 20.0791 479.88 19.9341C480.206 19.8761 480.53 19.7602 480.826 19.6732L480.944 19.8761C480.974 19.8761 480.974 19.8761 480.974 19.9051C481.062 19.9341 481.15 19.9921 481.209 20.0791C481.356 20.3711 481.505 20.661 481.594 20.982V21.011L481.653 21.185C481.682 21.301 481.712 21.417 481.77 21.506C481.8 21.535 481.8 21.564 481.829 21.593C481.829 21.593 481.829 21.622 481.859 21.622C481.976 21.8249 482.185 21.972 482.42 21.972C482.508 21.972 482.567 21.943 482.656 21.914C482.773 21.856 482.891 21.74 482.92 21.593C482.95 21.448 482.95 21.301 482.891 21.156C482.891 21.127 482.862 21.127 482.862 21.127C482.862 21.098 482.832 21.069 482.803 21.04C482.744 20.9241 482.685 20.8371 482.597 20.748C482.567 20.69 482.538 20.661 482.479 20.6031V20.5451C482.273 20.2841 482.124 19.9921 482.006 19.7001C481.976 19.6131 481.976 19.4971 482.035 19.4081C482.035 19.3791 482.065 19.3791 482.065 19.3791L481.976 19.1471C483.484 18.2442 484.636 16.8483 485.168 15.1894L485.403 15.2184C485.433 15.2184 485.433 15.1894 485.433 15.1894C485.492 15.1315 485.58 15.1025 485.668 15.1025H485.698C486.024 15.1604 486.347 15.2474 486.644 15.3634H486.673C486.732 15.3924 486.791 15.4214 486.85 15.4214C486.968 15.4794 487.056 15.5374 487.176 15.5664C487.205 15.5664 487.235 15.5954 487.294 15.5954C487.323 15.5954 487.323 15.5954 487.352 15.6244C487.411 15.6533 487.441 15.6533 487.5 15.6533C487.765 15.6533 488.002 15.4794 488.09 15.2454C488.065 14.9306 487.828 14.6965 487.563 14.6386ZM479.025 13.7356L478.228 14.1146L477.431 13.7356L477.225 12.8906L477.786 12.1927H478.673L479.235 12.8906L479.025 13.7356ZM483.839 11.8448C483.986 12.4557 484.016 13.0667 483.957 13.6776L481.15 12.8927C480.885 12.8347 480.736 12.5717 480.795 12.3107C480.824 12.2238 480.854 12.1658 480.913 12.1078L483.129 10.1279C483.454 10.6519 483.692 11.2338 483.839 11.8448ZM482.243 9.05098L479.821 10.7389C479.615 10.8548 479.319 10.8258 479.172 10.6229C479.113 10.5649 479.083 10.5069 479.083 10.4199L478.907 7.48116C480.206 7.62613 481.358 8.17909 482.243 9.05098ZM476.897 7.56607L477.488 7.45009L477.34 10.3599C477.34 10.6208 477.105 10.8258 476.838 10.8258C476.75 10.8258 476.691 10.7968 476.602 10.7678L474.151 9.05098C474.916 8.32406 475.862 7.80009 476.897 7.56607ZM473.293 10.1279L475.48 12.0477C475.686 12.2217 475.715 12.5137 475.539 12.7167C475.48 12.8036 475.421 12.8326 475.303 12.8616L472.437 13.6755C472.347 12.4557 472.641 11.2048 473.293 10.1279ZM472.791 15.0465L475.715 14.5516C475.951 14.5516 476.188 14.6965 476.218 14.9306C476.247 15.0175 476.247 15.1335 476.188 15.2226L475.066 17.9004C474.031 17.2294 473.203 16.2104 472.791 15.0465ZM479.498 18.6542C479.083 18.7412 478.671 18.7992 478.228 18.7992C477.607 18.7992 476.958 18.6832 476.367 18.5072L477.816 15.9164C477.963 15.7424 478.2 15.6844 478.406 15.8004C478.495 15.8584 478.554 15.9164 478.642 16.0033L480.061 18.5362C479.88 18.5673 479.704 18.5962 479.498 18.6542ZM483.101 16.1235C482.658 16.8214 482.037 17.4323 481.329 17.8693L480.177 15.1335C480.118 14.9016 480.236 14.6675 480.442 14.5806C480.53 14.5516 480.618 14.5226 480.707 14.5226L483.661 15.0175C483.515 15.4235 483.337 15.8025 483.101 16.1235Z" fill="white"/>
</g>
<defs>
<clipPath id="clip0_252_21361">
<rect width="503" height="186.761" fill="white"/>
</clipPath>
</defs>
</svg>
