<svg width="641" height="238" viewBox="0 0 641 238" fill="none" xmlns="http://www.w3.org/2000/svg">
<rect x="1" y="16" width="639" height="221" rx="5" fill="white"/>
<ellipse cx="320" cy="91.2025" rx="45.9822" ry="6.20248" stroke="#FF8D4D" stroke-width="2.60892"/>
<path d="M274.017 161.697C274.017 165.086 294.604 167.833 319.999 167.833C345.395 167.833 365.981 165.086 365.981 161.697" stroke="#FF8D4D" stroke-width="2.60892"/>
<path d="M274.017 112.611C274.017 116 294.604 118.747 319.999 118.747C345.395 118.747 365.981 116 365.981 112.611" stroke="#FF8D4D" stroke-width="2.60892"/>
<path d="M274.017 137.154C274.017 140.543 294.604 143.29 319.999 143.29C345.395 143.29 365.981 140.543 365.981 137.154" stroke="#FF8D4D" stroke-width="2.60892"/>
<path d="M274.018 91.2891V161.85M365.982 91.2891V161.85" stroke="#FF8D4D" stroke-width="2.60892"/>
<path d="M303.313 124.398H305.397L309.022 133.247H309.155L312.779 124.398H314.864V135.782H313.23V127.544H313.124L309.766 135.766H308.41L305.053 127.539H304.947V135.782H303.313V124.398ZM319.712 135.971C319.171 135.971 318.682 135.871 318.245 135.671C317.808 135.467 317.461 135.173 317.205 134.787C316.953 134.402 316.827 133.929 316.827 133.37C316.827 132.888 316.92 132.491 317.105 132.18C317.291 131.869 317.541 131.622 317.856 131.441C318.171 131.259 318.523 131.122 318.912 131.029C319.301 130.937 319.698 130.866 320.102 130.818C320.613 130.759 321.028 130.711 321.347 130.674C321.665 130.633 321.897 130.568 322.042 130.479C322.186 130.39 322.258 130.246 322.258 130.046V130.007C322.258 129.521 322.121 129.145 321.847 128.878C321.576 128.611 321.173 128.478 320.635 128.478C320.076 128.478 319.635 128.602 319.312 128.85C318.993 129.095 318.773 129.367 318.651 129.668L317.089 129.312C317.274 128.793 317.545 128.374 317.9 128.056C318.26 127.733 318.673 127.5 319.14 127.355C319.607 127.207 320.098 127.133 320.613 127.133C320.954 127.133 321.315 127.174 321.697 127.255C322.082 127.333 322.442 127.477 322.775 127.689C323.113 127.9 323.389 128.202 323.604 128.595C323.819 128.984 323.926 129.49 323.926 130.112V135.782H322.303V134.615H322.236C322.129 134.83 321.967 135.041 321.753 135.249C321.538 135.456 321.261 135.628 320.924 135.766C320.587 135.903 320.183 135.971 319.712 135.971ZM320.074 134.637C320.533 134.637 320.926 134.546 321.252 134.365C321.582 134.183 321.832 133.946 322.003 133.653C322.177 133.357 322.264 133.04 322.264 132.703V131.602C322.205 131.661 322.09 131.717 321.919 131.769C321.753 131.817 321.562 131.86 321.347 131.897C321.132 131.93 320.922 131.961 320.719 131.991C320.515 132.017 320.344 132.039 320.207 132.058C319.885 132.099 319.59 132.167 319.323 132.264C319.06 132.36 318.849 132.499 318.69 132.68C318.534 132.858 318.456 133.095 318.456 133.392C318.456 133.803 318.608 134.115 318.912 134.326C319.216 134.533 319.603 134.637 320.074 134.637ZM326.14 135.782V127.244H327.802V135.782H326.14ZM326.979 125.927C326.69 125.927 326.442 125.83 326.234 125.637C326.03 125.441 325.929 125.208 325.929 124.937C325.929 124.663 326.03 124.429 326.234 124.237C326.442 124.04 326.69 123.942 326.979 123.942C327.268 123.942 327.515 124.04 327.718 124.237C327.926 124.429 328.03 124.663 328.03 124.937C328.03 125.208 327.926 125.441 327.718 125.637C327.515 125.83 327.268 125.927 326.979 125.927ZM331.7 130.713V135.782H330.038V127.244H331.633V128.634H331.739C331.935 128.182 332.243 127.818 332.662 127.544C333.084 127.27 333.616 127.133 334.257 127.133C334.839 127.133 335.348 127.255 335.786 127.5C336.223 127.741 336.562 128.1 336.803 128.578C337.044 129.056 337.164 129.647 337.164 130.351V135.782H335.502V130.551C335.502 129.933 335.341 129.449 335.019 129.101C334.696 128.749 334.253 128.572 333.69 128.572C333.305 128.572 332.962 128.656 332.662 128.823C332.365 128.989 332.13 129.234 331.956 129.556C331.785 129.875 331.7 130.261 331.7 130.713Z" fill="#2F5DFF"/>
<ellipse cx="109.982" cy="91.2025" rx="45.9822" ry="6.20248" stroke="#FF8D4D" stroke-width="2.60892"/>
<path d="M63.9995 161.697C63.9995 165.086 84.5865 167.833 109.982 167.833C135.377 167.833 155.964 165.086 155.964 161.697" stroke="#FF8D4D" stroke-width="2.60892"/>
<path d="M63.9995 112.611C63.9995 116 84.5865 118.747 109.982 118.747C135.377 118.747 155.964 116 155.964 112.611" stroke="#FF8D4D" stroke-width="2.60892"/>
<path d="M63.9995 137.154C63.9995 140.543 84.5865 143.29 109.982 143.29C135.377 143.29 155.964 140.543 155.964 137.154" stroke="#FF8D4D" stroke-width="2.60892"/>
<path d="M64 91.2891V161.85M155.964 91.2891V161.85" stroke="#FF8D4D" stroke-width="2.60892"/>
<path d="M84.1919 135.782V124.398H88.2498C89.1318 124.398 89.8637 124.55 90.4455 124.854C91.031 125.158 91.4683 125.578 91.7574 126.116C92.0464 126.649 92.191 127.266 92.191 127.967C92.191 128.663 92.0446 129.277 91.7518 129.807C91.4628 130.333 91.0255 130.742 90.44 131.035C89.8581 131.328 89.1262 131.474 88.2442 131.474H85.1702V129.996H88.0886C88.6445 129.996 89.0966 129.916 89.4449 129.757C89.797 129.597 90.0546 129.366 90.2176 129.062C90.3807 128.758 90.4622 128.393 90.4622 127.967C90.4622 127.537 90.3788 127.164 90.2121 126.849C90.049 126.534 89.7914 126.293 89.4394 126.127C89.091 125.956 88.6334 125.871 88.0664 125.871H85.9096V135.782H84.1919ZM89.8118 130.646L92.6246 135.782H90.6679L87.9107 130.646H89.8118ZM97.7206 135.955C96.8793 135.955 96.1548 135.775 95.5471 135.415C94.943 135.052 94.4761 134.543 94.1463 133.887C93.8202 133.227 93.6571 132.454 93.6571 131.569C93.6571 130.694 93.8202 129.923 94.1463 129.256C94.4761 128.589 94.9356 128.069 95.5248 127.694C96.1178 127.32 96.8108 127.133 97.6038 127.133C98.0856 127.133 98.5525 127.212 99.0046 127.372C99.4568 127.531 99.8625 127.781 100.222 128.122C100.581 128.463 100.865 128.906 101.073 129.451C101.28 129.992 101.384 130.65 101.384 131.424V132.013H94.5965V130.768H99.7551C99.7551 130.331 99.6661 129.944 99.4883 129.606C99.3104 129.265 99.0602 128.997 98.7378 128.8C98.4191 128.604 98.0448 128.506 97.6149 128.506C97.148 128.506 96.7404 128.621 96.392 128.85C96.0474 129.076 95.7805 129.373 95.5916 129.74C95.4063 130.103 95.3136 130.498 95.3136 130.924V131.897C95.3136 132.467 95.4137 132.953 95.6138 133.353C95.8176 133.753 96.1011 134.059 96.4643 134.27C96.8275 134.478 97.2518 134.582 97.7372 134.582C98.0522 134.582 98.3394 134.537 98.5988 134.448C98.8583 134.355 99.0825 134.218 99.2715 134.037C99.4605 133.855 99.605 133.631 99.705 133.364L101.278 133.648C101.152 134.111 100.926 134.517 100.6 134.865C100.278 135.21 99.8718 135.478 99.3826 135.671C98.8972 135.86 98.3431 135.955 97.7206 135.955ZM103.228 138.984V127.244H104.851V128.628H104.99C105.086 128.45 105.225 128.245 105.407 128.011C105.589 127.778 105.841 127.574 106.163 127.4C106.485 127.222 106.912 127.133 107.441 127.133C108.131 127.133 108.746 127.307 109.287 127.655C109.828 128.004 110.252 128.506 110.56 129.162C110.871 129.818 111.027 130.607 111.027 131.53C111.027 132.453 110.873 133.244 110.565 133.903C110.258 134.559 109.835 135.065 109.298 135.421C108.761 135.773 108.147 135.949 107.458 135.949C106.939 135.949 106.515 135.862 106.185 135.688C105.859 135.514 105.603 135.31 105.418 135.076C105.233 134.843 105.09 134.635 104.99 134.454H104.89V138.984H103.228ZM104.857 131.513C104.857 132.113 104.944 132.64 105.118 133.092C105.292 133.544 105.544 133.898 105.874 134.154C106.204 134.406 106.608 134.532 107.086 134.532C107.582 134.532 107.997 134.4 108.331 134.137C108.664 133.87 108.916 133.509 109.087 133.053C109.261 132.597 109.348 132.084 109.348 131.513C109.348 130.95 109.263 130.444 109.092 129.996C108.926 129.547 108.674 129.193 108.336 128.934C108.003 128.674 107.586 128.545 107.086 128.545C106.604 128.545 106.196 128.669 105.863 128.917C105.533 129.165 105.283 129.512 105.112 129.957C104.942 130.401 104.857 130.92 104.857 131.513ZM114.551 124.398V135.782H112.889V124.398H114.551ZM116.787 135.782V127.244H118.449V135.782H116.787ZM117.627 125.927C117.337 125.927 117.089 125.83 116.882 125.637C116.678 125.441 116.576 125.208 116.576 124.937C116.576 124.663 116.678 124.429 116.882 124.237C117.089 124.04 117.337 123.942 117.627 123.942C117.916 123.942 118.162 124.04 118.366 124.237C118.573 124.429 118.677 124.663 118.677 124.937C118.677 125.208 118.573 125.441 118.366 125.637C118.162 125.83 117.916 125.927 117.627 125.927ZM124.282 135.955C123.455 135.955 122.744 135.767 122.147 135.393C121.554 135.015 121.098 134.494 120.78 133.831C120.461 133.168 120.302 132.408 120.302 131.552C120.302 130.685 120.465 129.92 120.791 129.256C121.117 128.589 121.576 128.069 122.169 127.694C122.762 127.32 123.461 127.133 124.265 127.133C124.914 127.133 125.492 127.253 125.999 127.494C126.507 127.731 126.917 128.065 127.228 128.495C127.543 128.925 127.73 129.427 127.789 130.001H126.172C126.083 129.601 125.879 129.256 125.56 128.967C125.245 128.678 124.823 128.534 124.293 128.534C123.83 128.534 123.424 128.656 123.076 128.9C122.731 129.141 122.462 129.486 122.269 129.934C122.077 130.379 121.98 130.905 121.98 131.513C121.98 132.136 122.075 132.673 122.264 133.125C122.453 133.577 122.72 133.927 123.064 134.176C123.413 134.424 123.822 134.548 124.293 134.548C124.608 134.548 124.893 134.491 125.149 134.376C125.408 134.257 125.625 134.089 125.799 133.87C125.977 133.651 126.101 133.388 126.172 133.081H127.789C127.73 133.633 127.55 134.126 127.25 134.559C126.95 134.993 126.548 135.334 126.044 135.582C125.544 135.83 124.956 135.955 124.282 135.955ZM132.052 135.971C131.51 135.971 131.021 135.871 130.584 135.671C130.147 135.467 129.8 135.173 129.545 134.787C129.293 134.402 129.167 133.929 129.167 133.37C129.167 132.888 129.259 132.491 129.444 132.18C129.63 131.869 129.88 131.622 130.195 131.441C130.51 131.259 130.862 131.122 131.251 131.029C131.64 130.937 132.037 130.866 132.441 130.818C132.952 130.759 133.367 130.711 133.686 130.674C134.005 130.633 134.236 130.568 134.381 130.479C134.525 130.39 134.597 130.246 134.597 130.046V130.007C134.597 129.521 134.46 129.145 134.186 128.878C133.916 128.611 133.512 128.478 132.974 128.478C132.415 128.478 131.974 128.602 131.651 128.85C131.333 129.095 131.112 129.367 130.99 129.668L129.428 129.312C129.613 128.793 129.884 128.374 130.239 128.056C130.599 127.733 131.012 127.5 131.479 127.355C131.946 127.207 132.437 127.133 132.952 127.133C133.293 127.133 133.654 127.174 134.036 127.255C134.421 127.333 134.781 127.477 135.114 127.689C135.452 127.9 135.728 128.202 135.943 128.595C136.158 128.984 136.265 129.49 136.265 130.112V135.782H134.642V134.615H134.575C134.468 134.83 134.307 135.041 134.092 135.249C133.877 135.456 133.601 135.628 133.263 135.766C132.926 135.903 132.522 135.971 132.052 135.971ZM132.413 134.637C132.872 134.637 133.265 134.546 133.591 134.365C133.921 134.183 134.171 133.946 134.342 133.653C134.516 133.357 134.603 133.04 134.603 132.703V131.602C134.544 131.661 134.429 131.717 134.258 131.769C134.092 131.817 133.901 131.86 133.686 131.897C133.471 131.93 133.261 131.961 133.058 131.991C132.854 132.017 132.683 132.039 132.546 132.058C132.224 132.099 131.929 132.167 131.662 132.264C131.399 132.36 131.188 132.499 131.029 132.68C130.873 132.858 130.795 133.095 130.795 133.392C130.795 133.803 130.947 134.115 131.251 134.326C131.555 134.533 131.942 134.637 132.413 134.637Z" fill="black"/>
<ellipse cx="530.017" cy="91.2025" rx="45.9822" ry="6.20248" stroke="#FF8D4D" stroke-width="2.60892"/>
<path d="M484.035 161.697C484.035 165.086 504.622 167.833 530.017 167.833C555.412 167.833 575.999 165.086 575.999 161.697" stroke="#FF8D4D" stroke-width="2.60892"/>
<path d="M484.035 112.611C484.035 116 504.622 118.747 530.017 118.747C555.412 118.747 575.999 116 575.999 112.611" stroke="#FF8D4D" stroke-width="2.60892"/>
<path d="M484.035 137.154C484.035 140.543 504.622 143.29 530.017 143.29C555.412 143.29 575.999 140.543 575.999 137.154" stroke="#FF8D4D" stroke-width="2.60892"/>
<path d="M484.035 91.2891V161.85M575.999 91.2891V161.85" stroke="#FF8D4D" stroke-width="2.60892"/>
<path d="M504.227 135.782V124.398H508.285C509.167 124.398 509.899 124.55 510.481 124.854C511.066 125.158 511.503 125.578 511.793 126.116C512.082 126.649 512.226 127.266 512.226 127.967C512.226 128.663 512.08 129.277 511.787 129.807C511.498 130.333 511.061 130.742 510.475 131.035C509.893 131.328 509.161 131.474 508.279 131.474H505.205V129.996H508.124C508.68 129.996 509.132 129.916 509.48 129.757C509.832 129.597 510.09 129.366 510.253 129.062C510.416 128.758 510.497 128.393 510.497 127.967C510.497 127.537 510.414 127.164 510.247 126.849C510.084 126.534 509.827 126.293 509.475 126.127C509.126 125.956 508.669 125.871 508.102 125.871H505.945V135.782H504.227ZM509.847 130.646L512.66 135.782H510.703L507.946 130.646H509.847ZM517.756 135.955C516.914 135.955 516.19 135.775 515.582 135.415C514.978 135.052 514.511 134.543 514.181 133.887C513.855 133.227 513.692 132.454 513.692 131.569C513.692 130.694 513.855 129.923 514.181 129.256C514.511 128.589 514.971 128.069 515.56 127.694C516.153 127.32 516.846 127.133 517.639 127.133C518.121 127.133 518.588 127.212 519.04 127.372C519.492 127.531 519.898 127.781 520.257 128.122C520.617 128.463 520.9 128.906 521.108 129.451C521.315 129.992 521.419 130.65 521.419 131.424V132.013H514.632V130.768H519.79C519.79 130.331 519.701 129.944 519.523 129.606C519.346 129.265 519.095 128.997 518.773 128.8C518.454 128.604 518.08 128.506 517.65 128.506C517.183 128.506 516.776 128.621 516.427 128.85C516.083 129.076 515.816 129.373 515.627 129.74C515.441 130.103 515.349 130.498 515.349 130.924V131.897C515.349 132.467 515.449 132.953 515.649 133.353C515.853 133.753 516.136 134.059 516.499 134.27C516.863 134.478 517.287 134.582 517.772 134.582C518.087 134.582 518.375 134.537 518.634 134.448C518.893 134.355 519.118 134.218 519.307 134.037C519.496 133.855 519.64 133.631 519.74 133.364L521.313 133.648C521.187 134.111 520.961 134.517 520.635 134.865C520.313 135.21 519.907 135.478 519.418 135.671C518.932 135.86 518.378 135.955 517.756 135.955ZM523.263 138.984V127.244H524.886V128.628H525.025C525.122 128.45 525.261 128.245 525.442 128.011C525.624 127.778 525.876 127.574 526.198 127.4C526.521 127.222 526.947 127.133 527.477 127.133C528.166 127.133 528.781 127.307 529.322 127.655C529.863 128.004 530.288 128.506 530.595 129.162C530.906 129.818 531.062 130.607 531.062 131.53C531.062 132.453 530.908 133.244 530.601 133.903C530.293 134.559 529.871 135.065 529.333 135.421C528.796 135.773 528.183 135.949 527.493 135.949C526.974 135.949 526.55 135.862 526.22 135.688C525.894 135.514 525.639 135.31 525.453 135.076C525.268 134.843 525.125 134.635 525.025 134.454H524.925V138.984H523.263ZM524.892 131.513C524.892 132.113 524.979 132.64 525.153 133.092C525.327 133.544 525.579 133.898 525.909 134.154C526.239 134.406 526.643 134.532 527.121 134.532C527.617 134.532 528.032 134.4 528.366 134.137C528.7 133.87 528.952 133.509 529.122 133.053C529.296 132.597 529.383 132.084 529.383 131.513C529.383 130.95 529.298 130.444 529.128 129.996C528.961 129.547 528.709 129.193 528.372 128.934C528.038 128.674 527.621 128.545 527.121 128.545C526.639 128.545 526.231 128.669 525.898 128.917C525.568 129.165 525.318 129.512 525.147 129.957C524.977 130.401 524.892 130.92 524.892 131.513ZM534.586 124.398V135.782H532.924V124.398H534.586ZM536.822 135.782V127.244H538.484V135.782H536.822ZM537.662 125.927C537.373 125.927 537.124 125.83 536.917 125.637C536.713 125.441 536.611 125.208 536.611 124.937C536.611 124.663 536.713 124.429 536.917 124.237C537.124 124.04 537.373 123.942 537.662 123.942C537.951 123.942 538.197 124.04 538.401 124.237C538.609 124.429 538.712 124.663 538.712 124.937C538.712 125.208 538.609 125.441 538.401 125.637C538.197 125.83 537.951 125.927 537.662 125.927ZM544.317 135.955C543.491 135.955 542.779 135.767 542.182 135.393C541.589 135.015 541.134 134.494 540.815 133.831C540.496 133.168 540.337 132.408 540.337 131.552C540.337 130.685 540.5 129.92 540.826 129.256C541.152 128.589 541.612 128.069 542.205 127.694C542.798 127.32 543.496 127.133 544.3 127.133C544.949 127.133 545.527 127.253 546.035 127.494C546.542 127.731 546.952 128.065 547.263 128.495C547.578 128.925 547.765 129.427 547.825 130.001H546.207C546.118 129.601 545.914 129.256 545.595 128.967C545.28 128.678 544.858 128.534 544.328 128.534C543.865 128.534 543.459 128.656 543.111 128.9C542.766 129.141 542.497 129.486 542.305 129.934C542.112 130.379 542.016 130.905 542.016 131.513C542.016 132.136 542.11 132.673 542.299 133.125C542.488 133.577 542.755 133.927 543.1 134.176C543.448 134.424 543.857 134.548 544.328 134.548C544.643 134.548 544.928 134.491 545.184 134.376C545.443 134.257 545.66 134.089 545.834 133.87C546.012 133.651 546.136 133.388 546.207 133.081H547.825C547.765 133.633 547.585 134.126 547.285 134.559C546.985 134.993 546.583 135.334 546.079 135.582C545.579 135.83 544.991 135.955 544.317 135.955ZM552.087 135.971C551.546 135.971 551.056 135.871 550.619 135.671C550.182 135.467 549.835 135.173 549.58 134.787C549.328 134.402 549.202 133.929 549.202 133.37C549.202 132.888 549.294 132.491 549.48 132.18C549.665 131.869 549.915 131.622 550.23 131.441C550.545 131.259 550.897 131.122 551.286 131.029C551.675 130.937 552.072 130.866 552.476 130.818C552.987 130.759 553.402 130.711 553.721 130.674C554.04 130.633 554.271 130.568 554.416 130.479C554.56 130.39 554.633 130.246 554.633 130.046V130.007C554.633 129.521 554.495 129.145 554.221 128.878C553.951 128.611 553.547 128.478 553.009 128.478C552.45 128.478 552.009 128.602 551.686 128.85C551.368 129.095 551.147 129.367 551.025 129.668L549.463 129.312C549.648 128.793 549.919 128.374 550.275 128.056C550.634 127.733 551.047 127.5 551.514 127.355C551.981 127.207 552.472 127.133 552.987 127.133C553.328 127.133 553.689 127.174 554.071 127.255C554.457 127.333 554.816 127.477 555.15 127.689C555.487 127.9 555.763 128.202 555.978 128.595C556.193 128.984 556.3 129.49 556.3 130.112V135.782H554.677V134.615H554.61C554.503 134.83 554.342 135.041 554.127 135.249C553.912 135.456 553.636 135.628 553.299 135.766C552.961 135.903 552.557 135.971 552.087 135.971ZM552.448 134.637C552.908 134.637 553.3 134.546 553.626 134.365C553.956 134.183 554.206 133.946 554.377 133.653C554.551 133.357 554.638 133.04 554.638 132.703V131.602C554.579 131.661 554.464 131.717 554.294 131.769C554.127 131.817 553.936 131.86 553.721 131.897C553.506 131.93 553.297 131.961 553.093 131.991C552.889 132.017 552.719 132.039 552.581 132.058C552.259 132.099 551.964 132.167 551.698 132.264C551.434 132.36 551.223 132.499 551.064 132.68C550.908 132.858 550.83 133.095 550.83 133.392C550.83 133.803 550.982 134.115 551.286 134.326C551.59 134.533 551.977 134.637 552.448 134.637Z" fill="black"/>
<line x1="365.982" y1="125.438" x2="484.036" y2="125.438" stroke="#FF8D4D" stroke-opacity="0.8" stroke-width="2.60892" stroke-dasharray="5.22 5.22"/>
<line x1="155.965" y1="125.438" x2="274.018" y2="125.438" stroke="#FF8D4D" stroke-opacity="0.8" stroke-width="2.60892" stroke-dasharray="5.22 5.22"/>
<path d="M276.168 192.617V181.232H280.226C281.108 181.232 281.84 181.384 282.421 181.688C283.007 181.992 283.444 182.413 283.733 182.95C284.022 183.484 284.167 184.101 284.167 184.801C284.167 185.498 284.02 186.111 283.728 186.641C283.439 187.167 283.001 187.577 282.416 187.87C281.834 188.162 281.102 188.309 280.22 188.309H277.146V186.83H280.064C280.62 186.83 281.072 186.75 281.421 186.591C281.773 186.432 282.03 186.2 282.193 185.896C282.357 185.592 282.438 185.227 282.438 184.801C282.438 184.371 282.355 183.999 282.188 183.684C282.025 183.369 281.767 183.128 281.415 182.961C281.067 182.791 280.609 182.705 280.042 182.705H277.885V192.617H276.168ZM281.788 187.48L284.6 192.617H282.644L279.887 187.48H281.788ZM289.696 192.789C288.855 192.789 288.131 192.609 287.523 192.25C286.919 191.887 286.452 191.377 286.122 190.721C285.796 190.062 285.633 189.289 285.633 188.403C285.633 187.529 285.796 186.758 286.122 186.091C286.452 185.424 286.911 184.903 287.501 184.529C288.094 184.154 288.787 183.967 289.58 183.967C290.061 183.967 290.528 184.047 290.981 184.206C291.433 184.366 291.838 184.616 292.198 184.957C292.557 185.298 292.841 185.74 293.048 186.285C293.256 186.826 293.36 187.484 293.36 188.259V188.848H286.572V187.603H291.731C291.731 187.165 291.642 186.778 291.464 186.441C291.286 186.1 291.036 185.831 290.714 185.635C290.395 185.438 290.021 185.34 289.591 185.34C289.124 185.34 288.716 185.455 288.368 185.685C288.023 185.911 287.756 186.207 287.567 186.574C287.382 186.937 287.289 187.332 287.289 187.758V188.731C287.289 189.302 287.39 189.787 287.59 190.188C287.793 190.588 288.077 190.893 288.44 191.105C288.803 191.312 289.228 191.416 289.713 191.416C290.028 191.416 290.315 191.372 290.575 191.283C290.834 191.19 291.058 191.053 291.247 190.871C291.436 190.69 291.581 190.465 291.681 190.199L293.254 190.482C293.128 190.945 292.902 191.351 292.576 191.7C292.253 192.044 291.848 192.313 291.359 192.506C290.873 192.695 290.319 192.789 289.696 192.789ZM297.689 192.806C297.148 192.806 296.658 192.706 296.221 192.506C295.784 192.302 295.437 192.007 295.182 191.622C294.93 191.236 294.804 190.764 294.804 190.204C294.804 189.722 294.896 189.326 295.081 189.015C295.267 188.703 295.517 188.457 295.832 188.275C296.147 188.094 296.499 187.957 296.888 187.864C297.277 187.771 297.674 187.701 298.078 187.653C298.589 187.593 299.004 187.545 299.323 187.508C299.642 187.467 299.873 187.403 300.018 187.314C300.162 187.225 300.234 187.08 300.234 186.88V186.841C300.234 186.356 300.097 185.98 299.823 185.713C299.553 185.446 299.149 185.312 298.611 185.312C298.052 185.312 297.611 185.437 297.288 185.685C296.97 185.929 296.749 186.202 296.627 186.502L295.065 186.146C295.25 185.627 295.521 185.209 295.876 184.89C296.236 184.568 296.649 184.334 297.116 184.19C297.583 184.041 298.074 183.967 298.589 183.967C298.93 183.967 299.291 184.008 299.673 184.09C300.058 184.167 300.418 184.312 300.751 184.523C301.089 184.734 301.365 185.036 301.58 185.429C301.795 185.818 301.902 186.324 301.902 186.947V192.617H300.279V191.449H300.212C300.105 191.664 299.944 191.876 299.729 192.083C299.514 192.291 299.238 192.463 298.9 192.6C298.563 192.737 298.159 192.806 297.689 192.806ZM298.05 191.472C298.509 191.472 298.902 191.381 299.228 191.199C299.558 191.018 299.808 190.78 299.979 190.488C300.153 190.191 300.24 189.874 300.24 189.537V188.437C300.181 188.496 300.066 188.551 299.895 188.603C299.729 188.651 299.538 188.694 299.323 188.731C299.108 188.764 298.899 188.796 298.695 188.826C298.491 188.852 298.32 188.874 298.183 188.892C297.861 188.933 297.566 189.002 297.299 189.098C297.036 189.194 296.825 189.333 296.666 189.515C296.51 189.693 296.432 189.93 296.432 190.226C296.432 190.638 296.584 190.949 296.888 191.16C297.192 191.368 297.579 191.472 298.05 191.472ZM307.312 192.783C306.623 192.783 306.008 192.607 305.467 192.255C304.929 191.9 304.507 191.394 304.199 190.738C303.895 190.078 303.743 189.287 303.743 188.364C303.743 187.441 303.897 186.652 304.205 185.996C304.516 185.34 304.942 184.838 305.483 184.49C306.024 184.141 306.638 183.967 307.323 183.967C307.853 183.967 308.279 184.056 308.602 184.234C308.928 184.408 309.18 184.612 309.358 184.846C309.539 185.079 309.68 185.285 309.78 185.463H309.88V181.232H311.542V192.617H309.919V191.288H309.78C309.68 191.47 309.536 191.677 309.347 191.911C309.161 192.144 308.906 192.348 308.58 192.522C308.253 192.696 307.831 192.783 307.312 192.783ZM307.679 191.366C308.157 191.366 308.561 191.24 308.891 190.988C309.224 190.732 309.476 190.378 309.647 189.926C309.821 189.474 309.908 188.948 309.908 188.348C309.908 187.755 309.823 187.236 309.652 186.791C309.482 186.346 309.232 186 308.902 185.752C308.572 185.503 308.165 185.379 307.679 185.379C307.179 185.379 306.762 185.509 306.428 185.768C306.095 186.028 305.843 186.382 305.672 186.83C305.506 187.278 305.422 187.784 305.422 188.348C305.422 188.918 305.507 189.432 305.678 189.887C305.848 190.343 306.1 190.704 306.434 190.971C306.771 191.234 307.186 191.366 307.679 191.366ZM322.393 180.699L318.724 194.329H317.24L320.909 180.699H322.393ZM330.31 192.617L327.153 181.232H328.959L331.177 190.049H331.283L333.59 181.232H335.38L337.687 190.054H337.792L340.005 181.232H341.817L338.654 192.617H336.925L334.529 184.09H334.44L332.045 192.617H330.31ZM342.715 192.617V184.078H344.321V185.435H344.41C344.566 184.975 344.84 184.614 345.233 184.351C345.629 184.084 346.078 183.951 346.578 183.951C346.682 183.951 346.804 183.954 346.945 183.962C347.089 183.969 347.202 183.978 347.284 183.989V185.579C347.217 185.561 347.099 185.54 346.928 185.518C346.758 185.492 346.587 185.479 346.417 185.479C346.024 185.479 345.674 185.563 345.366 185.729C345.062 185.892 344.821 186.12 344.644 186.413C344.466 186.702 344.377 187.032 344.377 187.403V192.617H342.715ZM348.722 192.617V184.078H350.384V192.617H348.722ZM349.562 182.761C349.273 182.761 349.024 182.665 348.817 182.472C348.613 182.276 348.511 182.042 348.511 181.772C348.511 181.497 348.613 181.264 348.817 181.071C349.024 180.875 349.273 180.777 349.562 180.777C349.851 180.777 350.097 180.875 350.301 181.071C350.508 181.264 350.612 181.497 350.612 181.772C350.612 182.042 350.508 182.276 350.301 182.472C350.097 182.665 349.851 182.761 349.562 182.761ZM356.606 184.078V185.413H351.942V184.078H356.606ZM353.193 182.033H354.855V190.11C354.855 190.432 354.903 190.675 355 190.838C355.096 190.997 355.22 191.107 355.372 191.166C355.528 191.221 355.696 191.249 355.878 191.249C356.011 191.249 356.128 191.24 356.228 191.221C356.328 191.203 356.406 191.188 356.461 191.177L356.762 192.55C356.665 192.587 356.528 192.624 356.35 192.661C356.172 192.702 355.95 192.724 355.683 192.728C355.246 192.735 354.838 192.657 354.46 192.494C354.082 192.331 353.777 192.079 353.543 191.738C353.31 191.397 353.193 190.969 353.193 190.454V182.033ZM362.033 192.789C361.192 192.789 360.467 192.609 359.859 192.25C359.255 191.887 358.788 191.377 358.458 190.721C358.132 190.062 357.969 189.289 357.969 188.403C357.969 187.529 358.132 186.758 358.458 186.091C358.788 185.424 359.248 184.903 359.837 184.529C360.43 184.154 361.123 183.967 361.916 183.967C362.398 183.967 362.865 184.047 363.317 184.206C363.769 184.366 364.175 184.616 364.534 184.957C364.894 185.298 365.177 185.74 365.385 186.285C365.592 186.826 365.696 187.484 365.696 188.259V188.848H358.909V187.603H364.067C364.067 187.165 363.978 186.778 363.8 186.441C363.623 186.1 363.372 185.831 363.05 185.635C362.731 185.438 362.357 185.34 361.927 185.34C361.46 185.34 361.053 185.455 360.704 185.685C360.36 185.911 360.093 186.207 359.904 186.574C359.718 186.937 359.626 187.332 359.626 187.758V188.731C359.626 189.302 359.726 189.787 359.926 190.188C360.13 190.588 360.413 190.893 360.776 191.105C361.14 191.312 361.564 191.416 362.049 191.416C362.364 191.416 362.652 191.372 362.911 191.283C363.17 191.19 363.395 191.053 363.584 190.871C363.773 190.69 363.917 190.465 364.017 190.199L365.59 190.482C365.464 190.945 365.238 191.351 364.912 191.7C364.59 192.044 364.184 192.313 363.695 192.506C363.209 192.695 362.655 192.789 362.033 192.789Z" fill="#5379FF"/>
<path d="M74.5943 192.617V181.232H78.6522C79.5342 181.232 80.2661 181.384 80.8479 181.688C81.4335 181.992 81.8708 182.413 82.1598 182.95C82.4489 183.484 82.5934 184.101 82.5934 184.801C82.5934 185.498 82.447 186.111 82.1543 186.641C81.8652 187.167 81.4279 187.577 80.8424 187.87C80.2606 188.162 79.5287 188.309 78.6467 188.309H75.5727V186.83H78.491C79.0469 186.83 79.499 186.75 79.8474 186.591C80.1994 186.432 80.457 186.2 80.62 185.896C80.7831 185.592 80.8646 185.227 80.8646 184.801C80.8646 184.371 80.7812 183.999 80.6145 183.684C80.4514 183.369 80.1939 183.128 79.8418 182.961C79.4935 182.791 79.0358 182.705 78.4688 182.705H76.312V192.617H74.5943ZM80.2142 187.48L83.027 192.617H81.0703L78.3131 187.48H80.2142ZM88.123 192.789C87.2818 192.789 86.5573 192.609 85.9495 192.25C85.3455 191.887 84.8785 191.377 84.5487 190.721C84.2226 190.062 84.0595 189.289 84.0595 188.403C84.0595 187.529 84.2226 186.758 84.5487 186.091C84.8785 185.424 85.338 184.903 85.9273 184.529C86.5202 184.154 87.2132 183.967 88.0062 183.967C88.488 183.967 88.9549 184.047 89.4071 184.206C89.8592 184.366 90.265 184.616 90.6244 184.957C90.9839 185.298 91.2674 185.74 91.4749 186.285C91.6825 186.826 91.7862 187.484 91.7862 188.259V188.848H84.999V187.603H90.1575C90.1575 187.165 90.0686 186.778 89.8907 186.441C89.7128 186.1 89.4626 185.831 89.1402 185.635C88.8215 185.438 88.4472 185.34 88.0174 185.34C87.5504 185.34 87.1428 185.455 86.7944 185.685C86.4498 185.911 86.183 186.207 85.994 186.574C85.8087 186.937 85.716 187.332 85.716 187.758V188.731C85.716 189.302 85.8161 189.787 86.0162 190.188C86.22 190.588 86.5035 190.893 86.8667 191.105C87.2299 191.312 87.6542 191.416 88.1397 191.416C88.4547 191.416 88.7419 191.372 89.0013 191.283C89.2607 191.19 89.4849 191.053 89.6739 190.871C89.8629 190.69 90.0074 190.465 90.1075 190.199L91.6806 190.482C91.5546 190.945 91.3285 191.351 91.0024 191.7C90.68 192.044 90.2742 192.313 89.7851 192.506C89.2996 192.695 88.7456 192.789 88.123 192.789ZM96.1151 192.806C95.5741 192.806 95.0849 192.706 94.6476 192.506C94.2103 192.302 93.8638 192.007 93.6081 191.622C93.3561 191.236 93.2301 190.764 93.2301 190.204C93.2301 189.722 93.3228 189.326 93.508 189.015C93.6933 188.703 93.9435 188.457 94.2585 188.275C94.5735 188.094 94.9255 187.957 95.3146 187.864C95.7038 187.771 96.1003 187.701 96.5042 187.653C97.0156 187.593 97.4307 187.545 97.7494 187.508C98.0681 187.467 98.2997 187.403 98.4442 187.314C98.5888 187.225 98.661 187.08 98.661 186.88V186.841C98.661 186.356 98.5239 185.98 98.2497 185.713C97.9791 185.446 97.5752 185.312 97.0379 185.312C96.4783 185.312 96.0373 185.437 95.7149 185.685C95.3962 185.929 95.1757 186.202 95.0534 186.502L93.4914 186.146C93.6767 185.627 93.9472 185.209 94.3029 184.89C94.6624 184.568 95.0756 184.334 95.5426 184.19C96.0095 184.041 96.5005 183.967 97.0156 183.967C97.3566 183.967 97.7179 184.008 98.0996 184.09C98.485 184.167 98.8445 184.312 99.178 184.523C99.5152 184.734 99.7913 185.036 100.006 185.429C100.221 185.818 100.329 186.324 100.329 186.947V192.617H98.7055V191.449H98.6388C98.5313 191.664 98.3701 191.876 98.1552 192.083C97.9402 192.291 97.6642 192.463 97.3269 192.6C96.9897 192.737 96.5858 192.806 96.1151 192.806ZM96.4764 191.472C96.936 191.472 97.3288 191.381 97.6549 191.199C97.9847 191.018 98.2349 190.78 98.4053 190.488C98.5795 190.191 98.6666 189.874 98.6666 189.537V188.437C98.6073 188.496 98.4924 188.551 98.3219 188.603C98.1552 188.651 97.9643 188.694 97.7494 188.731C97.5344 188.764 97.3251 188.796 97.1212 188.826C96.9174 188.852 96.747 188.874 96.6098 188.892C96.2874 188.933 95.9928 189.002 95.726 189.098C95.4629 189.194 95.2516 189.333 95.0923 189.515C94.9366 189.693 94.8588 189.93 94.8588 190.226C94.8588 190.638 95.0108 190.949 95.3146 191.16C95.6185 191.368 96.0058 191.472 96.4764 191.472ZM105.739 192.783C105.049 192.783 104.434 192.607 103.893 192.255C103.356 191.9 102.933 191.394 102.626 190.738C102.322 190.078 102.17 189.287 102.17 188.364C102.17 187.441 102.324 186.652 102.631 185.996C102.943 185.34 103.369 184.838 103.91 184.49C104.451 184.141 105.064 183.967 105.75 183.967C106.28 183.967 106.706 184.056 107.028 184.234C107.354 184.408 107.606 184.612 107.784 184.846C107.966 185.079 108.107 185.285 108.207 185.463H108.307V181.232H109.969V192.617H108.346V191.288H108.207C108.107 191.47 107.962 191.677 107.773 191.911C107.588 192.144 107.332 192.348 107.006 192.522C106.68 192.696 106.258 192.783 105.739 192.783ZM106.106 191.366C106.584 191.366 106.988 191.24 107.317 190.988C107.651 190.732 107.903 190.378 108.073 189.926C108.248 189.474 108.335 188.948 108.335 188.348C108.335 187.755 108.249 187.236 108.079 186.791C107.909 186.346 107.658 186 107.329 185.752C106.999 185.503 106.591 185.379 106.106 185.379C105.605 185.379 105.188 185.509 104.855 185.768C104.521 186.028 104.269 186.382 104.099 186.83C103.932 187.278 103.849 187.784 103.849 188.348C103.849 188.918 103.934 189.432 104.104 189.887C104.275 190.343 104.527 190.704 104.86 190.971C105.198 191.234 105.613 191.366 106.106 191.366ZM120.08 192.789C119.28 192.789 118.581 192.606 117.985 192.239C117.388 191.872 116.925 191.359 116.595 190.699C116.265 190.039 116.1 189.268 116.1 188.386C116.1 187.501 116.265 186.726 116.595 186.063C116.925 185.4 117.388 184.884 117.985 184.518C118.581 184.151 119.28 183.967 120.08 183.967C120.881 183.967 121.579 184.151 122.176 184.518C122.773 184.884 123.236 185.4 123.566 186.063C123.896 186.726 124.06 187.501 124.06 188.386C124.06 189.268 123.896 190.039 123.566 190.699C123.236 191.359 122.773 191.872 122.176 192.239C121.579 192.606 120.881 192.789 120.08 192.789ZM120.086 191.394C120.605 191.394 121.035 191.257 121.376 190.982C121.716 190.708 121.968 190.343 122.132 189.887C122.298 189.432 122.382 188.929 122.382 188.381C122.382 187.836 122.298 187.336 122.132 186.88C121.968 186.421 121.716 186.052 121.376 185.774C121.035 185.496 120.605 185.357 120.086 185.357C119.563 185.357 119.13 185.496 118.785 185.774C118.444 186.052 118.19 186.421 118.024 186.88C117.861 187.336 117.779 187.836 117.779 188.381C117.779 188.929 117.861 189.432 118.024 189.887C118.19 190.343 118.444 190.708 118.785 190.982C119.13 191.257 119.563 191.394 120.086 191.394ZM127.578 187.547V192.617H125.916V184.078H127.511V185.468H127.617C127.813 185.016 128.121 184.653 128.539 184.379C128.962 184.104 129.494 183.967 130.135 183.967C130.717 183.967 131.226 184.09 131.663 184.334C132.101 184.575 132.44 184.934 132.681 185.413C132.922 185.891 133.042 186.482 133.042 187.186V192.617H131.38V187.386C131.38 186.767 131.219 186.283 130.896 185.935C130.574 185.583 130.131 185.407 129.568 185.407C129.182 185.407 128.84 185.49 128.539 185.657C128.243 185.824 128.008 186.068 127.833 186.391C127.663 186.71 127.578 187.095 127.578 187.547ZM136.933 181.232V192.617H135.271V181.232H136.933ZM140.22 195.819C139.972 195.819 139.745 195.798 139.542 195.757C139.338 195.72 139.186 195.68 139.086 195.635L139.486 194.273C139.79 194.355 140.06 194.39 140.298 194.379C140.535 194.368 140.744 194.279 140.926 194.112C141.111 193.945 141.274 193.673 141.415 193.295L141.621 192.728L138.497 184.078H140.275L142.438 190.704H142.527L144.689 184.078H146.473L142.955 193.756C142.792 194.201 142.584 194.577 142.332 194.885C142.08 195.196 141.78 195.429 141.432 195.585C141.083 195.741 140.679 195.819 140.22 195.819Z" fill="#646464"/>
<path d="M494.63 192.617V181.232H498.688C499.57 181.232 500.302 181.384 500.884 181.688C501.47 181.992 501.907 182.413 502.196 182.95C502.485 183.484 502.63 184.101 502.63 184.801C502.63 185.498 502.483 186.111 502.19 186.641C501.901 187.167 501.464 187.577 500.879 187.87C500.297 188.162 499.565 188.309 498.683 188.309H495.609V186.83H498.527C499.083 186.83 499.535 186.75 499.883 186.591C500.236 186.432 500.493 186.2 500.656 185.896C500.819 185.592 500.901 185.227 500.901 184.801C500.901 184.371 500.817 183.999 500.651 183.684C500.488 183.369 500.23 183.128 499.878 182.961C499.53 182.791 499.072 182.705 498.505 182.705H496.348V192.617H494.63ZM500.25 187.48L503.063 192.617H501.106L498.349 187.48H500.25ZM508.159 192.789C507.318 192.789 506.593 192.609 505.986 192.25C505.382 191.887 504.915 191.377 504.585 190.721C504.259 190.062 504.096 189.289 504.096 188.403C504.096 187.529 504.259 186.758 504.585 186.091C504.915 185.424 505.374 184.903 505.963 184.529C506.556 184.154 507.249 183.967 508.042 183.967C508.524 183.967 508.991 184.047 509.443 184.206C509.895 184.366 510.301 184.616 510.661 184.957C511.02 185.298 511.304 185.74 511.511 186.285C511.719 186.826 511.822 187.484 511.822 188.259V188.848H505.035V187.603H510.194C510.194 187.165 510.105 186.778 509.927 186.441C509.749 186.1 509.499 185.831 509.176 185.635C508.858 185.438 508.483 185.34 508.053 185.34C507.587 185.34 507.179 185.455 506.831 185.685C506.486 185.911 506.219 186.207 506.03 186.574C505.845 186.937 505.752 187.332 505.752 187.758V188.731C505.752 189.302 505.852 189.787 506.052 190.188C506.256 190.588 506.54 190.893 506.903 191.105C507.266 191.312 507.69 191.416 508.176 191.416C508.491 191.416 508.778 191.372 509.037 191.283C509.297 191.19 509.521 191.053 509.71 190.871C509.899 190.69 510.044 190.465 510.144 190.199L511.717 190.482C511.591 190.945 511.365 191.351 511.039 191.7C510.716 192.044 510.31 192.313 509.821 192.506C509.336 192.695 508.782 192.789 508.159 192.789ZM516.151 192.806C515.61 192.806 515.121 192.706 514.684 192.506C514.246 192.302 513.9 192.007 513.644 191.622C513.392 191.236 513.266 190.764 513.266 190.204C513.266 189.722 513.359 189.326 513.544 189.015C513.729 188.703 513.98 188.457 514.295 188.275C514.61 188.094 514.962 187.957 515.351 187.864C515.74 187.771 516.136 187.701 516.54 187.653C517.052 187.593 517.467 187.545 517.786 187.508C518.104 187.467 518.336 187.403 518.48 187.314C518.625 187.225 518.697 187.08 518.697 186.88V186.841C518.697 186.356 518.56 185.98 518.286 185.713C518.015 185.446 517.611 185.312 517.074 185.312C516.514 185.312 516.073 185.437 515.751 185.685C515.432 185.929 515.212 186.202 515.09 186.502L513.528 186.146C513.713 185.627 513.983 185.209 514.339 184.89C514.699 184.568 515.112 184.334 515.579 184.19C516.046 184.041 516.537 183.967 517.052 183.967C517.393 183.967 517.754 184.008 518.136 184.09C518.521 184.167 518.881 184.312 519.214 184.523C519.551 184.734 519.827 185.036 520.042 185.429C520.257 185.818 520.365 186.324 520.365 186.947V192.617H518.742V191.449H518.675C518.567 191.664 518.406 191.876 518.191 192.083C517.976 192.291 517.7 192.463 517.363 192.6C517.026 192.737 516.622 192.806 516.151 192.806ZM516.513 191.472C516.972 191.472 517.365 191.381 517.691 191.199C518.021 191.018 518.271 190.78 518.441 190.488C518.616 190.191 518.703 189.874 518.703 189.537V188.437C518.643 188.496 518.529 188.551 518.358 188.603C518.191 188.651 518 188.694 517.786 188.731C517.571 188.764 517.361 188.796 517.157 188.826C516.954 188.852 516.783 188.874 516.646 188.892C516.324 188.933 516.029 189.002 515.762 189.098C515.499 189.194 515.288 189.333 515.128 189.515C514.973 189.693 514.895 189.93 514.895 190.226C514.895 190.638 515.047 190.949 515.351 191.16C515.655 191.368 516.042 191.472 516.513 191.472ZM525.775 192.783C525.086 192.783 524.47 192.607 523.929 192.255C523.392 191.9 522.97 191.394 522.662 190.738C522.358 190.078 522.206 189.287 522.206 188.364C522.206 187.441 522.36 186.652 522.668 185.996C522.979 185.34 523.405 184.838 523.946 184.49C524.487 184.141 525.1 183.967 525.786 183.967C526.316 183.967 526.742 184.056 527.065 184.234C527.391 184.408 527.643 184.612 527.82 184.846C528.002 185.079 528.143 185.285 528.243 185.463H528.343V181.232H530.005V192.617H528.382V191.288H528.243C528.143 191.47 527.998 191.677 527.809 191.911C527.624 192.144 527.368 192.348 527.042 192.522C526.716 192.696 526.294 192.783 525.775 192.783ZM526.142 191.366C526.62 191.366 527.024 191.24 527.354 190.988C527.687 190.732 527.939 190.378 528.11 189.926C528.284 189.474 528.371 188.948 528.371 188.348C528.371 187.755 528.286 187.236 528.115 186.791C527.945 186.346 527.694 186 527.365 185.752C527.035 185.503 526.627 185.379 526.142 185.379C525.641 185.379 525.225 185.509 524.891 185.768C524.557 186.028 524.305 186.382 524.135 186.83C523.968 187.278 523.885 187.784 523.885 188.348C523.885 188.918 523.97 189.432 524.141 189.887C524.311 190.343 524.563 190.704 524.897 190.971C525.234 191.234 525.649 191.366 526.142 191.366ZM540.116 192.789C539.316 192.789 538.617 192.606 538.021 192.239C537.424 191.872 536.961 191.359 536.631 190.699C536.301 190.039 536.136 189.268 536.136 188.386C536.136 187.501 536.301 186.726 536.631 186.063C536.961 185.4 537.424 184.884 538.021 184.518C538.617 184.151 539.316 183.967 540.116 183.967C540.917 183.967 541.616 184.151 542.212 184.518C542.809 184.884 543.272 185.4 543.602 186.063C543.932 186.726 544.097 187.501 544.097 188.386C544.097 189.268 543.932 190.039 543.602 190.699C543.272 191.359 542.809 191.872 542.212 192.239C541.616 192.606 540.917 192.789 540.116 192.789ZM540.122 191.394C540.641 191.394 541.071 191.257 541.412 190.982C541.753 190.708 542.005 190.343 542.168 189.887C542.334 189.432 542.418 188.929 542.418 188.381C542.418 187.836 542.334 187.336 542.168 186.88C542.005 186.421 541.753 186.052 541.412 185.774C541.071 185.496 540.641 185.357 540.122 185.357C539.6 185.357 539.166 185.496 538.821 185.774C538.48 186.052 538.227 186.421 538.06 186.88C537.897 187.336 537.815 187.836 537.815 188.381C537.815 188.929 537.897 189.432 538.06 189.887C538.227 190.343 538.48 190.708 538.821 190.982C539.166 191.257 539.6 191.394 540.122 191.394ZM547.614 187.547V192.617H545.952V184.078H547.547V185.468H547.653C547.849 185.016 548.157 184.653 548.576 184.379C548.998 184.104 549.53 183.967 550.171 183.967C550.753 183.967 551.262 184.09 551.7 184.334C552.137 184.575 552.476 184.934 552.717 185.413C552.958 185.891 553.078 186.482 553.078 187.186V192.617H551.416V187.386C551.416 186.767 551.255 186.283 550.932 185.935C550.61 185.583 550.167 185.407 549.604 185.407C549.219 185.407 548.876 185.49 548.576 185.657C548.279 185.824 548.044 186.068 547.87 186.391C547.699 186.71 547.614 187.095 547.614 187.547ZM556.969 181.232V192.617H555.307V181.232H556.969ZM560.256 195.819C560.008 195.819 559.782 195.798 559.578 195.757C559.374 195.72 559.222 195.68 559.122 195.635L559.522 194.273C559.826 194.355 560.097 194.39 560.334 194.379C560.571 194.368 560.78 194.279 560.962 194.112C561.147 193.945 561.31 193.673 561.451 193.295L561.657 192.728L558.533 184.078H560.312L562.474 190.704H562.563L564.725 184.078H566.51L562.991 193.756C562.828 194.201 562.62 194.577 562.368 194.885C562.116 195.196 561.816 195.429 561.468 195.585C561.119 195.741 560.715 195.819 560.256 195.819Z" fill="#646464"/>
<rect x="14.25" y="38.25" width="612.5" height="187.5" rx="3.75" stroke="#636363" stroke-width="0.5"/>
<rect x="1" y="16" width="639" height="221" rx="5" stroke="#4A86E8" stroke-width="2"/>
<path d="M623.113 7.11755C622.925 6.5114 622.471 6.0184 621.904 5.71667L610.397 0.18858C610.093 0.037716 609.755 0 609.451 0C609.148 0 608.809 0 608.509 0.075432L596.998 5.64124C596.431 5.90525 596.018 6.39825 595.865 7.04212L593.037 19.4965C592.924 20.1404 593.074 20.7842 593.453 21.3149L601.416 31.1938C601.87 31.6491 602.512 31.9509 603.151 31.9886H615.83C616.509 32.064 617.151 31.7623 617.564 31.1938L625.527 21.3149C625.906 20.7842 626.056 20.1404 625.981 19.4965L623.113 7.11755Z" fill="#326DE6"/>
<path d="M621.327 18.6546C621.29 18.6546 621.252 18.6546 621.252 18.6177C621.252 18.5807 621.177 18.5807 621.102 18.5807C620.952 18.5438 620.802 18.5438 620.65 18.5438C620.575 18.5438 620.5 18.5438 620.425 18.5068H620.387C619.972 18.4699 619.522 18.396 619.106 18.2851C618.994 18.2482 618.881 18.1373 618.844 18.0265C618.881 18.0265 618.844 18.0265 618.844 18.0265L618.544 17.9526C618.694 16.8758 618.619 15.7647 618.394 14.6879C618.131 13.6111 617.678 12.5739 617.075 11.6475L617.3 11.4259V11.3889C617.3 11.2781 617.338 11.1303 617.413 11.0564C617.751 10.7608 618.091 10.5364 618.466 10.3148C618.541 10.2778 618.616 10.2409 618.691 10.2039C618.841 10.13 618.954 10.0561 619.106 9.98222C619.144 9.94527 619.181 9.94527 619.219 9.90832C619.256 9.87137 619.219 9.87137 619.219 9.83442C619.556 9.57578 619.634 9.12976 619.369 8.79722C619.256 8.64942 619.031 8.53858 618.841 8.53858C618.654 8.53858 618.463 8.61247 618.313 8.72332L618.276 8.76027C618.238 8.79722 618.201 8.83417 618.163 8.83417C618.051 8.94501 617.938 9.05586 617.863 9.16671C617.826 9.2406 617.751 9.27755 617.713 9.3145C617.451 9.61009 617.11 9.90832 616.773 10.13C616.698 10.167 616.623 10.2039 616.548 10.2039C616.51 10.2039 616.435 10.2039 616.398 10.167H616.36L616.06 10.3517C615.76 10.0561 615.42 9.75788 615.12 9.46229C613.726 8.3855 611.995 7.72043 610.224 7.53304L610.187 7.23745V7.2744C610.074 7.20051 610.037 7.08966 609.999 6.97881C609.999 6.56974 609.999 6.1633 610.074 5.71728V5.68033C610.074 5.60643 610.112 5.53253 610.112 5.45864C610.149 5.31084 610.149 5.16305 610.187 5.01261V4.78564C610.224 4.41352 609.924 4.04403 609.547 4.00708C609.322 3.97013 609.094 4.08098 608.906 4.26572C608.756 4.41352 608.681 4.59826 608.681 4.78564V4.97039C608.681 5.11818 608.719 5.26598 608.756 5.41641C608.794 5.49031 608.794 5.5642 608.794 5.6381V5.67505C608.869 6.08413 608.869 6.49056 608.869 6.93659C608.831 7.04743 608.794 7.15828 608.681 7.23218V7.30607L608.644 7.60166C608.228 7.63861 607.816 7.71251 607.363 7.78641C605.595 8.15853 603.974 9.08489 602.733 10.3834L602.508 10.2356H602.471C602.433 10.2356 602.396 10.2725 602.32 10.2725C602.245 10.2725 602.17 10.2356 602.095 10.1986C601.758 9.93999 601.418 9.64176 601.155 9.34617C601.117 9.27227 601.042 9.23532 601.005 9.19838C600.892 9.08753 600.817 8.97668 600.705 8.86584C600.667 8.82889 600.63 8.82889 600.592 8.79194C600.555 8.75499 600.555 8.75499 600.555 8.75499C600.405 8.64414 600.217 8.57025 600.027 8.57025C599.802 8.57025 599.612 8.64415 599.499 8.82889C599.274 9.16143 599.349 9.60745 599.649 9.86609C599.687 9.86609 599.687 9.90304 599.687 9.90304C599.687 9.90304 599.762 9.97694 599.799 9.97694C599.912 10.0508 600.062 10.1247 600.215 10.1986C600.29 10.2356 600.365 10.2725 600.44 10.3095C600.817 10.5312 601.192 10.7555 601.493 11.0511C601.568 11.125 601.643 11.2728 601.605 11.3836V11.3467L601.83 11.5684C601.793 11.6423 601.755 11.6792 601.718 11.7531C600.549 13.5715 600.062 15.7225 600.399 17.8365L600.099 17.9104C600.099 17.9473 600.062 17.9473 600.062 17.9473C600.024 18.0582 599.912 18.132 599.799 18.2059C599.384 18.3168 598.971 18.3907 598.519 18.4276C598.444 18.4276 598.368 18.4276 598.293 18.4646C598.143 18.4646 597.993 18.5015 597.841 18.5015C597.803 18.5015 597.766 18.5385 597.691 18.5385C597.653 18.5385 597.653 18.5385 597.616 18.5754C597.2 18.6493 596.938 19.0215 597.013 19.4279C597.088 19.7604 597.428 19.9848 597.766 19.9478C597.841 19.9478 597.878 19.9478 597.953 19.9109C597.991 19.9109 597.991 19.9109 597.991 19.8739C597.991 19.837 598.103 19.8739 598.141 19.8739C598.291 19.837 598.441 19.7631 598.556 19.7261C598.631 19.6892 598.706 19.6522 598.781 19.6522H598.819C599.234 19.5044 599.609 19.3936 600.062 19.3197H600.099C600.212 19.3197 600.324 19.3566 600.399 19.4305C600.437 19.4305 600.437 19.4675 600.437 19.4675L600.775 19.4305C601.34 21.1355 602.393 22.6583 603.861 23.7694C604.199 24.028 604.501 24.2523 604.877 24.4371L604.689 24.6957C604.689 24.7327 604.726 24.7327 604.726 24.7327C604.802 24.8435 604.802 24.9913 604.764 25.1048C604.614 25.4769 604.386 25.8464 604.161 26.1816V26.2185C604.124 26.2924 604.086 26.3294 604.011 26.4033C603.936 26.4772 603.861 26.625 603.749 26.7754C603.711 26.8124 603.711 26.8493 603.674 26.8863C603.674 26.8863 603.674 26.9232 603.636 26.9232C603.448 27.2953 603.599 27.7387 603.936 27.9235C604.011 27.9604 604.124 27.9974 604.199 27.9974C604.499 27.9974 604.764 27.8126 604.914 27.5513C604.914 27.5513 604.914 27.5144 604.952 27.5144C604.952 27.4774 604.989 27.4405 605.027 27.4035C605.064 27.2557 605.139 27.1449 605.177 26.9945L605.252 26.7728C605.364 26.3637 605.552 25.9942 605.742 25.6221C605.817 25.5112 605.93 25.4373 606.042 25.4004C606.08 25.4004 606.08 25.4004 606.08 25.3634L606.23 25.0679C607.283 25.4769 608.376 25.6617 609.504 25.6617C610.182 25.6617 610.859 25.5878 611.537 25.403C611.953 25.3291 612.365 25.1813 612.743 25.0705L612.893 25.3291C612.931 25.3291 612.931 25.3291 612.931 25.3661C613.043 25.403 613.156 25.4769 613.231 25.5878C613.418 25.9599 613.608 26.3294 613.721 26.7385V26.7754L613.796 26.9971C613.833 27.1449 613.871 27.2927 613.946 27.4062C613.984 27.4431 613.984 27.4801 614.021 27.517C614.021 27.517 614.021 27.554 614.059 27.554C614.209 27.8126 614.474 28 614.774 28C614.886 28 614.961 27.9631 615.074 27.9261C615.224 27.8522 615.374 27.7044 615.412 27.517C615.449 27.3323 615.449 27.1449 615.374 26.9602C615.374 26.9232 615.337 26.9232 615.337 26.9232C615.337 26.8863 615.299 26.8493 615.262 26.8124C615.187 26.6646 615.111 26.5537 614.999 26.4402C614.961 26.3663 614.924 26.3294 614.849 26.2555V26.1816C614.586 25.8491 614.396 25.4769 614.246 25.1048C614.209 24.994 614.209 24.8462 614.284 24.7327C614.284 24.6957 614.321 24.6957 614.321 24.6957L614.209 24.4001C616.13 23.2494 617.598 21.4706 618.276 19.3566L618.576 19.3936C618.613 19.3936 618.613 19.3566 618.613 19.3566C618.688 19.2827 618.801 19.2458 618.913 19.2458H618.951C619.366 19.3197 619.779 19.4305 620.157 19.5783H620.194C620.269 19.6153 620.344 19.6522 620.419 19.6522C620.569 19.7261 620.682 19.8 620.835 19.837C620.872 19.837 620.91 19.8739 620.985 19.8739C621.022 19.8739 621.022 19.8739 621.06 19.9109C621.135 19.9478 621.172 19.9478 621.247 19.9478C621.585 19.9478 621.887 19.7261 622 19.4279C621.968 19.0267 621.665 18.7285 621.327 18.6546ZM610.447 17.5039L609.431 17.9869L608.416 17.5039L608.153 16.4271L608.869 15.5377H609.999L610.715 16.4271L610.447 17.5039ZM616.582 15.0943C616.77 15.8729 616.808 16.6515 616.732 17.43L613.156 16.4298C612.818 16.3559 612.628 16.0207 612.703 15.6882C612.74 15.5773 612.778 15.5034 612.853 15.4295L615.677 12.9064C616.092 13.5742 616.395 14.3158 616.582 15.0943ZM614.549 11.5341L611.462 13.685C611.2 13.8328 610.822 13.7959 610.634 13.5372C610.559 13.4633 610.522 13.3894 610.522 13.2786L610.297 9.53355C611.953 9.7183 613.421 10.423 614.549 11.5341ZM607.735 9.64176L608.488 9.49397L608.301 13.202C608.301 13.5346 608.001 13.7959 607.66 13.7959C607.548 13.7959 607.473 13.7589 607.36 13.722L604.236 11.5341C605.211 10.6077 606.417 9.93999 607.735 9.64176ZM603.143 12.9064L605.93 15.353C606.192 15.5747 606.23 15.9468 606.005 16.2054C605.93 16.3163 605.854 16.3532 605.704 16.3902L602.053 17.4274C601.937 15.8729 602.312 14.2788 603.143 12.9064ZM602.503 19.1745L606.23 18.5438C606.53 18.5438 606.832 18.7285 606.87 19.0267C606.907 19.1376 606.907 19.2854 606.832 19.3989L605.402 22.8113C604.083 21.9562 603.028 20.6578 602.503 19.1745ZM611.05 23.772C610.522 23.8829 609.997 23.9568 609.431 23.9568C608.641 23.9568 607.813 23.809 607.06 23.5846L608.906 20.283C609.094 20.0613 609.397 19.9874 609.659 20.1352C609.772 20.2091 609.847 20.283 609.959 20.3938L611.768 23.6216C611.537 23.6612 611.312 23.6981 611.05 23.772ZM615.642 20.5469C615.077 21.4363 614.286 22.2149 613.383 22.7718L611.915 19.2854C611.84 18.9898 611.99 18.6916 612.253 18.5807C612.365 18.5438 612.478 18.5068 612.59 18.5068L616.355 19.1376C616.17 19.6549 615.942 20.1378 615.642 20.5469Z" fill="white"/>
</svg>
