<svg width="412" height="128" viewBox="0 0 412 128" fill="none" xmlns="http://www.w3.org/2000/svg">
<g clip-path="url(#clip0_1269_15376)">
<path d="M183.106 77.7765C184.153 84.752 190.082 89.6349 199.847 89.6349C205.079 89.6349 211.706 87.891 214.845 84.4033L223.564 93.1226C217.635 99.0518 208.218 102.191 199.499 102.191C180.316 102.191 168.807 90.3324 168.807 72.8937C168.807 56.1526 180.316 43.9455 198.452 43.9455C216.937 43.9455 228.796 55.455 226.703 78.1253H183.106V77.7765ZM213.45 66.6158C212.403 59.6403 206.823 55.8038 199.15 55.8038C191.826 55.8038 185.548 59.2915 183.455 66.6158H213.45Z" fill="white"/>
<path d="M284.948 93.4714C278.67 99.7493 271.695 102.191 263.673 102.191C247.629 102.191 234.027 92.425 234.027 72.8937C234.027 53.3624 247.629 43.5967 263.673 43.5967C271.695 43.5967 277.624 45.6894 283.902 51.6185L275.183 60.6866C272.044 57.8964 267.858 56.5013 264.022 56.5013C254.605 56.8501 247.629 63.4768 247.629 73.2425C247.629 83.7057 254.954 89.2861 263.324 89.2861C267.858 89.2861 272.044 87.891 275.531 84.752L284.948 93.4714Z" fill="white"/>
<path d="M304.828 22.3215V53.0136C309.711 46.7357 315.989 44.643 322.267 44.643C337.962 44.643 344.937 55.1062 344.937 71.4986V100.447H331.335V71.4986C331.335 61.3842 326.104 57.1989 318.779 57.1989C310.757 57.1989 305.177 64.1744 305.177 72.1962V100.447H291.575V22.3215H304.828Z" fill="white"/>
<path d="M411.902 73.2425C411.902 88.9373 401.09 101.842 382.954 101.842C364.817 101.842 354.005 88.9373 354.005 73.2425C354.005 57.5477 365.166 44.643 382.954 44.643C400.741 44.643 411.902 57.5477 411.902 73.2425ZM367.956 73.2425C367.956 81.6131 373.188 89.2861 382.954 89.2861C393.068 89.2861 397.951 81.6131 397.951 73.2425C397.951 64.8719 392.022 56.8501 382.954 56.8501C373.188 56.8501 367.956 64.8719 367.956 73.2425Z" fill="white"/>
<path d="M2.79019 11.1608L21.2752 0.697548L39.4114 11.1608L20.5777 21.624L2.79019 11.1608Z" fill="#828282"/>
<path d="M25.1117 24.0654L43.5967 13.2534L62.0817 24.0654L43.248 34.1798L25.1117 24.0654Z" fill="#828282"/>
<path d="M72.1962 23.7166L90.6812 12.9046L108.817 23.7166L89.9836 34.1798L72.1962 23.7166Z" fill="#C6C6C6"/>
<path d="M95.2153 10.812L113.7 0L131.837 10.812L113.003 20.9264L95.2153 10.812Z" fill="#C6C6C6"/>
<path d="M0 14.6485V37.6676L18.485 48.1308V25.4605L0 14.6485Z" fill="#00AFD1"/>
<path d="M23.0191 27.5531V50.5722L41.8529 60.6866V38.3651L23.0191 27.5531Z" fill="#00AFD1"/>
<path d="M45.6894 39.7602V62.7793L64.1744 72.8937V50.5722L45.6894 39.7602Z" fill="#00AFD1"/>
<path d="M133.58 14.9973V38.0163L114.747 48.4796V25.8093L133.58 14.9973Z" fill="#4AE1FF"/>
<path d="M110.213 27.9019V50.921L91.7275 61.0354V38.7139L110.213 27.9019Z" fill="#4AE1FF"/>
<path d="M87.5422 40.109V63.1281L69.0572 73.2425V50.921L87.5422 40.109Z" fill="#4AE1FF"/>
<path d="M0 42.2016V65.2207L18.485 75.3352V53.0136L0 42.2016Z" fill="#00AFD1"/>
<path d="M23.0191 54.7575V77.7766L41.8529 88.2398V65.9183L23.0191 54.7575Z" fill="#00AFD1"/>
<path d="M45.6894 66.9646V89.9836L64.1744 100.098V77.7766L45.6894 66.9646Z" fill="#00AFD1"/>
<path d="M133.58 42.5504V65.5695L114.747 75.6839V53.3624L133.58 42.5504Z" fill="#4AE1FF"/>
<path d="M110.213 55.455V78.4741L91.7275 88.5886V66.267L110.213 55.455Z" fill="#4AE1FF"/>
<path d="M87.5422 67.3133V90.3324L69.0572 100.447V78.1253L87.5422 67.3133Z" fill="#4AE1FF"/>
<path d="M0 69.406V92.4251L18.485 102.888V80.218L0 69.406Z" fill="#00AFD1"/>
<path d="M23.0191 82.3106V105.33L41.8529 115.444V93.1226L23.0191 82.3106Z" fill="#00AFD1"/>
<path d="M45.6894 94.5177V117.537L64.1744 127.651V105.33L45.6894 94.5177Z" fill="#00AFD1"/>
<path d="M133.58 69.7548V92.7738L114.747 103.237V80.9155L133.58 69.7548Z" fill="#4AE1FF"/>
<path d="M110.213 82.6594V105.678L91.7275 115.793V93.4714L110.213 82.6594Z" fill="#4AE1FF"/>
<path d="M87.5422 94.8665V117.886L69.0572 128V105.678L87.5422 94.8665Z" fill="#4AE1FF"/>
<path d="M66.9646 25.8093L48.4796 36.6213L66.6158 46.7357L66.9646 25.8093Z" fill="#828282"/>
<path d="M66.9646 25.8093L66.6158 46.7357L85.1008 36.6213L66.9646 25.8093Z" fill="#C6C6C6"/>
</g>
<defs>
<clipPath id="clip0_1269_15376">
<rect width="411.902" height="128" fill="white"/>
</clipPath>
</defs>
</svg>
