<svg width="171" height="256" viewBox="0 0 171 256" fill="none" xmlns="http://www.w3.org/2000/svg">
<g clip-path="url(#clip0_107_8)">
<path d="M85.1553 128C85.1553 116.684 89.6411 105.832 97.6259 97.8301C105.611 89.8286 116.44 85.3333 127.733 85.3333C139.025 85.3333 149.855 89.8286 157.839 97.8301C165.824 105.832 170.31 116.684 170.31 128C170.31 139.316 165.824 150.168 157.839 158.17C149.855 166.171 139.025 170.667 127.733 170.667C116.44 170.667 105.611 166.171 97.6259 158.17C89.6411 150.168 85.1553 139.316 85.1553 128Z" fill="#1ABCFE"/>
<path d="M0 213.333C0 202.017 4.48582 191.165 12.4706 183.163C20.4554 175.162 31.2852 170.667 42.5774 170.667H85.1548V213.333C85.1548 224.649 80.669 235.502 72.6842 243.503C64.6994 251.505 53.8696 256 42.5774 256C31.2852 256 20.4554 251.505 12.4706 243.503C4.48582 235.502 0 224.649 0 213.333H0Z" fill="#0ACF83"/>
<path d="M85.1553 0V85.3333H127.733C139.025 85.3333 149.855 80.8381 157.839 72.8366C165.824 64.835 170.31 53.9826 170.31 42.6667C170.31 31.3508 165.824 20.4983 157.839 12.4968C149.855 4.49522 139.025 0 127.733 0L85.1553 0Z" fill="#FF7262"/>
<path d="M0 42.6667C0 53.9826 4.48582 64.835 12.4706 72.8366C20.4554 80.8381 31.2852 85.3333 42.5774 85.3333H85.1548V0H42.5774C31.2852 0 20.4554 4.49522 12.4706 12.4968C4.48582 20.4983 0 31.3508 0 42.6667H0Z" fill="#F24E1E"/>
<path d="M0 128C0 139.316 4.48582 150.168 12.4706 158.17C20.4554 166.171 31.2852 170.667 42.5774 170.667H85.1548V85.3333H42.5774C31.2852 85.3333 20.4554 89.8286 12.4706 97.8301C4.48582 105.832 0 116.684 0 128H0Z" fill="#A259FF"/>
</g>
<defs>
<clipPath id="clip0_107_8">
<rect width="170.31" height="256" fill="white"/>
</clipPath>
</defs>
</svg>
