<svg width="64" height="64" viewBox="0 0 64 64" fill="none" xmlns="http://www.w3.org/2000/svg">
<path d="M63.9241 12.1997C61.574 13.2433 59.0495 13.9457 56.3998 14.2625C59.106 12.6417 61.1811 10.0755 62.1585 7.01568C59.6291 8.51611 56.8247 9.60644 53.8385 10.1958C51.4491 7.64925 48.0455 6.05795 44.2785 6.05795C37.044 6.05795 31.1798 11.9246 31.1798 19.1567C31.1798 20.1832 31.2976 21.1851 31.5187 22.1404C20.6325 21.5952 10.9816 16.3793 4.51819 8.45226C3.39348 10.3874 2.74763 12.6368 2.74763 15.0409C2.74763 19.584 5.05844 23.5941 8.57255 25.9418C6.42627 25.873 4.40523 25.2837 2.63957 24.3038C2.63957 24.3603 2.63957 24.4119 2.63957 24.4684C2.63957 30.8164 7.15316 36.1109 13.1475 37.3117C12.0498 37.6113 10.8907 37.7709 9.69481 37.7709C8.8525 37.7709 8.02984 37.6874 7.23174 37.5376C8.89916 42.7413 13.7369 46.5304 19.4685 46.636C14.9869 50.1501 9.33873 52.2448 3.19948 52.2448C2.14352 52.2448 1.09985 52.1834 0.0733643 52.0607C5.87128 55.7761 12.7546 57.9445 20.1537 57.9445C44.249 57.9445 57.4214 37.9846 57.4214 20.6743C57.4214 20.107 57.4091 19.5422 57.3846 18.9799C59.9459 17.1307 62.1683 14.8248 63.9241 12.1997Z"/>
</svg>
