<svg width="338" height="325" viewBox="0 0 338 325" fill="none" xmlns="http://www.w3.org/2000/svg">
<path d="M308.43 72.2876C306.504 66.1314 301.855 61.1244 296.051 58.0599L178.182 1.91527C175.074 0.383053 171.608 0 168.5 0C165.392 0 161.926 0 158.845 0.766107L40.9483 57.2938C35.1442 59.9752 30.9081 64.9823 29.3402 71.5215L0.374945 198.011C-0.780364 204.55 0.760048 211.09 4.63858 216.48L86.1979 316.812C90.8466 321.436 97.4209 324.501 103.968 324.884H233.83C240.789 325.65 247.363 322.586 251.6 316.812L333.159 216.48C337.037 211.09 338.578 204.55 337.808 198.011L308.43 72.2876Z" fill="#326DE6"/>
<path d="M288.425 189.934C288.046 189.934 287.668 189.934 287.668 189.552C287.668 189.17 286.91 189.17 286.153 189.17C284.638 188.788 283.123 188.788 281.581 188.788C280.823 188.788 280.066 188.788 279.308 188.406H278.929C274.736 188.025 270.191 187.261 265.998 186.115C264.861 185.734 263.725 184.588 263.346 183.443C263.725 183.443 263.346 183.443 263.346 183.443L260.316 182.679C261.831 171.551 261.074 160.068 258.801 148.94C256.15 137.812 251.578 127.093 245.491 117.52L247.764 115.229V114.847C247.764 113.701 248.142 112.174 248.9 111.41C252.309 108.356 255.744 106.037 259.532 103.746C260.289 103.364 261.047 102.983 261.804 102.601C263.319 101.837 264.456 101.073 265.998 100.31C266.376 99.9278 266.755 99.9278 267.134 99.5459C267.513 99.1641 267.134 99.1641 267.134 98.7822C270.543 96.1093 271.327 91.4999 268.649 88.0633C267.513 86.5359 265.24 85.3904 263.319 85.3904C261.426 85.3904 259.505 86.1541 257.99 87.2996L257.611 87.6815C257.232 88.0633 256.854 88.4452 256.475 88.4452C255.339 89.5907 254.202 90.7362 253.445 91.8818C253.066 92.6455 252.309 93.0273 251.93 93.4091C249.279 96.4639 245.843 99.5459 242.434 101.837C241.677 102.219 240.919 102.601 240.162 102.601C239.783 102.601 239.025 102.601 238.647 102.219H238.268L235.238 104.128C232.208 101.073 228.772 97.9913 225.742 94.9365C211.674 83.8085 194.198 76.9353 176.315 74.9988L175.936 71.9441V72.3259C174.8 71.5622 174.421 70.4167 174.043 69.2711C174.043 65.0436 174.043 60.8433 174.8 56.2339V55.8521C174.8 55.0884 175.179 54.3247 175.179 53.561C175.558 52.0336 175.558 50.5062 175.936 48.9516V46.606C176.315 42.7603 173.285 38.9418 169.471 38.56C167.198 38.1781 164.899 39.3237 163.005 41.2329C161.49 42.7603 160.732 44.6695 160.732 46.606V48.5152C160.732 50.0426 161.111 51.57 161.49 53.1246C161.869 53.8883 161.869 54.652 161.869 55.4157V55.7975C162.626 60.0251 162.626 64.2253 162.626 68.8348C162.247 69.9803 161.869 71.1258 160.732 71.8895V72.6532L160.354 75.7079C156.16 76.0898 151.994 76.8535 147.422 77.6172C129.567 81.4629 113.199 91.0363 100.673 104.455L98.4009 102.928H98.0222C97.6434 102.928 97.2647 103.31 96.5072 103.31C95.7497 103.31 94.9922 102.928 94.2347 102.546C90.8259 99.8732 87.3901 96.7912 84.7389 93.7364C84.3601 92.9728 83.6026 92.5909 83.2239 92.2091C82.0876 91.0635 81.3301 89.918 80.1939 88.7725C79.8151 88.3906 79.4364 88.3906 79.0576 88.0088C78.6789 87.6269 78.6789 87.6269 78.6789 87.6269C77.1639 86.4814 75.2701 85.7177 73.3493 85.7177C71.0768 85.7177 69.156 86.4814 68.0198 88.3906C65.7473 91.8272 66.5048 96.4366 69.5348 99.1095C69.9135 99.1095 69.9135 99.4914 69.9135 99.4914C69.9135 99.4914 70.671 100.255 71.0498 100.255C72.186 101.019 73.701 101.782 75.2431 102.546C76.0006 102.928 76.7581 103.31 77.5156 103.692C81.3301 105.983 85.1176 108.301 88.1476 111.356C88.9051 112.119 89.6626 113.647 89.2839 114.792V114.411L91.5564 116.702C91.1776 117.465 90.7989 117.847 90.4201 118.611C78.6248 137.403 73.701 159.632 77.1098 181.479L74.0798 182.242C74.0798 182.624 73.701 182.624 73.701 182.624C73.3223 183.77 72.186 184.533 71.0498 185.297C66.8565 186.443 62.6902 187.206 58.1182 187.588C57.3607 187.588 56.6032 187.588 55.8457 187.97C54.3307 187.97 52.8157 188.352 51.2736 188.352C50.8949 188.352 50.5161 188.734 49.7586 188.734C49.3799 188.734 49.3799 188.734 49.0011 189.116C44.8078 189.879 42.1566 193.725 42.9141 197.925C43.6716 201.362 47.1074 203.68 50.5161 203.298C51.2736 203.298 51.6524 203.298 52.4099 202.917C52.7886 202.917 52.7886 202.917 52.7886 202.535C52.7886 202.153 53.9249 202.535 54.3036 202.535C55.8186 202.153 57.3336 201.389 58.4969 201.007C59.2544 200.625 60.0119 200.244 60.7694 200.244H61.1482C65.3415 198.716 69.129 197.571 73.701 196.807H74.0798C75.216 196.807 76.3523 197.189 77.1098 197.953C77.4885 197.953 77.4885 198.334 77.4885 198.334L80.8973 197.953C86.6056 215.572 97.2376 231.309 112.063 242.792C115.472 245.465 118.529 247.783 122.316 249.692L120.423 252.365C120.423 252.747 120.801 252.747 120.801 252.747C121.559 253.893 121.559 255.42 121.18 256.593C119.665 260.439 117.365 264.257 115.093 267.721V268.103C114.714 268.866 114.335 269.248 113.578 270.012C112.82 270.776 112.063 272.303 110.927 273.858C110.548 274.24 110.548 274.621 110.169 275.003C110.169 275.003 110.169 275.385 109.79 275.385C107.897 279.231 109.412 283.813 112.82 285.722C113.578 286.104 114.714 286.486 115.472 286.486C118.502 286.486 121.18 284.577 122.695 281.876C122.695 281.876 122.695 281.495 123.074 281.495C123.074 281.113 123.453 280.731 123.831 280.349C124.21 278.822 124.968 277.676 125.346 276.122L126.104 273.83C127.24 269.603 129.134 265.784 131.055 261.939C131.812 260.793 132.948 260.03 134.085 259.648C134.463 259.648 134.463 259.648 134.463 259.266L135.978 256.211C146.61 260.439 157.648 262.348 169.038 262.348C175.882 262.348 182.727 261.584 189.571 259.675C193.765 258.911 197.931 257.384 201.746 256.238L203.261 258.911C203.639 258.911 203.639 258.911 203.639 259.293C204.776 259.675 205.912 260.439 206.669 261.584C208.563 265.43 210.484 269.248 211.62 273.476V273.858L212.378 276.149C212.756 277.676 213.135 279.204 213.893 280.376C214.271 280.758 214.271 281.14 214.65 281.522C214.65 281.522 214.65 281.904 215.029 281.904C216.544 284.577 219.222 286.513 222.252 286.513C223.388 286.513 224.146 286.131 225.282 285.749C226.797 284.986 228.312 283.458 228.691 281.522C229.07 279.613 229.07 277.676 228.312 275.767C228.312 275.385 227.933 275.385 227.933 275.385C227.933 275.003 227.555 274.621 227.176 274.24C226.418 272.712 225.661 271.567 224.525 270.394C224.146 269.63 223.767 269.248 223.01 268.485V267.721C220.358 264.284 218.438 260.439 216.923 256.593C216.544 255.447 216.544 253.92 217.301 252.747C217.301 252.365 217.68 252.365 217.68 252.365L216.544 249.311C235.941 237.419 250.767 219.036 257.611 197.189L260.641 197.571C261.02 197.571 261.02 197.189 261.02 197.189C261.777 196.425 262.914 196.043 264.05 196.043H264.429C268.622 196.807 272.788 197.953 276.603 199.48H276.981C277.739 199.862 278.496 200.244 279.254 200.244C280.769 201.007 281.905 201.771 283.447 202.153C283.826 202.153 284.205 202.535 284.962 202.535C285.341 202.535 285.341 202.535 285.72 202.917C286.477 203.298 286.856 203.298 287.613 203.298C291.022 203.298 294.079 201.007 295.216 197.925C294.891 193.78 291.834 190.698 288.425 189.934ZM178.561 178.042L168.307 183.033L158.054 178.042L155.403 166.914L162.626 157.723H174.043L181.266 166.914L178.561 178.042ZM240.513 153.14C242.407 161.186 242.786 169.232 242.028 177.278L205.912 166.941C202.503 166.178 200.582 162.714 201.34 159.277C201.718 158.132 202.097 157.368 202.855 156.604L231.369 130.53C235.562 137.43 238.619 145.094 240.513 153.14ZM219.98 116.347L188.814 138.576C186.163 140.103 182.348 139.721 180.454 137.048C179.697 136.285 179.318 135.521 179.318 134.376L177.046 95.6729C193.765 97.5822 208.59 104.864 219.98 116.347ZM151.182 96.7912L158.784 95.2638L156.891 133.585C156.891 137.021 153.861 139.721 150.425 139.721C149.289 139.721 148.531 139.34 147.395 138.958L115.85 116.347C125.698 106.774 137.872 99.8732 151.182 96.7912ZM104.813 130.53L132.948 155.813C135.6 158.104 135.978 161.95 133.706 164.623C132.948 165.769 132.191 166.15 130.676 166.532L93.8018 177.251C92.6385 161.186 96.426 144.713 104.813 130.53ZM98.3468 195.307L135.978 188.788C139.008 188.788 142.065 190.698 142.444 193.78C142.823 194.925 142.823 196.452 142.065 197.625L127.619 232.891C114.308 224.054 103.649 210.635 98.3468 195.307ZM184.648 242.819C179.318 243.965 174.016 244.728 168.307 244.728C160.327 244.728 151.967 243.201 144.365 240.883L163.005 206.762C164.899 204.471 167.956 203.708 170.607 205.235C171.743 205.999 172.501 206.762 173.637 207.908L191.898 241.265C189.571 241.674 187.299 242.056 184.648 242.819ZM231.017 209.49C225.309 218.681 217.328 226.727 208.211 232.482L193.386 196.452C192.628 193.398 194.143 190.316 196.795 189.17C197.931 188.788 199.067 188.406 200.203 188.406L238.214 194.925C236.347 200.271 234.047 205.262 231.017 209.49Z" fill="white"/>
</svg>
