<svg width="1349" height="733" viewBox="0 0 1349 733" fill="none" xmlns="http://www.w3.org/2000/svg">
<path d="M186.429 701.727V725H183.702L171.02 706.727H170.793V725H167.974V701.727H170.702L183.429 720.045H183.656V701.727H186.429ZM198.795 725.364C197.22 725.364 195.837 724.989 194.648 724.239C193.466 723.489 192.542 722.439 191.875 721.091C191.216 719.742 190.886 718.167 190.886 716.364C190.886 714.545 191.216 712.958 191.875 711.602C192.542 710.246 193.466 709.193 194.648 708.443C195.837 707.693 197.22 707.318 198.795 707.318C200.371 707.318 201.75 707.693 202.932 708.443C204.121 709.193 205.045 710.246 205.705 711.602C206.371 712.958 206.705 714.545 206.705 716.364C206.705 718.167 206.371 719.742 205.705 721.091C205.045 722.439 204.121 723.489 202.932 724.239C201.75 724.989 200.371 725.364 198.795 725.364ZM198.795 722.955C199.992 722.955 200.977 722.648 201.75 722.034C202.523 721.42 203.095 720.614 203.466 719.614C203.837 718.614 204.023 717.53 204.023 716.364C204.023 715.197 203.837 714.11 203.466 713.102C203.095 712.095 202.523 711.28 201.75 710.659C200.977 710.038 199.992 709.727 198.795 709.727C197.598 709.727 196.614 710.038 195.841 710.659C195.068 711.28 194.496 712.095 194.125 713.102C193.754 714.11 193.568 715.197 193.568 716.364C193.568 717.53 193.754 718.614 194.125 719.614C194.496 720.614 195.068 721.42 195.841 722.034C196.614 722.648 197.598 722.955 198.795 722.955ZM217.389 725.364C215.935 725.364 214.651 724.996 213.537 724.261C212.423 723.519 211.552 722.473 210.923 721.125C210.295 719.769 209.98 718.167 209.98 716.318C209.98 714.485 210.295 712.894 210.923 711.545C211.552 710.197 212.427 709.155 213.548 708.42C214.67 707.686 215.965 707.318 217.435 707.318C218.571 707.318 219.469 707.508 220.128 707.886C220.795 708.258 221.302 708.682 221.651 709.159C222.007 709.629 222.283 710.015 222.48 710.318H222.707V701.727H225.389V725H222.798V722.318H222.48C222.283 722.636 222.003 723.038 221.639 723.523C221.276 724 220.757 724.428 220.082 724.807C219.408 725.178 218.51 725.364 217.389 725.364ZM217.753 722.955C218.829 722.955 219.738 722.674 220.48 722.114C221.223 721.545 221.787 720.761 222.173 719.761C222.56 718.754 222.753 717.591 222.753 716.273C222.753 714.97 222.563 713.83 222.185 712.852C221.806 711.867 221.245 711.102 220.503 710.557C219.76 710.004 218.844 709.727 217.753 709.727C216.616 709.727 215.67 710.019 214.912 710.602C214.162 711.178 213.598 711.962 213.219 712.955C212.848 713.939 212.662 715.045 212.662 716.273C212.662 717.515 212.851 718.644 213.23 719.659C213.616 720.667 214.185 721.47 214.935 722.068C215.692 722.659 216.632 722.955 217.753 722.955ZM237.991 725.364C236.31 725.364 234.859 724.992 233.639 724.25C232.427 723.5 231.491 722.455 230.832 721.114C230.181 719.765 229.855 718.197 229.855 716.409C229.855 714.621 230.181 713.045 230.832 711.682C231.491 710.311 232.408 709.242 233.582 708.477C234.764 707.705 236.143 707.318 237.719 707.318C238.628 707.318 239.526 707.47 240.412 707.773C241.298 708.076 242.105 708.568 242.832 709.25C243.56 709.924 244.139 710.818 244.571 711.932C245.003 713.045 245.219 714.417 245.219 716.045V717.182H231.764V714.864H242.491C242.491 713.879 242.295 713 241.901 712.227C241.514 711.455 240.961 710.845 240.241 710.398C239.529 709.951 238.688 709.727 237.719 709.727C236.651 709.727 235.726 709.992 234.946 710.523C234.173 711.045 233.579 711.727 233.162 712.568C232.745 713.409 232.537 714.311 232.537 715.273V716.818C232.537 718.136 232.764 719.254 233.219 720.17C233.681 721.08 234.321 721.773 235.139 722.25C235.957 722.72 236.908 722.955 237.991 722.955C238.696 722.955 239.332 722.856 239.901 722.659C240.476 722.455 240.973 722.152 241.389 721.75C241.806 721.341 242.128 720.833 242.355 720.227L244.946 720.955C244.673 721.833 244.215 722.606 243.571 723.273C242.927 723.932 242.132 724.447 241.185 724.818C240.238 725.182 239.173 725.364 237.991 725.364Z" fill="white"/>
<rect x="56" width="299" height="678" rx="32" fill="#E5E5E5"/>
<path d="M655.429 701.727V725H652.702L640.02 706.727H639.793V725H636.974V701.727H639.702L652.429 720.045H652.656V701.727H655.429ZM667.795 725.364C666.22 725.364 664.837 724.989 663.648 724.239C662.466 723.489 661.542 722.439 660.875 721.091C660.216 719.742 659.886 718.167 659.886 716.364C659.886 714.545 660.216 712.958 660.875 711.602C661.542 710.246 662.466 709.193 663.648 708.443C664.837 707.693 666.22 707.318 667.795 707.318C669.371 707.318 670.75 707.693 671.932 708.443C673.121 709.193 674.045 710.246 674.705 711.602C675.371 712.958 675.705 714.545 675.705 716.364C675.705 718.167 675.371 719.742 674.705 721.091C674.045 722.439 673.121 723.489 671.932 724.239C670.75 724.989 669.371 725.364 667.795 725.364ZM667.795 722.955C668.992 722.955 669.977 722.648 670.75 722.034C671.523 721.42 672.095 720.614 672.466 719.614C672.837 718.614 673.023 717.53 673.023 716.364C673.023 715.197 672.837 714.11 672.466 713.102C672.095 712.095 671.523 711.28 670.75 710.659C669.977 710.038 668.992 709.727 667.795 709.727C666.598 709.727 665.614 710.038 664.841 710.659C664.068 711.28 663.496 712.095 663.125 713.102C662.754 714.11 662.568 715.197 662.568 716.364C662.568 717.53 662.754 718.614 663.125 719.614C663.496 720.614 664.068 721.42 664.841 722.034C665.614 722.648 666.598 722.955 667.795 722.955ZM686.389 725.364C684.935 725.364 683.651 724.996 682.537 724.261C681.423 723.519 680.552 722.473 679.923 721.125C679.295 719.769 678.98 718.167 678.98 716.318C678.98 714.485 679.295 712.894 679.923 711.545C680.552 710.197 681.427 709.155 682.548 708.42C683.67 707.686 684.965 707.318 686.435 707.318C687.571 707.318 688.469 707.508 689.128 707.886C689.795 708.258 690.302 708.682 690.651 709.159C691.007 709.629 691.283 710.015 691.48 710.318H691.707V701.727H694.389V725H691.798V722.318H691.48C691.283 722.636 691.003 723.038 690.639 723.523C690.276 724 689.757 724.428 689.082 724.807C688.408 725.178 687.51 725.364 686.389 725.364ZM686.753 722.955C687.829 722.955 688.738 722.674 689.48 722.114C690.223 721.545 690.787 720.761 691.173 719.761C691.56 718.754 691.753 717.591 691.753 716.273C691.753 714.97 691.563 713.83 691.185 712.852C690.806 711.867 690.245 711.102 689.503 710.557C688.76 710.004 687.844 709.727 686.753 709.727C685.616 709.727 684.67 710.019 683.912 710.602C683.162 711.178 682.598 711.962 682.219 712.955C681.848 713.939 681.662 715.045 681.662 716.273C681.662 717.515 681.851 718.644 682.23 719.659C682.616 720.667 683.185 721.47 683.935 722.068C684.692 722.659 685.632 722.955 686.753 722.955ZM706.991 725.364C705.31 725.364 703.859 724.992 702.639 724.25C701.427 723.5 700.491 722.455 699.832 721.114C699.181 719.765 698.855 718.197 698.855 716.409C698.855 714.621 699.181 713.045 699.832 711.682C700.491 710.311 701.408 709.242 702.582 708.477C703.764 707.705 705.143 707.318 706.719 707.318C707.628 707.318 708.526 707.47 709.412 707.773C710.298 708.076 711.105 708.568 711.832 709.25C712.56 709.924 713.139 710.818 713.571 711.932C714.003 713.045 714.219 714.417 714.219 716.045V717.182H700.764V714.864H711.491C711.491 713.879 711.295 713 710.901 712.227C710.514 711.455 709.961 710.845 709.241 710.398C708.529 709.951 707.688 709.727 706.719 709.727C705.651 709.727 704.726 709.992 703.946 710.523C703.173 711.045 702.579 711.727 702.162 712.568C701.745 713.409 701.537 714.311 701.537 715.273V716.818C701.537 718.136 701.764 719.254 702.219 720.17C702.681 721.08 703.321 721.773 704.139 722.25C704.957 722.72 705.908 722.955 706.991 722.955C707.696 722.955 708.332 722.856 708.901 722.659C709.476 722.455 709.973 722.152 710.389 721.75C710.806 721.341 711.128 720.833 711.355 720.227L713.946 720.955C713.673 721.833 713.215 722.606 712.571 723.273C711.927 723.932 711.132 724.447 710.185 724.818C709.238 725.182 708.173 725.364 706.991 725.364Z" fill="white"/>
<rect x="525" width="299" height="678" rx="32" fill="#E5E5E5"/>
<path d="M1124.43 701.727V725H1121.7L1109.02 706.727H1108.79V725H1105.97V701.727H1108.7L1121.43 720.045H1121.66V701.727H1124.43ZM1136.8 725.364C1135.22 725.364 1133.84 724.989 1132.65 724.239C1131.47 723.489 1130.54 722.439 1129.88 721.091C1129.22 719.742 1128.89 718.167 1128.89 716.364C1128.89 714.545 1129.22 712.958 1129.88 711.602C1130.54 710.246 1131.47 709.193 1132.65 708.443C1133.84 707.693 1135.22 707.318 1136.8 707.318C1138.37 707.318 1139.75 707.693 1140.93 708.443C1142.12 709.193 1143.05 710.246 1143.7 711.602C1144.37 712.958 1144.7 714.545 1144.7 716.364C1144.7 718.167 1144.37 719.742 1143.7 721.091C1143.05 722.439 1142.12 723.489 1140.93 724.239C1139.75 724.989 1138.37 725.364 1136.8 725.364ZM1136.8 722.955C1137.99 722.955 1138.98 722.648 1139.75 722.034C1140.52 721.42 1141.09 720.614 1141.47 719.614C1141.84 718.614 1142.02 717.53 1142.02 716.364C1142.02 715.197 1141.84 714.11 1141.47 713.102C1141.09 712.095 1140.52 711.28 1139.75 710.659C1138.98 710.038 1137.99 709.727 1136.8 709.727C1135.6 709.727 1134.61 710.038 1133.84 710.659C1133.07 711.28 1132.5 712.095 1132.12 713.102C1131.75 714.11 1131.57 715.197 1131.57 716.364C1131.57 717.53 1131.75 718.614 1132.12 719.614C1132.5 720.614 1133.07 721.42 1133.84 722.034C1134.61 722.648 1135.6 722.955 1136.8 722.955ZM1155.39 725.364C1153.93 725.364 1152.65 724.996 1151.54 724.261C1150.42 723.519 1149.55 722.473 1148.92 721.125C1148.29 719.769 1147.98 718.167 1147.98 716.318C1147.98 714.485 1148.29 712.894 1148.92 711.545C1149.55 710.197 1150.43 709.155 1151.55 708.42C1152.67 707.686 1153.96 707.318 1155.43 707.318C1156.57 707.318 1157.47 707.508 1158.13 707.886C1158.79 708.258 1159.3 708.682 1159.65 709.159C1160.01 709.629 1160.28 710.015 1160.48 710.318H1160.71V701.727H1163.39V725H1160.8V722.318H1160.48C1160.28 722.636 1160 723.038 1159.64 723.523C1159.28 724 1158.76 724.428 1158.08 724.807C1157.41 725.178 1156.51 725.364 1155.39 725.364ZM1155.75 722.955C1156.83 722.955 1157.74 722.674 1158.48 722.114C1159.22 721.545 1159.79 720.761 1160.17 719.761C1160.56 718.754 1160.75 717.591 1160.75 716.273C1160.75 714.97 1160.56 713.83 1160.18 712.852C1159.81 711.867 1159.25 711.102 1158.5 710.557C1157.76 710.004 1156.84 709.727 1155.75 709.727C1154.62 709.727 1153.67 710.019 1152.91 710.602C1152.16 711.178 1151.6 711.962 1151.22 712.955C1150.85 713.939 1150.66 715.045 1150.66 716.273C1150.66 717.515 1150.85 718.644 1151.23 719.659C1151.62 720.667 1152.18 721.47 1152.93 722.068C1153.69 722.659 1154.63 722.955 1155.75 722.955ZM1175.99 725.364C1174.31 725.364 1172.86 724.992 1171.64 724.25C1170.43 723.5 1169.49 722.455 1168.83 721.114C1168.18 719.765 1167.86 718.197 1167.86 716.409C1167.86 714.621 1168.18 713.045 1168.83 711.682C1169.49 710.311 1170.41 709.242 1171.58 708.477C1172.76 707.705 1174.14 707.318 1175.72 707.318C1176.63 707.318 1177.53 707.47 1178.41 707.773C1179.3 708.076 1180.11 708.568 1180.83 709.25C1181.56 709.924 1182.14 710.818 1182.57 711.932C1183 713.045 1183.22 714.417 1183.22 716.045V717.182H1169.76V714.864H1180.49C1180.49 713.879 1180.29 713 1179.9 712.227C1179.51 711.455 1178.96 710.845 1178.24 710.398C1177.53 709.951 1176.69 709.727 1175.72 709.727C1174.65 709.727 1173.73 709.992 1172.95 710.523C1172.17 711.045 1171.58 711.727 1171.16 712.568C1170.75 713.409 1170.54 714.311 1170.54 715.273V716.818C1170.54 718.136 1170.76 719.254 1171.22 720.17C1171.68 721.08 1172.32 721.773 1173.14 722.25C1173.96 722.72 1174.91 722.955 1175.99 722.955C1176.7 722.955 1177.33 722.856 1177.9 722.659C1178.48 722.455 1178.97 722.152 1179.39 721.75C1179.81 721.341 1180.13 720.833 1180.36 720.227L1182.95 720.955C1182.67 721.833 1182.21 722.606 1181.57 723.273C1180.93 723.932 1180.13 724.447 1179.18 724.818C1178.24 725.182 1177.17 725.364 1175.99 725.364Z" fill="white"/>
<rect x="994" width="299" height="678" rx="32" fill="#E5E5E5"/>
</svg>
