<svg width="1229" height="2160" viewBox="0 0 1229 2160" fill="none" xmlns="http://www.w3.org/2000/svg">
<path d="M804.364 133.591V102.636H812.409V155H804.364V146.136H803.818C802.591 148.795 800.682 151.057 798.091 152.92C795.5 154.761 792.227 155.682 788.273 155.682C785 155.682 782.091 154.966 779.545 153.534C777 152.08 775 149.898 773.545 146.989C772.091 144.057 771.364 140.364 771.364 135.909V102.636H779.409V135.364C779.409 139.182 780.477 142.227 782.614 144.5C784.773 146.773 787.523 147.909 790.864 147.909C792.864 147.909 794.898 147.398 796.966 146.375C799.057 145.352 800.807 143.784 802.216 141.67C803.648 139.557 804.364 136.864 804.364 133.591ZM864.236 114.364L857.009 116.409C856.554 115.205 855.884 114.034 854.997 112.898C854.134 111.739 852.952 110.784 851.452 110.034C849.952 109.284 848.031 108.909 845.69 108.909C842.486 108.909 839.815 109.648 837.679 111.125C835.565 112.58 834.509 114.432 834.509 116.682C834.509 118.682 835.236 120.261 836.69 121.42C838.145 122.58 840.418 123.545 843.509 124.318L851.281 126.227C855.963 127.364 859.452 129.102 861.747 131.443C864.043 133.761 865.19 136.75 865.19 140.409C865.19 143.409 864.327 146.091 862.599 148.455C860.895 150.818 858.509 152.682 855.44 154.045C852.372 155.409 848.804 156.091 844.736 156.091C839.395 156.091 834.974 154.932 831.474 152.614C827.974 150.295 825.759 146.909 824.827 142.455L832.463 140.545C833.19 143.364 834.565 145.477 836.588 146.886C838.634 148.295 841.304 149 844.599 149C848.349 149 851.327 148.205 853.531 146.614C855.759 145 856.872 143.068 856.872 140.818C856.872 139 856.236 137.477 854.963 136.25C853.69 135 851.736 134.068 849.099 133.455L840.372 131.409C835.577 130.273 832.054 128.511 829.804 126.125C827.577 123.716 826.463 120.705 826.463 117.091C826.463 114.136 827.293 111.523 828.952 109.25C830.634 106.977 832.918 105.193 835.804 103.898C838.713 102.602 842.009 101.955 845.69 101.955C850.872 101.955 854.94 103.091 857.895 105.364C860.872 107.636 862.986 110.636 864.236 114.364ZM899.256 156.091C894.21 156.091 889.858 154.977 886.199 152.75C882.562 150.5 879.756 147.364 877.778 143.341C875.824 139.295 874.847 134.591 874.847 129.227C874.847 123.864 875.824 119.136 877.778 115.045C879.756 110.932 882.506 107.727 886.028 105.432C889.574 103.114 893.71 101.955 898.438 101.955C901.165 101.955 903.858 102.409 906.517 103.318C909.176 104.227 911.597 105.705 913.778 107.75C915.96 109.773 917.699 112.455 918.994 115.795C920.29 119.136 920.938 123.25 920.938 128.136V131.545H880.574V124.591H912.756C912.756 121.636 912.165 119 910.983 116.682C909.824 114.364 908.165 112.534 906.006 111.193C903.869 109.852 901.347 109.182 898.438 109.182C895.233 109.182 892.46 109.977 890.119 111.568C887.801 113.136 886.017 115.182 884.767 117.705C883.517 120.227 882.892 122.932 882.892 125.818V130.455C882.892 134.409 883.574 137.761 884.938 140.511C886.324 143.239 888.244 145.318 890.699 146.75C893.153 148.159 896.006 148.864 899.256 148.864C901.369 148.864 903.278 148.568 904.983 147.977C906.71 147.364 908.199 146.455 909.449 145.25C910.699 144.023 911.665 142.5 912.347 140.682L920.119 142.864C919.301 145.5 917.926 147.818 915.994 149.818C914.063 151.795 911.676 153.341 908.835 154.455C905.994 155.545 902.801 156.091 899.256 156.091ZM933.176 155V102.636H940.949V110.545H941.494C942.449 107.955 944.176 105.852 946.676 104.239C949.176 102.625 951.994 101.818 955.131 101.818C955.722 101.818 956.46 101.83 957.347 101.852C958.233 101.875 958.903 101.909 959.358 101.955V110.136C959.085 110.068 958.46 109.966 957.483 109.83C956.528 109.67 955.517 109.591 954.449 109.591C951.903 109.591 949.631 110.125 947.631 111.193C945.653 112.239 944.085 113.693 942.926 115.557C941.79 117.398 941.222 119.5 941.222 121.864V155H933.176ZM1005.99 114.364L998.759 116.409C998.304 115.205 997.634 114.034 996.747 112.898C995.884 111.739 994.702 110.784 993.202 110.034C991.702 109.284 989.781 108.909 987.44 108.909C984.236 108.909 981.565 109.648 979.429 111.125C977.315 112.58 976.259 114.432 976.259 116.682C976.259 118.682 976.986 120.261 978.44 121.42C979.895 122.58 982.168 123.545 985.259 124.318L993.031 126.227C997.713 127.364 1001.2 129.102 1003.5 131.443C1005.79 133.761 1006.94 136.75 1006.94 140.409C1006.94 143.409 1006.08 146.091 1004.35 148.455C1002.64 150.818 1000.26 152.682 997.19 154.045C994.122 155.409 990.554 156.091 986.486 156.091C981.145 156.091 976.724 154.932 973.224 152.614C969.724 150.295 967.509 146.909 966.577 142.455L974.213 140.545C974.94 143.364 976.315 145.477 978.338 146.886C980.384 148.295 983.054 149 986.349 149C990.099 149 993.077 148.205 995.281 146.614C997.509 145 998.622 143.068 998.622 140.818C998.622 139 997.986 137.477 996.713 136.25C995.44 135 993.486 134.068 990.849 133.455L982.122 131.409C977.327 130.273 973.804 128.511 971.554 126.125C969.327 123.716 968.213 120.705 968.213 117.091C968.213 114.136 969.043 111.523 970.702 109.25C972.384 106.977 974.668 105.193 977.554 103.898C980.463 102.602 983.759 101.955 987.44 101.955C992.622 101.955 996.69 103.091 999.645 105.364C1002.62 107.636 1004.74 110.636 1005.99 114.364Z" fill="white"/>
<path d="M771.364 494.636V422.636H779.136V430.955H780.091C780.682 430.045 781.5 428.886 782.545 427.477C783.614 426.045 785.136 424.773 787.114 423.659C789.114 422.523 791.818 421.955 795.227 421.955C799.636 421.955 803.523 423.057 806.886 425.261C810.25 427.466 812.875 430.591 814.761 434.636C816.648 438.682 817.591 443.455 817.591 448.955C817.591 454.5 816.648 459.307 814.761 463.375C812.875 467.42 810.261 470.557 806.92 472.784C803.58 474.989 799.727 476.091 795.364 476.091C792 476.091 789.307 475.534 787.284 474.42C785.261 473.284 783.705 472 782.614 470.568C781.523 469.114 780.682 467.909 780.091 466.955H779.409V494.636H771.364ZM779.273 448.818C779.273 452.773 779.852 456.261 781.011 459.284C782.17 462.284 783.864 464.636 786.091 466.341C788.318 468.023 791.045 468.864 794.273 468.864C797.636 468.864 800.443 467.977 802.693 466.205C804.966 464.409 806.67 462 807.807 458.977C808.966 455.932 809.545 452.545 809.545 448.818C809.545 445.136 808.977 441.818 807.841 438.864C806.727 435.886 805.034 433.534 802.761 431.807C800.511 430.057 797.682 429.182 794.273 429.182C791 429.182 788.25 430.011 786.023 431.67C783.795 433.307 782.114 435.602 780.977 438.557C779.841 441.489 779.273 444.909 779.273 448.818ZM829.864 475V422.636H837.636V430.545H838.182C839.136 427.955 840.864 425.852 843.364 424.239C845.864 422.625 848.682 421.818 851.818 421.818C852.409 421.818 853.148 421.83 854.034 421.852C854.92 421.875 855.591 421.909 856.045 421.955V430.136C855.773 430.068 855.148 429.966 854.17 429.83C853.216 429.67 852.205 429.591 851.136 429.591C848.591 429.591 846.318 430.125 844.318 431.193C842.341 432.239 840.773 433.693 839.614 435.557C838.477 437.398 837.909 439.5 837.909 441.864V475H829.864ZM885.261 476.091C880.534 476.091 876.386 474.966 872.818 472.716C869.273 470.466 866.5 467.318 864.5 463.273C862.523 459.227 861.534 454.5 861.534 449.091C861.534 443.636 862.523 438.875 864.5 434.807C866.5 430.739 869.273 427.58 872.818 425.33C876.386 423.08 880.534 421.955 885.261 421.955C889.989 421.955 894.125 423.08 897.67 425.33C901.239 427.58 904.011 430.739 905.989 434.807C907.989 438.875 908.989 443.636 908.989 449.091C908.989 454.5 907.989 459.227 905.989 463.273C904.011 467.318 901.239 470.466 897.67 472.716C894.125 474.966 889.989 476.091 885.261 476.091ZM885.261 468.864C888.852 468.864 891.807 467.943 894.125 466.102C896.443 464.261 898.159 461.841 899.273 458.841C900.386 455.841 900.943 452.591 900.943 449.091C900.943 445.591 900.386 442.33 899.273 439.307C898.159 436.284 896.443 433.841 894.125 431.977C891.807 430.114 888.852 429.182 885.261 429.182C881.67 429.182 878.716 430.114 876.398 431.977C874.08 433.841 872.364 436.284 871.25 439.307C870.136 442.33 869.58 445.591 869.58 449.091C869.58 452.591 870.136 455.841 871.25 458.841C872.364 461.841 874.08 464.261 876.398 466.102C878.716 467.943 881.67 468.864 885.261 468.864ZM921.27 422.636H929.315V478.818C929.315 482.045 928.759 484.841 927.645 487.205C926.554 489.568 924.895 491.398 922.668 492.693C920.463 493.989 917.679 494.636 914.315 494.636C914.043 494.636 913.77 494.636 913.497 494.636C913.224 494.636 912.952 494.636 912.679 494.636V487.136C912.952 487.136 913.202 487.136 913.429 487.136C913.656 487.136 913.906 487.136 914.179 487.136C916.634 487.136 918.429 486.409 919.565 484.955C920.702 483.523 921.27 481.477 921.27 478.818V422.636ZM925.224 413.909C923.656 413.909 922.304 413.375 921.168 412.307C920.054 411.239 919.497 409.955 919.497 408.455C919.497 406.955 920.054 405.67 921.168 404.602C922.304 403.534 923.656 403 925.224 403C926.793 403 928.134 403.534 929.247 404.602C930.384 405.67 930.952 406.955 930.952 408.455C930.952 409.955 930.384 411.239 929.247 412.307C928.134 413.375 926.793 413.909 925.224 413.909ZM966.006 476.091C960.96 476.091 956.608 474.977 952.949 472.75C949.312 470.5 946.506 467.364 944.528 463.341C942.574 459.295 941.597 454.591 941.597 449.227C941.597 443.864 942.574 439.136 944.528 435.045C946.506 430.932 949.256 427.727 952.778 425.432C956.324 423.114 960.46 421.955 965.188 421.955C967.915 421.955 970.608 422.409 973.267 423.318C975.926 424.227 978.347 425.705 980.528 427.75C982.71 429.773 984.449 432.455 985.744 435.795C987.04 439.136 987.688 443.25 987.688 448.136V451.545H947.324V444.591H979.506C979.506 441.636 978.915 439 977.733 436.682C976.574 434.364 974.915 432.534 972.756 431.193C970.619 429.852 968.097 429.182 965.188 429.182C961.983 429.182 959.21 429.977 956.869 431.568C954.551 433.136 952.767 435.182 951.517 437.705C950.267 440.227 949.642 442.932 949.642 445.818V450.455C949.642 454.409 950.324 457.761 951.688 460.511C953.074 463.239 954.994 465.318 957.449 466.75C959.903 468.159 962.756 468.864 966.006 468.864C968.119 468.864 970.028 468.568 971.733 467.977C973.46 467.364 974.949 466.455 976.199 465.25C977.449 464.023 978.415 462.5 979.097 460.682L986.869 462.864C986.051 465.5 984.676 467.818 982.744 469.818C980.813 471.795 978.426 473.341 975.585 474.455C972.744 475.545 969.551 476.091 966.006 476.091ZM1021.2 476.091C1016.29 476.091 1012.06 474.932 1008.52 472.614C1004.97 470.295 1002.24 467.102 1000.34 463.034C998.426 458.966 997.472 454.318 997.472 449.091C997.472 443.773 998.449 439.08 1000.4 435.011C1002.38 430.92 1005.13 427.727 1008.65 425.432C1012.2 423.114 1016.34 421.955 1021.06 421.955C1024.74 421.955 1028.06 422.636 1031.02 424C1033.97 425.364 1036.39 427.273 1038.28 429.727C1040.16 432.182 1041.34 435.045 1041.79 438.318H1033.74C1033.13 435.932 1031.77 433.818 1029.65 431.977C1027.56 430.114 1024.74 429.182 1021.2 429.182C1018.06 429.182 1015.31 430 1012.95 431.636C1010.61 433.25 1008.78 435.534 1007.46 438.489C1006.16 441.42 1005.52 444.864 1005.52 448.818C1005.52 452.864 1006.15 456.386 1007.43 459.386C1008.72 462.386 1010.54 464.716 1012.88 466.375C1015.24 468.034 1018.02 468.864 1021.2 468.864C1023.29 468.864 1025.19 468.5 1026.89 467.773C1028.6 467.045 1030.04 466 1031.22 464.636C1032.4 463.273 1033.24 461.636 1033.74 459.727H1041.79C1041.34 462.818 1040.21 465.602 1038.41 468.08C1036.64 470.534 1034.29 472.489 1031.36 473.943C1028.45 475.375 1025.06 476.091 1021.2 476.091ZM1076.32 422.636V429.455H1049.19V422.636H1076.32ZM1057.1 410.091H1065.14V460C1065.14 462.273 1065.47 463.977 1066.13 465.114C1066.81 466.227 1067.68 466.977 1068.72 467.364C1069.79 467.727 1070.91 467.909 1072.1 467.909C1072.98 467.909 1073.71 467.864 1074.28 467.773C1074.85 467.659 1075.3 467.568 1075.64 467.5L1077.28 474.727C1076.73 474.932 1075.97 475.136 1074.99 475.341C1074.02 475.568 1072.78 475.682 1071.28 475.682C1069.01 475.682 1066.78 475.193 1064.6 474.216C1062.44 473.239 1060.64 471.75 1059.21 469.75C1057.8 467.75 1057.1 465.227 1057.1 462.182V410.091ZM1124.58 434.364L1117.35 436.409C1116.9 435.205 1116.23 434.034 1115.34 432.898C1114.48 431.739 1113.3 430.784 1111.8 430.034C1110.3 429.284 1108.38 428.909 1106.03 428.909C1102.83 428.909 1100.16 429.648 1098.02 431.125C1095.91 432.58 1094.85 434.432 1094.85 436.682C1094.85 438.682 1095.58 440.261 1097.03 441.42C1098.49 442.58 1100.76 443.545 1103.85 444.318L1111.62 446.227C1116.31 447.364 1119.8 449.102 1122.09 451.443C1124.39 453.761 1125.53 456.75 1125.53 460.409C1125.53 463.409 1124.67 466.091 1122.94 468.455C1121.24 470.818 1118.85 472.682 1115.78 474.045C1112.72 475.409 1109.15 476.091 1105.08 476.091C1099.74 476.091 1095.32 474.932 1091.82 472.614C1088.32 470.295 1086.1 466.909 1085.17 462.455L1092.81 460.545C1093.53 463.364 1094.91 465.477 1096.93 466.886C1098.98 468.295 1101.65 469 1104.94 469C1108.69 469 1111.67 468.205 1113.88 466.614C1116.1 465 1117.22 463.068 1117.22 460.818C1117.22 459 1116.58 457.477 1115.31 456.25C1114.03 455 1112.08 454.068 1109.44 453.455L1100.72 451.409C1095.92 450.273 1092.4 448.511 1090.15 446.125C1087.92 443.716 1086.81 440.705 1086.81 437.091C1086.81 434.136 1087.64 431.523 1089.3 429.25C1090.98 426.977 1093.26 425.193 1096.15 423.898C1099.06 422.602 1102.35 421.955 1106.03 421.955C1111.22 421.955 1115.28 423.091 1118.24 425.364C1121.22 427.636 1123.33 430.636 1124.58 434.364Z" fill="white"/>
<path d="M771.364 1454.64V1382.64H779.136V1390.95H780.091C780.682 1390.05 781.5 1388.89 782.545 1387.48C783.614 1386.05 785.136 1384.77 787.114 1383.66C789.114 1382.52 791.818 1381.95 795.227 1381.95C799.636 1381.95 803.523 1383.06 806.886 1385.26C810.25 1387.47 812.875 1390.59 814.761 1394.64C816.648 1398.68 817.591 1403.45 817.591 1408.95C817.591 1414.5 816.648 1419.31 814.761 1423.38C812.875 1427.42 810.261 1430.56 806.92 1432.78C803.58 1434.99 799.727 1436.09 795.364 1436.09C792 1436.09 789.307 1435.53 787.284 1434.42C785.261 1433.28 783.705 1432 782.614 1430.57C781.523 1429.11 780.682 1427.91 780.091 1426.95H779.409V1454.64H771.364ZM779.273 1408.82C779.273 1412.77 779.852 1416.26 781.011 1419.28C782.17 1422.28 783.864 1424.64 786.091 1426.34C788.318 1428.02 791.045 1428.86 794.273 1428.86C797.636 1428.86 800.443 1427.98 802.693 1426.2C804.966 1424.41 806.67 1422 807.807 1418.98C808.966 1415.93 809.545 1412.55 809.545 1408.82C809.545 1405.14 808.977 1401.82 807.841 1398.86C806.727 1395.89 805.034 1393.53 802.761 1391.81C800.511 1390.06 797.682 1389.18 794.273 1389.18C791 1389.18 788.25 1390.01 786.023 1391.67C783.795 1393.31 782.114 1395.6 780.977 1398.56C779.841 1401.49 779.273 1404.91 779.273 1408.82ZM851.136 1436.09C846.409 1436.09 842.261 1434.97 838.693 1432.72C835.148 1430.47 832.375 1427.32 830.375 1423.27C828.398 1419.23 827.409 1414.5 827.409 1409.09C827.409 1403.64 828.398 1398.87 830.375 1394.81C832.375 1390.74 835.148 1387.58 838.693 1385.33C842.261 1383.08 846.409 1381.95 851.136 1381.95C855.864 1381.95 860 1383.08 863.545 1385.33C867.114 1387.58 869.886 1390.74 871.864 1394.81C873.864 1398.87 874.864 1403.64 874.864 1409.09C874.864 1414.5 873.864 1419.23 871.864 1423.27C869.886 1427.32 867.114 1430.47 863.545 1432.72C860 1434.97 855.864 1436.09 851.136 1436.09ZM851.136 1428.86C854.727 1428.86 857.682 1427.94 860 1426.1C862.318 1424.26 864.034 1421.84 865.148 1418.84C866.261 1415.84 866.818 1412.59 866.818 1409.09C866.818 1405.59 866.261 1402.33 865.148 1399.31C864.034 1396.28 862.318 1393.84 860 1391.98C857.682 1390.11 854.727 1389.18 851.136 1389.18C847.545 1389.18 844.591 1390.11 842.273 1391.98C839.955 1393.84 838.239 1396.28 837.125 1399.31C836.011 1402.33 835.455 1405.59 835.455 1409.09C835.455 1412.59 836.011 1415.84 837.125 1418.84C838.239 1421.84 839.955 1424.26 842.273 1426.1C844.591 1427.94 847.545 1428.86 851.136 1428.86ZM887.145 1435V1382.64H894.918V1390.82H895.599C896.69 1388.02 898.452 1385.85 900.884 1384.31C903.315 1382.74 906.236 1381.95 909.645 1381.95C913.099 1381.95 915.974 1382.74 918.27 1384.31C920.588 1385.85 922.395 1388.02 923.69 1390.82H924.236C925.577 1388.11 927.588 1385.97 930.27 1384.38C932.952 1382.76 936.168 1381.95 939.918 1381.95C944.599 1381.95 948.429 1383.42 951.406 1386.35C954.384 1389.26 955.872 1393.8 955.872 1399.95V1435H947.827V1399.95C947.827 1396.09 946.77 1393.33 944.656 1391.67C942.543 1390.01 940.054 1389.18 937.19 1389.18C933.509 1389.18 930.656 1390.3 928.634 1392.52C926.611 1394.73 925.599 1397.52 925.599 1400.91V1435H917.418V1399.14C917.418 1396.16 916.452 1393.76 914.52 1391.94C912.588 1390.1 910.099 1389.18 907.054 1389.18C904.963 1389.18 903.009 1389.74 901.19 1390.85C899.395 1391.97 897.94 1393.51 896.827 1395.49C895.736 1397.44 895.19 1399.7 895.19 1402.27V1435H887.145ZM991.855 1436.09C987.128 1436.09 982.98 1434.97 979.412 1432.72C975.866 1430.47 973.094 1427.32 971.094 1423.27C969.116 1419.23 968.128 1414.5 968.128 1409.09C968.128 1403.64 969.116 1398.87 971.094 1394.81C973.094 1390.74 975.866 1387.58 979.412 1385.33C982.98 1383.08 987.128 1381.95 991.855 1381.95C996.582 1381.95 1000.72 1383.08 1004.26 1385.33C1007.83 1387.58 1010.61 1390.74 1012.58 1394.81C1014.58 1398.87 1015.58 1403.64 1015.58 1409.09C1015.58 1414.5 1014.58 1419.23 1012.58 1423.27C1010.61 1427.32 1007.83 1430.47 1004.26 1432.72C1000.72 1434.97 996.582 1436.09 991.855 1436.09ZM991.855 1428.86C995.446 1428.86 998.401 1427.94 1000.72 1426.1C1003.04 1424.26 1004.75 1421.84 1005.87 1418.84C1006.98 1415.84 1007.54 1412.59 1007.54 1409.09C1007.54 1405.59 1006.98 1402.33 1005.87 1399.31C1004.75 1396.28 1003.04 1393.84 1000.72 1391.98C998.401 1390.11 995.446 1389.18 991.855 1389.18C988.264 1389.18 985.31 1390.11 982.991 1391.98C980.673 1393.84 978.957 1396.28 977.844 1399.31C976.73 1402.33 976.173 1405.59 976.173 1409.09C976.173 1412.59 976.73 1415.84 977.844 1418.84C978.957 1421.84 980.673 1424.26 982.991 1426.1C985.31 1427.94 988.264 1428.86 991.855 1428.86ZM1047.64 1436.09C1043.27 1436.09 1039.42 1434.99 1036.08 1432.78C1032.74 1430.56 1030.13 1427.42 1028.24 1423.38C1026.35 1419.31 1025.41 1414.5 1025.41 1408.95C1025.41 1403.45 1026.35 1398.68 1028.24 1394.64C1030.13 1390.59 1032.75 1387.47 1036.11 1385.26C1039.48 1383.06 1043.36 1381.95 1047.77 1381.95C1051.18 1381.95 1053.88 1382.52 1055.85 1383.66C1057.85 1384.77 1059.38 1386.05 1060.42 1387.48C1061.49 1388.89 1062.32 1390.05 1062.91 1390.95H1063.59V1365.18H1071.64V1435H1063.86V1426.95H1062.91C1062.32 1427.91 1061.48 1429.11 1060.39 1430.57C1059.3 1432 1057.74 1433.28 1055.72 1434.42C1053.69 1435.53 1051 1436.09 1047.64 1436.09ZM1048.73 1428.86C1051.95 1428.86 1054.68 1428.02 1056.91 1426.34C1059.14 1424.64 1060.83 1422.28 1061.99 1419.28C1063.15 1416.26 1063.73 1412.77 1063.73 1408.82C1063.73 1404.91 1063.16 1401.49 1062.02 1398.56C1060.89 1395.6 1059.2 1393.31 1056.98 1391.67C1054.75 1390.01 1052 1389.18 1048.73 1389.18C1045.32 1389.18 1042.48 1390.06 1040.2 1391.81C1037.95 1393.53 1036.26 1395.89 1035.12 1398.86C1034.01 1401.82 1033.45 1405.14 1033.45 1408.82C1033.45 1412.55 1034.02 1415.93 1035.16 1418.98C1036.32 1422 1038.02 1424.41 1040.27 1426.2C1042.55 1427.98 1045.36 1428.86 1048.73 1428.86ZM1108.76 1436.09C1104.03 1436.09 1099.89 1434.97 1096.32 1432.72C1092.77 1430.47 1090 1427.32 1088 1423.27C1086.02 1419.23 1085.03 1414.5 1085.03 1409.09C1085.03 1403.64 1086.02 1398.87 1088 1394.81C1090 1390.74 1092.77 1387.58 1096.32 1385.33C1099.89 1383.08 1104.03 1381.95 1108.76 1381.95C1113.49 1381.95 1117.63 1383.08 1121.17 1385.33C1124.74 1387.58 1127.51 1390.74 1129.49 1394.81C1131.49 1398.87 1132.49 1403.64 1132.49 1409.09C1132.49 1414.5 1131.49 1419.23 1129.49 1423.27C1127.51 1427.32 1124.74 1430.47 1121.17 1432.72C1117.63 1434.97 1113.49 1436.09 1108.76 1436.09ZM1108.76 1428.86C1112.35 1428.86 1115.31 1427.94 1117.62 1426.1C1119.94 1424.26 1121.66 1421.84 1122.77 1418.84C1123.89 1415.84 1124.44 1412.59 1124.44 1409.09C1124.44 1405.59 1123.89 1402.33 1122.77 1399.31C1121.66 1396.28 1119.94 1393.84 1117.62 1391.98C1115.31 1390.11 1112.35 1389.18 1108.76 1389.18C1105.17 1389.18 1102.22 1390.11 1099.9 1391.98C1097.58 1393.84 1095.86 1396.28 1094.75 1399.31C1093.64 1402.33 1093.08 1405.59 1093.08 1409.09C1093.08 1412.59 1093.64 1415.84 1094.75 1418.84C1095.86 1421.84 1097.58 1424.26 1099.9 1426.1C1102.22 1427.94 1105.17 1428.86 1108.76 1428.86ZM1144.77 1435V1382.64H1152.54V1390.55H1153.09C1154.04 1387.95 1155.77 1385.85 1158.27 1384.24C1160.77 1382.62 1163.59 1381.82 1166.72 1381.82C1167.32 1381.82 1168.05 1381.83 1168.94 1381.85C1169.83 1381.87 1170.5 1381.91 1170.95 1381.95V1390.14C1170.68 1390.07 1170.05 1389.97 1169.08 1389.83C1168.12 1389.67 1167.11 1389.59 1166.04 1389.59C1163.5 1389.59 1161.22 1390.12 1159.22 1391.19C1157.25 1392.24 1155.68 1393.69 1154.52 1395.56C1153.38 1397.4 1152.82 1399.5 1152.82 1401.86V1435H1144.77ZM1200.17 1436.09C1195.44 1436.09 1191.29 1434.97 1187.72 1432.72C1184.18 1430.47 1181.41 1427.32 1179.41 1423.27C1177.43 1419.23 1176.44 1414.5 1176.44 1409.09C1176.44 1403.64 1177.43 1398.87 1179.41 1394.81C1181.41 1390.74 1184.18 1387.58 1187.72 1385.33C1191.29 1383.08 1195.44 1381.95 1200.17 1381.95C1204.89 1381.95 1209.03 1383.08 1212.58 1385.33C1216.14 1387.58 1218.92 1390.74 1220.89 1394.81C1222.89 1398.87 1223.89 1403.64 1223.89 1409.09C1223.89 1414.5 1222.89 1419.23 1220.89 1423.27C1218.92 1427.32 1216.14 1430.47 1212.58 1432.72C1209.03 1434.97 1204.89 1436.09 1200.17 1436.09ZM1200.17 1428.86C1203.76 1428.86 1206.71 1427.94 1209.03 1426.1C1211.35 1424.26 1213.07 1421.84 1214.18 1418.84C1215.29 1415.84 1215.85 1412.59 1215.85 1409.09C1215.85 1405.59 1215.29 1402.33 1214.18 1399.31C1213.07 1396.28 1211.35 1393.84 1209.03 1391.98C1206.71 1390.11 1203.76 1389.18 1200.17 1389.18C1196.58 1389.18 1193.62 1390.11 1191.3 1391.98C1188.99 1393.84 1187.27 1396.28 1186.16 1399.31C1185.04 1402.33 1184.49 1405.59 1184.49 1409.09C1184.49 1412.59 1185.04 1415.84 1186.16 1418.84C1187.27 1421.84 1188.99 1424.26 1191.3 1426.1C1193.62 1427.94 1196.58 1428.86 1200.17 1428.86Z" fill="white"/>
<path d="M808.455 754.364L801.227 756.409C800.773 755.205 800.102 754.034 799.216 752.898C798.352 751.739 797.17 750.784 795.67 750.034C794.17 749.284 792.25 748.909 789.909 748.909C786.705 748.909 784.034 749.648 781.898 751.125C779.784 752.58 778.727 754.432 778.727 756.682C778.727 758.682 779.455 760.261 780.909 761.42C782.364 762.58 784.636 763.545 787.727 764.318L795.5 766.227C800.182 767.364 803.67 769.102 805.966 771.443C808.261 773.761 809.409 776.75 809.409 780.409C809.409 783.409 808.545 786.091 806.818 788.455C805.114 790.818 802.727 792.682 799.659 794.045C796.591 795.409 793.023 796.091 788.955 796.091C783.614 796.091 779.193 794.932 775.693 792.614C772.193 790.295 769.977 786.909 769.045 782.455L776.682 780.545C777.409 783.364 778.784 785.477 780.807 786.886C782.852 788.295 785.523 789 788.818 789C792.568 789 795.545 788.205 797.75 786.614C799.977 785 801.091 783.068 801.091 780.818C801.091 779 800.455 777.477 799.182 776.25C797.909 775 795.955 774.068 793.318 773.455L784.591 771.409C779.795 770.273 776.273 768.511 774.023 766.125C771.795 763.716 770.682 760.705 770.682 757.091C770.682 754.136 771.511 751.523 773.17 749.25C774.852 746.977 777.136 745.193 780.023 743.898C782.932 742.602 786.227 741.955 789.909 741.955C795.091 741.955 799.159 743.091 802.114 745.364C805.091 747.636 807.205 750.636 808.455 754.364ZM821.52 814.636V742.636H829.293V750.955H830.247C830.838 750.045 831.656 748.886 832.702 747.477C833.77 746.045 835.293 744.773 837.27 743.659C839.27 742.523 841.974 741.955 845.384 741.955C849.793 741.955 853.679 743.057 857.043 745.261C860.406 747.466 863.031 750.591 864.918 754.636C866.804 758.682 867.747 763.455 867.747 768.955C867.747 774.5 866.804 779.307 864.918 783.375C863.031 787.42 860.418 790.557 857.077 792.784C853.736 794.989 849.884 796.091 845.52 796.091C842.156 796.091 839.463 795.534 837.44 794.42C835.418 793.284 833.861 792 832.77 790.568C831.679 789.114 830.838 787.909 830.247 786.955H829.565V814.636H821.52ZM829.429 768.818C829.429 772.773 830.009 776.261 831.168 779.284C832.327 782.284 834.02 784.636 836.247 786.341C838.474 788.023 841.202 788.864 844.429 788.864C847.793 788.864 850.599 787.977 852.849 786.205C855.122 784.409 856.827 782 857.963 778.977C859.122 775.932 859.702 772.545 859.702 768.818C859.702 765.136 859.134 761.818 857.997 758.864C856.884 755.886 855.19 753.534 852.918 751.807C850.668 750.057 847.838 749.182 844.429 749.182C841.156 749.182 838.406 750.011 836.179 751.67C833.952 753.307 832.27 755.602 831.134 758.557C829.997 761.489 829.429 764.909 829.429 768.818ZM880.02 795V742.636H887.793V750.545H888.338C889.293 747.955 891.02 745.852 893.52 744.239C896.02 742.625 898.838 741.818 901.974 741.818C902.565 741.818 903.304 741.83 904.19 741.852C905.077 741.875 905.747 741.909 906.202 741.955V750.136C905.929 750.068 905.304 749.966 904.327 749.83C903.372 749.67 902.361 749.591 901.293 749.591C898.747 749.591 896.474 750.125 894.474 751.193C892.497 752.239 890.929 753.693 889.77 755.557C888.634 757.398 888.065 759.5 888.065 761.864V795H880.02ZM915.739 795V742.636H923.784V795H915.739ZM919.83 733.909C918.261 733.909 916.909 733.375 915.773 732.307C914.659 731.239 914.102 729.955 914.102 728.455C914.102 726.955 914.659 725.67 915.773 724.602C916.909 723.534 918.261 723 919.83 723C921.398 723 922.739 723.534 923.852 724.602C924.989 725.67 925.557 726.955 925.557 728.455C925.557 729.955 924.989 731.239 923.852 732.307C922.739 733.375 921.398 733.909 919.83 733.909ZM946.565 763.5V795H938.52V742.636H946.293V750.818H946.974C948.202 748.159 950.065 746.023 952.565 744.409C955.065 742.773 958.293 741.955 962.247 741.955C965.793 741.955 968.895 742.682 971.554 744.136C974.213 745.568 976.281 747.75 977.759 750.682C979.236 753.591 979.974 757.273 979.974 761.727V795H971.929V762.273C971.929 758.159 970.861 754.955 968.724 752.659C966.588 750.341 963.656 749.182 959.929 749.182C957.361 749.182 955.065 749.739 953.043 750.852C951.043 751.966 949.463 753.591 948.304 755.727C947.145 757.864 946.565 760.455 946.565 763.5ZM1017.45 742.636V749.455H990.312V742.636H1017.45ZM998.222 730.091H1006.27V780C1006.27 782.273 1006.6 783.977 1007.26 785.114C1007.94 786.227 1008.8 786.977 1009.85 787.364C1010.91 787.727 1012.04 787.909 1013.22 787.909C1014.11 787.909 1014.84 787.864 1015.4 787.773C1015.97 787.659 1016.43 787.568 1016.77 787.5L1018.4 794.727C1017.86 794.932 1017.1 795.136 1016.12 795.341C1015.14 795.568 1013.9 795.682 1012.4 795.682C1010.13 795.682 1007.9 795.193 1005.72 794.216C1003.56 793.239 1001.77 791.75 1000.34 789.75C998.926 787.75 998.222 785.227 998.222 782.182V730.091ZM1065.7 754.364L1058.48 756.409C1058.02 755.205 1057.35 754.034 1056.47 752.898C1055.6 751.739 1054.42 750.784 1052.92 750.034C1051.42 749.284 1049.5 748.909 1047.16 748.909C1043.95 748.909 1041.28 749.648 1039.15 751.125C1037.03 752.58 1035.98 754.432 1035.98 756.682C1035.98 758.682 1036.7 760.261 1038.16 761.42C1039.61 762.58 1041.89 763.545 1044.98 764.318L1052.75 766.227C1057.43 767.364 1060.92 769.102 1063.22 771.443C1065.51 773.761 1066.66 776.75 1066.66 780.409C1066.66 783.409 1065.8 786.091 1064.07 788.455C1062.36 790.818 1059.98 792.682 1056.91 794.045C1053.84 795.409 1050.27 796.091 1046.2 796.091C1040.86 796.091 1036.44 794.932 1032.94 792.614C1029.44 790.295 1027.23 786.909 1026.3 782.455L1033.93 780.545C1034.66 783.364 1036.03 785.477 1038.06 786.886C1040.1 788.295 1042.77 789 1046.07 789C1049.82 789 1052.8 788.205 1055 786.614C1057.23 785 1058.34 783.068 1058.34 780.818C1058.34 779 1057.7 777.477 1056.43 776.25C1055.16 775 1053.2 774.068 1050.57 773.455L1041.84 771.409C1037.05 770.273 1033.52 768.511 1031.27 766.125C1029.05 763.716 1027.93 760.705 1027.93 757.091C1027.93 754.136 1028.76 751.523 1030.42 749.25C1032.1 746.977 1034.39 745.193 1037.27 743.898C1040.18 742.602 1043.48 741.955 1047.16 741.955C1052.34 741.955 1056.41 743.091 1059.36 745.364C1062.34 747.636 1064.45 750.636 1065.7 754.364Z" fill="white"/>
<path d="M771.364 1755V1702.64H779.136V1710.55H779.682C780.636 1707.95 782.364 1705.85 784.864 1704.24C787.364 1702.62 790.182 1701.82 793.318 1701.82C793.909 1701.82 794.648 1701.83 795.534 1701.85C796.42 1701.87 797.091 1701.91 797.545 1701.95V1710.14C797.273 1710.07 796.648 1709.97 795.67 1709.83C794.716 1709.67 793.705 1709.59 792.636 1709.59C790.091 1709.59 787.818 1710.12 785.818 1711.19C783.841 1712.24 782.273 1713.69 781.114 1715.56C779.977 1717.4 779.409 1719.5 779.409 1721.86V1755H771.364ZM827.443 1756.09C822.398 1756.09 818.045 1754.98 814.386 1752.75C810.75 1750.5 807.943 1747.36 805.966 1743.34C804.011 1739.3 803.034 1734.59 803.034 1729.23C803.034 1723.86 804.011 1719.14 805.966 1715.05C807.943 1710.93 810.693 1707.73 814.216 1705.43C817.761 1703.11 821.898 1701.95 826.625 1701.95C829.352 1701.95 832.045 1702.41 834.705 1703.32C837.364 1704.23 839.784 1705.7 841.966 1707.75C844.148 1709.77 845.886 1712.45 847.182 1715.8C848.477 1719.14 849.125 1723.25 849.125 1728.14V1731.55H808.761V1724.59H840.943C840.943 1721.64 840.352 1719 839.17 1716.68C838.011 1714.36 836.352 1712.53 834.193 1711.19C832.057 1709.85 829.534 1709.18 826.625 1709.18C823.42 1709.18 820.648 1709.98 818.307 1711.57C815.989 1713.14 814.205 1715.18 812.955 1717.7C811.705 1720.23 811.08 1722.93 811.08 1725.82V1730.45C811.08 1734.41 811.761 1737.76 813.125 1740.51C814.511 1743.24 816.432 1745.32 818.886 1746.75C821.341 1748.16 824.193 1748.86 827.443 1748.86C829.557 1748.86 831.466 1748.57 833.17 1747.98C834.898 1747.36 836.386 1746.45 837.636 1745.25C838.886 1744.02 839.852 1742.5 840.534 1740.68L848.307 1742.86C847.489 1745.5 846.114 1747.82 844.182 1749.82C842.25 1751.8 839.864 1753.34 837.023 1754.45C834.182 1755.55 830.989 1756.09 827.443 1756.09ZM882.636 1756.09C877.727 1756.09 873.5 1754.93 869.955 1752.61C866.409 1750.3 863.682 1747.1 861.773 1743.03C859.864 1738.97 858.909 1734.32 858.909 1729.09C858.909 1723.77 859.886 1719.08 861.841 1715.01C863.818 1710.92 866.568 1707.73 870.091 1705.43C873.636 1703.11 877.773 1701.95 882.5 1701.95C886.182 1701.95 889.5 1702.64 892.455 1704C895.409 1705.36 897.83 1707.27 899.716 1709.73C901.602 1712.18 902.773 1715.05 903.227 1718.32H895.182C894.568 1715.93 893.205 1713.82 891.091 1711.98C889 1710.11 886.182 1709.18 882.636 1709.18C879.5 1709.18 876.75 1710 874.386 1711.64C872.045 1713.25 870.216 1715.53 868.898 1718.49C867.602 1721.42 866.955 1724.86 866.955 1728.82C866.955 1732.86 867.591 1736.39 868.864 1739.39C870.159 1742.39 871.977 1744.72 874.318 1746.38C876.682 1748.03 879.455 1748.86 882.636 1748.86C884.727 1748.86 886.625 1748.5 888.33 1747.77C890.034 1747.05 891.477 1746 892.659 1744.64C893.841 1743.27 894.682 1741.64 895.182 1739.73H903.227C902.773 1742.82 901.648 1745.6 899.852 1748.08C898.08 1750.53 895.727 1752.49 892.795 1753.94C889.886 1755.38 886.5 1756.09 882.636 1756.09ZM936.261 1756.09C931.534 1756.09 927.386 1754.97 923.818 1752.72C920.273 1750.47 917.5 1747.32 915.5 1743.27C913.523 1739.23 912.534 1734.5 912.534 1729.09C912.534 1723.64 913.523 1718.87 915.5 1714.81C917.5 1710.74 920.273 1707.58 923.818 1705.33C927.386 1703.08 931.534 1701.95 936.261 1701.95C940.989 1701.95 945.125 1703.08 948.67 1705.33C952.239 1707.58 955.011 1710.74 956.989 1714.81C958.989 1718.87 959.989 1723.64 959.989 1729.09C959.989 1734.5 958.989 1739.23 956.989 1743.27C955.011 1747.32 952.239 1750.47 948.67 1752.72C945.125 1754.97 940.989 1756.09 936.261 1756.09ZM936.261 1748.86C939.852 1748.86 942.807 1747.94 945.125 1746.1C947.443 1744.26 949.159 1741.84 950.273 1738.84C951.386 1735.84 951.943 1732.59 951.943 1729.09C951.943 1725.59 951.386 1722.33 950.273 1719.31C949.159 1716.28 947.443 1713.84 945.125 1711.98C942.807 1710.11 939.852 1709.18 936.261 1709.18C932.67 1709.18 929.716 1710.11 927.398 1711.98C925.08 1713.84 923.364 1716.28 922.25 1719.31C921.136 1722.33 920.58 1725.59 920.58 1729.09C920.58 1732.59 921.136 1735.84 922.25 1738.84C923.364 1741.84 925.08 1744.26 927.398 1746.1C929.716 1747.94 932.67 1748.86 936.261 1748.86ZM972.27 1755V1702.64H980.043V1710.55H980.588C981.543 1707.95 983.27 1705.85 985.77 1704.24C988.27 1702.62 991.088 1701.82 994.224 1701.82C994.815 1701.82 995.554 1701.83 996.44 1701.85C997.327 1701.87 997.997 1701.91 998.452 1701.95V1710.14C998.179 1710.07 997.554 1709.97 996.577 1709.83C995.622 1709.67 994.611 1709.59 993.543 1709.59C990.997 1709.59 988.724 1710.12 986.724 1711.19C984.747 1712.24 983.179 1713.69 982.02 1715.56C980.884 1717.4 980.315 1719.5 980.315 1721.86V1755H972.27ZM1026.17 1756.09C1021.8 1756.09 1017.95 1754.99 1014.61 1752.78C1011.27 1750.56 1008.66 1747.42 1006.77 1743.38C1004.88 1739.31 1003.94 1734.5 1003.94 1728.95C1003.94 1723.45 1004.88 1718.68 1006.77 1714.64C1008.66 1710.59 1011.28 1707.47 1014.64 1705.26C1018.01 1703.06 1021.89 1701.95 1026.3 1701.95C1029.71 1701.95 1032.41 1702.52 1034.38 1703.66C1036.38 1704.77 1037.91 1706.05 1038.95 1707.48C1040.02 1708.89 1040.85 1710.05 1041.44 1710.95H1042.12V1685.18H1050.17V1755H1042.39V1746.95H1041.44C1040.85 1747.91 1040.01 1749.11 1038.92 1750.57C1037.83 1752 1036.27 1753.28 1034.25 1754.42C1032.22 1755.53 1029.53 1756.09 1026.17 1756.09ZM1027.26 1748.86C1030.49 1748.86 1033.21 1748.02 1035.44 1746.34C1037.67 1744.64 1039.36 1742.28 1040.52 1739.28C1041.68 1736.26 1042.26 1732.77 1042.26 1728.82C1042.26 1724.91 1041.69 1721.49 1040.55 1718.56C1039.42 1715.6 1037.74 1713.31 1035.51 1711.67C1033.28 1710.01 1030.53 1709.18 1027.26 1709.18C1023.85 1709.18 1021.01 1710.06 1018.74 1711.81C1016.49 1713.53 1014.79 1715.89 1013.66 1718.86C1012.54 1721.82 1011.99 1725.14 1011.99 1728.82C1011.99 1732.55 1012.55 1735.93 1013.69 1738.98C1014.85 1742 1016.55 1744.41 1018.8 1746.2C1021.08 1747.98 1023.89 1748.86 1027.26 1748.86ZM1103.11 1714.36L1095.88 1716.41C1095.43 1715.2 1094.76 1714.03 1093.87 1712.9C1093.01 1711.74 1091.83 1710.78 1090.33 1710.03C1088.83 1709.28 1086.91 1708.91 1084.57 1708.91C1081.36 1708.91 1078.69 1709.65 1076.55 1711.12C1074.44 1712.58 1073.38 1714.43 1073.38 1716.68C1073.38 1718.68 1074.11 1720.26 1075.57 1721.42C1077.02 1722.58 1079.29 1723.55 1082.38 1724.32L1090.16 1726.23C1094.84 1727.36 1098.33 1729.1 1100.62 1731.44C1102.92 1733.76 1104.07 1736.75 1104.07 1740.41C1104.07 1743.41 1103.2 1746.09 1101.47 1748.45C1099.77 1750.82 1097.38 1752.68 1094.32 1754.05C1091.25 1755.41 1087.68 1756.09 1083.61 1756.09C1078.27 1756.09 1073.85 1754.93 1070.35 1752.61C1066.85 1750.3 1064.63 1746.91 1063.7 1742.45L1071.34 1740.55C1072.07 1743.36 1073.44 1745.48 1075.46 1746.89C1077.51 1748.3 1080.18 1749 1083.47 1749C1087.22 1749 1090.2 1748.2 1092.41 1746.61C1094.63 1745 1095.75 1743.07 1095.75 1740.82C1095.75 1739 1095.11 1737.48 1093.84 1736.25C1092.57 1735 1090.61 1734.07 1087.97 1733.45L1079.25 1731.41C1074.45 1730.27 1070.93 1728.51 1068.68 1726.12C1066.45 1723.72 1065.34 1720.7 1065.34 1717.09C1065.34 1714.14 1066.17 1711.52 1067.83 1709.25C1069.51 1706.98 1071.79 1705.19 1074.68 1703.9C1077.59 1702.6 1080.88 1701.95 1084.57 1701.95C1089.75 1701.95 1093.82 1703.09 1096.77 1705.36C1099.75 1707.64 1101.86 1710.64 1103.11 1714.36Z" fill="white"/>
<path d="M794.136 1062.64V1069.45H767V1062.64H794.136ZM774.909 1050.09H782.955V1100C782.955 1102.27 783.284 1103.98 783.943 1105.11C784.625 1106.23 785.489 1106.98 786.534 1107.36C787.602 1107.73 788.727 1107.91 789.909 1107.91C790.795 1107.91 791.523 1107.86 792.091 1107.77C792.659 1107.66 793.114 1107.57 793.455 1107.5L795.091 1114.73C794.545 1114.93 793.784 1115.14 792.807 1115.34C791.83 1115.57 790.591 1115.68 789.091 1115.68C786.818 1115.68 784.591 1115.19 782.409 1114.22C780.25 1113.24 778.455 1111.75 777.023 1109.75C775.614 1107.75 774.909 1105.23 774.909 1102.18V1050.09ZM826.949 1116.09C822.222 1116.09 818.074 1114.97 814.506 1112.72C810.96 1110.47 808.188 1107.32 806.188 1103.27C804.21 1099.23 803.222 1094.5 803.222 1089.09C803.222 1083.64 804.21 1078.87 806.188 1074.81C808.188 1070.74 810.96 1067.58 814.506 1065.33C818.074 1063.08 822.222 1061.95 826.949 1061.95C831.676 1061.95 835.813 1063.08 839.358 1065.33C842.926 1067.58 845.699 1070.74 847.676 1074.81C849.676 1078.87 850.676 1083.64 850.676 1089.09C850.676 1094.5 849.676 1099.23 847.676 1103.27C845.699 1107.32 842.926 1110.47 839.358 1112.72C835.813 1114.97 831.676 1116.09 826.949 1116.09ZM826.949 1108.86C830.54 1108.86 833.494 1107.94 835.812 1106.1C838.131 1104.26 839.847 1101.84 840.96 1098.84C842.074 1095.84 842.631 1092.59 842.631 1089.09C842.631 1085.59 842.074 1082.33 840.96 1079.31C839.847 1076.28 838.131 1073.84 835.812 1071.98C833.494 1070.11 830.54 1069.18 826.949 1069.18C823.358 1069.18 820.403 1070.11 818.085 1071.98C815.767 1073.84 814.051 1076.28 812.938 1079.31C811.824 1082.33 811.267 1085.59 811.267 1089.09C811.267 1092.59 811.824 1095.84 812.938 1098.84C814.051 1101.84 815.767 1104.26 818.085 1106.1C820.403 1107.94 823.358 1108.86 826.949 1108.86ZM882.73 1116.09C878.366 1116.09 874.514 1114.99 871.173 1112.78C867.832 1110.56 865.219 1107.42 863.332 1103.38C861.446 1099.31 860.503 1094.5 860.503 1088.95C860.503 1083.45 861.446 1078.68 863.332 1074.64C865.219 1070.59 867.844 1067.47 871.207 1065.26C874.571 1063.06 878.457 1061.95 882.866 1061.95C886.276 1061.95 888.969 1062.52 890.946 1063.66C892.946 1064.77 894.469 1066.05 895.514 1067.48C896.582 1068.89 897.412 1070.05 898.003 1070.95H898.685V1045.18H906.73V1115H898.957V1106.95H898.003C897.412 1107.91 896.571 1109.11 895.48 1110.57C894.389 1112 892.832 1113.28 890.81 1114.42C888.787 1115.53 886.094 1116.09 882.73 1116.09ZM883.821 1108.86C887.048 1108.86 889.776 1108.02 892.003 1106.34C894.23 1104.64 895.923 1102.28 897.082 1099.28C898.241 1096.26 898.821 1092.77 898.821 1088.82C898.821 1084.91 898.253 1081.49 897.116 1078.56C895.98 1075.6 894.298 1073.31 892.071 1071.67C889.844 1070.01 887.094 1069.18 883.821 1069.18C880.412 1069.18 877.571 1070.06 875.298 1071.81C873.048 1073.53 871.355 1075.89 870.219 1078.86C869.105 1081.82 868.548 1085.14 868.548 1088.82C868.548 1092.55 869.116 1095.93 870.253 1098.98C871.412 1102 873.116 1104.41 875.366 1106.2C877.639 1107.98 880.457 1108.86 883.821 1108.86ZM943.855 1116.09C939.128 1116.09 934.98 1114.97 931.412 1112.72C927.866 1110.47 925.094 1107.32 923.094 1103.27C921.116 1099.23 920.128 1094.5 920.128 1089.09C920.128 1083.64 921.116 1078.87 923.094 1074.81C925.094 1070.74 927.866 1067.58 931.412 1065.33C934.98 1063.08 939.128 1061.95 943.855 1061.95C948.582 1061.95 952.719 1063.08 956.264 1065.33C959.832 1067.58 962.605 1070.74 964.582 1074.81C966.582 1078.87 967.582 1083.64 967.582 1089.09C967.582 1094.5 966.582 1099.23 964.582 1103.27C962.605 1107.32 959.832 1110.47 956.264 1112.72C952.719 1114.97 948.582 1116.09 943.855 1116.09ZM943.855 1108.86C947.446 1108.86 950.401 1107.94 952.719 1106.1C955.037 1104.26 956.753 1101.84 957.866 1098.84C958.98 1095.84 959.537 1092.59 959.537 1089.09C959.537 1085.59 958.98 1082.33 957.866 1079.31C956.753 1076.28 955.037 1073.84 952.719 1071.98C950.401 1070.11 947.446 1069.18 943.855 1069.18C940.264 1069.18 937.31 1070.11 934.991 1071.98C932.673 1073.84 930.957 1076.28 929.844 1079.31C928.73 1082.33 928.173 1085.59 928.173 1089.09C928.173 1092.59 928.73 1095.84 929.844 1098.84C930.957 1101.84 932.673 1104.26 934.991 1106.1C937.31 1107.94 940.264 1108.86 943.855 1108.86ZM1016.95 1074.36L1009.73 1076.41C1009.27 1075.2 1008.6 1074.03 1007.72 1072.9C1006.85 1071.74 1005.67 1070.78 1004.17 1070.03C1002.67 1069.28 1000.75 1068.91 998.409 1068.91C995.205 1068.91 992.534 1069.65 990.398 1071.12C988.284 1072.58 987.227 1074.43 987.227 1076.68C987.227 1078.68 987.955 1080.26 989.409 1081.42C990.864 1082.58 993.136 1083.55 996.227 1084.32L1004 1086.23C1008.68 1087.36 1012.17 1089.1 1014.47 1091.44C1016.76 1093.76 1017.91 1096.75 1017.91 1100.41C1017.91 1103.41 1017.05 1106.09 1015.32 1108.45C1013.61 1110.82 1011.23 1112.68 1008.16 1114.05C1005.09 1115.41 1001.52 1116.09 997.455 1116.09C992.114 1116.09 987.693 1114.93 984.193 1112.61C980.693 1110.3 978.477 1106.91 977.545 1102.45L985.182 1100.55C985.909 1103.36 987.284 1105.48 989.307 1106.89C991.352 1108.3 994.023 1109 997.318 1109C1001.07 1109 1004.05 1108.2 1006.25 1106.61C1008.48 1105 1009.59 1103.07 1009.59 1100.82C1009.59 1099 1008.95 1097.48 1007.68 1096.25C1006.41 1095 1004.45 1094.07 1001.82 1093.45L993.091 1091.41C988.295 1090.27 984.773 1088.51 982.523 1086.12C980.295 1083.72 979.182 1080.7 979.182 1077.09C979.182 1074.14 980.011 1071.52 981.67 1069.25C983.352 1066.98 985.636 1065.19 988.523 1063.9C991.432 1062.6 994.727 1061.95 998.409 1061.95C1003.59 1061.95 1007.66 1063.09 1010.61 1065.36C1013.59 1067.64 1015.7 1070.64 1016.95 1074.36Z" fill="white"/>
<path d="M791.136 2076.09C786.773 2076.09 782.92 2074.99 779.58 2072.78C776.239 2070.56 773.625 2067.42 771.739 2063.38C769.852 2059.31 768.909 2054.5 768.909 2048.95C768.909 2043.45 769.852 2038.68 771.739 2034.64C773.625 2030.59 776.25 2027.47 779.614 2025.26C782.977 2023.06 786.864 2021.95 791.273 2021.95C794.682 2021.95 797.375 2022.52 799.352 2023.66C801.352 2024.77 802.875 2026.05 803.92 2027.48C804.989 2028.89 805.818 2030.05 806.409 2030.95H807.091V2005.18H815.136V2075H807.364V2066.95H806.409C805.818 2067.91 804.977 2069.11 803.886 2070.57C802.795 2072 801.239 2073.28 799.216 2074.42C797.193 2075.53 794.5 2076.09 791.136 2076.09ZM792.227 2068.86C795.455 2068.86 798.182 2068.02 800.409 2066.34C802.636 2064.64 804.33 2062.28 805.489 2059.28C806.648 2056.26 807.227 2052.77 807.227 2048.82C807.227 2044.91 806.659 2041.49 805.523 2038.56C804.386 2035.6 802.705 2033.31 800.477 2031.67C798.25 2030.01 795.5 2029.18 792.227 2029.18C788.818 2029.18 785.977 2030.06 783.705 2031.81C781.455 2033.53 779.761 2035.89 778.625 2038.86C777.511 2041.82 776.955 2045.14 776.955 2048.82C776.955 2052.55 777.523 2055.93 778.659 2058.98C779.818 2062 781.523 2064.41 783.773 2066.2C786.045 2067.98 788.864 2068.86 792.227 2068.86ZM852.261 2076.09C847.534 2076.09 843.386 2074.97 839.818 2072.72C836.273 2070.47 833.5 2067.32 831.5 2063.27C829.523 2059.23 828.534 2054.5 828.534 2049.09C828.534 2043.64 829.523 2038.87 831.5 2034.81C833.5 2030.74 836.273 2027.58 839.818 2025.33C843.386 2023.08 847.534 2021.95 852.261 2021.95C856.989 2021.95 861.125 2023.08 864.67 2025.33C868.239 2027.58 871.011 2030.74 872.989 2034.81C874.989 2038.87 875.989 2043.64 875.989 2049.09C875.989 2054.5 874.989 2059.23 872.989 2063.27C871.011 2067.32 868.239 2070.47 864.67 2072.72C861.125 2074.97 856.989 2076.09 852.261 2076.09ZM852.261 2068.86C855.852 2068.86 858.807 2067.94 861.125 2066.1C863.443 2064.26 865.159 2061.84 866.273 2058.84C867.386 2055.84 867.943 2052.59 867.943 2049.09C867.943 2045.59 867.386 2042.33 866.273 2039.31C865.159 2036.28 863.443 2033.84 861.125 2031.98C858.807 2030.11 855.852 2029.18 852.261 2029.18C848.67 2029.18 845.716 2030.11 843.398 2031.98C841.08 2033.84 839.364 2036.28 838.25 2039.31C837.136 2042.33 836.58 2045.59 836.58 2049.09C836.58 2052.59 837.136 2055.84 838.25 2058.84C839.364 2061.84 841.08 2064.26 843.398 2066.1C845.716 2067.94 848.67 2068.86 852.261 2068.86ZM909.543 2076.09C904.634 2076.09 900.406 2074.93 896.861 2072.61C893.315 2070.3 890.588 2067.1 888.679 2063.03C886.77 2058.97 885.815 2054.32 885.815 2049.09C885.815 2043.77 886.793 2039.08 888.747 2035.01C890.724 2030.92 893.474 2027.73 896.997 2025.43C900.543 2023.11 904.679 2021.95 909.406 2021.95C913.088 2021.95 916.406 2022.64 919.361 2024C922.315 2025.36 924.736 2027.27 926.622 2029.73C928.509 2032.18 929.679 2035.05 930.134 2038.32H922.088C921.474 2035.93 920.111 2033.82 917.997 2031.98C915.906 2030.11 913.088 2029.18 909.543 2029.18C906.406 2029.18 903.656 2030 901.293 2031.64C898.952 2033.25 897.122 2035.53 895.804 2038.49C894.509 2041.42 893.861 2044.86 893.861 2048.82C893.861 2052.86 894.497 2056.39 895.77 2059.39C897.065 2062.39 898.884 2064.72 901.224 2066.38C903.588 2068.03 906.361 2068.86 909.543 2068.86C911.634 2068.86 913.531 2068.5 915.236 2067.77C916.94 2067.05 918.384 2066 919.565 2064.64C920.747 2063.27 921.588 2061.64 922.088 2059.73H930.134C929.679 2062.82 928.554 2065.6 926.759 2068.08C924.986 2070.53 922.634 2072.49 919.702 2073.94C916.793 2075.38 913.406 2076.09 909.543 2076.09ZM974.895 2053.59V2022.64H982.94V2075H974.895V2066.14H974.349C973.122 2068.8 971.213 2071.06 968.622 2072.92C966.031 2074.76 962.759 2075.68 958.804 2075.68C955.531 2075.68 952.622 2074.97 950.077 2073.53C947.531 2072.08 945.531 2069.9 944.077 2066.99C942.622 2064.06 941.895 2060.36 941.895 2055.91V2022.64H949.94V2055.36C949.94 2059.18 951.009 2062.23 953.145 2064.5C955.304 2066.77 958.054 2067.91 961.395 2067.91C963.395 2067.91 965.429 2067.4 967.497 2066.38C969.588 2065.35 971.338 2063.78 972.747 2061.67C974.179 2059.56 974.895 2056.86 974.895 2053.59ZM997.676 2075V2022.64H1005.45V2030.82H1006.13C1007.22 2028.02 1008.98 2025.85 1011.41 2024.31C1013.85 2022.74 1016.77 2021.95 1020.18 2021.95C1023.63 2021.95 1026.51 2022.74 1028.8 2024.31C1031.12 2025.85 1032.93 2028.02 1034.22 2030.82H1034.77C1036.11 2028.11 1038.12 2025.97 1040.8 2024.38C1043.48 2022.76 1046.7 2021.95 1050.45 2021.95C1055.13 2021.95 1058.96 2023.42 1061.94 2026.35C1064.91 2029.26 1066.4 2033.8 1066.4 2039.95V2075H1058.36V2039.95C1058.36 2036.09 1057.3 2033.33 1055.19 2031.67C1053.07 2030.01 1050.59 2029.18 1047.72 2029.18C1044.04 2029.18 1041.19 2030.3 1039.16 2032.52C1037.14 2034.73 1036.13 2037.52 1036.13 2040.91V2075H1027.95V2039.14C1027.95 2036.16 1026.98 2033.76 1025.05 2031.94C1023.12 2030.1 1020.63 2029.18 1017.59 2029.18C1015.49 2029.18 1013.54 2029.74 1011.72 2030.85C1009.93 2031.97 1008.47 2033.51 1007.36 2035.49C1006.27 2037.44 1005.72 2039.7 1005.72 2042.27V2075H997.676ZM1103.07 2076.09C1098.02 2076.09 1093.67 2074.98 1090.01 2072.75C1086.38 2070.5 1083.57 2067.36 1081.59 2063.34C1079.64 2059.3 1078.66 2054.59 1078.66 2049.23C1078.66 2043.86 1079.64 2039.14 1081.59 2035.05C1083.57 2030.93 1086.32 2027.73 1089.84 2025.43C1093.39 2023.11 1097.52 2021.95 1102.25 2021.95C1104.98 2021.95 1107.67 2022.41 1110.33 2023.32C1112.99 2024.23 1115.41 2025.7 1117.59 2027.75C1119.77 2029.77 1121.51 2032.45 1122.81 2035.8C1124.1 2039.14 1124.75 2043.25 1124.75 2048.14V2051.55H1084.39V2044.59H1116.57C1116.57 2041.64 1115.98 2039 1114.8 2036.68C1113.64 2034.36 1111.98 2032.53 1109.82 2031.19C1107.68 2029.85 1105.16 2029.18 1102.25 2029.18C1099.05 2029.18 1096.27 2029.98 1093.93 2031.57C1091.61 2033.14 1089.83 2035.18 1088.58 2037.7C1087.33 2040.23 1086.7 2042.93 1086.7 2045.82V2050.45C1086.7 2054.41 1087.39 2057.76 1088.75 2060.51C1090.14 2063.24 1092.06 2065.32 1094.51 2066.75C1096.97 2068.16 1099.82 2068.86 1103.07 2068.86C1105.18 2068.86 1107.09 2068.57 1108.8 2067.98C1110.52 2067.36 1112.01 2066.45 1113.26 2065.25C1114.51 2064.02 1115.48 2062.5 1116.16 2060.68L1123.93 2062.86C1123.11 2065.5 1121.74 2067.82 1119.81 2069.82C1117.88 2071.8 1115.49 2073.34 1112.65 2074.45C1109.81 2075.55 1106.61 2076.09 1103.07 2076.09ZM1159.76 2022.64V2029.45H1132.62V2022.64H1159.76ZM1140.53 2010.09H1148.58V2060C1148.58 2062.27 1148.91 2063.98 1149.57 2065.11C1150.25 2066.23 1151.11 2066.98 1152.16 2067.36C1153.23 2067.73 1154.35 2067.91 1155.53 2067.91C1156.42 2067.91 1157.15 2067.86 1157.72 2067.77C1158.28 2067.66 1158.74 2067.57 1159.08 2067.5L1160.72 2074.73C1160.17 2074.93 1159.41 2075.14 1158.43 2075.34C1157.45 2075.57 1156.22 2075.68 1154.72 2075.68C1152.44 2075.68 1150.22 2075.19 1148.03 2074.22C1145.88 2073.24 1144.08 2071.75 1142.65 2069.75C1141.24 2067.75 1140.53 2065.23 1140.53 2062.18V2010.09ZM1208.02 2034.36L1200.79 2036.41C1200.34 2035.2 1199.66 2034.03 1198.78 2032.9C1197.91 2031.74 1196.73 2030.78 1195.23 2030.03C1193.73 2029.28 1191.81 2028.91 1189.47 2028.91C1186.27 2028.91 1183.6 2029.65 1181.46 2031.12C1179.35 2032.58 1178.29 2034.43 1178.29 2036.68C1178.29 2038.68 1179.02 2040.26 1180.47 2041.42C1181.93 2042.58 1184.2 2043.55 1187.29 2044.32L1195.06 2046.23C1199.74 2047.36 1203.23 2049.1 1205.53 2051.44C1207.82 2053.76 1208.97 2056.75 1208.97 2060.41C1208.97 2063.41 1208.11 2066.09 1206.38 2068.45C1204.68 2070.82 1202.29 2072.68 1199.22 2074.05C1196.15 2075.41 1192.59 2076.09 1188.52 2076.09C1183.18 2076.09 1178.76 2074.93 1175.26 2072.61C1171.76 2070.3 1169.54 2066.91 1168.61 2062.45L1176.24 2060.55C1176.97 2063.36 1178.35 2065.48 1180.37 2066.89C1182.41 2068.3 1185.09 2069 1188.38 2069C1192.13 2069 1195.11 2068.2 1197.31 2066.61C1199.54 2065 1200.65 2063.07 1200.65 2060.82C1200.65 2059 1200.02 2057.48 1198.74 2056.25C1197.47 2055 1195.52 2054.07 1192.88 2053.45L1184.15 2051.41C1179.36 2050.27 1175.84 2048.51 1173.59 2046.12C1171.36 2043.72 1170.24 2040.7 1170.24 2037.09C1170.24 2034.14 1171.07 2031.52 1172.73 2029.25C1174.41 2026.98 1176.7 2025.19 1179.59 2023.9C1182.49 2022.6 1185.79 2021.95 1189.47 2021.95C1194.65 2021.95 1198.72 2023.09 1201.68 2025.36C1204.65 2027.64 1206.77 2030.64 1208.02 2034.36Z" fill="white"/>
<path d="M33.7598 48.4732L58.6684 34.374L83.107 48.4732L57.7284 62.5725L33.7598 48.4732Z" fill="#828282"/>
<path d="M63.8381 65.8622L88.7468 51.293L113.655 65.8622L88.2768 79.4914L63.8381 65.8622Z" fill="#828282"/>
<path d="M127.285 65.3924L152.193 50.8232L176.632 65.3924L151.253 79.4917L127.285 65.3924Z" fill="#C6C6C6"/>
<path d="M158.303 48.0033L183.212 33.4341L207.65 48.0033L182.272 61.6325L158.303 48.0033Z" fill="#C6C6C6"/>
<path d="M30 53.1729V84.1911L54.9086 98.2904V67.742L30 53.1729Z" fill="#00AFD1"/>
<path d="M61.0183 70.562V101.58L86.3969 115.21V85.1312L61.0183 70.562Z" fill="#00AFD1"/>
<path d="M91.5667 87.0112V118.03L116.475 131.659V101.58L91.5667 87.0112Z" fill="#00AFD1"/>
<path d="M210 53.6431V84.6613L184.621 98.7606V68.2123L210 53.6431Z" fill="#4AE1FF"/>
<path d="M178.512 71.0322V102.051L153.603 115.68V85.6014L178.512 71.0322Z" fill="#4AE1FF"/>
<path d="M147.964 87.481V118.499L123.055 132.128V102.05L147.964 87.481Z" fill="#4AE1FF"/>
<path d="M30 90.3008V121.319L54.9086 134.948V104.87L30 90.3008Z" fill="#00AFD1"/>
<path d="M61.0183 107.22V138.238L86.3969 152.338V122.259L61.0183 107.22Z" fill="#00AFD1"/>
<path d="M91.5667 123.669V154.687L116.475 168.316V138.238L91.5667 123.669Z" fill="#00AFD1"/>
<path d="M210 90.771V121.789L184.621 135.419V105.34L210 90.771Z" fill="#4AE1FF"/>
<path d="M178.512 108.16V139.178L153.603 152.808V122.729L178.512 108.16Z" fill="#4AE1FF"/>
<path d="M147.964 124.139V155.157L123.055 168.787V138.708L147.964 124.139Z" fill="#4AE1FF"/>
<path d="M30 126.959V157.977L54.9086 172.076V141.528L30 126.959Z" fill="#00AFD1"/>
<path d="M61.0183 144.348V175.366L86.3969 188.995V158.917L61.0183 144.348Z" fill="#00AFD1"/>
<path d="M91.5667 160.797V191.815L116.475 205.444V175.366L91.5667 160.797Z" fill="#00AFD1"/>
<path d="M210 127.429V158.447L184.621 172.546V142.468L210 127.429Z" fill="#4AE1FF"/>
<path d="M178.512 144.818V175.836L153.603 189.465V159.387L178.512 144.818Z" fill="#4AE1FF"/>
<path d="M147.964 161.267V192.285L123.055 205.915V175.836L147.964 161.267Z" fill="#4AE1FF"/>
<path d="M120.235 68.2119L95.3264 82.7811L119.765 96.4103L120.235 68.2119Z" fill="#828282"/>
<path d="M120.235 68.2119L119.765 96.4103L144.674 82.7811L120.235 68.2119Z" fill="#C6C6C6"/>
<path d="M33.7598 368.473L58.6684 354.374L83.107 368.473L57.7284 382.572L33.7598 368.473Z" fill="#828282"/>
<path d="M63.8381 385.862L88.7468 371.293L113.655 385.862L88.2768 399.491L63.8381 385.862Z" fill="#828282"/>
<path d="M127.285 385.392L152.193 370.823L176.632 385.392L151.253 399.492L127.285 385.392Z" fill="#C6C6C6"/>
<path d="M158.303 368.003L183.212 353.434L207.65 368.003L182.272 381.633L158.303 368.003Z" fill="#C6C6C6"/>
<path d="M30 373.173V404.191L54.9086 418.29V387.742L30 373.173Z" fill="#00AFD1"/>
<path d="M61.0183 390.562V421.58L86.3969 435.21V405.131L61.0183 390.562Z" fill="#00AFD1"/>
<path d="M91.5667 407.011V438.03L116.475 451.659V421.58L91.5667 407.011Z" fill="#00AFD1"/>
<path d="M210 373.643V404.661L184.621 418.761V388.212L210 373.643Z" fill="#4AE1FF"/>
<path d="M178.512 391.032V422.051L153.603 435.68V405.601L178.512 391.032Z" fill="#4AE1FF"/>
<path d="M147.964 407.481V438.499L123.055 452.128V422.05L147.964 407.481Z" fill="#4AE1FF"/>
<path d="M30 410.301V441.319L54.9086 454.948V424.87L30 410.301Z" fill="#00AFD1"/>
<path d="M61.0183 427.22V458.238L86.3969 472.338V442.259L61.0183 427.22Z" fill="#00AFD1"/>
<path d="M91.5667 443.669V474.687L116.475 488.316V458.238L91.5667 443.669Z" fill="#00AFD1"/>
<path d="M210 410.771V441.789L184.621 455.419V425.34L210 410.771Z" fill="#4AE1FF"/>
<path d="M178.512 428.16V459.178L153.603 472.808V442.729L178.512 428.16Z" fill="#4AE1FF"/>
<path d="M147.964 444.139V475.157L123.055 488.787V458.708L147.964 444.139Z" fill="#4AE1FF"/>
<path d="M30 446.959V477.977L54.9086 492.076V461.528L30 446.959Z" fill="#00AFD1"/>
<path d="M61.0183 464.348V495.366L86.3969 508.995V478.917L61.0183 464.348Z" fill="#00AFD1"/>
<path d="M91.5667 480.797V511.815L116.475 525.444V495.366L91.5667 480.797Z" fill="#00AFD1"/>
<path d="M210 447.429V478.447L184.621 492.546V462.468L210 447.429Z" fill="#4AE1FF"/>
<path d="M178.512 464.818V495.836L153.603 509.465V479.387L178.512 464.818Z" fill="#4AE1FF"/>
<path d="M147.964 481.267V512.285L123.055 525.915V495.836L147.964 481.267Z" fill="#4AE1FF"/>
<path d="M120.235 388.212L95.3264 402.781L119.765 416.41L120.235 388.212Z" fill="#828282"/>
<path d="M120.235 388.212L119.765 416.41L144.674 402.781L120.235 388.212Z" fill="#C6C6C6"/>
<path d="M33.7598 688.473L58.6684 674.374L83.107 688.473L57.7284 702.572L33.7598 688.473Z" fill="#828282"/>
<path d="M63.8381 705.862L88.7468 691.293L113.655 705.862L88.2768 719.491L63.8381 705.862Z" fill="#828282"/>
<path d="M127.285 705.392L152.193 690.823L176.632 705.392L151.253 719.492L127.285 705.392Z" fill="#C6C6C6"/>
<path d="M158.303 688.003L183.212 673.434L207.65 688.003L182.272 701.633L158.303 688.003Z" fill="#C6C6C6"/>
<path d="M30 693.173V724.191L54.9086 738.29V707.742L30 693.173Z" fill="#00AFD1"/>
<path d="M61.0183 710.562V741.58L86.3969 755.21V725.131L61.0183 710.562Z" fill="#00AFD1"/>
<path d="M91.5667 727.011V758.03L116.475 771.659V741.58L91.5667 727.011Z" fill="#00AFD1"/>
<path d="M210 693.643V724.661L184.621 738.761V708.212L210 693.643Z" fill="#4AE1FF"/>
<path d="M178.512 711.032V742.051L153.603 755.68V725.601L178.512 711.032Z" fill="#4AE1FF"/>
<path d="M147.964 727.481V758.499L123.055 772.128V742.05L147.964 727.481Z" fill="#4AE1FF"/>
<path d="M30 730.301V761.319L54.9086 774.948V744.87L30 730.301Z" fill="#00AFD1"/>
<path d="M61.0183 747.22V778.238L86.3969 792.338V762.259L61.0183 747.22Z" fill="#00AFD1"/>
<path d="M91.5667 763.669V794.687L116.475 808.316V778.238L91.5667 763.669Z" fill="#00AFD1"/>
<path d="M210 730.771V761.789L184.621 775.419V745.34L210 730.771Z" fill="#4AE1FF"/>
<path d="M178.512 748.16V779.178L153.603 792.808V762.729L178.512 748.16Z" fill="#4AE1FF"/>
<path d="M147.964 764.139V795.157L123.055 808.787V778.708L147.964 764.139Z" fill="#4AE1FF"/>
<path d="M30 766.959V797.977L54.9086 812.076V781.528L30 766.959Z" fill="#00AFD1"/>
<path d="M61.0183 784.348V815.366L86.3969 828.995V798.917L61.0183 784.348Z" fill="#00AFD1"/>
<path d="M91.5667 800.797V831.815L116.475 845.444V815.366L91.5667 800.797Z" fill="#00AFD1"/>
<path d="M210 767.429V798.447L184.621 812.546V782.468L210 767.429Z" fill="#4AE1FF"/>
<path d="M178.512 784.818V815.836L153.603 829.465V799.387L178.512 784.818Z" fill="#4AE1FF"/>
<path d="M147.964 801.267V832.285L123.055 845.915V815.836L147.964 801.267Z" fill="#4AE1FF"/>
<path d="M120.235 708.212L95.3264 722.781L119.765 736.41L120.235 708.212Z" fill="#828282"/>
<path d="M120.235 708.212L119.765 736.41L144.674 722.781L120.235 708.212Z" fill="#C6C6C6"/>
<path d="M33.7598 1008.47L58.6684 994.374L83.107 1008.47L57.7284 1022.57L33.7598 1008.47Z" fill="#828282"/>
<path d="M63.8381 1025.86L88.7468 1011.29L113.655 1025.86L88.2768 1039.49L63.8381 1025.86Z" fill="#828282"/>
<path d="M127.285 1025.39L152.193 1010.82L176.632 1025.39L151.253 1039.49L127.285 1025.39Z" fill="#C6C6C6"/>
<path d="M158.303 1008L183.212 993.434L207.65 1008L182.272 1021.63L158.303 1008Z" fill="#C6C6C6"/>
<path d="M30 1013.17V1044.19L54.9086 1058.29V1027.74L30 1013.17Z" fill="#00AFD1"/>
<path d="M61.0183 1030.56V1061.58L86.3969 1075.21V1045.13L61.0183 1030.56Z" fill="#00AFD1"/>
<path d="M91.5667 1047.01V1078.03L116.475 1091.66V1061.58L91.5667 1047.01Z" fill="#00AFD1"/>
<path d="M210 1013.64V1044.66L184.621 1058.76V1028.21L210 1013.64Z" fill="#4AE1FF"/>
<path d="M178.512 1031.03V1062.05L153.603 1075.68V1045.6L178.512 1031.03Z" fill="#4AE1FF"/>
<path d="M147.964 1047.48V1078.5L123.055 1092.13V1062.05L147.964 1047.48Z" fill="#4AE1FF"/>
<path d="M30 1050.3V1081.32L54.9086 1094.95V1064.87L30 1050.3Z" fill="#00AFD1"/>
<path d="M61.0183 1067.22V1098.24L86.3969 1112.34V1082.26L61.0183 1067.22Z" fill="#00AFD1"/>
<path d="M91.5667 1083.67V1114.69L116.475 1128.32V1098.24L91.5667 1083.67Z" fill="#00AFD1"/>
<path d="M210 1050.77V1081.79L184.621 1095.42V1065.34L210 1050.77Z" fill="#4AE1FF"/>
<path d="M178.512 1068.16V1099.18L153.603 1112.81V1082.73L178.512 1068.16Z" fill="#4AE1FF"/>
<path d="M147.964 1084.14V1115.16L123.055 1128.79V1098.71L147.964 1084.14Z" fill="#4AE1FF"/>
<path d="M30 1086.96V1117.98L54.9086 1132.08V1101.53L30 1086.96Z" fill="#00AFD1"/>
<path d="M61.0183 1104.35V1135.37L86.3969 1149V1118.92L61.0183 1104.35Z" fill="#00AFD1"/>
<path d="M91.5667 1120.8V1151.82L116.475 1165.44V1135.37L91.5667 1120.8Z" fill="#00AFD1"/>
<path d="M210 1087.43V1118.45L184.621 1132.55V1102.47L210 1087.43Z" fill="#4AE1FF"/>
<path d="M178.512 1104.82V1135.84L153.603 1149.47V1119.39L178.512 1104.82Z" fill="#4AE1FF"/>
<path d="M147.964 1121.27V1152.29L123.055 1165.91V1135.84L147.964 1121.27Z" fill="#4AE1FF"/>
<path d="M120.235 1028.21L95.3264 1042.78L119.765 1056.41L120.235 1028.21Z" fill="#828282"/>
<path d="M120.235 1028.21L119.765 1056.41L144.674 1042.78L120.235 1028.21Z" fill="#C6C6C6"/>
<path d="M33.7598 1328.47L58.6684 1314.37L83.107 1328.47L57.7284 1342.57L33.7598 1328.47Z" fill="#828282"/>
<path d="M63.8381 1345.86L88.7468 1331.29L113.655 1345.86L88.2768 1359.49L63.8381 1345.86Z" fill="#828282"/>
<path d="M127.285 1345.39L152.193 1330.82L176.632 1345.39L151.253 1359.49L127.285 1345.39Z" fill="#C6C6C6"/>
<path d="M158.303 1328L183.212 1313.43L207.65 1328L182.272 1341.63L158.303 1328Z" fill="#C6C6C6"/>
<path d="M30 1333.17V1364.19L54.9086 1378.29V1347.74L30 1333.17Z" fill="#00AFD1"/>
<path d="M61.0183 1350.56V1381.58L86.3969 1395.21V1365.13L61.0183 1350.56Z" fill="#00AFD1"/>
<path d="M91.5667 1367.01V1398.03L116.475 1411.66V1381.58L91.5667 1367.01Z" fill="#00AFD1"/>
<path d="M210 1333.64V1364.66L184.621 1378.76V1348.21L210 1333.64Z" fill="#4AE1FF"/>
<path d="M178.512 1351.03V1382.05L153.603 1395.68V1365.6L178.512 1351.03Z" fill="#4AE1FF"/>
<path d="M147.964 1367.48V1398.5L123.055 1412.13V1382.05L147.964 1367.48Z" fill="#4AE1FF"/>
<path d="M30 1370.3V1401.32L54.9086 1414.95V1384.87L30 1370.3Z" fill="#00AFD1"/>
<path d="M61.0183 1387.22V1418.24L86.3969 1432.34V1402.26L61.0183 1387.22Z" fill="#00AFD1"/>
<path d="M91.5667 1403.67V1434.69L116.475 1448.32V1418.24L91.5667 1403.67Z" fill="#00AFD1"/>
<path d="M210 1370.77V1401.79L184.621 1415.42V1385.34L210 1370.77Z" fill="#4AE1FF"/>
<path d="M178.512 1388.16V1419.18L153.603 1432.81V1402.73L178.512 1388.16Z" fill="#4AE1FF"/>
<path d="M147.964 1404.14V1435.16L123.055 1448.79V1418.71L147.964 1404.14Z" fill="#4AE1FF"/>
<path d="M30 1406.96V1437.98L54.9086 1452.08V1421.53L30 1406.96Z" fill="#00AFD1"/>
<path d="M61.0183 1424.35V1455.37L86.3969 1469V1438.92L61.0183 1424.35Z" fill="#00AFD1"/>
<path d="M91.5667 1440.8V1471.82L116.475 1485.44V1455.37L91.5667 1440.8Z" fill="#00AFD1"/>
<path d="M210 1407.43V1438.45L184.621 1452.55V1422.47L210 1407.43Z" fill="#4AE1FF"/>
<path d="M178.512 1424.82V1455.84L153.603 1469.47V1439.39L178.512 1424.82Z" fill="#4AE1FF"/>
<path d="M147.964 1441.27V1472.29L123.055 1485.91V1455.84L147.964 1441.27Z" fill="#4AE1FF"/>
<path d="M120.235 1348.21L95.3264 1362.78L119.765 1376.41L120.235 1348.21Z" fill="#828282"/>
<path d="M120.235 1348.21L119.765 1376.41L144.674 1362.78L120.235 1348.21Z" fill="#C6C6C6"/>
<path d="M33.7598 1648.47L58.6684 1634.37L83.107 1648.47L57.7284 1662.57L33.7598 1648.47Z" fill="#828282"/>
<path d="M63.8381 1665.86L88.7468 1651.29L113.655 1665.86L88.2768 1679.49L63.8381 1665.86Z" fill="#828282"/>
<path d="M127.285 1665.39L152.193 1650.82L176.632 1665.39L151.253 1679.49L127.285 1665.39Z" fill="#C6C6C6"/>
<path d="M158.303 1648L183.212 1633.43L207.65 1648L182.272 1661.63L158.303 1648Z" fill="#C6C6C6"/>
<path d="M30 1653.17V1684.19L54.9086 1698.29V1667.74L30 1653.17Z" fill="#00AFD1"/>
<path d="M61.0183 1670.56V1701.58L86.3969 1715.21V1685.13L61.0183 1670.56Z" fill="#00AFD1"/>
<path d="M91.5667 1687.01V1718.03L116.475 1731.66V1701.58L91.5667 1687.01Z" fill="#00AFD1"/>
<path d="M210 1653.64V1684.66L184.621 1698.76V1668.21L210 1653.64Z" fill="#4AE1FF"/>
<path d="M178.512 1671.03V1702.05L153.603 1715.68V1685.6L178.512 1671.03Z" fill="#4AE1FF"/>
<path d="M147.964 1687.48V1718.5L123.055 1732.13V1702.05L147.964 1687.48Z" fill="#4AE1FF"/>
<path d="M30 1690.3V1721.32L54.9086 1734.95V1704.87L30 1690.3Z" fill="#00AFD1"/>
<path d="M61.0183 1707.22V1738.24L86.3969 1752.34V1722.26L61.0183 1707.22Z" fill="#00AFD1"/>
<path d="M91.5667 1723.67V1754.69L116.475 1768.32V1738.24L91.5667 1723.67Z" fill="#00AFD1"/>
<path d="M210 1690.77V1721.79L184.621 1735.42V1705.34L210 1690.77Z" fill="#4AE1FF"/>
<path d="M178.512 1708.16V1739.18L153.603 1752.81V1722.73L178.512 1708.16Z" fill="#4AE1FF"/>
<path d="M147.964 1724.14V1755.16L123.055 1768.79V1738.71L147.964 1724.14Z" fill="#4AE1FF"/>
<path d="M30 1726.96V1757.98L54.9086 1772.08V1741.53L30 1726.96Z" fill="#00AFD1"/>
<path d="M61.0183 1744.35V1775.37L86.3969 1789V1758.92L61.0183 1744.35Z" fill="#00AFD1"/>
<path d="M91.5667 1760.8V1791.82L116.475 1805.44V1775.37L91.5667 1760.8Z" fill="#00AFD1"/>
<path d="M210 1727.43V1758.45L184.621 1772.55V1742.47L210 1727.43Z" fill="#4AE1FF"/>
<path d="M178.512 1744.82V1775.84L153.603 1789.47V1759.39L178.512 1744.82Z" fill="#4AE1FF"/>
<path d="M147.964 1761.27V1792.29L123.055 1805.91V1775.84L147.964 1761.27Z" fill="#4AE1FF"/>
<path d="M120.235 1668.21L95.3264 1682.78L119.765 1696.41L120.235 1668.21Z" fill="#828282"/>
<path d="M120.235 1668.21L119.765 1696.41L144.674 1682.78L120.235 1668.21Z" fill="#C6C6C6"/>
<path d="M33.7598 1968.47L58.6684 1954.37L83.107 1968.47L57.7284 1982.57L33.7598 1968.47Z" fill="#828282"/>
<path d="M63.8381 1985.86L88.7468 1971.29L113.655 1985.86L88.2768 1999.49L63.8381 1985.86Z" fill="#828282"/>
<path d="M127.285 1985.39L152.193 1970.82L176.632 1985.39L151.253 1999.49L127.285 1985.39Z" fill="#C6C6C6"/>
<path d="M158.303 1968L183.212 1953.43L207.65 1968L182.272 1981.63L158.303 1968Z" fill="#C6C6C6"/>
<path d="M30 1973.17V2004.19L54.9086 2018.29V1987.74L30 1973.17Z" fill="#00AFD1"/>
<path d="M61.0183 1990.56V2021.58L86.3969 2035.21V2005.13L61.0183 1990.56Z" fill="#00AFD1"/>
<path d="M91.5667 2007.01V2038.03L116.475 2051.66V2021.58L91.5667 2007.01Z" fill="#00AFD1"/>
<path d="M210 1973.64V2004.66L184.621 2018.76V1988.21L210 1973.64Z" fill="#4AE1FF"/>
<path d="M178.512 1991.03V2022.05L153.603 2035.68V2005.6L178.512 1991.03Z" fill="#4AE1FF"/>
<path d="M147.964 2007.48V2038.5L123.055 2052.13V2022.05L147.964 2007.48Z" fill="#4AE1FF"/>
<path d="M30 2010.3V2041.32L54.9086 2054.95V2024.87L30 2010.3Z" fill="#00AFD1"/>
<path d="M61.0183 2027.22V2058.24L86.3969 2072.34V2042.26L61.0183 2027.22Z" fill="#00AFD1"/>
<path d="M91.5667 2043.67V2074.69L116.475 2088.32V2058.24L91.5667 2043.67Z" fill="#00AFD1"/>
<path d="M210 2010.77V2041.79L184.621 2055.42V2025.34L210 2010.77Z" fill="#4AE1FF"/>
<path d="M178.512 2028.16V2059.18L153.603 2072.81V2042.73L178.512 2028.16Z" fill="#4AE1FF"/>
<path d="M147.964 2044.14V2075.16L123.055 2088.79V2058.71L147.964 2044.14Z" fill="#4AE1FF"/>
<path d="M30 2046.96V2077.98L54.9086 2092.08V2061.53L30 2046.96Z" fill="#00AFD1"/>
<path d="M61.0183 2064.35V2095.37L86.3969 2109V2078.92L61.0183 2064.35Z" fill="#00AFD1"/>
<path d="M91.5667 2080.8V2111.82L116.475 2125.44V2095.37L91.5667 2080.8Z" fill="#00AFD1"/>
<path d="M210 2047.43V2078.45L184.621 2092.55V2062.47L210 2047.43Z" fill="#4AE1FF"/>
<path d="M178.512 2064.82V2095.84L153.603 2109.47V2079.39L178.512 2064.82Z" fill="#4AE1FF"/>
<path d="M147.964 2081.27V2112.29L123.055 2125.91V2095.84L147.964 2081.27Z" fill="#4AE1FF"/>
<path d="M120.235 1988.21L95.3264 2002.78L119.765 2016.41L120.235 1988.21Z" fill="#828282"/>
<path d="M120.235 1988.21L119.765 2016.41L144.674 2002.78L120.235 1988.21Z" fill="#C6C6C6"/>
<path d="M304 120C376.917 120 406.083 120 479 120" stroke="white" stroke-width="8"/>
<path d="M304 440C376.917 440 406.083 440 479 440" stroke="white" stroke-width="8"/>
<path d="M304 760C376.917 760 406.083 760 479 760" stroke="white" stroke-width="8"/>
<path d="M304 1080C376.917 1080 406.083 1080 479 1080" stroke="white" stroke-width="8"/>
<path d="M304 1400C376.917 1400 406.083 1400 479 1400" stroke="white" stroke-width="8"/>
<path d="M304 1720C376.917 1720 406.083 1720 479 1720" stroke="white" stroke-width="8"/>
<path d="M304 2040C376.917 2040 406.083 2040 479 2040" stroke="white" stroke-width="8"/>
<g clip-path="url(#clip0_1913_19736)">
<path d="M716.863 67.4432C714.875 54.6591 685.045 44.7158 648.682 44.7158V195.284C685.045 195.284 714.591 185.341 716.863 172.557V138.466V137.045V135.625V104.375V102.954V101.534V68.8635V67.4432Z" fill="#E2E3E5"/>
<path d="M571.977 67.4432C573.966 54.6591 603.796 44.7158 640.159 44.7158V195.284C603.796 195.284 574.25 185.341 571.977 172.557V138.466V137.045V135.625V104.375V102.954V101.534V68.8635V67.4432V67.4432Z" fill="white"/>
<path d="M708.341 67.4432C706.352 54.6591 676.523 44.7158 640.159 44.7158V195.284C676.523 195.284 706.068 185.341 708.341 172.557V138.466V137.045V135.625V104.375V102.954V101.534V68.8635V67.4432V67.4432Z" fill="#CCCCCC"/>
<path d="M699.818 67.4432C697.83 54.6591 685.046 44.7158 648.682 44.7158C612.318 44.7158 582.773 54.6591 580.5 67.4432V68.8638V101.534V102.955V104.376V135.626V137.046V138.467V172.558C582.489 185.342 612.318 195.285 648.682 195.285C685.045 195.285 697.545 185.342 699.818 172.558V138.466V137.045V135.625V104.375V102.954V101.534V68.8635V67.4432Z" fill="#E2E3E5"/>
<path d="M640.159 132.784V166.875C676.523 166.875 706.068 156.932 708.341 144.148V107.216C708.341 120.568 677.943 132.784 640.159 132.784Z" fill="#CCCCCC"/>
<path d="M640.159 132.784V166.875C603.796 166.875 574.25 156.932 571.977 144.148V107.216C571.977 120.568 602.375 132.784 640.159 132.784Z" fill="white"/>
<path d="M631.636 132.784L580.5 121.421V152.671C587.602 158.921 595.273 166.875 631.636 166.875C668 166.875 697.546 162.614 699.818 149.829V120.284C699.818 118.863 698.114 118.295 697.261 119.147C689.023 128.239 662.602 132.784 631.636 132.784Z" fill="#E2E3E5"/>
<path d="M640.159 198.125C602.943 198.125 572.83 187.614 569.421 173.693C569.136 173.409 569.136 173.125 569.136 172.557V67.4432C569.136 66.875 569.136 66.5909 569.421 66.0226C572.829 52.1024 602.943 41.875 640.159 41.875C677.375 41.875 707.489 52.1024 710.898 66.0226C711.182 66.5909 711.182 66.875 711.182 67.4432V172.557C711.182 173.125 711.182 173.409 710.898 173.977C707.489 187.898 677.375 198.125 640.159 198.125ZM574.818 171.704V171.989C576.523 181.932 603.227 192.443 640.159 192.443C677.091 192.443 703.796 181.931 705.5 171.989V171.704V68.2956V68.0115C703.796 58.0682 677.091 47.5571 640.159 47.5571C603.227 47.5571 576.523 58.0682 574.818 68.0115V68.2956V171.704Z" fill="#B6B6B6"/>
<path d="M640.159 169.716C602.943 169.716 572.83 159.204 569.421 145.568C569.136 145 569.136 144.716 569.136 144.148V107.216C569.136 105.511 570.273 104.375 571.977 104.375C573.682 104.375 574.818 105.511 574.818 107.216C574.818 118.011 602.659 129.943 640.159 129.943C677.659 129.943 705.5 118.011 705.5 107.216C705.5 105.511 706.636 104.375 708.341 104.375C710.045 104.375 711.182 105.511 711.182 107.216V144.148C711.182 144.716 711.182 145 710.898 145.568C707.489 159.489 677.375 169.716 640.159 169.716ZM574.818 143.296V143.58C576.523 153.523 603.227 164.034 640.159 164.034C677.091 164.034 703.796 153.523 705.5 143.58V143.296V118.296C694.704 128.523 669.421 135.625 640.159 135.625C610.898 135.625 585.614 128.523 574.818 118.296V143.296Z" fill="#B6B6B6"/>
<path d="M640.159 135.625C602.943 135.625 572.83 125.114 569.421 111.477C569.136 110.909 569.136 110.625 569.136 110.057V73.1251C569.136 71.4207 570.273 70.2842 571.977 70.2842C573.682 70.2842 574.818 71.4207 574.818 73.1251C574.818 83.9207 602.659 95.8524 640.159 95.8524C677.659 95.8524 705.5 83.9207 705.5 73.1251C705.5 71.4207 706.636 70.2842 708.341 70.2842C710.045 70.2842 711.182 71.4207 711.182 73.1251V110.057C711.182 110.625 711.182 110.909 710.898 111.477C707.489 125.398 677.375 135.625 640.159 135.625ZM574.818 109.204V109.489C576.523 119.432 603.227 129.943 640.159 129.943C677.091 129.943 703.796 119.432 705.5 109.489V109.204V84.2045C694.704 94.4318 669.421 101.534 640.159 101.534C610.898 101.534 585.614 94.4318 574.818 84.2045V109.204Z" fill="#B6B6B6"/>
</g>
<g clip-path="url(#clip1_1913_19736)">
<path d="M716.863 387.443C714.875 374.659 685.045 364.716 648.682 364.716V515.284C685.045 515.284 714.591 505.341 716.863 492.557V458.466V457.045V455.625V424.375V422.954V421.534V388.863V387.443Z" fill="#E2E3E5"/>
<path d="M571.977 387.443C573.966 374.659 603.796 364.716 640.159 364.716V515.284C603.796 515.284 574.25 505.341 571.977 492.557V458.466V457.045V455.625V424.375V422.954V421.534V388.863V387.443V387.443Z" fill="white"/>
<path d="M708.341 387.443C706.352 374.659 676.523 364.716 640.159 364.716V515.284C676.523 515.284 706.068 505.341 708.341 492.557V458.466V457.045V455.625V424.375V422.954V421.534V388.863V387.443V387.443Z" fill="#CCCCCC"/>
<path d="M699.818 387.443C697.83 374.659 685.046 364.716 648.682 364.716C612.318 364.716 582.773 374.659 580.5 387.443V388.864V421.534V422.955V424.376V455.626V457.046V458.467V492.558C582.489 505.342 612.318 515.285 648.682 515.285C685.045 515.285 697.545 505.342 699.818 492.558V458.466V457.045V455.625V424.375V422.954V421.534V388.863V387.443Z" fill="#E2E3E5"/>
<path d="M640.159 452.784V486.875C676.523 486.875 706.068 476.932 708.341 464.148V427.216C708.341 440.568 677.943 452.784 640.159 452.784Z" fill="#CCCCCC"/>
<path d="M640.159 452.784V486.875C603.796 486.875 574.25 476.932 571.977 464.148V427.216C571.977 440.568 602.375 452.784 640.159 452.784Z" fill="white"/>
<path d="M631.636 452.784L580.5 441.421V472.671C587.602 478.921 595.273 486.875 631.636 486.875C668 486.875 697.546 482.614 699.818 469.829V440.284C699.818 438.863 698.114 438.295 697.261 439.147C689.023 448.239 662.602 452.784 631.636 452.784Z" fill="#E2E3E5"/>
<path d="M640.159 518.125C602.943 518.125 572.83 507.614 569.421 493.693C569.136 493.409 569.136 493.125 569.136 492.557V387.443C569.136 386.875 569.136 386.591 569.421 386.023C572.829 372.102 602.943 361.875 640.159 361.875C677.375 361.875 707.489 372.102 710.898 386.023C711.182 386.591 711.182 386.875 711.182 387.443V492.557C711.182 493.125 711.182 493.409 710.898 493.977C707.489 507.898 677.375 518.125 640.159 518.125ZM574.818 491.704V491.989C576.523 501.932 603.227 512.443 640.159 512.443C677.091 512.443 703.796 501.931 705.5 491.989V491.704V388.296V388.011C703.796 378.068 677.091 367.557 640.159 367.557C603.227 367.557 576.523 378.068 574.818 388.011V388.296V491.704Z" fill="#B6B6B6"/>
<path d="M640.159 489.716C602.943 489.716 572.83 479.204 569.421 465.568C569.136 465 569.136 464.716 569.136 464.148V427.216C569.136 425.511 570.273 424.375 571.977 424.375C573.682 424.375 574.818 425.511 574.818 427.216C574.818 438.011 602.659 449.943 640.159 449.943C677.659 449.943 705.5 438.011 705.5 427.216C705.5 425.511 706.636 424.375 708.341 424.375C710.045 424.375 711.182 425.511 711.182 427.216V464.148C711.182 464.716 711.182 465 710.898 465.568C707.489 479.489 677.375 489.716 640.159 489.716ZM574.818 463.296V463.58C576.523 473.523 603.227 484.034 640.159 484.034C677.091 484.034 703.796 473.523 705.5 463.58V463.296V438.296C694.704 448.523 669.421 455.625 640.159 455.625C610.898 455.625 585.614 448.523 574.818 438.296V463.296Z" fill="#B6B6B6"/>
<path d="M640.159 455.625C602.943 455.625 572.83 445.114 569.421 431.477C569.136 430.909 569.136 430.625 569.136 430.057V393.125C569.136 391.421 570.273 390.284 571.977 390.284C573.682 390.284 574.818 391.421 574.818 393.125C574.818 403.921 602.659 415.852 640.159 415.852C677.659 415.852 705.5 403.921 705.5 393.125C705.5 391.421 706.636 390.284 708.341 390.284C710.045 390.284 711.182 391.421 711.182 393.125V430.057C711.182 430.625 711.182 430.909 710.898 431.477C707.489 445.398 677.375 455.625 640.159 455.625ZM574.818 429.204V429.489C576.523 439.432 603.227 449.943 640.159 449.943C677.091 449.943 703.796 439.432 705.5 429.489V429.204V404.204C694.704 414.432 669.421 421.534 640.159 421.534C610.898 421.534 585.614 414.432 574.818 404.204V429.204Z" fill="#B6B6B6"/>
</g>
<g clip-path="url(#clip2_1913_19736)">
<path d="M716.863 707.443C714.875 694.659 685.045 684.716 648.682 684.716V835.284C685.045 835.284 714.591 825.341 716.863 812.557V778.466V777.045V775.625V744.375V742.954V741.534V708.863V707.443Z" fill="#E2E3E5"/>
<path d="M571.977 707.443C573.966 694.659 603.796 684.716 640.159 684.716V835.284C603.796 835.284 574.25 825.341 571.977 812.557V778.466V777.045V775.625V744.375V742.954V741.534V708.863V707.443V707.443Z" fill="white"/>
<path d="M708.341 707.443C706.352 694.659 676.523 684.716 640.159 684.716V835.284C676.523 835.284 706.068 825.341 708.341 812.557V778.466V777.045V775.625V744.375V742.954V741.534V708.863V707.443V707.443Z" fill="#CCCCCC"/>
<path d="M699.818 707.443C697.83 694.659 685.046 684.716 648.682 684.716C612.318 684.716 582.773 694.659 580.5 707.443V708.864V741.534V742.955V744.376V775.626V777.046V778.467V812.558C582.489 825.342 612.318 835.285 648.682 835.285C685.045 835.285 697.545 825.342 699.818 812.558V778.466V777.045V775.625V744.375V742.954V741.534V708.863V707.443Z" fill="#E2E3E5"/>
<path d="M640.159 772.784V806.875C676.523 806.875 706.068 796.932 708.341 784.148V747.216C708.341 760.568 677.943 772.784 640.159 772.784Z" fill="#CCCCCC"/>
<path d="M640.159 772.784V806.875C603.796 806.875 574.25 796.932 571.977 784.148V747.216C571.977 760.568 602.375 772.784 640.159 772.784Z" fill="white"/>
<path d="M631.636 772.784L580.5 761.421V792.671C587.602 798.921 595.273 806.875 631.636 806.875C668 806.875 697.546 802.614 699.818 789.829V760.284C699.818 758.863 698.114 758.295 697.261 759.147C689.023 768.239 662.602 772.784 631.636 772.784Z" fill="#E2E3E5"/>
<path d="M640.159 838.125C602.943 838.125 572.83 827.614 569.421 813.693C569.136 813.409 569.136 813.125 569.136 812.557V707.443C569.136 706.875 569.136 706.591 569.421 706.023C572.829 692.102 602.943 681.875 640.159 681.875C677.375 681.875 707.489 692.102 710.898 706.023C711.182 706.591 711.182 706.875 711.182 707.443V812.557C711.182 813.125 711.182 813.409 710.898 813.977C707.489 827.898 677.375 838.125 640.159 838.125ZM574.818 811.704V811.989C576.523 821.932 603.227 832.443 640.159 832.443C677.091 832.443 703.796 821.931 705.5 811.989V811.704V708.296V708.011C703.796 698.068 677.091 687.557 640.159 687.557C603.227 687.557 576.523 698.068 574.818 708.011V708.296V811.704Z" fill="#B6B6B6"/>
<path d="M640.159 809.716C602.943 809.716 572.83 799.204 569.421 785.568C569.136 785 569.136 784.716 569.136 784.148V747.216C569.136 745.511 570.273 744.375 571.977 744.375C573.682 744.375 574.818 745.511 574.818 747.216C574.818 758.011 602.659 769.943 640.159 769.943C677.659 769.943 705.5 758.011 705.5 747.216C705.5 745.511 706.636 744.375 708.341 744.375C710.045 744.375 711.182 745.511 711.182 747.216V784.148C711.182 784.716 711.182 785 710.898 785.568C707.489 799.489 677.375 809.716 640.159 809.716ZM574.818 783.296V783.58C576.523 793.523 603.227 804.034 640.159 804.034C677.091 804.034 703.796 793.523 705.5 783.58V783.296V758.296C694.704 768.523 669.421 775.625 640.159 775.625C610.898 775.625 585.614 768.523 574.818 758.296V783.296Z" fill="#B6B6B6"/>
<path d="M640.159 775.625C602.943 775.625 572.83 765.114 569.421 751.477C569.136 750.909 569.136 750.625 569.136 750.057V713.125C569.136 711.421 570.273 710.284 571.977 710.284C573.682 710.284 574.818 711.421 574.818 713.125C574.818 723.921 602.659 735.852 640.159 735.852C677.659 735.852 705.5 723.921 705.5 713.125C705.5 711.421 706.636 710.284 708.341 710.284C710.045 710.284 711.182 711.421 711.182 713.125V750.057C711.182 750.625 711.182 750.909 710.898 751.477C707.489 765.398 677.375 775.625 640.159 775.625ZM574.818 749.204V749.489C576.523 759.432 603.227 769.943 640.159 769.943C677.091 769.943 703.796 759.432 705.5 749.489V749.204V724.204C694.704 734.432 669.421 741.534 640.159 741.534C610.898 741.534 585.614 734.432 574.818 724.204V749.204Z" fill="#B6B6B6"/>
</g>
<g clip-path="url(#clip3_1913_19736)">
<path d="M716.863 1027.44C714.875 1014.66 685.045 1004.72 648.682 1004.72V1155.28C685.045 1155.28 714.591 1145.34 716.863 1132.56V1098.47V1097.05V1095.62V1064.37V1062.95V1061.53V1028.86V1027.44Z" fill="#E2E3E5"/>
<path d="M571.977 1027.44C573.966 1014.66 603.796 1004.72 640.159 1004.72V1155.28C603.796 1155.28 574.25 1145.34 571.977 1132.56V1098.47V1097.05V1095.62V1064.37V1062.95V1061.53V1028.86V1027.44V1027.44Z" fill="white"/>
<path d="M708.341 1027.44C706.352 1014.66 676.523 1004.72 640.159 1004.72V1155.28C676.523 1155.28 706.068 1145.34 708.341 1132.56V1098.47V1097.05V1095.62V1064.37V1062.95V1061.53V1028.86V1027.44V1027.44Z" fill="#CCCCCC"/>
<path d="M699.818 1027.44C697.83 1014.66 685.046 1004.72 648.682 1004.72C612.318 1004.72 582.773 1014.66 580.5 1027.44V1028.86V1061.53V1062.95V1064.38V1095.63V1097.05V1098.47V1132.56C582.489 1145.34 612.318 1155.28 648.682 1155.28C685.045 1155.28 697.545 1145.34 699.818 1132.56V1098.47V1097.05V1095.62V1064.37V1062.95V1061.53V1028.86V1027.44Z" fill="#E2E3E5"/>
<path d="M640.159 1092.78V1126.87C676.523 1126.87 706.068 1116.93 708.341 1104.15V1067.22C708.341 1080.57 677.943 1092.78 640.159 1092.78Z" fill="#CCCCCC"/>
<path d="M640.159 1092.78V1126.87C603.796 1126.87 574.25 1116.93 571.977 1104.15V1067.22C571.977 1080.57 602.375 1092.78 640.159 1092.78Z" fill="white"/>
<path d="M631.636 1092.78L580.5 1081.42V1112.67C587.602 1118.92 595.273 1126.88 631.636 1126.88C668 1126.88 697.546 1122.61 699.818 1109.83V1080.28C699.818 1078.86 698.114 1078.3 697.261 1079.15C689.023 1088.24 662.602 1092.78 631.636 1092.78Z" fill="#E2E3E5"/>
<path d="M640.159 1158.12C602.943 1158.12 572.83 1147.61 569.421 1133.69C569.136 1133.41 569.136 1133.12 569.136 1132.56V1027.44C569.136 1026.87 569.136 1026.59 569.421 1026.02C572.829 1012.1 602.943 1001.88 640.159 1001.88C677.375 1001.88 707.489 1012.1 710.898 1026.02C711.182 1026.59 711.182 1026.87 711.182 1027.44V1132.56C711.182 1133.12 711.182 1133.41 710.898 1133.98C707.489 1147.9 677.375 1158.12 640.159 1158.12ZM574.818 1131.7V1131.99C576.523 1141.93 603.227 1152.44 640.159 1152.44C677.091 1152.44 703.796 1141.93 705.5 1131.99V1131.7V1028.3V1028.01C703.796 1018.07 677.091 1007.56 640.159 1007.56C603.227 1007.56 576.523 1018.07 574.818 1028.01V1028.3V1131.7Z" fill="#B6B6B6"/>
<path d="M640.159 1129.72C602.943 1129.72 572.83 1119.2 569.421 1105.57C569.136 1105 569.136 1104.72 569.136 1104.15V1067.22C569.136 1065.51 570.273 1064.38 571.977 1064.38C573.682 1064.38 574.818 1065.51 574.818 1067.22C574.818 1078.01 602.659 1089.94 640.159 1089.94C677.659 1089.94 705.5 1078.01 705.5 1067.22C705.5 1065.51 706.636 1064.38 708.341 1064.38C710.045 1064.38 711.182 1065.51 711.182 1067.22V1104.15C711.182 1104.72 711.182 1105 710.898 1105.57C707.489 1119.49 677.375 1129.72 640.159 1129.72ZM574.818 1103.3V1103.58C576.523 1113.52 603.227 1124.03 640.159 1124.03C677.091 1124.03 703.796 1113.52 705.5 1103.58V1103.3V1078.3C694.704 1088.52 669.421 1095.62 640.159 1095.62C610.898 1095.62 585.614 1088.52 574.818 1078.3V1103.3Z" fill="#B6B6B6"/>
<path d="M640.159 1095.63C602.943 1095.63 572.83 1085.11 569.421 1071.48C569.136 1070.91 569.136 1070.63 569.136 1070.06V1033.13C569.136 1031.42 570.273 1030.28 571.977 1030.28C573.682 1030.28 574.818 1031.42 574.818 1033.13C574.818 1043.92 602.659 1055.85 640.159 1055.85C677.659 1055.85 705.5 1043.92 705.5 1033.13C705.5 1031.42 706.636 1030.28 708.341 1030.28C710.045 1030.28 711.182 1031.42 711.182 1033.13V1070.06C711.182 1070.63 711.182 1070.91 710.898 1071.48C707.489 1085.4 677.375 1095.63 640.159 1095.63ZM574.818 1069.2V1069.49C576.523 1079.43 603.227 1089.94 640.159 1089.94C677.091 1089.94 703.796 1079.43 705.5 1069.49V1069.2V1044.2C694.704 1054.43 669.421 1061.53 640.159 1061.53C610.898 1061.53 585.614 1054.43 574.818 1044.2V1069.2Z" fill="#B6B6B6"/>
</g>
<g clip-path="url(#clip4_1913_19736)">
<path d="M716.863 1347.44C714.875 1334.66 685.045 1324.72 648.682 1324.72V1475.28C685.045 1475.28 714.591 1465.34 716.863 1452.56V1418.47V1417.05V1415.62V1384.37V1382.95V1381.53V1348.86V1347.44Z" fill="#E2E3E5"/>
<path d="M571.977 1347.44C573.966 1334.66 603.796 1324.72 640.159 1324.72V1475.28C603.796 1475.28 574.25 1465.34 571.977 1452.56V1418.47V1417.05V1415.62V1384.37V1382.95V1381.53V1348.86V1347.44V1347.44Z" fill="white"/>
<path d="M708.341 1347.44C706.352 1334.66 676.523 1324.72 640.159 1324.72V1475.28C676.523 1475.28 706.068 1465.34 708.341 1452.56V1418.47V1417.05V1415.62V1384.37V1382.95V1381.53V1348.86V1347.44V1347.44Z" fill="#CCCCCC"/>
<path d="M699.818 1347.44C697.83 1334.66 685.046 1324.72 648.682 1324.72C612.318 1324.72 582.773 1334.66 580.5 1347.44V1348.86V1381.53V1382.95V1384.38V1415.63V1417.05V1418.47V1452.56C582.489 1465.34 612.318 1475.28 648.682 1475.28C685.045 1475.28 697.545 1465.34 699.818 1452.56V1418.47V1417.05V1415.62V1384.37V1382.95V1381.53V1348.86V1347.44Z" fill="#E2E3E5"/>
<path d="M640.159 1412.78V1446.87C676.523 1446.87 706.068 1436.93 708.341 1424.15V1387.22C708.341 1400.57 677.943 1412.78 640.159 1412.78Z" fill="#CCCCCC"/>
<path d="M640.159 1412.78V1446.87C603.796 1446.87 574.25 1436.93 571.977 1424.15V1387.22C571.977 1400.57 602.375 1412.78 640.159 1412.78Z" fill="white"/>
<path d="M631.636 1412.78L580.5 1401.42V1432.67C587.602 1438.92 595.273 1446.88 631.636 1446.88C668 1446.88 697.546 1442.61 699.818 1429.83V1400.28C699.818 1398.86 698.114 1398.3 697.261 1399.15C689.023 1408.24 662.602 1412.78 631.636 1412.78Z" fill="#E2E3E5"/>
<path d="M640.159 1478.12C602.943 1478.12 572.83 1467.61 569.421 1453.69C569.136 1453.41 569.136 1453.12 569.136 1452.56V1347.44C569.136 1346.87 569.136 1346.59 569.421 1346.02C572.829 1332.1 602.943 1321.88 640.159 1321.88C677.375 1321.88 707.489 1332.1 710.898 1346.02C711.182 1346.59 711.182 1346.87 711.182 1347.44V1452.56C711.182 1453.12 711.182 1453.41 710.898 1453.98C707.489 1467.9 677.375 1478.12 640.159 1478.12ZM574.818 1451.7V1451.99C576.523 1461.93 603.227 1472.44 640.159 1472.44C677.091 1472.44 703.796 1461.93 705.5 1451.99V1451.7V1348.3V1348.01C703.796 1338.07 677.091 1327.56 640.159 1327.56C603.227 1327.56 576.523 1338.07 574.818 1348.01V1348.3V1451.7Z" fill="#B6B6B6"/>
<path d="M640.159 1449.72C602.943 1449.72 572.83 1439.2 569.421 1425.57C569.136 1425 569.136 1424.72 569.136 1424.15V1387.22C569.136 1385.51 570.273 1384.38 571.977 1384.38C573.682 1384.38 574.818 1385.51 574.818 1387.22C574.818 1398.01 602.659 1409.94 640.159 1409.94C677.659 1409.94 705.5 1398.01 705.5 1387.22C705.5 1385.51 706.636 1384.38 708.341 1384.38C710.045 1384.38 711.182 1385.51 711.182 1387.22V1424.15C711.182 1424.72 711.182 1425 710.898 1425.57C707.489 1439.49 677.375 1449.72 640.159 1449.72ZM574.818 1423.3V1423.58C576.523 1433.52 603.227 1444.03 640.159 1444.03C677.091 1444.03 703.796 1433.52 705.5 1423.58V1423.3V1398.3C694.704 1408.52 669.421 1415.62 640.159 1415.62C610.898 1415.62 585.614 1408.52 574.818 1398.3V1423.3Z" fill="#B6B6B6"/>
<path d="M640.159 1415.63C602.943 1415.63 572.83 1405.11 569.421 1391.48C569.136 1390.91 569.136 1390.63 569.136 1390.06V1353.13C569.136 1351.42 570.273 1350.28 571.977 1350.28C573.682 1350.28 574.818 1351.42 574.818 1353.13C574.818 1363.92 602.659 1375.85 640.159 1375.85C677.659 1375.85 705.5 1363.92 705.5 1353.13C705.5 1351.42 706.636 1350.28 708.341 1350.28C710.045 1350.28 711.182 1351.42 711.182 1353.13V1390.06C711.182 1390.63 711.182 1390.91 710.898 1391.48C707.489 1405.4 677.375 1415.63 640.159 1415.63ZM574.818 1389.2V1389.49C576.523 1399.43 603.227 1409.94 640.159 1409.94C677.091 1409.94 703.796 1399.43 705.5 1389.49V1389.2V1364.2C694.704 1374.43 669.421 1381.53 640.159 1381.53C610.898 1381.53 585.614 1374.43 574.818 1364.2V1389.2Z" fill="#B6B6B6"/>
</g>
<g clip-path="url(#clip5_1913_19736)">
<path d="M716.863 1667.44C714.875 1654.66 685.045 1644.72 648.682 1644.72V1795.28C685.045 1795.28 714.591 1785.34 716.863 1772.56V1738.47V1737.05V1735.62V1704.37V1702.95V1701.53V1668.86V1667.44Z" fill="#E2E3E5"/>
<path d="M571.977 1667.44C573.966 1654.66 603.796 1644.72 640.159 1644.72V1795.28C603.796 1795.28 574.25 1785.34 571.977 1772.56V1738.47V1737.05V1735.62V1704.37V1702.95V1701.53V1668.86V1667.44V1667.44Z" fill="white"/>
<path d="M708.341 1667.44C706.352 1654.66 676.523 1644.72 640.159 1644.72V1795.28C676.523 1795.28 706.068 1785.34 708.341 1772.56V1738.47V1737.05V1735.62V1704.37V1702.95V1701.53V1668.86V1667.44V1667.44Z" fill="#CCCCCC"/>
<path d="M699.818 1667.44C697.83 1654.66 685.046 1644.72 648.682 1644.72C612.318 1644.72 582.773 1654.66 580.5 1667.44V1668.86V1701.53V1702.95V1704.38V1735.63V1737.05V1738.47V1772.56C582.489 1785.34 612.318 1795.28 648.682 1795.28C685.045 1795.28 697.545 1785.34 699.818 1772.56V1738.47V1737.05V1735.62V1704.37V1702.95V1701.53V1668.86V1667.44Z" fill="#E2E3E5"/>
<path d="M640.159 1732.78V1766.87C676.523 1766.87 706.068 1756.93 708.341 1744.15V1707.22C708.341 1720.57 677.943 1732.78 640.159 1732.78Z" fill="#CCCCCC"/>
<path d="M640.159 1732.78V1766.87C603.796 1766.87 574.25 1756.93 571.977 1744.15V1707.22C571.977 1720.57 602.375 1732.78 640.159 1732.78Z" fill="white"/>
<path d="M631.636 1732.78L580.5 1721.42V1752.67C587.602 1758.92 595.273 1766.88 631.636 1766.88C668 1766.88 697.546 1762.61 699.818 1749.83V1720.28C699.818 1718.86 698.114 1718.3 697.261 1719.15C689.023 1728.24 662.602 1732.78 631.636 1732.78Z" fill="#E2E3E5"/>
<path d="M640.159 1798.12C602.943 1798.12 572.83 1787.61 569.421 1773.69C569.136 1773.41 569.136 1773.12 569.136 1772.56V1667.44C569.136 1666.87 569.136 1666.59 569.421 1666.02C572.829 1652.1 602.943 1641.88 640.159 1641.88C677.375 1641.88 707.489 1652.1 710.898 1666.02C711.182 1666.59 711.182 1666.87 711.182 1667.44V1772.56C711.182 1773.12 711.182 1773.41 710.898 1773.98C707.489 1787.9 677.375 1798.12 640.159 1798.12ZM574.818 1771.7V1771.99C576.523 1781.93 603.227 1792.44 640.159 1792.44C677.091 1792.44 703.796 1781.93 705.5 1771.99V1771.7V1668.3V1668.01C703.796 1658.07 677.091 1647.56 640.159 1647.56C603.227 1647.56 576.523 1658.07 574.818 1668.01V1668.3V1771.7Z" fill="#B6B6B6"/>
<path d="M640.159 1769.72C602.943 1769.72 572.83 1759.2 569.421 1745.57C569.136 1745 569.136 1744.72 569.136 1744.15V1707.22C569.136 1705.51 570.273 1704.38 571.977 1704.38C573.682 1704.38 574.818 1705.51 574.818 1707.22C574.818 1718.01 602.659 1729.94 640.159 1729.94C677.659 1729.94 705.5 1718.01 705.5 1707.22C705.5 1705.51 706.636 1704.38 708.341 1704.38C710.045 1704.38 711.182 1705.51 711.182 1707.22V1744.15C711.182 1744.72 711.182 1745 710.898 1745.57C707.489 1759.49 677.375 1769.72 640.159 1769.72ZM574.818 1743.3V1743.58C576.523 1753.52 603.227 1764.03 640.159 1764.03C677.091 1764.03 703.796 1753.52 705.5 1743.58V1743.3V1718.3C694.704 1728.52 669.421 1735.62 640.159 1735.62C610.898 1735.62 585.614 1728.52 574.818 1718.3V1743.3Z" fill="#B6B6B6"/>
<path d="M640.159 1735.63C602.943 1735.63 572.83 1725.11 569.421 1711.48C569.136 1710.91 569.136 1710.63 569.136 1710.06V1673.13C569.136 1671.42 570.273 1670.28 571.977 1670.28C573.682 1670.28 574.818 1671.42 574.818 1673.13C574.818 1683.92 602.659 1695.85 640.159 1695.85C677.659 1695.85 705.5 1683.92 705.5 1673.13C705.5 1671.42 706.636 1670.28 708.341 1670.28C710.045 1670.28 711.182 1671.42 711.182 1673.13V1710.06C711.182 1710.63 711.182 1710.91 710.898 1711.48C707.489 1725.4 677.375 1735.63 640.159 1735.63ZM574.818 1709.2V1709.49C576.523 1719.43 603.227 1729.94 640.159 1729.94C677.091 1729.94 703.796 1719.43 705.5 1709.49V1709.2V1684.2C694.704 1694.43 669.421 1701.53 640.159 1701.53C610.898 1701.53 585.614 1694.43 574.818 1684.2V1709.2Z" fill="#B6B6B6"/>
</g>
<g clip-path="url(#clip6_1913_19736)">
<path d="M716.863 1987.44C714.875 1974.66 685.045 1964.72 648.682 1964.72V2115.28C685.045 2115.28 714.591 2105.34 716.863 2092.56V2058.47V2057.05V2055.62V2024.37V2022.95V2021.53V1988.86V1987.44Z" fill="#E2E3E5"/>
<path d="M571.977 1987.44C573.966 1974.66 603.796 1964.72 640.159 1964.72V2115.28C603.796 2115.28 574.25 2105.34 571.977 2092.56V2058.47V2057.05V2055.62V2024.37V2022.95V2021.53V1988.86V1987.44V1987.44Z" fill="white"/>
<path d="M708.341 1987.44C706.352 1974.66 676.523 1964.72 640.159 1964.72V2115.28C676.523 2115.28 706.068 2105.34 708.341 2092.56V2058.47V2057.05V2055.62V2024.37V2022.95V2021.53V1988.86V1987.44V1987.44Z" fill="#CCCCCC"/>
<path d="M699.818 1987.44C697.83 1974.66 685.046 1964.72 648.682 1964.72C612.318 1964.72 582.773 1974.66 580.5 1987.44V1988.86V2021.53V2022.95V2024.38V2055.63V2057.05V2058.47V2092.56C582.489 2105.34 612.318 2115.28 648.682 2115.28C685.045 2115.28 697.545 2105.34 699.818 2092.56V2058.47V2057.05V2055.62V2024.37V2022.95V2021.53V1988.86V1987.44Z" fill="#E2E3E5"/>
<path d="M640.159 2052.78V2086.87C676.523 2086.87 706.068 2076.93 708.341 2064.15V2027.22C708.341 2040.57 677.943 2052.78 640.159 2052.78Z" fill="#CCCCCC"/>
<path d="M640.159 2052.78V2086.87C603.796 2086.87 574.25 2076.93 571.977 2064.15V2027.22C571.977 2040.57 602.375 2052.78 640.159 2052.78Z" fill="white"/>
<path d="M631.636 2052.78L580.5 2041.42V2072.67C587.602 2078.92 595.273 2086.88 631.636 2086.88C668 2086.88 697.546 2082.61 699.818 2069.83V2040.28C699.818 2038.86 698.114 2038.3 697.261 2039.15C689.023 2048.24 662.602 2052.78 631.636 2052.78Z" fill="#E2E3E5"/>
<path d="M640.159 2118.12C602.943 2118.12 572.83 2107.61 569.421 2093.69C569.136 2093.41 569.136 2093.12 569.136 2092.56V1987.44C569.136 1986.87 569.136 1986.59 569.421 1986.02C572.829 1972.1 602.943 1961.88 640.159 1961.88C677.375 1961.88 707.489 1972.1 710.898 1986.02C711.182 1986.59 711.182 1986.87 711.182 1987.44V2092.56C711.182 2093.12 711.182 2093.41 710.898 2093.98C707.489 2107.9 677.375 2118.12 640.159 2118.12ZM574.818 2091.7V2091.99C576.523 2101.93 603.227 2112.44 640.159 2112.44C677.091 2112.44 703.796 2101.93 705.5 2091.99V2091.7V1988.3V1988.01C703.796 1978.07 677.091 1967.56 640.159 1967.56C603.227 1967.56 576.523 1978.07 574.818 1988.01V1988.3V2091.7Z" fill="#B6B6B6"/>
<path d="M640.159 2089.72C602.943 2089.72 572.83 2079.2 569.421 2065.57C569.136 2065 569.136 2064.72 569.136 2064.15V2027.22C569.136 2025.51 570.273 2024.38 571.977 2024.38C573.682 2024.38 574.818 2025.51 574.818 2027.22C574.818 2038.01 602.659 2049.94 640.159 2049.94C677.659 2049.94 705.5 2038.01 705.5 2027.22C705.5 2025.51 706.636 2024.38 708.341 2024.38C710.045 2024.38 711.182 2025.51 711.182 2027.22V2064.15C711.182 2064.72 711.182 2065 710.898 2065.57C707.489 2079.49 677.375 2089.72 640.159 2089.72ZM574.818 2063.3V2063.58C576.523 2073.52 603.227 2084.03 640.159 2084.03C677.091 2084.03 703.796 2073.52 705.5 2063.58V2063.3V2038.3C694.704 2048.52 669.421 2055.62 640.159 2055.62C610.898 2055.62 585.614 2048.52 574.818 2038.3V2063.3Z" fill="#B6B6B6"/>
<path d="M640.159 2055.63C602.943 2055.63 572.83 2045.11 569.421 2031.48C569.136 2030.91 569.136 2030.63 569.136 2030.06V1993.13C569.136 1991.42 570.273 1990.28 571.977 1990.28C573.682 1990.28 574.818 1991.42 574.818 1993.13C574.818 2003.92 602.659 2015.85 640.159 2015.85C677.659 2015.85 705.5 2003.92 705.5 1993.13C705.5 1991.42 706.636 1990.28 708.341 1990.28C710.045 1990.28 711.182 1991.42 711.182 1993.13V2030.06C711.182 2030.63 711.182 2030.91 710.898 2031.48C707.489 2045.4 677.375 2055.63 640.159 2055.63ZM574.818 2029.2V2029.49C576.523 2039.43 603.227 2049.94 640.159 2049.94C677.091 2049.94 703.796 2039.43 705.5 2029.49V2029.2V2004.2C694.704 2014.43 669.421 2021.53 640.159 2021.53C610.898 2021.53 585.614 2014.43 574.818 2004.2V2029.2Z" fill="#B6B6B6"/>
</g>
<defs>
<clipPath id="clip0_1913_19736">
<rect width="156.25" height="156.25" fill="white" transform="translate(564.875 41.875)"/>
</clipPath>
<clipPath id="clip1_1913_19736">
<rect width="156.25" height="156.25" fill="white" transform="translate(564.875 361.875)"/>
</clipPath>
<clipPath id="clip2_1913_19736">
<rect width="156.25" height="156.25" fill="white" transform="translate(564.875 681.875)"/>
</clipPath>
<clipPath id="clip3_1913_19736">
<rect width="156.25" height="156.25" fill="white" transform="translate(564.875 1001.88)"/>
</clipPath>
<clipPath id="clip4_1913_19736">
<rect width="156.25" height="156.25" fill="white" transform="translate(564.875 1321.88)"/>
</clipPath>
<clipPath id="clip5_1913_19736">
<rect width="156.25" height="156.25" fill="white" transform="translate(564.875 1641.88)"/>
</clipPath>
<clipPath id="clip6_1913_19736">
<rect width="156.25" height="156.25" fill="white" transform="translate(564.875 1961.88)"/>
</clipPath>
</defs>
</svg>
