<svg width="2769" height="1196" viewBox="0 0 2769 1196" fill="none" xmlns="http://www.w3.org/2000/svg">
<path d="M72.0208 445.41L125.159 415.332L177.295 445.41L123.154 475.488L72.0208 445.41Z" fill="#828282"/>
<path d="M136.188 482.506L189.326 451.425L242.465 482.506L188.324 511.582L136.188 482.506Z" fill="#828282"/>
<path d="M271.541 481.504L324.679 450.423L376.815 481.504L322.674 511.582L271.541 481.504Z" fill="#C6C6C6"/>
<path d="M337.713 444.407L390.851 413.326L442.987 444.407L388.846 473.483L337.713 444.407Z" fill="#C6C6C6"/>
<path d="M64 455.436V521.608L117.138 551.687V486.517L64 455.436Z" fill="#00AFD1"/>
<path d="M130.172 492.532V558.705L184.313 587.78V523.613L130.172 492.532Z" fill="#00AFD1"/>
<path d="M195.342 527.624V593.796L248.48 622.872V558.705L195.342 527.624Z" fill="#00AFD1"/>
<path d="M448 456.438V522.611L393.859 552.689V487.519L448 456.438Z" fill="#4AE1FF"/>
<path d="M380.825 493.535V559.707L327.687 588.783V524.616L380.825 493.535Z" fill="#4AE1FF"/>
<path d="M315.655 528.626V594.799L262.517 623.875V559.707L315.655 528.626Z" fill="#4AE1FF"/>
<path d="M64 534.642V600.814L117.138 629.89V565.723L64 534.642Z" fill="#00AFD1"/>
<path d="M130.172 570.736V636.909L184.313 666.987V602.82L130.172 570.736Z" fill="#00AFD1"/>
<path d="M195.342 605.828V672L248.48 701.076V636.909L195.342 605.828Z" fill="#00AFD1"/>
<path d="M448 535.645V601.817L393.859 630.893V566.725L448 535.645Z" fill="#4AE1FF"/>
<path d="M380.825 572.741V638.914L327.687 667.989V603.822L380.825 572.741Z" fill="#4AE1FF"/>
<path d="M315.655 606.83V673.002L262.517 702.078V637.911L315.655 606.83Z" fill="#4AE1FF"/>
<path d="M64 612.846V679.018L117.138 709.096V643.927L64 612.846Z" fill="#00AFD1"/>
<path d="M130.172 649.942V716.115L184.313 745.19V681.023L130.172 649.942Z" fill="#00AFD1"/>
<path d="M195.342 685.034V751.206L248.48 780.282V716.115L195.342 685.034Z" fill="#00AFD1"/>
<path d="M448 613.848V680.02L393.859 710.099V645.932L448 613.848Z" fill="#4AE1FF"/>
<path d="M380.825 650.945V717.117L327.687 746.193V682.026L380.825 650.945Z" fill="#4AE1FF"/>
<path d="M315.655 686.037V752.209L262.517 781.285V717.118L315.655 686.037Z" fill="#4AE1FF"/>
<path d="M256.501 487.52L203.363 518.6L255.499 547.676L256.501 487.52Z" fill="#828282"/>
<path d="M256.501 487.52L255.499 547.676L308.637 518.6L256.501 487.52Z" fill="#C6C6C6"/>
<path d="M1024 706.827H1040.87V640.242L1066.98 698.309C1070.06 705.309 1074.28 707.824 1082.55 707.824C1090.82 707.824 1094.87 705.337 1097.96 698.309L1124.07 640.242V706.852H1140.94V640.352C1140.94 633.865 1138.34 630.727 1132.99 629.107C1120.18 625.107 1111.59 628.567 1107.7 637.217L1082.07 694.524L1057.25 637.192C1053.52 628.542 1044.76 625.082 1031.95 629.082C1026.6 630.704 1024 633.842 1024 640.327V706.827ZM1154.97 652.612H1171.83V689.312C1171.67 691.307 1172.47 695.987 1181.71 696.129C1186.42 696.204 1218.09 696.129 1218.39 696.129V652.429H1235.29C1235.36 652.429 1235.27 712.014 1235.27 712.269C1235.37 726.964 1217.04 730.157 1208.59 730.404H1155.33V719.054L1208.69 719.052C1219.54 717.902 1218.26 712.509 1218.26 710.692V706.267H1182.41C1165.73 706.117 1155.11 698.834 1154.98 690.459C1154.97 689.709 1155.34 652.972 1154.97 652.61L1154.97 652.612Z" fill="#00618A"/>
<path d="M1248.29 706.827H1296.79C1302.46 706.827 1307.98 705.64 1312.36 703.582C1319.66 700.232 1323.23 695.69 1323.23 689.742V677.417C1323.23 672.55 1319.17 668.01 1311.23 664.982C1307.01 663.357 1301.82 662.495 1296.79 662.495H1276.36C1269.55 662.495 1266.3 660.44 1265.49 655.9C1265.33 655.36 1265.33 654.9 1265.33 654.385V646.71C1265.33 646.277 1265.33 645.842 1265.49 645.302C1266.3 641.842 1268.09 640.867 1274.09 640.302C1274.57 640.302 1275.22 640.192 1275.71 640.192H1323.88V628.95H1276.52C1269.71 628.95 1266.14 629.382 1262.9 630.355C1252.83 633.492 1248.45 638.492 1248.45 647.142V656.982C1248.45 664.552 1257.05 671.04 1271.48 672.552C1273.11 672.66 1274.73 672.767 1276.35 672.767H1293.86C1294.51 672.767 1295.16 672.767 1295.65 672.877C1301 673.31 1303.27 674.282 1304.89 676.227C1305.89 677.227 1306.19 678.177 1306.19 679.227V689.067C1306.19 690.257 1305.38 691.772 1303.76 693.067C1302.3 694.367 1299.87 695.23 1296.62 695.447C1295.97 695.447 1295.49 695.555 1294.84 695.555H1248.29V706.8V706.827ZM1428.45 687.257C1428.45 698.827 1437.05 705.315 1454.4 706.612C1456.02 706.738 1457.64 706.809 1459.27 706.827H1503.22V695.582H1458.94C1449.05 695.582 1445.32 693.095 1445.32 687.147V628.972H1428.45V687.252L1428.45 687.257ZM1333.99 687.842V647.755C1333.99 637.57 1341.14 631.392 1355.28 629.442C1356.79 629.227 1358.31 629.118 1359.83 629.117H1391.85C1393.42 629.118 1395 629.227 1396.56 629.442C1410.7 631.392 1417.85 637.567 1417.85 647.755V687.842C1417.85 696.105 1414.82 700.527 1407.82 703.41L1424.43 718.41H1404.85L1391.4 706.275L1377.87 707.132H1359.83C1356.74 707.132 1353.49 706.697 1349.92 705.722C1339.17 702.797 1333.99 697.162 1333.99 687.842H1333.99ZM1352.2 686.842C1352.2 687.385 1352.36 687.925 1352.52 688.577C1353.52 693.237 1357.88 695.837 1364.52 695.837H1379.85L1365.77 683.13H1385.36L1397.61 694.212C1399.87 693.007 1401.36 691.162 1401.86 688.795C1402.02 688.255 1402.02 687.712 1402.02 687.17V648.732C1402.02 648.3 1402.02 647.732 1401.86 647.215C1400.86 642.882 1396.49 640.39 1389.99 640.39H1364.55C1357.05 640.39 1352.2 643.64 1352.2 648.732V686.872L1352.2 686.842Z" fill="#E48E00"/>
<path d="M1518.06 610.317C1507.69 610.037 1499.77 611 1493 613.855C1491.08 614.667 1488.01 614.687 1487.69 617.1C1488.75 618.207 1488.92 619.862 1489.76 621.225C1491.37 623.842 1494.11 627.35 1496.54 629.185C1499.2 631.192 1501.94 633.342 1504.8 635.085C1509.87 638.18 1515.54 639.947 1520.42 643.045C1523.3 644.87 1526.16 647.17 1528.97 649.235C1530.36 650.255 1531.3 651.84 1533.1 652.477V652.182C1532.15 650.975 1531.9 649.315 1531.03 648.057L1527.2 644.225C1523.45 639.225 1518.7 634.882 1513.64 631.25C1509.61 628.355 1500.58 624.445 1498.9 619.75L1498.6 619.455C1501.46 619.13 1504.81 618.097 1507.45 617.392C1511.88 616.205 1515.85 616.51 1520.43 615.33L1526.62 613.56V612.38C1524.3 610.005 1522.65 606.862 1520.13 604.715C1513.53 599.09 1506.32 593.477 1498.91 588.79C1494.79 586.19 1489.71 584.505 1485.34 582.302C1483.88 581.562 1481.3 581.177 1480.33 579.942C1478.04 577.022 1476.79 573.317 1475.03 569.942C1471.33 562.817 1467.69 555.032 1464.41 547.535C1462.17 542.422 1460.71 537.38 1457.93 532.792C1444.54 510.782 1430.13 497.497 1407.81 484.442C1403.06 481.667 1397.34 480.567 1391.29 479.135L1381.56 478.545C1379.58 477.72 1377.52 475.295 1375.66 474.12C1368.27 469.445 1349.3 459.287 1343.82 472.62C1340.37 481.052 1348.99 489.28 1352.08 493.555C1354.24 496.555 1357.02 499.912 1358.56 503.285C1359.58 505.5 1359.76 507.722 1360.63 510.067C1362.77 515.817 1364.64 522.125 1367.41 527.462C1368.81 530.162 1370.35 533.007 1372.13 535.422C1373.21 536.905 1375.08 537.557 1375.37 539.847C1373.55 542.397 1373.44 546.347 1372.42 549.577C1367.81 564.107 1369.55 582.165 1376.25 592.92C1378.31 596.22 1383.15 603.3 1389.81 600.585C1395.64 598.21 1394.31 590.86 1396.01 584.37C1396.38 582.895 1396.15 581.82 1396.89 580.832V581.127L1402.2 591.74C1406.12 598.065 1413.1 604.677 1419 609.14C1422.07 611.452 1424.5 615.452 1428.44 616.805V616.51H1428.14C1427.38 615.31 1426.18 614.817 1425.19 613.86C1422.89 611.597 1420.32 608.785 1418.41 606.195C1413.04 598.9 1408.29 590.92 1403.97 582.607C1401.9 578.64 1400.1 574.262 1398.37 570.225C1397.7 568.667 1397.7 566.315 1396.3 565.507C1394.4 568.467 1391.59 570.857 1390.11 574.352C1387.75 579.937 1387.45 586.747 1386.57 593.812C1386.06 593.997 1386.29 593.87 1385.98 594.107C1381.88 593.117 1380.43 588.89 1378.91 585.262C1375.05 576.087 1374.33 561.322 1377.73 550.767C1378.6 548.037 1382.58 539.432 1380.97 536.91C1380.2 534.392 1377.67 532.91 1376.25 531.01C1374.5 528.635 1372.75 525.5 1371.54 522.755C1368.38 515.605 1366.9 507.58 1363.58 500.347C1361.99 496.892 1359.3 493.397 1357.09 490.347C1354.65 486.947 1351.91 484.437 1350.02 480.347C1349.34 478.885 1348.43 476.547 1349.43 475.04C1349.52 474.607 1349.74 474.21 1350.05 473.896C1350.37 473.583 1350.76 473.365 1351.2 473.27C1352.91 471.952 1357.67 473.707 1359.45 474.45C1364.18 476.415 1368.13 478.285 1372.13 480.937C1374.06 482.187 1376 484.677 1378.32 485.362H1380.97C1385.12 486.317 1389.77 485.662 1393.65 486.837C1400.5 488.92 1406.64 492.162 1412.22 495.682C1429.22 506.412 1443.11 521.687 1452.61 539.932C1454.14 542.865 1454.8 545.667 1456.15 548.777C1458.87 555.027 1462.29 561.51 1465 567.645C1467.7 573.77 1470.32 579.945 1474.14 585.04C1476.14 587.715 1483.89 589.155 1487.4 590.64C1489.87 591.682 1493.91 592.77 1496.25 594.177C1500.71 596.87 1505.04 600.077 1509.22 603.027C1511.32 604.502 1517.75 607.735 1518.07 610.397L1518.06 610.317Z" fill="#00618A"/>
<path fill-rule="evenodd" clip-rule="evenodd" d="M1386.28 497.987C1384.11 497.947 1382.59 498.222 1380.97 498.577V498.872H1381.26C1382.29 500.992 1384.11 502.355 1385.39 504.18L1388.34 510.37L1388.63 510.075C1390.46 508.787 1391.3 506.73 1391.28 503.587C1390.55 502.817 1390.44 501.852 1389.81 500.932C1388.97 499.707 1387.31 499.012 1386.27 497.982L1386.28 497.987Z" fill="#00618A"/>
<path fill-rule="evenodd" clip-rule="evenodd" d="M1511.14 695.262C1511.14 702.687 1517 707.692 1523.57 707.692C1530.13 707.692 1536 702.687 1536 695.262C1536 687.837 1530.13 682.832 1523.57 682.832C1517 682.832 1511.14 687.837 1511.14 695.262ZM1533.21 695.262C1533.21 700.897 1528.9 705.107 1523.56 705.107C1518.16 705.107 1513.91 700.897 1513.91 695.262C1513.91 689.627 1518.16 685.417 1523.56 685.417C1528.9 685.417 1533.21 689.627 1533.21 695.262ZM1526.91 702.357H1529.69L1525.62 696.127C1527.81 695.895 1529.46 694.832 1529.46 692.247C1529.46 689.362 1527.64 688.172 1524.13 688.172H1518.59V702.36H1520.98V696.227H1523.2L1526.91 702.36L1526.91 702.357ZM1520.98 694.232V690.157H1523.73C1525.15 690.157 1526.88 690.422 1526.88 692.082C1526.88 694.07 1525.32 694.237 1523.53 694.237H1520.98V694.232Z" fill="#E48E00"/>
<path d="M1758.55 530.727C1756 514.364 1717.82 501.636 1671.27 501.636V694.364C1717.82 694.364 1755.64 681.636 1758.55 665.273V621.636V619.818V618V578V576.182V574.363V532.545V530.727Z" fill="#E2E3E5"/>
<path d="M1573.09 530.727C1575.64 514.364 1613.82 501.636 1660.36 501.636V694.364C1613.82 694.364 1576 681.636 1573.09 665.273V621.636V619.818V618V578V576.182V574.363V532.545V530.727V530.727Z" fill="white"/>
<path d="M1747.64 530.727C1745.09 514.364 1706.91 501.636 1660.36 501.636V694.364C1706.91 694.364 1744.73 681.636 1747.64 665.273V621.636V619.818V618V578V576.182V574.363V532.545V530.727V530.727Z" fill="#CCCCCC"/>
<path d="M1736.73 530.727C1734.18 514.364 1717.82 501.636 1671.27 501.636C1624.73 501.636 1586.91 514.364 1584 530.727V532.546V574.364V576.182V578.001V618.001V619.819V621.637V665.274C1586.55 681.637 1624.73 694.365 1671.27 694.365C1717.82 694.365 1733.82 681.637 1736.73 665.274V621.636V619.818V618V578V576.182V574.363V532.545V530.727Z" fill="#E2E3E5"/>
<path d="M1660.36 614.364V658C1706.91 658 1744.73 645.273 1747.64 628.909V581.636C1747.64 598.727 1708.73 614.364 1660.36 614.364Z" fill="#CCCCCC"/>
<path d="M1660.36 614.364V658C1613.82 658 1576 645.273 1573.09 628.909V581.636C1573.09 598.727 1612 614.364 1660.36 614.364Z" fill="white"/>
<path d="M1649.45 614.364L1584 599.818V639.818C1593.09 647.818 1602.91 658 1649.45 658C1696 658 1733.82 652.545 1736.73 636.181V598.363C1736.73 596.545 1734.55 595.818 1733.45 596.908C1722.91 608.545 1689.09 614.364 1649.45 614.364Z" fill="#E2E3E5"/>
<path d="M1660.36 698C1612.73 698 1574.18 684.545 1569.82 666.727C1569.45 666.364 1569.45 666 1569.45 665.273V530.727C1569.45 530 1569.45 529.636 1569.82 528.909C1574.18 511.091 1612.73 498 1660.36 498C1708 498 1746.55 511.091 1750.91 528.909C1751.27 529.636 1751.27 530 1751.27 530.727V665.273C1751.27 666 1751.27 666.364 1750.91 667.091C1746.55 684.909 1708 698 1660.36 698ZM1576.73 664.182V664.545C1578.91 677.273 1613.09 690.727 1660.36 690.727C1707.64 690.727 1741.82 677.272 1744 664.545V664.182V531.818V531.455C1741.82 518.727 1707.64 505.273 1660.36 505.273C1613.09 505.273 1578.91 518.727 1576.73 531.455V531.818V664.182Z" fill="#B6B6B6"/>
<path d="M1660.36 661.636C1612.73 661.636 1574.18 648.182 1569.82 630.727C1569.45 630 1569.45 629.636 1569.45 628.909V581.636C1569.45 579.455 1570.91 578 1573.09 578C1575.27 578 1576.73 579.455 1576.73 581.636C1576.73 595.455 1612.36 610.727 1660.36 610.727C1708.36 610.727 1744 595.455 1744 581.636C1744 579.455 1745.45 578 1747.64 578C1749.82 578 1751.27 579.455 1751.27 581.636V628.909C1751.27 629.636 1751.27 630 1750.91 630.727C1746.55 648.545 1708 661.636 1660.36 661.636ZM1576.73 627.818V628.182C1578.91 640.909 1613.09 654.364 1660.36 654.364C1707.64 654.364 1741.82 640.909 1744 628.182V627.818V595.818C1730.18 608.909 1697.82 618 1660.36 618C1622.91 618 1590.55 608.909 1576.73 595.818V627.818Z" fill="#B6B6B6"/>
<path d="M1660.36 618C1612.73 618 1574.18 604.545 1569.82 587.091C1569.45 586.364 1569.45 586 1569.45 585.273V538C1569.45 535.818 1570.91 534.364 1573.09 534.364C1575.27 534.364 1576.73 535.818 1576.73 538C1576.73 551.818 1612.36 567.091 1660.36 567.091C1708.36 567.091 1744 551.818 1744 538C1744 535.818 1745.45 534.364 1747.64 534.364C1749.82 534.364 1751.27 535.818 1751.27 538V585.273C1751.27 586 1751.27 586.364 1750.91 587.091C1746.55 604.909 1708 618 1660.36 618ZM1576.73 584.182V584.545C1578.91 597.273 1613.09 610.727 1660.36 610.727C1707.64 610.727 1741.82 597.272 1744 584.545V584.182V552.182C1730.18 565.273 1697.82 574.363 1660.36 574.363C1622.91 574.363 1590.55 565.273 1576.73 552.182V584.182Z" fill="#B6B6B6"/>
<path d="M2303.36 71.5909V40.6364H2311.41V93H2303.36V84.1364H2302.82C2301.59 86.7955 2299.68 89.0568 2297.09 90.9205C2294.5 92.7614 2291.23 93.6818 2287.27 93.6818C2284 93.6818 2281.09 92.9659 2278.55 91.5341C2276 90.0795 2274 87.8977 2272.55 84.9886C2271.09 82.0568 2270.36 78.3636 2270.36 73.9091V40.6364H2278.41V73.3636C2278.41 77.1818 2279.48 80.2273 2281.61 82.5C2283.77 84.7727 2286.52 85.9091 2289.86 85.9091C2291.86 85.9091 2293.9 85.3977 2295.97 84.375C2298.06 83.3523 2299.81 81.7841 2301.22 79.6705C2302.65 77.5568 2303.36 74.8636 2303.36 71.5909ZM2363.24 52.3636L2356.01 54.4091C2355.55 53.2045 2354.88 52.0341 2354 50.8977C2353.13 49.7386 2351.95 48.7841 2350.45 48.0341C2348.95 47.2841 2347.03 46.9091 2344.69 46.9091C2341.49 46.9091 2338.82 47.6477 2336.68 49.125C2334.57 50.5795 2333.51 52.4318 2333.51 54.6818C2333.51 56.6818 2334.24 58.2614 2335.69 59.4205C2337.14 60.5795 2339.42 61.5455 2342.51 62.3182L2350.28 64.2273C2354.96 65.3636 2358.45 67.1023 2360.75 69.4432C2363.04 71.7614 2364.19 74.75 2364.19 78.4091C2364.19 81.4091 2363.33 84.0909 2361.6 86.4545C2359.89 88.8182 2357.51 90.6818 2354.44 92.0455C2351.37 93.4091 2347.8 94.0909 2343.74 94.0909C2338.39 94.0909 2333.97 92.9318 2330.47 90.6136C2326.97 88.2955 2324.76 84.9091 2323.83 80.4545L2331.46 78.5455C2332.19 81.3636 2333.57 83.4773 2335.59 84.8864C2337.63 86.2955 2340.3 87 2343.6 87C2347.35 87 2350.33 86.2045 2352.53 84.6136C2354.76 83 2355.87 81.0682 2355.87 78.8182C2355.87 77 2355.24 75.4773 2353.96 74.25C2352.69 73 2350.74 72.0682 2348.1 71.4545L2339.37 69.4091C2334.58 68.2727 2331.05 66.5114 2328.8 64.125C2326.58 61.7159 2325.46 58.7045 2325.46 55.0909C2325.46 52.1364 2326.29 49.5227 2327.95 47.25C2329.63 44.9773 2331.92 43.1932 2334.8 41.8977C2337.71 40.6023 2341.01 39.9545 2344.69 39.9545C2349.87 39.9545 2353.94 41.0909 2356.89 43.3636C2359.87 45.6364 2361.99 48.6364 2363.24 52.3636ZM2398.26 94.0909C2393.21 94.0909 2388.86 92.9773 2385.2 90.75C2381.56 88.5 2378.76 85.3636 2376.78 81.3409C2374.82 77.2955 2373.85 72.5909 2373.85 67.2273C2373.85 61.8636 2374.82 57.1364 2376.78 53.0455C2378.76 48.9318 2381.51 45.7273 2385.03 43.4318C2388.57 41.1136 2392.71 39.9545 2397.44 39.9545C2400.16 39.9545 2402.86 40.4091 2405.52 41.3182C2408.18 42.2273 2410.6 43.7045 2412.78 45.75C2414.96 47.7727 2416.7 50.4545 2417.99 53.7955C2419.29 57.1364 2419.94 61.25 2419.94 66.1364V69.5455H2379.57V62.5909H2411.76C2411.76 59.6364 2411.16 57 2409.98 54.6818C2408.82 52.3636 2407.16 50.5341 2405.01 49.1932C2402.87 47.8523 2400.35 47.1818 2397.44 47.1818C2394.23 47.1818 2391.46 47.9773 2389.12 49.5682C2386.8 51.1364 2385.02 53.1818 2383.77 55.7045C2382.52 58.2273 2381.89 60.9318 2381.89 63.8182V68.4545C2381.89 72.4091 2382.57 75.7614 2383.94 78.5114C2385.32 81.2386 2387.24 83.3182 2389.7 84.75C2392.15 86.1591 2395.01 86.8636 2398.26 86.8636C2400.37 86.8636 2402.28 86.5682 2403.98 85.9773C2405.71 85.3636 2407.2 84.4545 2408.45 83.25C2409.7 82.0227 2410.66 80.5 2411.35 78.6818L2419.12 80.8636C2418.3 83.5 2416.93 85.8182 2414.99 87.8182C2413.06 89.7955 2410.68 91.3409 2407.84 92.4545C2404.99 93.5455 2401.8 94.0909 2398.26 94.0909ZM2432.18 93V40.6364H2439.95V48.5455H2440.49C2441.45 45.9545 2443.18 43.8523 2445.68 42.2386C2448.18 40.625 2450.99 39.8182 2454.13 39.8182C2454.72 39.8182 2455.46 39.8295 2456.35 39.8523C2457.23 39.875 2457.9 39.9091 2458.36 39.9545V48.1364C2458.09 48.0682 2457.46 47.9659 2456.48 47.8295C2455.53 47.6705 2454.52 47.5909 2453.45 47.5909C2450.9 47.5909 2448.63 48.125 2446.63 49.1932C2444.65 50.2386 2443.09 51.6932 2441.93 53.5568C2440.79 55.3977 2440.22 57.5 2440.22 59.8636V93H2432.18ZM2504.99 52.3636L2497.76 54.4091C2497.3 53.2045 2496.63 52.0341 2495.75 50.8977C2494.88 49.7386 2493.7 48.7841 2492.2 48.0341C2490.7 47.2841 2488.78 46.9091 2486.44 46.9091C2483.24 46.9091 2480.57 47.6477 2478.43 49.125C2476.32 50.5795 2475.26 52.4318 2475.26 54.6818C2475.26 56.6818 2475.99 58.2614 2477.44 59.4205C2478.89 60.5795 2481.17 61.5455 2484.26 62.3182L2492.03 64.2273C2496.71 65.3636 2500.2 67.1023 2502.5 69.4432C2504.79 71.7614 2505.94 74.75 2505.94 78.4091C2505.94 81.4091 2505.08 84.0909 2503.35 86.4545C2501.64 88.8182 2499.26 90.6818 2496.19 92.0455C2493.12 93.4091 2489.55 94.0909 2485.49 94.0909C2480.14 94.0909 2475.72 92.9318 2472.22 90.6136C2468.72 88.2955 2466.51 84.9091 2465.58 80.4545L2473.21 78.5455C2473.94 81.3636 2475.32 83.4773 2477.34 84.8864C2479.38 86.2955 2482.05 87 2485.35 87C2489.1 87 2492.08 86.2045 2494.28 84.6136C2496.51 83 2497.62 81.0682 2497.62 78.8182C2497.62 77 2496.99 75.4773 2495.71 74.25C2494.44 73 2492.49 72.0682 2489.85 71.4545L2481.12 69.4091C2476.33 68.2727 2472.8 66.5114 2470.55 64.125C2468.33 61.7159 2467.21 58.7045 2467.21 55.0909C2467.21 52.1364 2468.04 49.5227 2469.7 47.25C2471.38 44.9773 2473.67 43.1932 2476.55 41.8977C2479.46 40.6023 2482.76 39.9545 2486.44 39.9545C2491.62 39.9545 2495.69 41.0909 2498.64 43.3636C2501.62 45.6364 2503.74 48.6364 2504.99 52.3636Z" fill="white"/>
<path d="M2307.45 412.364L2300.23 414.409C2299.77 413.205 2299.1 412.034 2298.22 410.898C2297.35 409.739 2296.17 408.784 2294.67 408.034C2293.17 407.284 2291.25 406.909 2288.91 406.909C2285.7 406.909 2283.03 407.648 2280.9 409.125C2278.78 410.58 2277.73 412.432 2277.73 414.682C2277.73 416.682 2278.45 418.261 2279.91 419.42C2281.36 420.58 2283.64 421.545 2286.73 422.318L2294.5 424.227C2299.18 425.364 2302.67 427.102 2304.97 429.443C2307.26 431.761 2308.41 434.75 2308.41 438.409C2308.41 441.409 2307.55 444.091 2305.82 446.455C2304.11 448.818 2301.73 450.682 2298.66 452.045C2295.59 453.409 2292.02 454.091 2287.95 454.091C2282.61 454.091 2278.19 452.932 2274.69 450.614C2271.19 448.295 2268.98 444.909 2268.05 440.455L2275.68 438.545C2276.41 441.364 2277.78 443.477 2279.81 444.886C2281.85 446.295 2284.52 447 2287.82 447C2291.57 447 2294.55 446.205 2296.75 444.614C2298.98 443 2300.09 441.068 2300.09 438.818C2300.09 437 2299.45 435.477 2298.18 434.25C2296.91 433 2294.95 432.068 2292.32 431.455L2283.59 429.409C2278.8 428.273 2275.27 426.511 2273.02 424.125C2270.8 421.716 2269.68 418.705 2269.68 415.091C2269.68 412.136 2270.51 409.523 2272.17 407.25C2273.85 404.977 2276.14 403.193 2279.02 401.898C2281.93 400.602 2285.23 399.955 2288.91 399.955C2294.09 399.955 2298.16 401.091 2301.11 403.364C2304.09 405.636 2306.2 408.636 2307.45 412.364ZM2320.52 472.636V400.636H2328.29V408.955H2329.25C2329.84 408.045 2330.66 406.886 2331.7 405.477C2332.77 404.045 2334.29 402.773 2336.27 401.659C2338.27 400.523 2340.97 399.955 2344.38 399.955C2348.79 399.955 2352.68 401.057 2356.04 403.261C2359.41 405.466 2362.03 408.591 2363.92 412.636C2365.8 416.682 2366.75 421.455 2366.75 426.955C2366.75 432.5 2365.8 437.307 2363.92 441.375C2362.03 445.42 2359.42 448.557 2356.08 450.784C2352.74 452.989 2348.88 454.091 2344.52 454.091C2341.16 454.091 2338.46 453.534 2336.44 452.42C2334.42 451.284 2332.86 450 2331.77 448.568C2330.68 447.114 2329.84 445.909 2329.25 444.955H2328.57V472.636H2320.52ZM2328.43 426.818C2328.43 430.773 2329.01 434.261 2330.17 437.284C2331.33 440.284 2333.02 442.636 2335.25 444.341C2337.47 446.023 2340.2 446.864 2343.43 446.864C2346.79 446.864 2349.6 445.977 2351.85 444.205C2354.12 442.409 2355.83 440 2356.96 436.977C2358.12 433.932 2358.7 430.545 2358.7 426.818C2358.7 423.136 2358.13 419.818 2357 416.864C2355.88 413.886 2354.19 411.534 2351.92 409.807C2349.67 408.057 2346.84 407.182 2343.43 407.182C2340.16 407.182 2337.41 408.011 2335.18 409.67C2332.95 411.307 2331.27 413.602 2330.13 416.557C2329 419.489 2328.43 422.909 2328.43 426.818ZM2379.02 453V400.636H2386.79V408.545H2387.34C2388.29 405.955 2390.02 403.852 2392.52 402.239C2395.02 400.625 2397.84 399.818 2400.97 399.818C2401.57 399.818 2402.3 399.83 2403.19 399.852C2404.08 399.875 2404.75 399.909 2405.2 399.955V408.136C2404.93 408.068 2404.3 407.966 2403.33 407.83C2402.37 407.67 2401.36 407.591 2400.29 407.591C2397.75 407.591 2395.47 408.125 2393.47 409.193C2391.5 410.239 2389.93 411.693 2388.77 413.557C2387.63 415.398 2387.07 417.5 2387.07 419.864V453H2379.02ZM2414.74 453V400.636H2422.78V453H2414.74ZM2418.83 391.909C2417.26 391.909 2415.91 391.375 2414.77 390.307C2413.66 389.239 2413.1 387.955 2413.1 386.455C2413.1 384.955 2413.66 383.67 2414.77 382.602C2415.91 381.534 2417.26 381 2418.83 381C2420.4 381 2421.74 381.534 2422.85 382.602C2423.99 383.67 2424.56 384.955 2424.56 386.455C2424.56 387.955 2423.99 389.239 2422.85 390.307C2421.74 391.375 2420.4 391.909 2418.83 391.909ZM2445.57 421.5V453H2437.52V400.636H2445.29V408.818H2445.97C2447.2 406.159 2449.07 404.023 2451.57 402.409C2454.07 400.773 2457.29 399.955 2461.25 399.955C2464.79 399.955 2467.89 400.682 2470.55 402.136C2473.21 403.568 2475.28 405.75 2476.76 408.682C2478.24 411.591 2478.97 415.273 2478.97 419.727V453H2470.93V420.273C2470.93 416.159 2469.86 412.955 2467.72 410.659C2465.59 408.341 2462.66 407.182 2458.93 407.182C2456.36 407.182 2454.07 407.739 2452.04 408.852C2450.04 409.966 2448.46 411.591 2447.3 413.727C2446.14 415.864 2445.57 418.455 2445.57 421.5ZM2516.45 400.636V407.455H2489.31V400.636H2516.45ZM2497.22 388.091H2505.27V438C2505.27 440.273 2505.6 441.977 2506.26 443.114C2506.94 444.227 2507.8 444.977 2508.85 445.364C2509.91 445.727 2511.04 445.909 2512.22 445.909C2513.11 445.909 2513.84 445.864 2514.4 445.773C2514.97 445.659 2515.43 445.568 2515.77 445.5L2517.4 452.727C2516.86 452.932 2516.1 453.136 2515.12 453.341C2514.14 453.568 2512.9 453.682 2511.4 453.682C2509.13 453.682 2506.9 453.193 2504.72 452.216C2502.56 451.239 2500.77 449.75 2499.34 447.75C2497.93 445.75 2497.22 443.227 2497.22 440.182V388.091ZM2564.7 412.364L2557.48 414.409C2557.02 413.205 2556.35 412.034 2555.47 410.898C2554.6 409.739 2553.42 408.784 2551.92 408.034C2550.42 407.284 2548.5 406.909 2546.16 406.909C2542.95 406.909 2540.28 407.648 2538.15 409.125C2536.03 410.58 2534.98 412.432 2534.98 414.682C2534.98 416.682 2535.7 418.261 2537.16 419.42C2538.61 420.58 2540.89 421.545 2543.98 422.318L2551.75 424.227C2556.43 425.364 2559.92 427.102 2562.22 429.443C2564.51 431.761 2565.66 434.75 2565.66 438.409C2565.66 441.409 2564.8 444.091 2563.07 446.455C2561.36 448.818 2558.98 450.682 2555.91 452.045C2552.84 453.409 2549.27 454.091 2545.2 454.091C2539.86 454.091 2535.44 452.932 2531.94 450.614C2528.44 448.295 2526.23 444.909 2525.3 440.455L2532.93 438.545C2533.66 441.364 2535.03 443.477 2537.06 444.886C2539.1 446.295 2541.77 447 2545.07 447C2548.82 447 2551.8 446.205 2554 444.614C2556.23 443 2557.34 441.068 2557.34 438.818C2557.34 437 2556.7 435.477 2555.43 434.25C2554.16 433 2552.2 432.068 2549.57 431.455L2540.84 429.409C2536.05 428.273 2532.52 426.511 2530.27 424.125C2528.05 421.716 2526.93 418.705 2526.93 415.091C2526.93 412.136 2527.76 409.523 2529.42 407.25C2531.1 404.977 2533.39 403.193 2536.27 401.898C2539.18 400.602 2542.48 399.955 2546.16 399.955C2551.34 399.955 2555.41 401.091 2558.36 403.364C2561.34 405.636 2563.45 408.636 2564.7 412.364Z" fill="white"/>
<path d="M2270.36 832.636V760.636H2278.14V768.955H2279.09C2279.68 768.045 2280.5 766.886 2281.55 765.477C2282.61 764.045 2284.14 762.773 2286.11 761.659C2288.11 760.523 2290.82 759.955 2294.23 759.955C2298.64 759.955 2302.52 761.057 2305.89 763.261C2309.25 765.466 2311.88 768.591 2313.76 772.636C2315.65 776.682 2316.59 781.455 2316.59 786.955C2316.59 792.5 2315.65 797.307 2313.76 801.375C2311.88 805.42 2309.26 808.557 2305.92 810.784C2302.58 812.989 2298.73 814.091 2294.36 814.091C2291 814.091 2288.31 813.534 2286.28 812.42C2284.26 811.284 2282.7 810 2281.61 808.568C2280.52 807.114 2279.68 805.909 2279.09 804.955H2278.41V832.636H2270.36ZM2278.27 786.818C2278.27 790.773 2278.85 794.261 2280.01 797.284C2281.17 800.284 2282.86 802.636 2285.09 804.341C2287.32 806.023 2290.05 806.864 2293.27 806.864C2296.64 806.864 2299.44 805.977 2301.69 804.205C2303.97 802.409 2305.67 800 2306.81 796.977C2307.97 793.932 2308.55 790.545 2308.55 786.818C2308.55 783.136 2307.98 779.818 2306.84 776.864C2305.73 773.886 2304.03 771.534 2301.76 769.807C2299.51 768.057 2296.68 767.182 2293.27 767.182C2290 767.182 2287.25 768.011 2285.02 769.67C2282.8 771.307 2281.11 773.602 2279.98 776.557C2278.84 779.489 2278.27 782.909 2278.27 786.818ZM2350.14 814.091C2345.41 814.091 2341.26 812.966 2337.69 810.716C2334.15 808.466 2331.38 805.318 2329.38 801.273C2327.4 797.227 2326.41 792.5 2326.41 787.091C2326.41 781.636 2327.4 776.875 2329.38 772.807C2331.38 768.739 2334.15 765.58 2337.69 763.33C2341.26 761.08 2345.41 759.955 2350.14 759.955C2354.86 759.955 2359 761.08 2362.55 763.33C2366.11 765.58 2368.89 768.739 2370.86 772.807C2372.86 776.875 2373.86 781.636 2373.86 787.091C2373.86 792.5 2372.86 797.227 2370.86 801.273C2368.89 805.318 2366.11 808.466 2362.55 810.716C2359 812.966 2354.86 814.091 2350.14 814.091ZM2350.14 806.864C2353.73 806.864 2356.68 805.943 2359 804.102C2361.32 802.261 2363.03 799.841 2364.15 796.841C2365.26 793.841 2365.82 790.591 2365.82 787.091C2365.82 783.591 2365.26 780.33 2364.15 777.307C2363.03 774.284 2361.32 771.841 2359 769.977C2356.68 768.114 2353.73 767.182 2350.14 767.182C2346.55 767.182 2343.59 768.114 2341.27 769.977C2338.95 771.841 2337.24 774.284 2336.12 777.307C2335.01 780.33 2334.45 783.591 2334.45 787.091C2334.45 790.591 2335.01 793.841 2336.12 796.841C2337.24 799.841 2338.95 802.261 2341.27 804.102C2343.59 805.943 2346.55 806.864 2350.14 806.864ZM2386.14 813V760.636H2393.92V768.818H2394.6C2395.69 766.023 2397.45 763.852 2399.88 762.307C2402.32 760.739 2405.24 759.955 2408.64 759.955C2412.1 759.955 2414.97 760.739 2417.27 762.307C2419.59 763.852 2421.39 766.023 2422.69 768.818H2423.24C2424.58 766.114 2426.59 763.966 2429.27 762.375C2431.95 760.761 2435.17 759.955 2438.92 759.955C2443.6 759.955 2447.43 761.42 2450.41 764.352C2453.38 767.261 2454.87 771.795 2454.87 777.955V813H2446.83V777.955C2446.83 774.091 2445.77 771.33 2443.66 769.67C2441.54 768.011 2439.05 767.182 2436.19 767.182C2432.51 767.182 2429.66 768.295 2427.63 770.523C2425.61 772.727 2424.6 775.523 2424.6 778.909V813H2416.42V777.136C2416.42 774.159 2415.45 771.761 2413.52 769.943C2411.59 768.102 2409.1 767.182 2406.05 767.182C2403.96 767.182 2402.01 767.739 2400.19 768.852C2398.39 769.966 2396.94 771.511 2395.83 773.489C2394.74 775.443 2394.19 777.705 2394.19 780.273V813H2386.14ZM2490.86 814.091C2486.13 814.091 2481.98 812.966 2478.41 810.716C2474.87 808.466 2472.09 805.318 2470.09 801.273C2468.12 797.227 2467.13 792.5 2467.13 787.091C2467.13 781.636 2468.12 776.875 2470.09 772.807C2472.09 768.739 2474.87 765.58 2478.41 763.33C2481.98 761.08 2486.13 759.955 2490.86 759.955C2495.58 759.955 2499.72 761.08 2503.26 763.33C2506.83 765.58 2509.61 768.739 2511.58 772.807C2513.58 776.875 2514.58 781.636 2514.58 787.091C2514.58 792.5 2513.58 797.227 2511.58 801.273C2509.61 805.318 2506.83 808.466 2503.26 810.716C2499.72 812.966 2495.58 814.091 2490.86 814.091ZM2490.86 806.864C2494.45 806.864 2497.4 805.943 2499.72 804.102C2502.04 802.261 2503.75 799.841 2504.87 796.841C2505.98 793.841 2506.54 790.591 2506.54 787.091C2506.54 783.591 2505.98 780.33 2504.87 777.307C2503.75 774.284 2502.04 771.841 2499.72 769.977C2497.4 768.114 2494.45 767.182 2490.86 767.182C2487.26 767.182 2484.31 768.114 2481.99 769.977C2479.67 771.841 2477.96 774.284 2476.84 777.307C2475.73 780.33 2475.17 783.591 2475.17 787.091C2475.17 790.591 2475.73 793.841 2476.84 796.841C2477.96 799.841 2479.67 802.261 2481.99 804.102C2484.31 805.943 2487.26 806.864 2490.86 806.864ZM2546.64 814.091C2542.27 814.091 2538.42 812.989 2535.08 810.784C2531.74 808.557 2529.13 805.42 2527.24 801.375C2525.35 797.307 2524.41 792.5 2524.41 786.955C2524.41 781.455 2525.35 776.682 2527.24 772.636C2529.13 768.591 2531.75 765.466 2535.11 763.261C2538.48 761.057 2542.36 759.955 2546.77 759.955C2550.18 759.955 2552.88 760.523 2554.85 761.659C2556.85 762.773 2558.38 764.045 2559.42 765.477C2560.49 766.886 2561.32 768.045 2561.91 768.955H2562.59V743.182H2570.64V813H2562.86V804.955H2561.91C2561.32 805.909 2560.48 807.114 2559.39 808.568C2558.3 810 2556.74 811.284 2554.72 812.42C2552.69 813.534 2550 814.091 2546.64 814.091ZM2547.73 806.864C2550.95 806.864 2553.68 806.023 2555.91 804.341C2558.14 802.636 2559.83 800.284 2560.99 797.284C2562.15 794.261 2562.73 790.773 2562.73 786.818C2562.73 782.909 2562.16 779.489 2561.02 776.557C2559.89 773.602 2558.2 771.307 2555.98 769.67C2553.75 768.011 2551 767.182 2547.73 767.182C2544.32 767.182 2541.48 768.057 2539.2 769.807C2536.95 771.534 2535.26 773.886 2534.12 776.864C2533.01 779.818 2532.45 783.136 2532.45 786.818C2532.45 790.545 2533.02 793.932 2534.16 796.977C2535.32 800 2537.02 802.409 2539.27 804.205C2541.55 805.977 2544.36 806.864 2547.73 806.864ZM2607.76 814.091C2603.03 814.091 2598.89 812.966 2595.32 810.716C2591.77 808.466 2589 805.318 2587 801.273C2585.02 797.227 2584.03 792.5 2584.03 787.091C2584.03 781.636 2585.02 776.875 2587 772.807C2589 768.739 2591.77 765.58 2595.32 763.33C2598.89 761.08 2603.03 759.955 2607.76 759.955C2612.49 759.955 2616.63 761.08 2620.17 763.33C2623.74 765.58 2626.51 768.739 2628.49 772.807C2630.49 776.875 2631.49 781.636 2631.49 787.091C2631.49 792.5 2630.49 797.227 2628.49 801.273C2626.51 805.318 2623.74 808.466 2620.17 810.716C2616.63 812.966 2612.49 814.091 2607.76 814.091ZM2607.76 806.864C2611.35 806.864 2614.31 805.943 2616.62 804.102C2618.94 802.261 2620.66 799.841 2621.77 796.841C2622.89 793.841 2623.44 790.591 2623.44 787.091C2623.44 783.591 2622.89 780.33 2621.77 777.307C2620.66 774.284 2618.94 771.841 2616.62 769.977C2614.31 768.114 2611.35 767.182 2607.76 767.182C2604.17 767.182 2601.22 768.114 2598.9 769.977C2596.58 771.841 2594.86 774.284 2593.75 777.307C2592.64 780.33 2592.08 783.591 2592.08 787.091C2592.08 790.591 2592.64 793.841 2593.75 796.841C2594.86 799.841 2596.58 802.261 2598.9 804.102C2601.22 805.943 2604.17 806.864 2607.76 806.864ZM2643.77 813V760.636H2651.54V768.545H2652.09C2653.04 765.955 2654.77 763.852 2657.27 762.239C2659.77 760.625 2662.59 759.818 2665.72 759.818C2666.32 759.818 2667.05 759.83 2667.94 759.852C2668.83 759.875 2669.5 759.909 2669.95 759.955V768.136C2669.68 768.068 2669.05 767.966 2668.08 767.83C2667.12 767.67 2666.11 767.591 2665.04 767.591C2662.5 767.591 2660.22 768.125 2658.22 769.193C2656.25 770.239 2654.68 771.693 2653.52 773.557C2652.38 775.398 2651.82 777.5 2651.82 779.864V813H2643.77ZM2699.17 814.091C2694.44 814.091 2690.29 812.966 2686.72 810.716C2683.18 808.466 2680.41 805.318 2678.41 801.273C2676.43 797.227 2675.44 792.5 2675.44 787.091C2675.44 781.636 2676.43 776.875 2678.41 772.807C2680.41 768.739 2683.18 765.58 2686.72 763.33C2690.29 761.08 2694.44 759.955 2699.17 759.955C2703.89 759.955 2708.03 761.08 2711.58 763.33C2715.14 765.58 2717.92 768.739 2719.89 772.807C2721.89 776.875 2722.89 781.636 2722.89 787.091C2722.89 792.5 2721.89 797.227 2719.89 801.273C2717.92 805.318 2715.14 808.466 2711.58 810.716C2708.03 812.966 2703.89 814.091 2699.17 814.091ZM2699.17 806.864C2702.76 806.864 2705.71 805.943 2708.03 804.102C2710.35 802.261 2712.07 799.841 2713.18 796.841C2714.29 793.841 2714.85 790.591 2714.85 787.091C2714.85 783.591 2714.29 780.33 2713.18 777.307C2712.07 774.284 2710.35 771.841 2708.03 769.977C2705.71 768.114 2702.76 767.182 2699.17 767.182C2695.58 767.182 2692.62 768.114 2690.3 769.977C2687.99 771.841 2686.27 774.284 2685.16 777.307C2684.04 780.33 2683.49 783.591 2683.49 787.091C2683.49 790.591 2684.04 793.841 2685.16 796.841C2686.27 799.841 2687.99 802.261 2690.3 804.102C2692.62 805.943 2695.58 806.864 2699.17 806.864Z" fill="white"/>
<path d="M2290.14 1174.09C2285.77 1174.09 2281.92 1172.99 2278.58 1170.78C2275.24 1168.56 2272.63 1165.42 2270.74 1161.38C2268.85 1157.31 2267.91 1152.5 2267.91 1146.95C2267.91 1141.45 2268.85 1136.68 2270.74 1132.64C2272.63 1128.59 2275.25 1125.47 2278.61 1123.26C2281.98 1121.06 2285.86 1119.95 2290.27 1119.95C2293.68 1119.95 2296.38 1120.52 2298.35 1121.66C2300.35 1122.77 2301.88 1124.05 2302.92 1125.48C2303.99 1126.89 2304.82 1128.05 2305.41 1128.95H2306.09V1103.18H2314.14V1173H2306.36V1164.95H2305.41C2304.82 1165.91 2303.98 1167.11 2302.89 1168.57C2301.8 1170 2300.24 1171.28 2298.22 1172.42C2296.19 1173.53 2293.5 1174.09 2290.14 1174.09ZM2291.23 1166.86C2294.45 1166.86 2297.18 1166.02 2299.41 1164.34C2301.64 1162.64 2303.33 1160.28 2304.49 1157.28C2305.65 1154.26 2306.23 1150.77 2306.23 1146.82C2306.23 1142.91 2305.66 1139.49 2304.52 1136.56C2303.39 1133.6 2301.7 1131.31 2299.48 1129.67C2297.25 1128.01 2294.5 1127.18 2291.23 1127.18C2287.82 1127.18 2284.98 1128.06 2282.7 1129.81C2280.45 1131.53 2278.76 1133.89 2277.62 1136.86C2276.51 1139.82 2275.95 1143.14 2275.95 1146.82C2275.95 1150.55 2276.52 1153.93 2277.66 1156.98C2278.82 1160 2280.52 1162.41 2282.77 1164.2C2285.05 1165.98 2287.86 1166.86 2291.23 1166.86ZM2351.26 1174.09C2346.53 1174.09 2342.39 1172.97 2338.82 1170.72C2335.27 1168.47 2332.5 1165.32 2330.5 1161.27C2328.52 1157.23 2327.53 1152.5 2327.53 1147.09C2327.53 1141.64 2328.52 1136.87 2330.5 1132.81C2332.5 1128.74 2335.27 1125.58 2338.82 1123.33C2342.39 1121.08 2346.53 1119.95 2351.26 1119.95C2355.99 1119.95 2360.13 1121.08 2363.67 1123.33C2367.24 1125.58 2370.01 1128.74 2371.99 1132.81C2373.99 1136.87 2374.99 1141.64 2374.99 1147.09C2374.99 1152.5 2373.99 1157.23 2371.99 1161.27C2370.01 1165.32 2367.24 1168.47 2363.67 1170.72C2360.13 1172.97 2355.99 1174.09 2351.26 1174.09ZM2351.26 1166.86C2354.85 1166.86 2357.81 1165.94 2360.12 1164.1C2362.44 1162.26 2364.16 1159.84 2365.27 1156.84C2366.39 1153.84 2366.94 1150.59 2366.94 1147.09C2366.94 1143.59 2366.39 1140.33 2365.27 1137.31C2364.16 1134.28 2362.44 1131.84 2360.12 1129.98C2357.81 1128.11 2354.85 1127.18 2351.26 1127.18C2347.67 1127.18 2344.72 1128.11 2342.4 1129.98C2340.08 1131.84 2338.36 1134.28 2337.25 1137.31C2336.14 1140.33 2335.58 1143.59 2335.58 1147.09C2335.58 1150.59 2336.14 1153.84 2337.25 1156.84C2338.36 1159.84 2340.08 1162.26 2342.4 1164.1C2344.72 1165.94 2347.67 1166.86 2351.26 1166.86ZM2408.54 1174.09C2403.63 1174.09 2399.41 1172.93 2395.86 1170.61C2392.32 1168.3 2389.59 1165.1 2387.68 1161.03C2385.77 1156.97 2384.82 1152.32 2384.82 1147.09C2384.82 1141.77 2385.79 1137.08 2387.75 1133.01C2389.72 1128.92 2392.47 1125.73 2396 1123.43C2399.54 1121.11 2403.68 1119.95 2408.41 1119.95C2412.09 1119.95 2415.41 1120.64 2418.36 1122C2421.32 1123.36 2423.74 1125.27 2425.62 1127.73C2427.51 1130.18 2428.68 1133.05 2429.13 1136.32H2421.09C2420.47 1133.93 2419.11 1131.82 2417 1129.98C2414.91 1128.11 2412.09 1127.18 2408.54 1127.18C2405.41 1127.18 2402.66 1128 2400.29 1129.64C2397.95 1131.25 2396.12 1133.53 2394.8 1136.49C2393.51 1139.42 2392.86 1142.86 2392.86 1146.82C2392.86 1150.86 2393.5 1154.39 2394.77 1157.39C2396.07 1160.39 2397.88 1162.72 2400.22 1164.38C2402.59 1166.03 2405.36 1166.86 2408.54 1166.86C2410.63 1166.86 2412.53 1166.5 2414.24 1165.77C2415.94 1165.05 2417.38 1164 2418.57 1162.64C2419.75 1161.27 2420.59 1159.64 2421.09 1157.73H2429.13C2428.68 1160.82 2427.55 1163.6 2425.76 1166.08C2423.99 1168.53 2421.63 1170.49 2418.7 1171.94C2415.79 1173.38 2412.41 1174.09 2408.54 1174.09ZM2473.89 1151.59V1120.64H2481.94V1173H2473.89V1164.14H2473.35C2472.12 1166.8 2470.21 1169.06 2467.62 1170.92C2465.03 1172.76 2461.76 1173.68 2457.8 1173.68C2454.53 1173.68 2451.62 1172.97 2449.08 1171.53C2446.53 1170.08 2444.53 1167.9 2443.08 1164.99C2441.62 1162.06 2440.89 1158.36 2440.89 1153.91V1120.64H2448.94V1153.36C2448.94 1157.18 2450.01 1160.23 2452.14 1162.5C2454.3 1164.77 2457.05 1165.91 2460.39 1165.91C2462.39 1165.91 2464.43 1165.4 2466.5 1164.38C2468.59 1163.35 2470.34 1161.78 2471.75 1159.67C2473.18 1157.56 2473.89 1154.86 2473.89 1151.59ZM2496.68 1173V1120.64H2504.45V1128.82H2505.13C2506.22 1126.02 2507.98 1123.85 2510.41 1122.31C2512.85 1120.74 2515.77 1119.95 2519.18 1119.95C2522.63 1119.95 2525.51 1120.74 2527.8 1122.31C2530.12 1123.85 2531.93 1126.02 2533.22 1128.82H2533.77C2535.11 1126.11 2537.12 1123.97 2539.8 1122.38C2542.48 1120.76 2545.7 1119.95 2549.45 1119.95C2554.13 1119.95 2557.96 1121.42 2560.94 1124.35C2563.91 1127.26 2565.4 1131.8 2565.4 1137.95V1173H2557.36V1137.95C2557.36 1134.09 2556.3 1131.33 2554.19 1129.67C2552.07 1128.01 2549.59 1127.18 2546.72 1127.18C2543.04 1127.18 2540.19 1128.3 2538.16 1130.52C2536.14 1132.73 2535.13 1135.52 2535.13 1138.91V1173H2526.95V1137.14C2526.95 1134.16 2525.98 1131.76 2524.05 1129.94C2522.12 1128.1 2519.63 1127.18 2516.59 1127.18C2514.49 1127.18 2512.54 1127.74 2510.72 1128.85C2508.93 1129.97 2507.47 1131.51 2506.36 1133.49C2505.27 1135.44 2504.72 1137.7 2504.72 1140.27V1173H2496.68ZM2602.07 1174.09C2597.02 1174.09 2592.67 1172.98 2589.01 1170.75C2585.38 1168.5 2582.57 1165.36 2580.59 1161.34C2578.64 1157.3 2577.66 1152.59 2577.66 1147.23C2577.66 1141.86 2578.64 1137.14 2580.59 1133.05C2582.57 1128.93 2585.32 1125.73 2588.84 1123.43C2592.39 1121.11 2596.52 1119.95 2601.25 1119.95C2603.98 1119.95 2606.67 1120.41 2609.33 1121.32C2611.99 1122.23 2614.41 1123.7 2616.59 1125.75C2618.77 1127.77 2620.51 1130.45 2621.81 1133.8C2623.1 1137.14 2623.75 1141.25 2623.75 1146.14V1149.55H2583.39V1142.59H2615.57C2615.57 1139.64 2614.98 1137 2613.8 1134.68C2612.64 1132.36 2610.98 1130.53 2608.82 1129.19C2606.68 1127.85 2604.16 1127.18 2601.25 1127.18C2598.05 1127.18 2595.27 1127.98 2592.93 1129.57C2590.61 1131.14 2588.83 1133.18 2587.58 1135.7C2586.33 1138.23 2585.7 1140.93 2585.7 1143.82V1148.45C2585.7 1152.41 2586.39 1155.76 2587.75 1158.51C2589.14 1161.24 2591.06 1163.32 2593.51 1164.75C2595.97 1166.16 2598.82 1166.86 2602.07 1166.86C2604.18 1166.86 2606.09 1166.57 2607.8 1165.98C2609.52 1165.36 2611.01 1164.45 2612.26 1163.25C2613.51 1162.02 2614.48 1160.5 2615.16 1158.68L2622.93 1160.86C2622.11 1163.5 2620.74 1165.82 2618.81 1167.82C2616.88 1169.8 2614.49 1171.34 2611.65 1172.45C2608.81 1173.55 2605.61 1174.09 2602.07 1174.09ZM2644.03 1141.5V1173H2635.99V1120.64H2643.76V1128.82H2644.44C2645.67 1126.16 2647.53 1124.02 2650.03 1122.41C2652.53 1120.77 2655.76 1119.95 2659.72 1119.95C2663.26 1119.95 2666.36 1120.68 2669.02 1122.14C2671.68 1123.57 2673.75 1125.75 2675.23 1128.68C2676.7 1131.59 2677.44 1135.27 2677.44 1139.73V1173H2669.4V1140.27C2669.4 1136.16 2668.33 1132.95 2666.19 1130.66C2664.06 1128.34 2661.13 1127.18 2657.4 1127.18C2654.83 1127.18 2652.53 1127.74 2650.51 1128.85C2648.51 1129.97 2646.93 1131.59 2645.77 1133.73C2644.61 1135.86 2644.03 1138.45 2644.03 1141.5ZM2714.92 1120.64V1127.45H2687.78V1120.64H2714.92ZM2695.69 1108.09H2703.74V1158C2703.74 1160.27 2704.07 1161.98 2704.72 1163.11C2705.41 1164.23 2706.27 1164.98 2707.32 1165.36C2708.38 1165.73 2709.51 1165.91 2710.69 1165.91C2711.58 1165.91 2712.3 1165.86 2712.87 1165.77C2713.44 1165.66 2713.89 1165.57 2714.24 1165.5L2715.87 1172.73C2715.33 1172.93 2714.57 1173.14 2713.59 1173.34C2712.61 1173.57 2711.37 1173.68 2709.87 1173.68C2707.6 1173.68 2705.37 1173.19 2703.19 1172.22C2701.03 1171.24 2699.24 1169.75 2697.8 1167.75C2696.39 1165.75 2695.69 1163.23 2695.69 1160.18V1108.09ZM2763.17 1132.36L2755.95 1134.41C2755.49 1133.2 2754.82 1132.03 2753.93 1130.9C2753.07 1129.74 2751.89 1128.78 2750.39 1128.03C2748.89 1127.28 2746.97 1126.91 2744.63 1126.91C2741.42 1126.91 2738.75 1127.65 2736.62 1129.12C2734.5 1130.58 2733.45 1132.43 2733.45 1134.68C2733.45 1136.68 2734.17 1138.26 2735.63 1139.42C2737.08 1140.58 2739.36 1141.55 2742.45 1142.32L2750.22 1144.23C2754.9 1145.36 2758.39 1147.1 2760.68 1149.44C2762.98 1151.76 2764.13 1154.75 2764.13 1158.41C2764.13 1161.41 2763.26 1164.09 2761.54 1166.45C2759.83 1168.82 2757.45 1170.68 2754.38 1172.05C2751.31 1173.41 2747.74 1174.09 2743.67 1174.09C2738.33 1174.09 2733.91 1172.93 2730.41 1170.61C2726.91 1168.3 2724.7 1164.91 2723.76 1160.45L2731.4 1158.55C2732.13 1161.36 2733.5 1163.48 2735.53 1164.89C2737.57 1166.3 2740.24 1167 2743.54 1167C2747.29 1167 2750.26 1166.2 2752.47 1164.61C2754.7 1163 2755.81 1161.07 2755.81 1158.82C2755.81 1157 2755.17 1155.48 2753.9 1154.25C2752.63 1153 2750.67 1152.07 2748.04 1151.45L2739.31 1149.41C2734.51 1148.27 2730.99 1146.51 2728.74 1144.12C2726.51 1141.72 2725.4 1138.7 2725.4 1135.09C2725.4 1132.14 2726.23 1129.52 2727.89 1127.25C2729.57 1124.98 2731.86 1123.19 2734.74 1121.9C2737.65 1120.6 2740.95 1119.95 2744.63 1119.95C2749.81 1119.95 2753.88 1121.09 2756.83 1123.36C2759.81 1125.64 2761.92 1128.64 2763.17 1132.36Z" fill="white"/>
<path d="M2270.36 292.636V220.636H2278.14V228.955H2279.09C2279.68 228.045 2280.5 226.886 2281.55 225.477C2282.61 224.045 2284.14 222.773 2286.11 221.659C2288.11 220.523 2290.82 219.955 2294.23 219.955C2298.64 219.955 2302.52 221.057 2305.89 223.261C2309.25 225.466 2311.88 228.591 2313.76 232.636C2315.65 236.682 2316.59 241.455 2316.59 246.955C2316.59 252.5 2315.65 257.307 2313.76 261.375C2311.88 265.42 2309.26 268.557 2305.92 270.784C2302.58 272.989 2298.73 274.091 2294.36 274.091C2291 274.091 2288.31 273.534 2286.28 272.42C2284.26 271.284 2282.7 270 2281.61 268.568C2280.52 267.114 2279.68 265.909 2279.09 264.955H2278.41V292.636H2270.36ZM2278.27 246.818C2278.27 250.773 2278.85 254.261 2280.01 257.284C2281.17 260.284 2282.86 262.636 2285.09 264.341C2287.32 266.023 2290.05 266.864 2293.27 266.864C2296.64 266.864 2299.44 265.977 2301.69 264.205C2303.97 262.409 2305.67 260 2306.81 256.977C2307.97 253.932 2308.55 250.545 2308.55 246.818C2308.55 243.136 2307.98 239.818 2306.84 236.864C2305.73 233.886 2304.03 231.534 2301.76 229.807C2299.51 228.057 2296.68 227.182 2293.27 227.182C2290 227.182 2287.25 228.011 2285.02 229.67C2282.8 231.307 2281.11 233.602 2279.98 236.557C2278.84 239.489 2278.27 242.909 2278.27 246.818ZM2328.86 273V220.636H2336.64V228.545H2337.18C2338.14 225.955 2339.86 223.852 2342.36 222.239C2344.86 220.625 2347.68 219.818 2350.82 219.818C2351.41 219.818 2352.15 219.83 2353.03 219.852C2353.92 219.875 2354.59 219.909 2355.05 219.955V228.136C2354.77 228.068 2354.15 227.966 2353.17 227.83C2352.22 227.67 2351.2 227.591 2350.14 227.591C2347.59 227.591 2345.32 228.125 2343.32 229.193C2341.34 230.239 2339.77 231.693 2338.61 233.557C2337.48 235.398 2336.91 237.5 2336.91 239.864V273H2328.86ZM2384.26 274.091C2379.53 274.091 2375.39 272.966 2371.82 270.716C2368.27 268.466 2365.5 265.318 2363.5 261.273C2361.52 257.227 2360.53 252.5 2360.53 247.091C2360.53 241.636 2361.52 236.875 2363.5 232.807C2365.5 228.739 2368.27 225.58 2371.82 223.33C2375.39 221.08 2379.53 219.955 2384.26 219.955C2388.99 219.955 2393.13 221.08 2396.67 223.33C2400.24 225.58 2403.01 228.739 2404.99 232.807C2406.99 236.875 2407.99 241.636 2407.99 247.091C2407.99 252.5 2406.99 257.227 2404.99 261.273C2403.01 265.318 2400.24 268.466 2396.67 270.716C2393.13 272.966 2388.99 274.091 2384.26 274.091ZM2384.26 266.864C2387.85 266.864 2390.81 265.943 2393.12 264.102C2395.44 262.261 2397.16 259.841 2398.27 256.841C2399.39 253.841 2399.94 250.591 2399.94 247.091C2399.94 243.591 2399.39 240.33 2398.27 237.307C2397.16 234.284 2395.44 231.841 2393.12 229.977C2390.81 228.114 2387.85 227.182 2384.26 227.182C2380.67 227.182 2377.72 228.114 2375.4 229.977C2373.08 231.841 2371.36 234.284 2370.25 237.307C2369.14 240.33 2368.58 243.591 2368.58 247.091C2368.58 250.591 2369.14 253.841 2370.25 256.841C2371.36 259.841 2373.08 262.261 2375.4 264.102C2377.72 265.943 2380.67 266.864 2384.26 266.864ZM2420.27 220.636H2428.32V276.818C2428.32 280.045 2427.76 282.841 2426.64 285.205C2425.55 287.568 2423.89 289.398 2421.67 290.693C2419.46 291.989 2416.68 292.636 2413.32 292.636C2413.04 292.636 2412.77 292.636 2412.5 292.636C2412.22 292.636 2411.95 292.636 2411.68 292.636V285.136C2411.95 285.136 2412.2 285.136 2412.43 285.136C2412.66 285.136 2412.91 285.136 2413.18 285.136C2415.63 285.136 2417.43 284.409 2418.57 282.955C2419.7 281.523 2420.27 279.477 2420.27 276.818V220.636ZM2424.22 211.909C2422.66 211.909 2421.3 211.375 2420.17 210.307C2419.05 209.239 2418.5 207.955 2418.5 206.455C2418.5 204.955 2419.05 203.67 2420.17 202.602C2421.3 201.534 2422.66 201 2424.22 201C2425.79 201 2427.13 201.534 2428.25 202.602C2429.38 203.67 2429.95 204.955 2429.95 206.455C2429.95 207.955 2429.38 209.239 2428.25 210.307C2427.13 211.375 2425.79 211.909 2424.22 211.909ZM2465.01 274.091C2459.96 274.091 2455.61 272.977 2451.95 270.75C2448.31 268.5 2445.51 265.364 2443.53 261.341C2441.57 257.295 2440.6 252.591 2440.6 247.227C2440.6 241.864 2441.57 237.136 2443.53 233.045C2445.51 228.932 2448.26 225.727 2451.78 223.432C2455.32 221.114 2459.46 219.955 2464.19 219.955C2466.91 219.955 2469.61 220.409 2472.27 221.318C2474.93 222.227 2477.35 223.705 2479.53 225.75C2481.71 227.773 2483.45 230.455 2484.74 233.795C2486.04 237.136 2486.69 241.25 2486.69 246.136V249.545H2446.32V242.591H2478.51C2478.51 239.636 2477.91 237 2476.73 234.682C2475.57 232.364 2473.91 230.534 2471.76 229.193C2469.62 227.852 2467.1 227.182 2464.19 227.182C2460.98 227.182 2458.21 227.977 2455.87 229.568C2453.55 231.136 2451.77 233.182 2450.52 235.705C2449.27 238.227 2448.64 240.932 2448.64 243.818V248.455C2448.64 252.409 2449.32 255.761 2450.69 258.511C2452.07 261.239 2453.99 263.318 2456.45 264.75C2458.9 266.159 2461.76 266.864 2465.01 266.864C2467.12 266.864 2469.03 266.568 2470.73 265.977C2472.46 265.364 2473.95 264.455 2475.2 263.25C2476.45 262.023 2477.41 260.5 2478.1 258.682L2485.87 260.864C2485.05 263.5 2483.68 265.818 2481.74 267.818C2479.81 269.795 2477.43 271.341 2474.59 272.455C2471.74 273.545 2468.55 274.091 2465.01 274.091ZM2520.2 274.091C2515.29 274.091 2511.06 272.932 2507.52 270.614C2503.97 268.295 2501.24 265.102 2499.34 261.034C2497.43 256.966 2496.47 252.318 2496.47 247.091C2496.47 241.773 2497.45 237.08 2499.4 233.011C2501.38 228.92 2504.13 225.727 2507.65 223.432C2511.2 221.114 2515.34 219.955 2520.06 219.955C2523.74 219.955 2527.06 220.636 2530.02 222C2532.97 223.364 2535.39 225.273 2537.28 227.727C2539.16 230.182 2540.34 233.045 2540.79 236.318H2532.74C2532.13 233.932 2530.77 231.818 2528.65 229.977C2526.56 228.114 2523.74 227.182 2520.2 227.182C2517.06 227.182 2514.31 228 2511.95 229.636C2509.61 231.25 2507.78 233.534 2506.46 236.489C2505.16 239.42 2504.52 242.864 2504.52 246.818C2504.52 250.864 2505.15 254.386 2506.43 257.386C2507.72 260.386 2509.54 262.716 2511.88 264.375C2514.24 266.034 2517.02 266.864 2520.2 266.864C2522.29 266.864 2524.19 266.5 2525.89 265.773C2527.6 265.045 2529.04 264 2530.22 262.636C2531.4 261.273 2532.24 259.636 2532.74 257.727H2540.79C2540.34 260.818 2539.21 263.602 2537.41 266.08C2535.64 268.534 2533.29 270.489 2530.36 271.943C2527.45 273.375 2524.06 274.091 2520.2 274.091ZM2575.32 220.636V227.455H2548.19V220.636H2575.32ZM2556.1 208.091H2564.14V258C2564.14 260.273 2564.47 261.977 2565.13 263.114C2565.81 264.227 2566.68 264.977 2567.72 265.364C2568.79 265.727 2569.91 265.909 2571.1 265.909C2571.98 265.909 2572.71 265.864 2573.28 265.773C2573.85 265.659 2574.3 265.568 2574.64 265.5L2576.28 272.727C2575.73 272.932 2574.97 273.136 2573.99 273.341C2573.02 273.568 2571.78 273.682 2570.28 273.682C2568.01 273.682 2565.78 273.193 2563.6 272.216C2561.44 271.239 2559.64 269.75 2558.21 267.75C2556.8 265.75 2556.1 263.227 2556.1 260.182V208.091ZM2623.58 232.364L2616.35 234.409C2615.9 233.205 2615.23 232.034 2614.34 230.898C2613.48 229.739 2612.3 228.784 2610.8 228.034C2609.3 227.284 2607.38 226.909 2605.03 226.909C2601.83 226.909 2599.16 227.648 2597.02 229.125C2594.91 230.58 2593.85 232.432 2593.85 234.682C2593.85 236.682 2594.58 238.261 2596.03 239.42C2597.49 240.58 2599.76 241.545 2602.85 242.318L2610.62 244.227C2615.31 245.364 2618.8 247.102 2621.09 249.443C2623.39 251.761 2624.53 254.75 2624.53 258.409C2624.53 261.409 2623.67 264.091 2621.94 266.455C2620.24 268.818 2617.85 270.682 2614.78 272.045C2611.72 273.409 2608.15 274.091 2604.08 274.091C2598.74 274.091 2594.32 272.932 2590.82 270.614C2587.32 268.295 2585.1 264.909 2584.17 260.455L2591.81 258.545C2592.53 261.364 2593.91 263.477 2595.93 264.886C2597.98 266.295 2600.65 267 2603.94 267C2607.69 267 2610.67 266.205 2612.88 264.614C2615.1 263 2616.22 261.068 2616.22 258.818C2616.22 257 2615.58 255.477 2614.31 254.25C2613.03 253 2611.08 252.068 2608.44 251.455L2599.72 249.409C2594.92 248.273 2591.4 246.511 2589.15 244.125C2586.92 241.716 2585.81 238.705 2585.81 235.091C2585.81 232.136 2586.64 229.523 2588.3 227.25C2589.98 224.977 2592.26 223.193 2595.15 221.898C2598.06 220.602 2601.35 219.955 2605.03 219.955C2610.22 219.955 2614.28 221.091 2617.24 223.364C2620.22 225.636 2622.33 228.636 2623.58 232.364Z" fill="white"/>
<path d="M2293.14 580.636V587.455H2266V580.636H2293.14ZM2273.91 568.091H2281.95V618C2281.95 620.273 2282.28 621.977 2282.94 623.114C2283.63 624.227 2284.49 624.977 2285.53 625.364C2286.6 625.727 2287.73 625.909 2288.91 625.909C2289.8 625.909 2290.52 625.864 2291.09 625.773C2291.66 625.659 2292.11 625.568 2292.45 625.5L2294.09 632.727C2293.55 632.932 2292.78 633.136 2291.81 633.341C2290.83 633.568 2289.59 633.682 2288.09 633.682C2285.82 633.682 2283.59 633.193 2281.41 632.216C2279.25 631.239 2277.45 629.75 2276.02 627.75C2274.61 625.75 2273.91 623.227 2273.91 620.182V568.091ZM2325.95 634.091C2321.22 634.091 2317.07 632.966 2313.51 630.716C2309.96 628.466 2307.19 625.318 2305.19 621.273C2303.21 617.227 2302.22 612.5 2302.22 607.091C2302.22 601.636 2303.21 596.875 2305.19 592.807C2307.19 588.739 2309.96 585.58 2313.51 583.33C2317.07 581.08 2321.22 579.955 2325.95 579.955C2330.68 579.955 2334.81 581.08 2338.36 583.33C2341.93 585.58 2344.7 588.739 2346.68 592.807C2348.68 596.875 2349.68 601.636 2349.68 607.091C2349.68 612.5 2348.68 617.227 2346.68 621.273C2344.7 625.318 2341.93 628.466 2338.36 630.716C2334.81 632.966 2330.68 634.091 2325.95 634.091ZM2325.95 626.864C2329.54 626.864 2332.49 625.943 2334.81 624.102C2337.13 622.261 2338.85 619.841 2339.96 616.841C2341.07 613.841 2341.63 610.591 2341.63 607.091C2341.63 603.591 2341.07 600.33 2339.96 597.307C2338.85 594.284 2337.13 591.841 2334.81 589.977C2332.49 588.114 2329.54 587.182 2325.95 587.182C2322.36 587.182 2319.4 588.114 2317.09 589.977C2314.77 591.841 2313.05 594.284 2311.94 597.307C2310.82 600.33 2310.27 603.591 2310.27 607.091C2310.27 610.591 2310.82 613.841 2311.94 616.841C2313.05 619.841 2314.77 622.261 2317.09 624.102C2319.4 625.943 2322.36 626.864 2325.95 626.864ZM2381.73 634.091C2377.37 634.091 2373.51 632.989 2370.17 630.784C2366.83 628.557 2364.22 625.42 2362.33 621.375C2360.45 617.307 2359.5 612.5 2359.5 606.955C2359.5 601.455 2360.45 596.682 2362.33 592.636C2364.22 588.591 2366.84 585.466 2370.21 583.261C2373.57 581.057 2377.46 579.955 2381.87 579.955C2385.28 579.955 2387.97 580.523 2389.95 581.659C2391.95 582.773 2393.47 584.045 2394.51 585.477C2395.58 586.886 2396.41 588.045 2397 588.955H2397.68V563.182H2405.73V633H2397.96V624.955H2397C2396.41 625.909 2395.57 627.114 2394.48 628.568C2393.39 630 2391.83 631.284 2389.81 632.42C2387.79 633.534 2385.09 634.091 2381.73 634.091ZM2382.82 626.864C2386.05 626.864 2388.78 626.023 2391 624.341C2393.23 622.636 2394.92 620.284 2396.08 617.284C2397.24 614.261 2397.82 610.773 2397.82 606.818C2397.82 602.909 2397.25 599.489 2396.12 596.557C2394.98 593.602 2393.3 591.307 2391.07 589.67C2388.84 588.011 2386.09 587.182 2382.82 587.182C2379.41 587.182 2376.57 588.057 2374.3 589.807C2372.05 591.534 2370.36 593.886 2369.22 596.864C2368.11 599.818 2367.55 603.136 2367.55 606.818C2367.55 610.545 2368.12 613.932 2369.25 616.977C2370.41 620 2372.12 622.409 2374.37 624.205C2376.64 625.977 2379.46 626.864 2382.82 626.864ZM2442.86 634.091C2438.13 634.091 2433.98 632.966 2430.41 630.716C2426.87 628.466 2424.09 625.318 2422.09 621.273C2420.12 617.227 2419.13 612.5 2419.13 607.091C2419.13 601.636 2420.12 596.875 2422.09 592.807C2424.09 588.739 2426.87 585.58 2430.41 583.33C2433.98 581.08 2438.13 579.955 2442.86 579.955C2447.58 579.955 2451.72 581.08 2455.26 583.33C2458.83 585.58 2461.61 588.739 2463.58 592.807C2465.58 596.875 2466.58 601.636 2466.58 607.091C2466.58 612.5 2465.58 617.227 2463.58 621.273C2461.61 625.318 2458.83 628.466 2455.26 630.716C2451.72 632.966 2447.58 634.091 2442.86 634.091ZM2442.86 626.864C2446.45 626.864 2449.4 625.943 2451.72 624.102C2454.04 622.261 2455.75 619.841 2456.87 616.841C2457.98 613.841 2458.54 610.591 2458.54 607.091C2458.54 603.591 2457.98 600.33 2456.87 597.307C2455.75 594.284 2454.04 591.841 2451.72 589.977C2449.4 588.114 2446.45 587.182 2442.86 587.182C2439.26 587.182 2436.31 588.114 2433.99 589.977C2431.67 591.841 2429.96 594.284 2428.84 597.307C2427.73 600.33 2427.17 603.591 2427.17 607.091C2427.17 610.591 2427.73 613.841 2428.84 616.841C2429.96 619.841 2431.67 622.261 2433.99 624.102C2436.31 625.943 2439.26 626.864 2442.86 626.864ZM2515.95 592.364L2508.73 594.409C2508.27 593.205 2507.6 592.034 2506.72 590.898C2505.85 589.739 2504.67 588.784 2503.17 588.034C2501.67 587.284 2499.75 586.909 2497.41 586.909C2494.2 586.909 2491.53 587.648 2489.4 589.125C2487.28 590.58 2486.23 592.432 2486.23 594.682C2486.23 596.682 2486.95 598.261 2488.41 599.42C2489.86 600.58 2492.14 601.545 2495.23 602.318L2503 604.227C2507.68 605.364 2511.17 607.102 2513.47 609.443C2515.76 611.761 2516.91 614.75 2516.91 618.409C2516.91 621.409 2516.05 624.091 2514.32 626.455C2512.61 628.818 2510.23 630.682 2507.16 632.045C2504.09 633.409 2500.52 634.091 2496.45 634.091C2491.11 634.091 2486.69 632.932 2483.19 630.614C2479.69 628.295 2477.48 624.909 2476.55 620.455L2484.18 618.545C2484.91 621.364 2486.28 623.477 2488.31 624.886C2490.35 626.295 2493.02 627 2496.32 627C2500.07 627 2503.05 626.205 2505.25 624.614C2507.48 623 2508.59 621.068 2508.59 618.818C2508.59 617 2507.95 615.477 2506.68 614.25C2505.41 613 2503.45 612.068 2500.82 611.455L2492.09 609.409C2487.3 608.273 2483.77 606.511 2481.52 604.125C2479.3 601.716 2478.18 598.705 2478.18 595.091C2478.18 592.136 2479.01 589.523 2480.67 587.25C2482.35 584.977 2484.64 583.193 2487.52 581.898C2490.43 580.602 2493.73 579.955 2497.41 579.955C2502.59 579.955 2506.66 581.091 2509.61 583.364C2512.59 585.636 2514.7 588.636 2515.95 592.364Z" fill="white"/>
<path d="M1988.14 634.091C1983.77 634.091 1979.92 632.989 1976.58 630.784C1973.24 628.557 1970.63 625.42 1968.74 621.375C1966.85 617.307 1965.91 612.5 1965.91 606.955C1965.91 601.455 1966.85 596.682 1968.74 592.636C1970.63 588.591 1973.25 585.466 1976.61 583.261C1979.98 581.057 1983.86 579.955 1988.27 579.955C1991.68 579.955 1994.38 580.523 1996.35 581.659C1998.35 582.773 1999.88 584.045 2000.92 585.477C2001.99 586.886 2002.82 588.045 2003.41 588.955H2004.09V563.182H2012.14V633H2004.36V624.955H2003.41C2002.82 625.909 2001.98 627.114 2000.89 628.568C1999.8 630 1998.24 631.284 1996.22 632.42C1994.19 633.534 1991.5 634.091 1988.14 634.091ZM1989.23 626.864C1992.45 626.864 1995.18 626.023 1997.41 624.341C1999.64 622.636 2001.33 620.284 2002.49 617.284C2003.65 614.261 2004.23 610.773 2004.23 606.818C2004.23 602.909 2003.66 599.489 2002.52 596.557C2001.39 593.602 1999.7 591.307 1997.48 589.67C1995.25 588.011 1992.5 587.182 1989.23 587.182C1985.82 587.182 1982.98 588.057 1980.7 589.807C1978.45 591.534 1976.76 593.886 1975.62 596.864C1974.51 599.818 1973.95 603.136 1973.95 606.818C1973.95 610.545 1974.52 613.932 1975.66 616.977C1976.82 620 1978.52 622.409 1980.77 624.205C1983.05 625.977 1985.86 626.864 1989.23 626.864ZM2029.08 633V563.182H2037.12V588.955H2037.81C2038.4 588.045 2039.22 586.886 2040.26 585.477C2041.33 584.045 2042.85 582.773 2044.83 581.659C2046.83 580.523 2049.53 579.955 2052.94 579.955C2057.35 579.955 2061.24 581.057 2064.6 583.261C2067.97 585.466 2070.59 588.591 2072.48 592.636C2074.36 596.682 2075.31 601.455 2075.31 606.955C2075.31 612.5 2074.36 617.307 2072.48 621.375C2070.59 625.42 2067.98 628.557 2064.64 630.784C2061.3 632.989 2057.44 634.091 2053.08 634.091C2049.72 634.091 2047.02 633.534 2045 632.42C2042.98 631.284 2041.42 630 2040.33 628.568C2039.24 627.114 2038.4 625.909 2037.81 624.955H2036.85V633H2029.08ZM2036.99 606.818C2036.99 610.773 2037.57 614.261 2038.73 617.284C2039.89 620.284 2041.58 622.636 2043.81 624.341C2046.03 626.023 2048.76 626.864 2051.99 626.864C2055.35 626.864 2058.16 625.977 2060.41 624.205C2062.68 622.409 2064.39 620 2065.52 616.977C2066.68 613.932 2067.26 610.545 2067.26 606.818C2067.26 603.136 2066.69 599.818 2065.56 596.864C2064.44 593.886 2062.75 591.534 2060.48 589.807C2058.23 588.057 2055.4 587.182 2051.99 587.182C2048.72 587.182 2045.97 588.011 2043.74 589.67C2041.51 591.307 2039.83 593.602 2038.69 596.557C2037.56 599.489 2036.99 602.909 2036.99 606.818Z" fill="white"/>
<path d="M2270.36 993V940.636H2278.14V948.545H2278.68C2279.64 945.955 2281.36 943.852 2283.86 942.239C2286.36 940.625 2289.18 939.818 2292.32 939.818C2292.91 939.818 2293.65 939.83 2294.53 939.852C2295.42 939.875 2296.09 939.909 2296.55 939.955V948.136C2296.27 948.068 2295.65 947.966 2294.67 947.83C2293.72 947.67 2292.7 947.591 2291.64 947.591C2289.09 947.591 2286.82 948.125 2284.82 949.193C2282.84 950.239 2281.27 951.693 2280.11 953.557C2278.98 955.398 2278.41 957.5 2278.41 959.864V993H2270.36ZM2326.44 994.091C2321.4 994.091 2317.05 992.977 2313.39 990.75C2309.75 988.5 2306.94 985.364 2304.97 981.341C2303.01 977.295 2302.03 972.591 2302.03 967.227C2302.03 961.864 2303.01 957.136 2304.97 953.045C2306.94 948.932 2309.69 945.727 2313.22 943.432C2316.76 941.114 2320.9 939.955 2325.62 939.955C2328.35 939.955 2331.05 940.409 2333.7 941.318C2336.36 942.227 2338.78 943.705 2340.97 945.75C2343.15 947.773 2344.89 950.455 2346.18 953.795C2347.48 957.136 2348.12 961.25 2348.12 966.136V969.545H2307.76V962.591H2339.94C2339.94 959.636 2339.35 957 2338.17 954.682C2337.01 952.364 2335.35 950.534 2333.19 949.193C2331.06 947.852 2328.53 947.182 2325.62 947.182C2322.42 947.182 2319.65 947.977 2317.31 949.568C2314.99 951.136 2313.2 953.182 2311.95 955.705C2310.7 958.227 2310.08 960.932 2310.08 963.818V968.455C2310.08 972.409 2310.76 975.761 2312.12 978.511C2313.51 981.239 2315.43 983.318 2317.89 984.75C2320.34 986.159 2323.19 986.864 2326.44 986.864C2328.56 986.864 2330.47 986.568 2332.17 985.977C2333.9 985.364 2335.39 984.455 2336.64 983.25C2337.89 982.023 2338.85 980.5 2339.53 978.682L2347.31 980.864C2346.49 983.5 2345.11 985.818 2343.18 987.818C2341.25 989.795 2338.86 991.341 2336.02 992.455C2333.18 993.545 2329.99 994.091 2326.44 994.091ZM2381.64 994.091C2376.73 994.091 2372.5 992.932 2368.95 990.614C2365.41 988.295 2362.68 985.102 2360.77 981.034C2358.86 976.966 2357.91 972.318 2357.91 967.091C2357.91 961.773 2358.89 957.08 2360.84 953.011C2362.82 948.92 2365.57 945.727 2369.09 943.432C2372.64 941.114 2376.77 939.955 2381.5 939.955C2385.18 939.955 2388.5 940.636 2391.45 942C2394.41 943.364 2396.83 945.273 2398.72 947.727C2400.6 950.182 2401.77 953.045 2402.23 956.318H2394.18C2393.57 953.932 2392.2 951.818 2390.09 949.977C2388 948.114 2385.18 947.182 2381.64 947.182C2378.5 947.182 2375.75 948 2373.39 949.636C2371.05 951.25 2369.22 953.534 2367.9 956.489C2366.6 959.42 2365.95 962.864 2365.95 966.818C2365.95 970.864 2366.59 974.386 2367.86 977.386C2369.16 980.386 2370.98 982.716 2373.32 984.375C2375.68 986.034 2378.45 986.864 2381.64 986.864C2383.73 986.864 2385.62 986.5 2387.33 985.773C2389.03 985.045 2390.48 984 2391.66 982.636C2392.84 981.273 2393.68 979.636 2394.18 977.727H2402.23C2401.77 980.818 2400.65 983.602 2398.85 986.08C2397.08 988.534 2394.73 990.489 2391.8 991.943C2388.89 993.375 2385.5 994.091 2381.64 994.091ZM2435.26 994.091C2430.53 994.091 2426.39 992.966 2422.82 990.716C2419.27 988.466 2416.5 985.318 2414.5 981.273C2412.52 977.227 2411.53 972.5 2411.53 967.091C2411.53 961.636 2412.52 956.875 2414.5 952.807C2416.5 948.739 2419.27 945.58 2422.82 943.33C2426.39 941.08 2430.53 939.955 2435.26 939.955C2439.99 939.955 2444.13 941.08 2447.67 943.33C2451.24 945.58 2454.01 948.739 2455.99 952.807C2457.99 956.875 2458.99 961.636 2458.99 967.091C2458.99 972.5 2457.99 977.227 2455.99 981.273C2454.01 985.318 2451.24 988.466 2447.67 990.716C2444.13 992.966 2439.99 994.091 2435.26 994.091ZM2435.26 986.864C2438.85 986.864 2441.81 985.943 2444.12 984.102C2446.44 982.261 2448.16 979.841 2449.27 976.841C2450.39 973.841 2450.94 970.591 2450.94 967.091C2450.94 963.591 2450.39 960.33 2449.27 957.307C2448.16 954.284 2446.44 951.841 2444.12 949.977C2441.81 948.114 2438.85 947.182 2435.26 947.182C2431.67 947.182 2428.72 948.114 2426.4 949.977C2424.08 951.841 2422.36 954.284 2421.25 957.307C2420.14 960.33 2419.58 963.591 2419.58 967.091C2419.58 970.591 2420.14 973.841 2421.25 976.841C2422.36 979.841 2424.08 982.261 2426.4 984.102C2428.72 985.943 2431.67 986.864 2435.26 986.864ZM2471.27 993V940.636H2479.04V948.545H2479.59C2480.54 945.955 2482.27 943.852 2484.77 942.239C2487.27 940.625 2490.09 939.818 2493.22 939.818C2493.82 939.818 2494.55 939.83 2495.44 939.852C2496.33 939.875 2497 939.909 2497.45 939.955V948.136C2497.18 948.068 2496.55 947.966 2495.58 947.83C2494.62 947.67 2493.61 947.591 2492.54 947.591C2490 947.591 2487.72 948.125 2485.72 949.193C2483.75 950.239 2482.18 951.693 2481.02 953.557C2479.88 955.398 2479.32 957.5 2479.32 959.864V993H2471.27ZM2525.17 994.091C2520.8 994.091 2516.95 992.989 2513.61 990.784C2510.27 988.557 2507.66 985.42 2505.77 981.375C2503.88 977.307 2502.94 972.5 2502.94 966.955C2502.94 961.455 2503.88 956.682 2505.77 952.636C2507.66 948.591 2510.28 945.466 2513.64 943.261C2517.01 941.057 2520.89 939.955 2525.3 939.955C2528.71 939.955 2531.41 940.523 2533.38 941.659C2535.38 942.773 2536.91 944.045 2537.95 945.477C2539.02 946.886 2539.85 948.045 2540.44 948.955H2541.12V923.182H2549.17V993H2541.39V984.955H2540.44C2539.85 985.909 2539.01 987.114 2537.92 988.568C2536.83 990 2535.27 991.284 2533.25 992.42C2531.22 993.534 2528.53 994.091 2525.17 994.091ZM2526.26 986.864C2529.49 986.864 2532.21 986.023 2534.44 984.341C2536.67 982.636 2538.36 980.284 2539.52 977.284C2540.68 974.261 2541.26 970.773 2541.26 966.818C2541.26 962.909 2540.69 959.489 2539.55 956.557C2538.42 953.602 2536.74 951.307 2534.51 949.67C2532.28 948.011 2529.53 947.182 2526.26 947.182C2522.85 947.182 2520.01 948.057 2517.74 949.807C2515.49 951.534 2513.79 953.886 2512.66 956.864C2511.54 959.818 2510.99 963.136 2510.99 966.818C2510.99 970.545 2511.55 973.932 2512.69 976.977C2513.85 980 2515.55 982.409 2517.8 984.205C2520.08 985.977 2522.89 986.864 2526.26 986.864ZM2602.11 952.364L2594.88 954.409C2594.43 953.205 2593.76 952.034 2592.87 950.898C2592.01 949.739 2590.83 948.784 2589.33 948.034C2587.83 947.284 2585.91 946.909 2583.57 946.909C2580.36 946.909 2577.69 947.648 2575.55 949.125C2573.44 950.58 2572.38 952.432 2572.38 954.682C2572.38 956.682 2573.11 958.261 2574.57 959.42C2576.02 960.58 2578.29 961.545 2581.38 962.318L2589.16 964.227C2593.84 965.364 2597.33 967.102 2599.62 969.443C2601.92 971.761 2603.07 974.75 2603.07 978.409C2603.07 981.409 2602.2 984.091 2600.47 986.455C2598.77 988.818 2596.38 990.682 2593.32 992.045C2590.25 993.409 2586.68 994.091 2582.61 994.091C2577.27 994.091 2572.85 992.932 2569.35 990.614C2565.85 988.295 2563.63 984.909 2562.7 980.455L2570.34 978.545C2571.07 981.364 2572.44 983.477 2574.46 984.886C2576.51 986.295 2579.18 987 2582.47 987C2586.22 987 2589.2 986.205 2591.41 984.614C2593.63 983 2594.75 981.068 2594.75 978.818C2594.75 977 2594.11 975.477 2592.84 974.25C2591.57 973 2589.61 972.068 2586.97 971.455L2578.25 969.409C2573.45 968.273 2569.93 966.511 2567.68 964.125C2565.45 961.716 2564.34 958.705 2564.34 955.091C2564.34 952.136 2565.17 949.523 2566.83 947.25C2568.51 944.977 2570.79 943.193 2573.68 941.898C2576.59 940.602 2579.88 939.955 2583.57 939.955C2588.75 939.955 2592.82 941.091 2595.77 943.364C2598.75 945.636 2600.86 948.636 2602.11 952.364Z" fill="white"/>
<path d="M559 598C719 598 783 598 943 598" stroke="white" stroke-width="16"/>
</svg>
