<svg width="610" height="296" viewBox="0 0 610 296" fill="none" xmlns="http://www.w3.org/2000/svg">
  <!-- Deployment -->
  <path d="M93 30H89.4091V18.3636H93.1591C94.2879 18.3636 95.2538 18.5966 96.0568 19.0625C96.8598 19.5246 97.4754 20.1894 97.9034 21.0568C98.3314 21.9205 98.5455 22.9545 98.5455 24.1591C98.5455 25.3712 98.3295 26.4148 97.8977 27.2898C97.4659 28.161 96.8371 28.8314 96.0114 29.3011C95.1856 29.767 94.1818 30 93 30ZM90.8182 28.75H92.9091C93.8712 28.75 94.6686 28.5644 95.3011 28.1932C95.9337 27.822 96.4053 27.2936 96.7159 26.608C97.0265 25.9223 97.1818 25.1061 97.1818 24.1591C97.1818 23.2197 97.0284 22.411 96.7216 21.733C96.4148 21.0511 95.9564 20.5284 95.3466 20.1648C94.7367 19.7973 93.9773 19.6136 93.0682 19.6136H90.8182V28.75ZM104.386 30.1818C103.545 30.1818 102.82 29.9962 102.21 29.625C101.604 29.25 101.136 28.7273 100.807 28.0568C100.481 27.3826 100.318 26.5985 100.318 25.7045C100.318 24.8106 100.481 24.0227 100.807 23.3409C101.136 22.6553 101.595 22.1212 102.182 21.7386C102.773 21.3523 103.462 21.1591 104.25 21.1591C104.705 21.1591 105.153 21.2348 105.597 21.3864C106.04 21.5379 106.443 21.7841 106.807 22.125C107.17 22.4621 107.46 22.9091 107.676 23.4659C107.892 24.0227 108 24.7083 108 25.5227V26.0909H101.273V24.9318H106.636C106.636 24.4394 106.538 24 106.341 23.6136C106.148 23.2273 105.871 22.9223 105.511 22.6989C105.155 22.4754 104.735 22.3636 104.25 22.3636C103.716 22.3636 103.254 22.4962 102.864 22.7614C102.477 23.0227 102.18 23.3636 101.972 23.7841C101.763 24.2045 101.659 24.6553 101.659 25.1364V25.9091C101.659 26.5682 101.773 27.1269 102 27.5852C102.231 28.0398 102.551 28.3864 102.96 28.625C103.369 28.8598 103.845 28.9773 104.386 28.9773C104.739 28.9773 105.057 28.928 105.341 28.8295C105.629 28.7273 105.877 28.5758 106.085 28.375C106.294 28.1705 106.455 27.9167 106.568 27.6136L107.864 27.9773C107.727 28.4167 107.498 28.803 107.176 29.1364C106.854 29.4659 106.456 29.7235 105.983 29.9091C105.509 30.0909 104.977 30.1818 104.386 30.1818ZM110.04 33.2727V21.2727H111.335V22.6591H111.494C111.593 22.5076 111.729 22.3144 111.903 22.0795C112.081 21.8409 112.335 21.6288 112.665 21.4432C112.998 21.2538 113.449 21.1591 114.017 21.1591C114.752 21.1591 115.4 21.3428 115.96 21.7102C116.521 22.0777 116.958 22.5985 117.273 23.2727C117.587 23.947 117.744 24.7424 117.744 25.6591C117.744 26.5833 117.587 27.3845 117.273 28.0625C116.958 28.7367 116.523 29.2595 115.966 29.6307C115.409 29.9981 114.767 30.1818 114.04 30.1818C113.479 30.1818 113.03 30.089 112.693 29.9034C112.356 29.714 112.097 29.5 111.915 29.2614C111.733 29.0189 111.593 28.8182 111.494 28.6591H111.381V33.2727H110.04ZM111.358 25.6364C111.358 26.2955 111.455 26.8769 111.648 27.3807C111.841 27.8807 112.123 28.2727 112.494 28.5568C112.866 28.8371 113.32 28.9773 113.858 28.9773C114.419 28.9773 114.886 28.8295 115.261 28.5341C115.64 28.2348 115.924 27.8333 116.114 27.3295C116.307 26.822 116.403 26.2576 116.403 25.6364C116.403 25.0227 116.309 24.4697 116.119 23.9773C115.934 23.4811 115.652 23.089 115.273 22.8011C114.898 22.5095 114.426 22.3636 113.858 22.3636C113.313 22.3636 112.854 22.5019 112.483 22.7784C112.112 23.0511 111.831 23.4337 111.642 23.9261C111.453 24.4148 111.358 24.9848 111.358 25.6364ZM121.131 18.3636V30H119.79V18.3636H121.131ZM127.132 30.1818C126.344 30.1818 125.653 29.9943 125.058 29.6193C124.467 29.2443 124.005 28.7197 123.672 28.0455C123.342 27.3712 123.178 26.5833 123.178 25.6818C123.178 24.7727 123.342 23.9792 123.672 23.3011C124.005 22.6231 124.467 22.0966 125.058 21.7216C125.653 21.3466 126.344 21.1591 127.132 21.1591C127.92 21.1591 128.609 21.3466 129.2 21.7216C129.795 22.0966 130.257 22.6231 130.587 23.3011C130.92 23.9792 131.087 24.7727 131.087 25.6818C131.087 26.5833 130.92 27.3712 130.587 28.0455C130.257 28.7197 129.795 29.2443 129.2 29.6193C128.609 29.9943 127.92 30.1818 127.132 30.1818ZM127.132 28.9773C127.731 28.9773 128.223 28.8239 128.609 28.517C128.996 28.2102 129.282 27.8068 129.467 27.3068C129.653 26.8068 129.746 26.2652 129.746 25.6818C129.746 25.0985 129.653 24.5549 129.467 24.0511C129.282 23.5473 128.996 23.1402 128.609 22.8295C128.223 22.5189 127.731 22.3636 127.132 22.3636C126.534 22.3636 126.041 22.5189 125.655 22.8295C125.268 23.1402 124.982 23.5473 124.797 24.0511C124.611 24.5549 124.518 25.0985 124.518 25.6818C124.518 26.2652 124.611 26.8068 124.797 27.3068C124.982 27.8068 125.268 28.2102 125.655 28.517C126.041 28.8239 126.534 28.9773 127.132 28.9773ZM133.685 33.2727C133.457 33.2727 133.255 33.2538 133.077 33.2159C132.899 33.1818 132.776 33.1477 132.707 33.1136L133.048 31.9318C133.374 32.0152 133.662 32.0455 133.912 32.0227C134.162 32 134.384 31.8883 134.577 31.6875C134.774 31.4905 134.954 31.1705 135.116 30.7273L135.366 30.0455L132.139 21.2727H133.594L136.003 28.2273H136.094L138.503 21.2727H139.957L136.253 31.2727C136.086 31.7235 135.88 32.0966 135.634 32.392C135.387 32.6913 135.101 32.9129 134.776 33.0568C134.454 33.2008 134.09 33.2727 133.685 33.2727ZM141.727 30V21.2727H143.023V22.6364H143.136C143.318 22.1705 143.612 21.8087 144.017 21.5511C144.422 21.2898 144.909 21.1591 145.477 21.1591C146.053 21.1591 146.532 21.2898 146.915 21.5511C147.301 21.8087 147.602 22.1705 147.818 22.6364H147.909C148.133 22.1856 148.468 21.8277 148.915 21.5625C149.362 21.2936 149.898 21.1591 150.523 21.1591C151.303 21.1591 151.941 21.4034 152.438 21.892C152.934 22.3769 153.182 23.1326 153.182 24.1591V30H151.841V24.1591C151.841 23.5152 151.665 23.0549 151.312 22.7784C150.96 22.5019 150.545 22.3636 150.068 22.3636C149.455 22.3636 148.979 22.5492 148.642 22.9205C148.305 23.2879 148.136 23.7538 148.136 24.3182V30H146.773V24.0227C146.773 23.5265 146.612 23.1269 146.29 22.8239C145.968 22.517 145.553 22.3636 145.045 22.3636C144.697 22.3636 144.371 22.4564 144.068 22.642C143.769 22.8277 143.527 23.0852 143.341 23.4148C143.159 23.7405 143.068 24.1174 143.068 24.5455V30H141.727ZM159.293 30.1818C158.452 30.1818 157.726 29.9962 157.116 29.625C156.51 29.25 156.043 28.7273 155.713 28.0568C155.387 27.3826 155.224 26.5985 155.224 25.7045C155.224 24.8106 155.387 24.0227 155.713 23.3409C156.043 22.6553 156.501 22.1212 157.088 21.7386C157.679 21.3523 158.368 21.1591 159.156 21.1591C159.611 21.1591 160.06 21.2348 160.503 21.3864C160.946 21.5379 161.349 21.7841 161.713 22.125C162.077 22.4621 162.366 22.9091 162.582 23.4659C162.798 24.0227 162.906 24.7083 162.906 25.5227V26.0909H156.179V24.9318H161.543C161.543 24.4394 161.444 24 161.247 23.6136C161.054 23.2273 160.777 22.9223 160.418 22.6989C160.062 22.4754 159.641 22.3636 159.156 22.3636C158.622 22.3636 158.16 22.4962 157.77 22.7614C157.384 23.0227 157.086 23.3636 156.878 23.7841C156.67 24.2045 156.565 24.6553 156.565 25.1364V25.9091C156.565 26.5682 156.679 27.1269 156.906 27.5852C157.137 28.0398 157.457 28.3864 157.866 28.625C158.276 28.8598 158.751 28.9773 159.293 28.9773C159.645 28.9773 159.963 28.928 160.247 28.8295C160.535 28.7273 160.783 28.5758 160.991 28.375C161.2 28.1705 161.361 27.9167 161.474 27.6136L162.77 27.9773C162.634 28.4167 162.404 28.803 162.082 29.1364C161.76 29.4659 161.363 29.7235 160.889 29.9091C160.416 30.0909 159.884 30.1818 159.293 30.1818ZM166.287 24.75V30H164.946V21.2727H166.241V22.6364H166.355C166.56 22.1932 166.87 21.8371 167.287 21.5682C167.704 21.2955 168.241 21.1591 168.901 21.1591C169.491 21.1591 170.009 21.2803 170.452 21.5227C170.895 21.7614 171.24 22.125 171.486 22.6136C171.732 23.0985 171.855 23.7121 171.855 24.4545V30H170.514V24.5455C170.514 23.8598 170.336 23.3258 169.98 22.9432C169.624 22.5568 169.135 22.3636 168.514 22.3636C168.086 22.3636 167.704 22.4564 167.366 22.642C167.033 22.8277 166.77 23.0985 166.577 23.4545C166.384 23.8106 166.287 24.2424 166.287 24.75ZM178.101 21.2727V22.4091H173.578V21.2727H178.101ZM174.896 19.1818H176.237V27.5C176.237 27.8788 176.292 28.1629 176.402 28.3523C176.516 28.5379 176.66 28.6629 176.834 28.7273C177.012 28.7879 177.199 28.8182 177.396 28.8182C177.544 28.8182 177.665 28.8106 177.76 28.7955C177.855 28.7765 177.93 28.7614 177.987 28.75L178.26 29.9545C178.169 29.9886 178.042 30.0227 177.879 30.0568C177.716 30.0947 177.51 30.1136 177.26 30.1136C176.881 30.1136 176.51 30.0322 176.146 29.8693C175.786 29.7064 175.487 29.4583 175.249 29.125C175.014 28.7917 174.896 28.3712 174.896 27.8636V19.1818Z" fill="black"/>
  <g clip-path="url(#clip2_365_4607)">
  <path d="M54.8427 1.27061C54.4407 1.29148 54.0469 1.39419 53.6843 1.57272L37.8765 9.35671C37.4674 9.55807 37.1079 9.85107 36.8247 10.2139C36.5416 10.5768 36.342 11.0002 36.241 11.4527L32.3411 28.9375C32.251 29.3404 32.2409 29.7576 32.3114 30.1645C32.3819 30.5714 32.5316 30.9597 32.7515 31.3065C32.8048 31.3912 32.8622 31.4733 32.9233 31.5523L43.8648 45.5722C44.148 45.935 44.5076 46.2279 44.9167 46.4292C45.3259 46.6305 45.7741 46.7349 46.2282 46.7348L63.7746 46.7307C64.2285 46.731 64.6767 46.6269 65.0858 46.426C65.4949 46.2251 65.8546 45.9326 66.138 45.5702L77.0754 31.5482C77.3588 31.1852 77.5585 30.7616 77.6596 30.3089C77.7608 29.8562 77.7608 29.3861 77.6597 28.9334L73.7538 11.4485C73.6527 10.996 73.4531 10.5726 73.17 10.2098C72.8868 9.8469 72.5273 9.5539 72.1182 9.35254L56.3084 1.57272C55.8523 1.34814 55.3483 1.24426 54.8427 1.27061Z" fill="#326CE5"/>
  <path d="M54.8336 0.00430642C54.4098 0.0271875 53.9946 0.13627 53.6125 0.325167L36.9233 8.54044C36.4914 8.75302 36.1119 9.06234 35.813 9.4454C35.5141 9.82847 35.3035 10.2754 35.1968 10.7531L31.0806 29.2109C30.9852 29.6364 30.9744 30.0771 31.0487 30.5069C31.123 30.9367 31.281 31.3469 31.5132 31.7132C31.5697 31.8023 31.6304 31.8885 31.6952 31.9716L43.2452 46.7728C43.5442 47.1557 43.9237 47.4649 44.3556 47.6774C44.7875 47.8898 45.2607 48.0001 45.74 48L64.2629 47.9958C64.742 47.9962 65.2151 47.8862 65.647 47.6741C66.0789 47.462 66.4585 47.1533 66.7576 46.7707L78.3036 31.9674C78.6025 31.5844 78.8131 31.1376 78.9198 30.66C79.0266 30.1825 79.0267 29.6865 78.9202 29.2088L74.798 10.749C74.691 10.2717 74.4803 9.82509 74.1814 9.44241C73.8825 9.05972 73.5031 8.75073 73.0715 8.53836L56.3823 0.323084C55.9003 0.0858407 55.3678 -0.0237773 54.8336 0.00430642V0.00430642ZM54.8417 1.27108C55.3473 1.24473 55.8513 1.34861 56.3074 1.57319L72.1172 9.35301C72.5263 9.55437 72.8858 9.84737 73.169 10.2102C73.4521 10.5731 73.6517 10.9965 73.7528 11.449L77.6587 28.9338C77.7598 29.3865 77.7598 29.8567 77.6586 30.3094C77.5575 30.7621 77.3578 31.1857 77.0744 31.5486L66.137 45.5706C65.8536 45.933 65.494 46.2255 65.0848 46.4264C64.6757 46.6273 64.2275 46.7315 63.7736 46.7312L46.2272 46.7353C45.7731 46.7354 45.3249 46.631 44.9157 46.4297C44.5066 46.2284 44.147 45.9355 43.8638 45.5727L32.9223 31.5528C32.8612 31.4738 32.8038 31.3917 32.7505 31.307C32.5306 30.9602 32.381 30.5719 32.3105 30.165C32.24 29.7581 32.25 29.3409 32.3401 28.938L36.24 11.4532C36.3411 11.0007 36.5406 10.5773 36.8237 10.2144C37.1069 9.85156 37.4664 9.55856 37.8755 9.3572L53.6833 1.57321C54.0459 1.39468 54.4397 1.29197 54.8417 1.2711L54.8417 1.27108Z" fill="white"/>
  <path d="M45.0781 43.0835C44.744 43.0835 44.4491 42.9991 44.1933 42.8303C43.9375 42.6598 43.7374 42.4197 43.593 42.11C43.4486 41.7985 43.3763 41.4305 43.3763 41.0059C43.3763 40.5848 43.4486 40.2194 43.593 39.9097C43.7374 39.5999 43.9384 39.3607 44.1959 39.1919C44.4534 39.0231 44.751 38.9387 45.0886 38.9387C45.3496 38.9387 45.5558 38.9822 45.7071 39.0692C45.8603 39.1545 45.9769 39.2519 46.0569 39.3615C46.1387 39.4694 46.2022 39.5582 46.2474 39.6278H46.2996V37.6545H46.9156V43H46.3205V42.384H46.2474C46.2022 42.4571 46.1378 42.5493 46.0543 42.6607C45.9708 42.7703 45.8516 42.8686 45.6967 42.9556C45.5418 43.0409 45.3356 43.0835 45.0781 43.0835ZM45.1616 42.5302C45.4087 42.5302 45.6175 42.4658 45.7881 42.337C45.9586 42.2065 46.0882 42.0264 46.177 41.7968C46.2657 41.5653 46.3101 41.2982 46.3101 40.9955C46.3101 40.6962 46.2666 40.4343 46.1796 40.2098C46.0926 39.9836 45.9638 39.8079 45.7933 39.6826C45.6228 39.5556 45.4122 39.492 45.1616 39.492C44.9006 39.492 44.6831 39.559 44.5091 39.693C44.3369 39.8253 44.2072 40.0054 44.1202 40.2333C44.035 40.4595 43.9923 40.7136 43.9923 40.9955C43.9923 41.2808 44.0358 41.5401 44.1228 41.7733C44.2116 42.0047 44.3421 42.1891 44.5143 42.3266C44.6883 42.4623 44.9041 42.5302 45.1616 42.5302ZM49.8102 43.0835C49.4239 43.0835 49.0907 42.9983 48.8105 42.8277C48.5321 42.6555 48.3172 42.4153 48.1658 42.1074C48.0162 41.7976 47.9414 41.4374 47.9414 41.0268C47.9414 40.6161 48.0162 40.2542 48.1658 39.941C48.3172 39.626 48.5278 39.3807 48.7975 39.2049C49.0689 39.0275 49.3856 38.9387 49.7476 38.9387C49.9564 38.9387 50.1626 38.9735 50.3661 39.0431C50.5697 39.1127 50.7551 39.2258 50.9221 39.3824C51.0891 39.5373 51.2223 39.7426 51.3214 39.9984C51.4206 40.2542 51.4702 40.5691 51.4702 40.9433V41.2043H48.3799V40.6718H50.8438C50.8438 40.4456 50.7986 40.2438 50.7081 40.0663C50.6193 39.8888 50.4923 39.7487 50.327 39.646C50.1634 39.5434 49.9703 39.492 49.7476 39.492C49.5022 39.492 49.2899 39.5529 49.1107 39.6748C48.9332 39.7948 48.7966 39.9514 48.7009 40.1446C48.6052 40.3377 48.5574 40.5448 48.5574 40.7658V41.1207C48.5574 41.4235 48.6096 41.6802 48.714 41.8907C48.8201 42.0995 48.9671 42.2587 49.1551 42.3684C49.343 42.4762 49.5614 42.5302 49.8102 42.5302C49.972 42.5302 50.1182 42.5076 50.2487 42.4623C50.3809 42.4153 50.4949 42.3457 50.5906 42.2535C50.6863 42.1596 50.7603 42.043 50.8125 41.9038L51.4076 42.0708C51.3449 42.2727 51.2397 42.4501 51.0918 42.6033C50.9438 42.7547 50.7611 42.873 50.5436 42.9582C50.3261 43.0418 50.0816 43.0835 49.8102 43.0835ZM52.4072 44.5034V38.9909H53.0023V39.6278H53.0754C53.1207 39.5582 53.1833 39.4694 53.2633 39.3615C53.3451 39.2519 53.4617 39.1545 53.6131 39.0692C53.7662 38.9822 53.9733 38.9387 54.2343 38.9387C54.5719 38.9387 54.8694 39.0231 55.1269 39.1919C55.3845 39.3607 55.5854 39.5999 55.7299 39.9097C55.8743 40.2194 55.9465 40.5848 55.9465 41.0059C55.9465 41.4305 55.8743 41.7985 55.7299 42.11C55.5854 42.4197 55.3853 42.6598 55.1296 42.8303C54.8738 42.9991 54.5788 43.0835 54.2447 43.0835C53.9872 43.0835 53.781 43.0409 53.6261 42.9556C53.4713 42.8686 53.3521 42.7703 53.2686 42.6607C53.185 42.5493 53.1207 42.4571 53.0754 42.384H53.0232V44.5034H52.4072ZM53.0128 40.9955C53.0128 41.2982 53.0571 41.5653 53.1459 41.7968C53.2346 42.0264 53.3643 42.2065 53.5348 42.337C53.7053 42.4658 53.9141 42.5302 54.1612 42.5302C54.4187 42.5302 54.6336 42.4623 54.8059 42.3266C54.9799 42.1891 55.1104 42.0047 55.1974 41.7733C55.2862 41.5401 55.3305 41.2808 55.3305 40.9955C55.3305 40.7136 55.287 40.4595 55.2 40.2333C55.1148 40.0054 54.9851 39.8253 54.8111 39.693C54.6389 39.559 54.4222 39.492 54.1612 39.492C53.9106 39.492 53.7001 39.5556 53.5296 39.6826C53.359 39.8079 53.2303 39.9836 53.1433 40.2098C53.0563 40.4343 53.0128 40.6962 53.0128 40.9955ZM57.5021 37.6545V43H56.8861V37.6545H57.5021ZM60.259 43.0835C59.8971 43.0835 59.5795 42.9974 59.3063 42.8251C59.0349 42.6529 58.8226 42.4119 58.6695 42.1021C58.5181 41.7924 58.4424 41.4305 58.4424 41.0163C58.4424 40.5987 58.5181 40.2342 58.6695 39.9227C58.8226 39.6112 59.0349 39.3694 59.3063 39.1971C59.5795 39.0248 59.8971 38.9387 60.259 38.9387C60.621 38.9387 60.9376 39.0248 61.2091 39.1971C61.4823 39.3694 61.6946 39.6112 61.846 39.9227C61.9991 40.2342 62.0756 40.5987 62.0756 41.0163C62.0756 41.4305 61.9991 41.7924 61.846 42.1021C61.6946 42.4119 61.4823 42.6529 61.2091 42.8251C60.9376 42.9974 60.621 43.0835 60.259 43.0835ZM60.259 42.5302C60.534 42.5302 60.7602 42.4597 60.9376 42.3188C61.1151 42.1778 61.2465 41.9925 61.3318 41.7628C61.417 41.5331 61.4597 41.2843 61.4597 41.0163C61.4597 40.7484 61.417 40.4987 61.3318 40.2672C61.2465 40.0358 61.1151 39.8488 60.9376 39.7061C60.7602 39.5634 60.534 39.492 60.259 39.492C59.9841 39.492 59.7579 39.5634 59.5804 39.7061C59.4029 39.8488 59.2715 40.0358 59.1863 40.2672C59.101 40.4987 59.0584 40.7484 59.0584 41.0163C59.0584 41.2843 59.101 41.5331 59.1863 41.7628C59.2715 41.9925 59.4029 42.1778 59.5804 42.3188C59.7579 42.4597 59.9841 42.5302 60.259 42.5302ZM63.2691 44.5034C63.1647 44.5034 63.0716 44.4947 62.9898 44.4773C62.908 44.4616 62.8515 44.446 62.8202 44.4303L62.9768 43.8874C63.1264 43.9257 63.2587 43.9396 63.3735 43.9292C63.4884 43.9187 63.5901 43.8674 63.6789 43.7752C63.7694 43.6847 63.852 43.5377 63.9268 43.3341L64.0417 43.0209L62.5592 38.9909H63.2273L64.334 42.1857H64.3758L65.4825 38.9909H66.1506L64.4489 43.5847C64.3723 43.7917 64.2775 43.9631 64.1644 44.0988C64.0513 44.2363 63.9199 44.3381 63.7702 44.4042C63.6223 44.4703 63.4553 44.5034 63.2691 44.5034Z" fill="white"/>
  <path fill-rule="evenodd" clip-rule="evenodd" d="M53.8309 34.4426C47.3299 34.7595 41.801 29.6064 41.4559 22.9086C41.1108 16.2109 46.079 10.4833 52.5759 10.0889C59.0728 9.69441 64.6592 14.7813 65.0796 21.4744L60.4032 21.7863C60.1493 17.7439 56.7754 14.6717 52.8515 14.9099C48.9276 15.1481 45.927 18.6074 46.1354 22.6525C46.3438 26.6977 49.6831 29.81 53.6094 29.6186L53.8309 34.4426Z" fill="white"/>
  <path fill-rule="evenodd" clip-rule="evenodd" d="M56.2544 21.4893L59.9736 30.871L68.5602 21.4893H56.2544Z" fill="white"/>
  </g>
  <!-- Update & apply -->
  <path d="M274.045 18.3636H275.455V26.0682C275.455 26.8636 275.267 27.5739 274.892 28.1989C274.521 28.8201 273.996 29.3106 273.318 29.6705C272.64 30.0265 271.845 30.2045 270.932 30.2045C270.019 30.2045 269.223 30.0265 268.545 29.6705C267.867 29.3106 267.341 28.8201 266.966 28.1989C266.595 27.5739 266.409 26.8636 266.409 26.0682V18.3636H267.818V25.9545C267.818 26.5227 267.943 27.0284 268.193 27.4716C268.443 27.911 268.799 28.2576 269.261 28.5114C269.727 28.7614 270.284 28.8864 270.932 28.8864C271.58 28.8864 272.136 28.7614 272.602 28.5114C273.068 28.2576 273.424 27.911 273.67 27.4716C273.92 27.0284 274.045 26.5227 274.045 25.9545V18.3636ZM278.087 33.2727V21.2727H279.382V22.6591H279.541C279.64 22.5076 279.776 22.3144 279.95 22.0795C280.128 21.8409 280.382 21.6288 280.712 21.4432C281.045 21.2538 281.496 21.1591 282.064 21.1591C282.799 21.1591 283.446 21.3428 284.007 21.7102C284.568 22.0777 285.005 22.5985 285.32 23.2727C285.634 23.947 285.791 24.7424 285.791 25.6591C285.791 26.5833 285.634 27.3845 285.32 28.0625C285.005 28.7367 284.57 29.2595 284.013 29.6307C283.456 29.9981 282.814 30.1818 282.087 30.1818C281.526 30.1818 281.077 30.089 280.74 29.9034C280.403 29.714 280.143 29.5 279.962 29.2614C279.78 29.0189 279.64 28.8182 279.541 28.6591H279.428V33.2727H278.087ZM279.405 25.6364C279.405 26.2955 279.501 26.8769 279.695 27.3807C279.888 27.8807 280.17 28.2727 280.541 28.5568C280.912 28.8371 281.367 28.9773 281.905 28.9773C282.465 28.9773 282.933 28.8295 283.308 28.5341C283.687 28.2348 283.971 27.8333 284.161 27.3295C284.354 26.822 284.45 26.2576 284.45 25.6364C284.45 25.0227 284.356 24.4697 284.166 23.9773C283.981 23.4811 283.698 23.089 283.32 22.8011C282.945 22.5095 282.473 22.3636 281.905 22.3636C281.359 22.3636 280.901 22.5019 280.53 22.7784C280.159 23.0511 279.878 23.4337 279.689 23.9261C279.5 24.4148 279.405 24.9848 279.405 25.6364ZM291.132 30.1818C290.405 30.1818 289.763 29.9981 289.206 29.6307C288.649 29.2595 288.214 28.7367 287.899 28.0625C287.585 27.3845 287.428 26.5833 287.428 25.6591C287.428 24.7424 287.585 23.947 287.899 23.2727C288.214 22.5985 288.651 22.0777 289.212 21.7102C289.772 21.3428 290.42 21.1591 291.155 21.1591C291.723 21.1591 292.172 21.2538 292.501 21.4432C292.835 21.6288 293.089 21.8409 293.263 22.0795C293.441 22.3144 293.579 22.5076 293.678 22.6591H293.791V18.3636H295.132V30H293.837V28.6591H293.678C293.579 28.8182 293.439 29.0189 293.257 29.2614C293.075 29.5 292.816 29.714 292.479 29.9034C292.142 30.089 291.693 30.1818 291.132 30.1818ZM291.314 28.9773C291.852 28.9773 292.306 28.8371 292.678 28.5568C293.049 28.2727 293.331 27.8807 293.524 27.3807C293.717 26.8769 293.814 26.2955 293.814 25.6364C293.814 24.9848 293.719 24.4148 293.53 23.9261C293.34 23.4337 293.06 23.0511 292.689 22.7784C292.318 22.5019 291.859 22.3636 291.314 22.3636C290.746 22.3636 290.272 22.5095 289.893 22.8011C289.518 23.089 289.236 23.4811 289.047 23.9773C288.861 24.4697 288.768 25.0227 288.768 25.6364C288.768 26.2576 288.863 26.822 289.053 27.3295C289.246 27.8333 289.53 28.2348 289.905 28.5341C290.284 28.8295 290.753 28.9773 291.314 28.9773ZM300.342 30.2045C299.789 30.2045 299.287 30.1004 298.837 29.892C298.386 29.6799 298.028 29.375 297.763 28.9773C297.498 28.5758 297.365 28.0909 297.365 27.5227C297.365 27.0227 297.464 26.6174 297.661 26.3068C297.857 25.9924 298.121 25.7462 298.45 25.5682C298.78 25.3902 299.143 25.2576 299.541 25.1705C299.943 25.0795 300.346 25.0076 300.751 24.9545C301.282 24.8864 301.712 24.8352 302.041 24.8011C302.375 24.7633 302.617 24.7008 302.768 24.6136C302.924 24.5265 303.001 24.375 303.001 24.1591V24.1136C303.001 23.553 302.848 23.1174 302.541 22.8068C302.238 22.4962 301.778 22.3409 301.161 22.3409C300.52 22.3409 300.018 22.4811 299.655 22.7614C299.291 23.0417 299.036 23.3409 298.888 23.6591L297.615 23.2045C297.842 22.6742 298.145 22.2614 298.524 21.9659C298.907 21.6667 299.323 21.4583 299.774 21.3409C300.229 21.2197 300.676 21.1591 301.115 21.1591C301.395 21.1591 301.717 21.1932 302.081 21.2614C302.448 21.3258 302.803 21.4602 303.143 21.6648C303.488 21.8693 303.774 22.178 304.001 22.5909C304.229 23.0038 304.342 23.5568 304.342 24.25V30H303.001V28.8182H302.933C302.842 29.0076 302.691 29.2102 302.479 29.4261C302.267 29.642 301.984 29.8258 301.632 29.9773C301.28 30.1288 300.85 30.2045 300.342 30.2045ZM300.547 29C301.077 29 301.524 28.8958 301.888 28.6875C302.255 28.4792 302.532 28.2102 302.717 27.8807C302.907 27.5511 303.001 27.2045 303.001 26.8409V25.6136C302.945 25.6818 302.82 25.7443 302.626 25.8011C302.437 25.8542 302.217 25.9015 301.967 25.9432C301.721 25.9811 301.481 26.0152 301.246 26.0455C301.015 26.072 300.827 26.0947 300.683 26.1136C300.335 26.1591 300.009 26.233 299.706 26.3352C299.407 26.4337 299.164 26.5833 298.979 26.7841C298.797 26.9811 298.706 27.25 298.706 27.5909C298.706 28.0568 298.878 28.4091 299.223 28.6477C299.571 28.8826 300.013 29 300.547 29ZM310.585 21.2727V22.4091H306.062V21.2727H310.585ZM307.381 19.1818H308.722V27.5C308.722 27.8788 308.777 28.1629 308.886 28.3523C309 28.5379 309.144 28.6629 309.318 28.7273C309.496 28.7879 309.684 28.8182 309.881 28.8182C310.028 28.8182 310.15 28.8106 310.244 28.7955C310.339 28.7765 310.415 28.7614 310.472 28.75L310.744 29.9545C310.653 29.9886 310.527 30.0227 310.364 30.0568C310.201 30.0947 309.994 30.1136 309.744 30.1136C309.366 30.1136 308.994 30.0322 308.631 29.8693C308.271 29.7064 307.972 29.4583 307.733 29.125C307.498 28.7917 307.381 28.3712 307.381 27.8636V19.1818ZM316.168 30.1818C315.327 30.1818 314.601 29.9962 313.991 29.625C313.385 29.25 312.918 28.7273 312.588 28.0568C312.262 27.3826 312.099 26.5985 312.099 25.7045C312.099 24.8106 312.262 24.0227 312.588 23.3409C312.918 22.6553 313.376 22.1212 313.963 21.7386C314.554 21.3523 315.243 21.1591 316.031 21.1591C316.486 21.1591 316.935 21.2348 317.378 21.3864C317.821 21.5379 318.224 21.7841 318.588 22.125C318.952 22.4621 319.241 22.9091 319.457 23.4659C319.673 24.0227 319.781 24.7083 319.781 25.5227V26.0909H313.054V24.9318H318.418C318.418 24.4394 318.319 24 318.122 23.6136C317.929 23.2273 317.652 22.9223 317.293 22.6989C316.937 22.4754 316.516 22.3636 316.031 22.3636C315.497 22.3636 315.035 22.4962 314.645 22.7614C314.259 23.0227 313.961 23.3636 313.753 23.7841C313.545 24.2045 313.44 24.6553 313.44 25.1364V25.9091C313.44 26.5682 313.554 27.1269 313.781 27.5852C314.012 28.0398 314.332 28.3864 314.741 28.625C315.151 28.8598 315.626 28.9773 316.168 28.9773C316.52 28.9773 316.838 28.928 317.122 28.8295C317.41 28.7273 317.658 28.5758 317.866 28.375C318.075 28.1705 318.236 27.9167 318.349 27.6136L319.645 27.9773C319.509 28.4167 319.279 28.803 318.957 29.1364C318.635 29.4659 318.238 29.7235 317.764 29.9091C317.291 30.0909 316.759 30.1818 316.168 30.1818ZM329.616 30.1591C328.851 30.1591 328.192 30.0189 327.639 29.7386C327.086 29.4583 326.66 29.0739 326.361 28.5852C326.062 28.0966 325.912 27.5379 325.912 26.9091C325.912 26.4242 326.014 25.9943 326.219 25.6193C326.427 25.2405 326.713 24.8902 327.077 24.5682C327.444 24.2424 327.866 23.9167 328.344 23.5909L330.026 22.3409C330.355 22.125 330.618 21.8939 330.815 21.6477C331.016 21.4015 331.116 21.0795 331.116 20.6818C331.116 20.3864 330.986 20.1004 330.724 19.8239C330.467 19.5473 330.128 19.4091 329.707 19.4091C329.412 19.4091 329.151 19.4848 328.923 19.6364C328.7 19.7841 328.524 19.9735 328.395 20.2045C328.27 20.4318 328.207 20.6667 328.207 20.9091C328.207 21.1818 328.281 21.4583 328.429 21.7386C328.58 22.0152 328.772 22.2992 329.003 22.5909C329.238 22.8788 329.48 23.1742 329.73 23.4773L335.071 30H333.457L329.048 24.6818C328.639 24.1894 328.268 23.7424 327.935 23.3409C327.601 22.9394 327.336 22.5436 327.139 22.1534C326.942 21.7633 326.844 21.3409 326.844 20.8864C326.844 20.3636 326.959 19.9053 327.19 19.5114C327.425 19.1136 327.753 18.8049 328.173 18.5852C328.598 18.3617 329.094 18.25 329.662 18.25C330.245 18.25 330.747 18.3636 331.168 18.5909C331.588 18.8144 331.912 19.1117 332.139 19.483C332.366 19.8504 332.48 20.25 332.48 20.6818C332.48 21.2386 332.342 21.7216 332.065 22.1307C331.789 22.5398 331.412 22.9205 330.935 23.2727L328.616 25C328.094 25.3864 327.74 25.7614 327.554 26.125C327.368 26.4886 327.276 26.75 327.276 26.9091C327.276 27.2727 327.37 27.6117 327.56 27.9261C327.749 28.2405 328.016 28.4943 328.361 28.6875C328.705 28.8807 329.109 28.9773 329.571 28.9773C330.01 28.9773 330.438 28.8845 330.855 28.6989C331.272 28.5095 331.649 28.2367 331.986 27.8807C332.327 27.5246 332.596 27.0966 332.793 26.5966C332.993 26.0966 333.094 25.5341 333.094 24.9091H334.389C334.389 25.6818 334.3 26.3125 334.122 26.8011C333.944 27.2898 333.743 27.6723 333.52 27.9489C333.296 28.2254 333.116 28.4318 332.98 28.5682C332.935 28.625 332.893 28.6818 332.855 28.7386C332.817 28.7955 332.776 28.8523 332.73 28.9091C332.355 29.3295 331.882 29.6439 331.31 29.8523C330.738 30.0568 330.173 30.1591 329.616 30.1591ZM343.624 30.2045C343.071 30.2045 342.569 30.1004 342.118 29.892C341.667 29.6799 341.309 29.375 341.044 28.9773C340.779 28.5758 340.646 28.0909 340.646 27.5227C340.646 27.0227 340.745 26.6174 340.942 26.3068C341.139 25.9924 341.402 25.7462 341.732 25.5682C342.061 25.3902 342.425 25.2576 342.822 25.1705C343.224 25.0795 343.627 25.0076 344.033 24.9545C344.563 24.8864 344.993 24.8352 345.322 24.8011C345.656 24.7633 345.898 24.7008 346.05 24.6136C346.205 24.5265 346.283 24.375 346.283 24.1591V24.1136C346.283 23.553 346.129 23.1174 345.822 22.8068C345.519 22.4962 345.059 22.3409 344.442 22.3409C343.802 22.3409 343.3 22.4811 342.936 22.7614C342.572 23.0417 342.317 23.3409 342.169 23.6591L340.896 23.2045C341.124 22.6742 341.427 22.2614 341.805 21.9659C342.188 21.6667 342.605 21.4583 343.055 21.3409C343.51 21.2197 343.957 21.1591 344.396 21.1591C344.677 21.1591 344.999 21.1932 345.362 21.2614C345.73 21.3258 346.084 21.4602 346.425 21.6648C346.769 21.8693 347.055 22.178 347.283 22.5909C347.51 23.0038 347.624 23.5568 347.624 24.25V30H346.283V28.8182H346.214C346.124 29.0076 345.972 29.2102 345.76 29.4261C345.548 29.642 345.266 29.8258 344.913 29.9773C344.561 30.1288 344.131 30.2045 343.624 30.2045ZM343.828 29C344.358 29 344.805 28.8958 345.169 28.6875C345.536 28.4792 345.813 28.2102 345.999 27.8807C346.188 27.5511 346.283 27.2045 346.283 26.8409V25.6136C346.226 25.6818 346.101 25.7443 345.908 25.8011C345.718 25.8542 345.499 25.9015 345.249 25.9432C345.002 25.9811 344.762 26.0152 344.527 26.0455C344.296 26.072 344.108 26.0947 343.964 26.1136C343.616 26.1591 343.29 26.233 342.987 26.3352C342.688 26.4337 342.446 26.5833 342.26 26.7841C342.078 26.9811 341.987 27.25 341.987 27.5909C341.987 28.0568 342.16 28.4091 342.504 28.6477C342.853 28.8826 343.294 29 343.828 29ZM350.071 33.2727V21.2727H351.366V22.6591H351.526C351.624 22.5076 351.76 22.3144 351.935 22.0795C352.113 21.8409 352.366 21.6288 352.696 21.4432C353.029 21.2538 353.48 21.1591 354.048 21.1591C354.783 21.1591 355.431 21.3428 355.991 21.7102C356.552 22.0777 356.99 22.5985 357.304 23.2727C357.618 23.947 357.776 24.7424 357.776 25.6591C357.776 26.5833 357.618 27.3845 357.304 28.0625C356.99 28.7367 356.554 29.2595 355.997 29.6307C355.44 29.9981 354.798 30.1818 354.071 30.1818C353.51 30.1818 353.062 30.089 352.724 29.9034C352.387 29.714 352.128 29.5 351.946 29.2614C351.764 29.0189 351.624 28.8182 351.526 28.6591H351.412V33.2727H350.071ZM351.389 25.6364C351.389 26.2955 351.486 26.8769 351.679 27.3807C351.872 27.8807 352.154 28.2727 352.526 28.5568C352.897 28.8371 353.351 28.9773 353.889 28.9773C354.45 28.9773 354.918 28.8295 355.293 28.5341C355.671 28.2348 355.955 27.8333 356.145 27.3295C356.338 26.822 356.435 26.2576 356.435 25.6364C356.435 25.0227 356.34 24.4697 356.151 23.9773C355.965 23.4811 355.683 23.089 355.304 22.8011C354.929 22.5095 354.457 22.3636 353.889 22.3636C353.344 22.3636 352.885 22.5019 352.514 22.7784C352.143 23.0511 351.863 23.4337 351.673 23.9261C351.484 24.4148 351.389 24.9848 351.389 25.6364ZM359.821 33.2727V21.2727H361.116V22.6591H361.276C361.374 22.5076 361.51 22.3144 361.685 22.0795C361.863 21.8409 362.116 21.6288 362.446 21.4432C362.779 21.2538 363.23 21.1591 363.798 21.1591C364.533 21.1591 365.181 21.3428 365.741 21.7102C366.302 22.0777 366.74 22.5985 367.054 23.2727C367.368 23.947 367.526 24.7424 367.526 25.6591C367.526 26.5833 367.368 27.3845 367.054 28.0625C366.74 28.7367 366.304 29.2595 365.747 29.6307C365.19 29.9981 364.548 30.1818 363.821 30.1818C363.26 30.1818 362.812 30.089 362.474 29.9034C362.137 29.714 361.878 29.5 361.696 29.2614C361.514 29.0189 361.374 28.8182 361.276 28.6591H361.162V33.2727H359.821ZM361.139 25.6364C361.139 26.2955 361.236 26.8769 361.429 27.3807C361.622 27.8807 361.904 28.2727 362.276 28.5568C362.647 28.8371 363.101 28.9773 363.639 28.9773C364.2 28.9773 364.668 28.8295 365.043 28.5341C365.421 28.2348 365.705 27.8333 365.895 27.3295C366.088 26.822 366.185 26.2576 366.185 25.6364C366.185 25.0227 366.09 24.4697 365.901 23.9773C365.715 23.4811 365.433 23.089 365.054 22.8011C364.679 22.5095 364.207 22.3636 363.639 22.3636C363.094 22.3636 362.635 22.5019 362.264 22.7784C361.893 23.0511 361.613 23.4337 361.423 23.9261C361.234 24.4148 361.139 24.9848 361.139 25.6364ZM370.912 18.3636V30H369.571V18.3636H370.912ZM374.232 33.2727C374.004 33.2727 373.802 33.2538 373.624 33.2159C373.446 33.1818 373.322 33.1477 373.254 33.1136L373.595 31.9318C373.921 32.0152 374.209 32.0455 374.459 32.0227C374.709 32 374.93 31.8883 375.124 31.6875C375.321 31.4905 375.5 31.1705 375.663 30.7273L375.913 30.0455L372.686 21.2727H374.141L376.55 28.2273H376.641L379.05 21.2727H380.504L376.8 31.2727C376.633 31.7235 376.427 32.0966 376.18 32.392C375.934 32.6913 375.648 32.9129 375.322 33.0568C375 33.2008 374.637 33.2727 374.232 33.2727Z" fill="black"/>
  <path d="M194 26L201.817 30.5133V21.4867L194 26ZM198.667 26.7817H201.778V25.2183H198.667V26.7817ZM204.889 26.7817H208V25.2183H204.889V26.7817ZM211.111 26.7817H214.222V25.2183H211.111V26.7817ZM217.333 26.7817H220.444V25.2183H217.333V26.7817ZM223.556 26.7817H226.667V25.2183H223.556V26.7817ZM229.778 26.7817H232.889V25.2183H229.778V26.7817ZM236 26.7817H239.111V25.2183H236V26.7817ZM242.222 26.7817H245.333V25.2183H242.222V26.7817ZM248.444 26.7817H250V25.2183H248.444V26.7817Z" fill="#326CE5"/>
  <!-- Rs 2 -->
  <path d="M55.4091 284V272.364H59.3409C60.25 272.364 60.9962 272.519 61.5795 272.83C62.1629 273.136 62.5947 273.559 62.875 274.097C63.1553 274.634 63.2955 275.246 63.2955 275.932C63.2955 276.617 63.1553 277.225 62.875 277.756C62.5947 278.286 62.1648 278.703 61.5852 279.006C61.0057 279.305 60.2652 279.455 59.3636 279.455H56.1818V278.182H59.3182C59.9394 278.182 60.4394 278.091 60.8182 277.909C61.2008 277.727 61.4773 277.47 61.6477 277.136C61.822 276.799 61.9091 276.398 61.9091 275.932C61.9091 275.466 61.822 275.059 61.6477 274.71C61.4735 274.362 61.1951 274.093 60.8125 273.903C60.4299 273.71 59.9242 273.614 59.2955 273.614H56.8182V284H55.4091ZM60.8864 278.773L63.75 284H62.1136L59.2955 278.773H60.8864ZM69.027 284.182C68.1861 284.182 67.4607 283.996 66.8509 283.625C66.2448 283.25 65.777 282.727 65.4474 282.057C65.1217 281.383 64.9588 280.598 64.9588 279.705C64.9588 278.811 65.1217 278.023 65.4474 277.341C65.777 276.655 66.2353 276.121 66.8224 275.739C67.4134 275.352 68.1027 275.159 68.8906 275.159C69.3452 275.159 69.794 275.235 70.2372 275.386C70.6804 275.538 71.0838 275.784 71.4474 276.125C71.8111 276.462 72.1009 276.909 72.3168 277.466C72.5327 278.023 72.6406 278.708 72.6406 279.523V280.091H65.9134V278.932H71.277C71.277 278.439 71.1785 278 70.9815 277.614C70.7884 277.227 70.5118 276.922 70.152 276.699C69.7959 276.475 69.3755 276.364 68.8906 276.364C68.3565 276.364 67.8944 276.496 67.5043 276.761C67.1179 277.023 66.8205 277.364 66.6122 277.784C66.4039 278.205 66.2997 278.655 66.2997 279.136V279.909C66.2997 280.568 66.4134 281.127 66.6406 281.585C66.8717 282.04 67.1918 282.386 67.6009 282.625C68.0099 282.86 68.4853 282.977 69.027 282.977C69.3793 282.977 69.6974 282.928 69.9815 282.83C70.2694 282.727 70.5175 282.576 70.7259 282.375C70.9342 282.17 71.0952 281.917 71.2088 281.614L72.5043 281.977C72.3679 282.417 72.1387 282.803 71.8168 283.136C71.4948 283.466 71.0971 283.723 70.6236 283.909C70.1501 284.091 69.6179 284.182 69.027 284.182ZM74.6804 287.273V275.273H75.9759V276.659H76.1349C76.2334 276.508 76.3698 276.314 76.544 276.08C76.7221 275.841 76.9759 275.629 77.3054 275.443C77.6387 275.254 78.0895 275.159 78.6577 275.159C79.3925 275.159 80.0402 275.343 80.6009 275.71C81.1615 276.078 81.599 276.598 81.9134 277.273C82.2277 277.947 82.3849 278.742 82.3849 279.659C82.3849 280.583 82.2277 281.384 81.9134 282.062C81.599 282.737 81.1634 283.259 80.6065 283.631C80.0497 283.998 79.4077 284.182 78.6804 284.182C78.1198 284.182 77.6709 284.089 77.3338 283.903C76.9967 283.714 76.7372 283.5 76.5554 283.261C76.3736 283.019 76.2334 282.818 76.1349 282.659H76.0213V287.273H74.6804ZM75.9986 279.636C75.9986 280.295 76.0952 280.877 76.2884 281.381C76.4815 281.881 76.7637 282.273 77.1349 282.557C77.5062 282.837 77.9607 282.977 78.4986 282.977C79.0592 282.977 79.527 282.83 79.902 282.534C80.2808 282.235 80.5649 281.833 80.7543 281.33C80.9474 280.822 81.044 280.258 81.044 279.636C81.044 279.023 80.9493 278.47 80.7599 277.977C80.5743 277.481 80.2921 277.089 79.9134 276.801C79.5384 276.509 79.0668 276.364 78.4986 276.364C77.9531 276.364 77.4948 276.502 77.1236 276.778C76.7524 277.051 76.4721 277.434 76.2827 277.926C76.0933 278.415 75.9986 278.985 75.9986 279.636ZM85.7713 272.364V284H84.4304V272.364H85.7713ZM88.2273 284V275.273H89.5682V284H88.2273ZM88.9091 273.818C88.6477 273.818 88.4223 273.729 88.233 273.551C88.0473 273.373 87.9545 273.159 87.9545 272.909C87.9545 272.659 88.0473 272.445 88.233 272.267C88.4223 272.089 88.6477 272 88.9091 272C89.1705 272 89.3939 272.089 89.5795 272.267C89.7689 272.445 89.8636 272.659 89.8636 272.909C89.8636 273.159 89.7689 273.373 89.5795 273.551C89.3939 273.729 89.1705 273.818 88.9091 273.818ZM95.5696 284.182C94.7514 284.182 94.0469 283.989 93.456 283.602C92.8651 283.216 92.4105 282.684 92.0923 282.006C91.7741 281.328 91.6151 280.553 91.6151 279.682C91.6151 278.795 91.7779 278.013 92.1037 277.335C92.4332 276.653 92.8916 276.121 93.4787 275.739C94.0696 275.352 94.759 275.159 95.5469 275.159C96.1605 275.159 96.7135 275.273 97.206 275.5C97.6984 275.727 98.1018 276.045 98.4162 276.455C98.7306 276.864 98.9257 277.341 99.0014 277.886H97.6605C97.5582 277.489 97.331 277.136 96.9787 276.83C96.6302 276.519 96.1605 276.364 95.5696 276.364C95.0469 276.364 94.5885 276.5 94.1946 276.773C93.8045 277.042 93.4995 277.422 93.2798 277.915C93.0639 278.403 92.956 278.977 92.956 279.636C92.956 280.311 93.062 280.898 93.2741 281.398C93.4901 281.898 93.7931 282.286 94.1832 282.562C94.5772 282.839 95.0393 282.977 95.5696 282.977C95.9181 282.977 96.2344 282.917 96.5185 282.795C96.8026 282.674 97.0431 282.5 97.2401 282.273C97.437 282.045 97.5772 281.773 97.6605 281.455H99.0014C98.9257 281.97 98.7382 282.434 98.4389 282.847C98.1435 283.256 97.7514 283.581 97.2628 283.824C96.7779 284.062 96.2135 284.182 95.5696 284.182ZM103.53 284.205C102.977 284.205 102.475 284.1 102.024 283.892C101.573 283.68 101.215 283.375 100.95 282.977C100.685 282.576 100.553 282.091 100.553 281.523C100.553 281.023 100.651 280.617 100.848 280.307C101.045 279.992 101.308 279.746 101.638 279.568C101.967 279.39 102.331 279.258 102.729 279.17C103.13 279.08 103.534 279.008 103.939 278.955C104.469 278.886 104.899 278.835 105.229 278.801C105.562 278.763 105.804 278.701 105.956 278.614C106.111 278.527 106.189 278.375 106.189 278.159V278.114C106.189 277.553 106.036 277.117 105.729 276.807C105.426 276.496 104.965 276.341 104.348 276.341C103.708 276.341 103.206 276.481 102.842 276.761C102.479 277.042 102.223 277.341 102.075 277.659L100.803 277.205C101.03 276.674 101.333 276.261 101.712 275.966C102.094 275.667 102.511 275.458 102.962 275.341C103.416 275.22 103.863 275.159 104.303 275.159C104.583 275.159 104.905 275.193 105.268 275.261C105.636 275.326 105.99 275.46 106.331 275.665C106.676 275.869 106.962 276.178 107.189 276.591C107.416 277.004 107.53 277.557 107.53 278.25V284H106.189V282.818H106.121C106.03 283.008 105.878 283.21 105.666 283.426C105.454 283.642 105.172 283.826 104.82 283.977C104.467 284.129 104.037 284.205 103.53 284.205ZM103.734 283C104.265 283 104.712 282.896 105.075 282.688C105.443 282.479 105.719 282.21 105.905 281.881C106.094 281.551 106.189 281.205 106.189 280.841V279.614C106.132 279.682 106.007 279.744 105.814 279.801C105.625 279.854 105.405 279.902 105.155 279.943C104.909 279.981 104.668 280.015 104.433 280.045C104.202 280.072 104.015 280.095 103.871 280.114C103.522 280.159 103.196 280.233 102.893 280.335C102.594 280.434 102.352 280.583 102.166 280.784C101.984 280.981 101.893 281.25 101.893 281.591C101.893 282.057 102.066 282.409 102.411 282.648C102.759 282.883 103.2 283 103.734 283ZM116.523 275.273C116.455 274.697 116.178 274.25 115.693 273.932C115.208 273.614 114.614 273.455 113.909 273.455C113.394 273.455 112.943 273.538 112.557 273.705C112.174 273.871 111.875 274.1 111.659 274.392C111.447 274.684 111.341 275.015 111.341 275.386C111.341 275.697 111.415 275.964 111.562 276.188C111.714 276.407 111.907 276.591 112.142 276.739C112.377 276.883 112.623 277.002 112.881 277.097C113.138 277.187 113.375 277.261 113.591 277.318L114.773 277.636C115.076 277.716 115.413 277.826 115.784 277.966C116.159 278.106 116.517 278.297 116.858 278.54C117.203 278.778 117.487 279.085 117.71 279.46C117.934 279.835 118.045 280.295 118.045 280.841C118.045 281.47 117.881 282.038 117.551 282.545C117.225 283.053 116.748 283.456 116.119 283.756C115.494 284.055 114.735 284.205 113.841 284.205C113.008 284.205 112.286 284.07 111.676 283.801C111.07 283.532 110.593 283.157 110.244 282.676C109.9 282.195 109.705 281.636 109.659 281H111.114C111.152 281.439 111.299 281.803 111.557 282.091C111.818 282.375 112.148 282.587 112.545 282.727C112.947 282.864 113.379 282.932 113.841 282.932C114.379 282.932 114.862 282.845 115.29 282.67C115.718 282.492 116.057 282.246 116.307 281.932C116.557 281.614 116.682 281.242 116.682 280.818C116.682 280.432 116.574 280.117 116.358 279.875C116.142 279.633 115.858 279.436 115.506 279.284C115.153 279.133 114.773 279 114.364 278.886L112.932 278.477C112.023 278.216 111.303 277.843 110.773 277.358C110.242 276.873 109.977 276.239 109.977 275.455C109.977 274.803 110.153 274.235 110.506 273.75C110.862 273.261 111.339 272.883 111.938 272.614C112.54 272.341 113.212 272.205 113.955 272.205C114.705 272.205 115.371 272.339 115.955 272.608C116.538 272.873 117 273.237 117.341 273.699C117.686 274.161 117.867 274.686 117.886 275.273H116.523ZM123.839 284.182C122.999 284.182 122.273 283.996 121.663 283.625C121.057 283.25 120.589 282.727 120.26 282.057C119.934 281.383 119.771 280.598 119.771 279.705C119.771 278.811 119.934 278.023 120.26 277.341C120.589 276.655 121.048 276.121 121.635 275.739C122.226 275.352 122.915 275.159 123.703 275.159C124.158 275.159 124.607 275.235 125.05 275.386C125.493 275.538 125.896 275.784 126.26 276.125C126.624 276.462 126.913 276.909 127.129 277.466C127.345 278.023 127.453 278.708 127.453 279.523V280.091H120.726V278.932H126.089C126.089 278.439 125.991 278 125.794 277.614C125.601 277.227 125.324 276.922 124.964 276.699C124.608 276.475 124.188 276.364 123.703 276.364C123.169 276.364 122.707 276.496 122.317 276.761C121.93 277.023 121.633 277.364 121.425 277.784C121.216 278.205 121.112 278.655 121.112 279.136V279.909C121.112 280.568 121.226 281.127 121.453 281.585C121.684 282.04 122.004 282.386 122.413 282.625C122.822 282.86 123.298 282.977 123.839 282.977C124.192 282.977 124.51 282.928 124.794 282.83C125.082 282.727 125.33 282.576 125.538 282.375C125.747 282.17 125.908 281.917 126.021 281.614L127.317 281.977C127.18 282.417 126.951 282.803 126.629 283.136C126.307 283.466 125.91 283.723 125.436 283.909C124.963 284.091 124.43 284.182 123.839 284.182ZM133.288 275.273V276.409H128.766V275.273H133.288ZM130.084 273.182H131.425V281.5C131.425 281.879 131.48 282.163 131.589 282.352C131.703 282.538 131.847 282.663 132.021 282.727C132.199 282.788 132.387 282.818 132.584 282.818C132.732 282.818 132.853 282.811 132.947 282.795C133.042 282.777 133.118 282.761 133.175 282.75L133.447 283.955C133.357 283.989 133.23 284.023 133.067 284.057C132.904 284.095 132.697 284.114 132.447 284.114C132.069 284.114 131.697 284.032 131.334 283.869C130.974 283.706 130.675 283.458 130.436 283.125C130.201 282.792 130.084 282.371 130.084 281.864V273.182Z" fill="black"/>
  <rect x="37.5" y="214.5" width="572" height="81" rx="7.5" stroke="#4A86E8"/>
  <!-- Rs 2 image -->
  <g clip-path="url(#clip0_365_4607)">
  <path d="M53.8417 207.271C53.4397 207.291 53.0459 207.394 52.6833 207.573L36.8755 215.357C36.4664 215.558 36.1069 215.851 35.8238 216.214C35.5406 216.577 35.3411 217 35.24 217.453L31.3401 234.938C31.2501 235.34 31.24 235.758 31.3105 236.164C31.381 236.571 31.5306 236.96 31.7505 237.306C31.8038 237.391 31.8612 237.473 31.9224 237.552L42.8638 251.572C43.1471 251.935 43.5066 252.228 43.9157 252.429C44.3249 252.63 44.7731 252.735 45.2272 252.735L62.7736 252.731C63.2275 252.731 63.6757 252.627 64.0848 252.426C64.494 252.225 64.8536 251.933 65.137 251.57L76.0744 237.548C76.3578 237.185 76.5575 236.762 76.6586 236.309C76.7598 235.856 76.7598 235.386 76.6587 234.933L72.7528 217.449C72.6517 216.996 72.4522 216.573 72.169 216.21C71.8859 215.847 71.5264 215.554 71.1172 215.353L55.3075 207.573C54.8513 207.348 54.3473 207.244 53.8417 207.271Z" fill="#326CE5"/>
  <path d="M53.8336 206.004C53.4098 206.027 52.9946 206.136 52.6125 206.325L35.9233 214.54C35.4914 214.753 35.1119 215.062 34.813 215.445C34.5141 215.828 34.3035 216.275 34.1968 216.753L30.0806 235.211C29.9852 235.636 29.9744 236.077 30.0487 236.507C30.123 236.937 30.281 237.347 30.5132 237.713C30.5697 237.802 30.6304 237.889 30.6952 237.972L42.2452 252.773C42.5442 253.156 42.9237 253.465 43.3556 253.677C43.7875 253.89 44.2607 254 44.74 254L63.2629 253.996C63.742 253.996 64.2151 253.886 64.647 253.674C65.0789 253.462 65.4585 253.153 65.7576 252.771L77.3036 237.967C77.6025 237.584 77.8131 237.138 77.9198 236.66C78.0266 236.182 78.0267 235.686 77.9202 235.209L73.798 216.749C73.691 216.272 73.4803 215.825 73.1814 215.442C72.8825 215.06 72.5031 214.751 72.0715 214.538L55.3823 206.323C54.9003 206.086 54.3678 205.976 53.8336 206.004V206.004ZM53.8417 207.271C54.3473 207.245 54.8513 207.349 55.3074 207.573L71.1172 215.353C71.5263 215.554 71.8858 215.847 72.169 216.21C72.4521 216.573 72.6517 216.997 72.7528 217.449L76.6587 234.934C76.7598 235.387 76.7598 235.857 76.6586 236.309C76.5575 236.762 76.3578 237.186 76.0744 237.549L65.137 251.571C64.8536 251.933 64.494 252.226 64.0848 252.426C63.6757 252.627 63.2275 252.731 62.7736 252.731L45.2272 252.735C44.7731 252.735 44.3249 252.631 43.9157 252.43C43.5066 252.228 43.147 251.936 42.8638 251.573L31.9223 237.553C31.8612 237.474 31.8038 237.392 31.7505 237.307C31.5306 236.96 31.381 236.572 31.3105 236.165C31.24 235.758 31.25 235.341 31.3401 234.938L35.24 217.453C35.3411 217.001 35.5406 216.577 35.8237 216.214C36.1069 215.852 36.4664 215.559 36.8755 215.357L52.6833 207.573C53.0459 207.395 53.4397 207.292 53.8417 207.271L53.8417 207.271Z" fill="white"/>
  <path d="M51.2034 248.52V244.511H51.7985V245.116H51.8403C51.9134 244.918 52.0456 244.757 52.237 244.634C52.4284 244.51 52.6442 244.448 52.8843 244.448C52.9296 244.448 52.9861 244.449 53.054 244.451C53.1218 244.453 53.1732 244.455 53.208 244.459V245.085C53.1871 245.08 53.1392 245.072 53.0644 245.062C52.9913 245.049 52.9139 245.043 52.8321 245.043C52.6372 245.043 52.4632 245.084 52.3101 245.166C52.1587 245.246 52.0387 245.357 51.9499 245.5C51.8629 245.641 51.8194 245.802 51.8194 245.983V248.52H51.2034ZM56.7779 245.409L56.2246 245.565C56.1898 245.473 56.1384 245.384 56.0706 245.297C56.0045 245.208 55.914 245.135 55.7991 245.077C55.6843 245.02 55.5373 244.991 55.358 244.991C55.1127 244.991 54.9082 245.048 54.7447 245.161C54.5828 245.272 54.5019 245.414 54.5019 245.586C54.5019 245.739 54.5576 245.86 54.669 245.949C54.7803 246.038 54.9543 246.112 55.191 246.171L55.7861 246.317C56.1445 246.404 56.4116 246.537 56.5874 246.716C56.7631 246.894 56.851 247.123 56.851 247.403C56.851 247.633 56.7849 247.838 56.6526 248.019C56.5221 248.2 56.3394 248.343 56.1045 248.447C55.8696 248.551 55.5964 248.604 55.2849 248.604C54.876 248.604 54.5376 248.515 54.2696 248.337C54.0017 248.16 53.832 247.901 53.7607 247.56L54.3453 247.413C54.401 247.629 54.5063 247.791 54.6611 247.899C54.8177 248.007 55.0222 248.061 55.2745 248.061C55.5616 248.061 55.7896 248 55.9583 247.878C56.1289 247.754 56.2141 247.606 56.2141 247.434C56.2141 247.295 56.1654 247.178 56.068 247.084C55.9705 246.989 55.8209 246.917 55.619 246.87L54.9509 246.714C54.5837 246.627 54.314 246.492 54.1417 246.309C53.9712 246.125 53.8859 245.894 53.8859 245.618C53.8859 245.391 53.9495 245.191 54.0765 245.017C54.2052 244.843 54.3801 244.707 54.6011 244.608C54.8238 244.508 55.0761 244.459 55.358 244.459C55.7548 244.459 56.0662 244.546 56.2924 244.72C56.5204 244.894 56.6822 245.123 56.7779 245.409Z" fill="white"/>
  <path fill-rule="evenodd" clip-rule="evenodd" d="M49.231 216.56H66.5968V229.131H49.231V216.56Z" fill="#326CE5" stroke="white" stroke-width="0.30625" stroke-miterlimit="10" stroke-linecap="square" stroke-linejoin="round" stroke-dasharray="0.73 0.73"/>
  <path fill-rule="evenodd" clip-rule="evenodd" d="M45.1353 220.431H62.5011V233.002H45.1353V220.431Z" fill="#326CE5" stroke="white" stroke-width="0.30625" stroke-miterlimit="10" stroke-linecap="square" stroke-linejoin="round" stroke-dasharray="0.73 0.73"/>
  <path fill-rule="evenodd" clip-rule="evenodd" d="M41.04 224.302H58.4059V236.873H41.04V224.302Z" fill="white"/>
  <path fill-rule="evenodd" clip-rule="evenodd" d="M41.04 224.302H58.4059V236.873H41.04V224.302Z" stroke="white" stroke-width="0.243086" stroke-miterlimit="10" stroke-linejoin="round"/>
  </g>
  <!-- Rs 2 arrow -->
  <path d="M24 255L16.1827 250.487V259.513L24 255ZM1 255H0.218266L0.218266 255.782H1V255ZM1 26L1 25.2183H0.218266L0.218266 26H1ZM24 25.2183H22.5625V26.7817H24V25.2183ZM19.6875 25.2183H16.8125V26.7817H19.6875V25.2183ZM13.9375 25.2183H11.0625V26.7817H13.9375V25.2183ZM8.1875 25.2183H5.3125V26.7817H8.1875V25.2183ZM2.4375 25.2183H1L1 26.7817H2.4375V25.2183ZM0.218266 26L0.218266 27.5473L1.78173 27.5473L1.78173 26H0.218266ZM0.218266 30.6419L0.218266 33.7365H1.78173L1.78173 30.6419H0.218266ZM0.218266 36.8311L0.218266 39.9257H1.78173L1.78173 36.8311H0.218266ZM0.218266 43.0203L0.218266 46.1149H1.78173L1.78173 43.0203H0.218266ZM0.218266 49.2095L0.218266 52.3041H1.78173L1.78173 49.2095H0.218266ZM0.218266 55.3986L0.218266 58.4932H1.78173L1.78173 55.3986H0.218266ZM0.218266 61.5878L0.218266 64.6824H1.78173L1.78173 61.5878H0.218266ZM0.218266 67.777L0.218266 70.8716H1.78173L1.78173 67.777H0.218266ZM0.218266 73.9662L0.218266 77.0608H1.78173L1.78173 73.9662H0.218266ZM0.218266 80.1554L0.218266 83.25H1.78173L1.78173 80.1554H0.218266ZM0.218266 86.3446L0.218266 89.4392H1.78173L1.78173 86.3446H0.218266ZM0.218266 92.5338L0.218266 95.6284H1.78173L1.78173 92.5338H0.218266ZM0.218266 98.723L0.218266 101.818H1.78173L1.78173 98.723H0.218266ZM0.218266 104.912L0.218266 108.007H1.78173L1.78173 104.912H0.218266ZM0.218266 111.101L0.218266 114.196H1.78173L1.78173 111.101H0.218266ZM0.218266 117.291L0.218266 120.385H1.78173L1.78173 117.291H0.218266ZM0.218266 123.48L0.218266 126.574H1.78173L1.78173 123.48H0.218266ZM0.218266 129.669L0.218266 132.764H1.78173L1.78173 129.669H0.218266ZM0.218266 135.858L0.218266 138.953H1.78173L1.78173 135.858H0.218266ZM0.218266 142.047L0.218266 145.142H1.78173L1.78173 142.047H0.218266ZM0.218266 148.237L0.218266 151.331H1.78173L1.78173 148.237H0.218266ZM0.218266 154.426L0.218266 157.52H1.78173L1.78173 154.426H0.218266ZM0.218266 160.615L0.218266 163.709H1.78173L1.78173 160.615H0.218266ZM0.218266 166.804L0.218266 169.899H1.78173L1.78173 166.804H0.218266ZM0.218266 172.993L0.218266 176.088H1.78173L1.78173 172.993H0.218266ZM0.218266 179.182L0.218266 182.277H1.78173L1.78173 179.182H0.218266ZM0.218266 185.372L0.218266 188.466H1.78173L1.78173 185.372H0.218266ZM0.218266 191.561L0.218266 194.655H1.78173L1.78173 191.561H0.218266ZM0.218266 197.75L0.218266 200.845H1.78173L1.78173 197.75H0.218266ZM0.218266 203.939L0.218266 207.034H1.78173L1.78173 203.939H0.218266ZM0.218266 210.128L0.218266 213.223H1.78173L1.78173 210.128H0.218266ZM0.218266 216.317L0.218266 219.412H1.78173L1.78173 216.317H0.218266ZM0.218266 222.507L0.218266 225.601H1.78173L1.78173 222.507H0.218266ZM0.218266 228.696L0.218266 231.79H1.78173L1.78173 228.696H0.218266ZM0.218266 234.885L0.218266 237.98H1.78173L1.78173 234.885H0.218266ZM0.218266 241.074L0.218266 244.169H1.78173L1.78173 241.074H0.218266ZM0.218266 247.263L0.218266 250.358H1.78173L1.78173 247.263H0.218266ZM0.218266 253.453L0.218266 255H1.78173L1.78173 253.453H0.218266ZM1 255.782H2.4375V254.218H1L1 255.782ZM5.3125 255.782H8.1875V254.218H5.3125V255.782ZM11.0625 255.782H13.9375L13.9375 254.218H11.0625L11.0625 255.782ZM16.8125 255.782H19.6875V254.218H16.8125V255.782Z" fill="#326CE5"/>
  <!-- Pod 2-1 -->
  <path d="M169 243.43L188.5 254.859V278.336L169 266.907V243.43Z" fill="#B7AAFC"/>
  <path d="M208 243.328L188.5 254.758V278.336L208 266.907V243.328Z" fill="#8B80F0"/>
  <path d="M169 243.43L188.5 232L208 243.43L188.5 254.859L169 243.43Z" fill="#EBC6FE"/>
  <!-- Pod 2-2 -->
  <path d="M260 243.43L279.5 254.859V278.336L260 266.907V243.43Z" fill="#B7AAFC"/>
  <path d="M299 243.328L279.5 254.758V278.336L299 266.907V243.328Z" fill="#8B80F0"/>
  <path d="M260 243.43L279.5 232L299 243.43L279.5 254.859L260 243.43Z" fill="#EBC6FE"/>
  <!-- Pod 2-3 -->
  <path d="M351 243.43L370.5 254.859V278.336L351 266.907V243.43Z" fill="#B7AAFC"/>
  <path d="M390 243.328L370.5 254.758V278.336L390 266.907V243.328Z" fill="#8B80F0"/>
  <path d="M351 243.43L370.5 232L390 243.43L370.5 254.859L351 243.43Z" fill="#EBC6FE"/>
  <!-- Pod 2-4 -->
  <path d="M442 243.43L461.5 254.859V278.336L442 266.907V243.43Z" fill="#B7AAFC"/>
  <path d="M481 243.328L461.5 254.758V278.336L481 266.907V243.328Z" fill="#8B80F0"/>
  <path d="M442 243.43L461.5 232L481 243.43L461.5 254.859L442 243.43Z" fill="#EBC6FE"/>
  <!-- Pod 2-5 -->
  <path d="M533 243.43L552.5 254.859V278.336L533 266.907V243.43Z" fill="#B7AAFC"/>
  <path d="M572 243.328L552.5 254.758V278.336L572 266.907V243.328Z" fill="#8B80F0"/>
  <path d="M533 243.43L552.5 232L572 243.43L552.5 254.859L533 243.43Z" fill="#EBC6FE"/>
  <!-- Rs 1 -->
  <path d="M55.4091 164V152.364H59.3409C60.25 152.364 60.9962 152.519 61.5795 152.83C62.1629 153.136 62.5947 153.559 62.875 154.097C63.1553 154.634 63.2955 155.246 63.2955 155.932C63.2955 156.617 63.1553 157.225 62.875 157.756C62.5947 158.286 62.1648 158.703 61.5852 159.006C61.0057 159.305 60.2652 159.455 59.3636 159.455H56.1818V158.182H59.3182C59.9394 158.182 60.4394 158.091 60.8182 157.909C61.2008 157.727 61.4773 157.47 61.6477 157.136C61.822 156.799 61.9091 156.398 61.9091 155.932C61.9091 155.466 61.822 155.059 61.6477 154.71C61.4735 154.362 61.1951 154.093 60.8125 153.903C60.4299 153.71 59.9242 153.614 59.2955 153.614H56.8182V164H55.4091ZM60.8864 158.773L63.75 164H62.1136L59.2955 158.773H60.8864ZM69.027 164.182C68.1861 164.182 67.4607 163.996 66.8509 163.625C66.2448 163.25 65.777 162.727 65.4474 162.057C65.1217 161.383 64.9588 160.598 64.9588 159.705C64.9588 158.811 65.1217 158.023 65.4474 157.341C65.777 156.655 66.2353 156.121 66.8224 155.739C67.4134 155.352 68.1027 155.159 68.8906 155.159C69.3452 155.159 69.794 155.235 70.2372 155.386C70.6804 155.538 71.0838 155.784 71.4474 156.125C71.8111 156.462 72.1009 156.909 72.3168 157.466C72.5327 158.023 72.6406 158.708 72.6406 159.523V160.091H65.9134V158.932H71.277C71.277 158.439 71.1785 158 70.9815 157.614C70.7884 157.227 70.5118 156.922 70.152 156.699C69.7959 156.475 69.3755 156.364 68.8906 156.364C68.3565 156.364 67.8944 156.496 67.5043 156.761C67.1179 157.023 66.8205 157.364 66.6122 157.784C66.4039 158.205 66.2997 158.655 66.2997 159.136V159.909C66.2997 160.568 66.4134 161.127 66.6406 161.585C66.8717 162.04 67.1918 162.386 67.6009 162.625C68.0099 162.86 68.4853 162.977 69.027 162.977C69.3793 162.977 69.6974 162.928 69.9815 162.83C70.2694 162.727 70.5175 162.576 70.7259 162.375C70.9342 162.17 71.0952 161.917 71.2088 161.614L72.5043 161.977C72.3679 162.417 72.1387 162.803 71.8168 163.136C71.4948 163.466 71.0971 163.723 70.6236 163.909C70.1501 164.091 69.6179 164.182 69.027 164.182ZM74.6804 167.273V155.273H75.9759V156.659H76.1349C76.2334 156.508 76.3698 156.314 76.544 156.08C76.7221 155.841 76.9759 155.629 77.3054 155.443C77.6387 155.254 78.0895 155.159 78.6577 155.159C79.3925 155.159 80.0402 155.343 80.6009 155.71C81.1615 156.078 81.599 156.598 81.9134 157.273C82.2277 157.947 82.3849 158.742 82.3849 159.659C82.3849 160.583 82.2277 161.384 81.9134 162.062C81.599 162.737 81.1634 163.259 80.6065 163.631C80.0497 163.998 79.4077 164.182 78.6804 164.182C78.1198 164.182 77.6709 164.089 77.3338 163.903C76.9967 163.714 76.7372 163.5 76.5554 163.261C76.3736 163.019 76.2334 162.818 76.1349 162.659H76.0213V167.273H74.6804ZM75.9986 159.636C75.9986 160.295 76.0952 160.877 76.2884 161.381C76.4815 161.881 76.7637 162.273 77.1349 162.557C77.5062 162.837 77.9607 162.977 78.4986 162.977C79.0592 162.977 79.527 162.83 79.902 162.534C80.2808 162.235 80.5649 161.833 80.7543 161.33C80.9474 160.822 81.044 160.258 81.044 159.636C81.044 159.023 80.9493 158.47 80.7599 157.977C80.5743 157.481 80.2921 157.089 79.9134 156.801C79.5384 156.509 79.0668 156.364 78.4986 156.364C77.9531 156.364 77.4948 156.502 77.1236 156.778C76.7524 157.051 76.4721 157.434 76.2827 157.926C76.0933 158.415 75.9986 158.985 75.9986 159.636ZM85.7713 152.364V164H84.4304V152.364H85.7713ZM88.2273 164V155.273H89.5682V164H88.2273ZM88.9091 153.818C88.6477 153.818 88.4223 153.729 88.233 153.551C88.0473 153.373 87.9545 153.159 87.9545 152.909C87.9545 152.659 88.0473 152.445 88.233 152.267C88.4223 152.089 88.6477 152 88.9091 152C89.1705 152 89.3939 152.089 89.5795 152.267C89.7689 152.445 89.8636 152.659 89.8636 152.909C89.8636 153.159 89.7689 153.373 89.5795 153.551C89.3939 153.729 89.1705 153.818 88.9091 153.818ZM95.5696 164.182C94.7514 164.182 94.0469 163.989 93.456 163.602C92.8651 163.216 92.4105 162.684 92.0923 162.006C91.7741 161.328 91.6151 160.553 91.6151 159.682C91.6151 158.795 91.7779 158.013 92.1037 157.335C92.4332 156.653 92.8916 156.121 93.4787 155.739C94.0696 155.352 94.759 155.159 95.5469 155.159C96.1605 155.159 96.7135 155.273 97.206 155.5C97.6984 155.727 98.1018 156.045 98.4162 156.455C98.7306 156.864 98.9257 157.341 99.0014 157.886H97.6605C97.5582 157.489 97.331 157.136 96.9787 156.83C96.6302 156.519 96.1605 156.364 95.5696 156.364C95.0469 156.364 94.5885 156.5 94.1946 156.773C93.8045 157.042 93.4995 157.422 93.2798 157.915C93.0639 158.403 92.956 158.977 92.956 159.636C92.956 160.311 93.062 160.898 93.2741 161.398C93.4901 161.898 93.7931 162.286 94.1832 162.562C94.5772 162.839 95.0393 162.977 95.5696 162.977C95.9181 162.977 96.2344 162.917 96.5185 162.795C96.8026 162.674 97.0431 162.5 97.2401 162.273C97.437 162.045 97.5772 161.773 97.6605 161.455H99.0014C98.9257 161.97 98.7382 162.434 98.4389 162.847C98.1435 163.256 97.7514 163.581 97.2628 163.824C96.7779 164.062 96.2135 164.182 95.5696 164.182ZM103.53 164.205C102.977 164.205 102.475 164.1 102.024 163.892C101.573 163.68 101.215 163.375 100.95 162.977C100.685 162.576 100.553 162.091 100.553 161.523C100.553 161.023 100.651 160.617 100.848 160.307C101.045 159.992 101.308 159.746 101.638 159.568C101.967 159.39 102.331 159.258 102.729 159.17C103.13 159.08 103.534 159.008 103.939 158.955C104.469 158.886 104.899 158.835 105.229 158.801C105.562 158.763 105.804 158.701 105.956 158.614C106.111 158.527 106.189 158.375 106.189 158.159V158.114C106.189 157.553 106.036 157.117 105.729 156.807C105.426 156.496 104.965 156.341 104.348 156.341C103.708 156.341 103.206 156.481 102.842 156.761C102.479 157.042 102.223 157.341 102.075 157.659L100.803 157.205C101.03 156.674 101.333 156.261 101.712 155.966C102.094 155.667 102.511 155.458 102.962 155.341C103.416 155.22 103.863 155.159 104.303 155.159C104.583 155.159 104.905 155.193 105.268 155.261C105.636 155.326 105.99 155.46 106.331 155.665C106.676 155.869 106.962 156.178 107.189 156.591C107.416 157.004 107.53 157.557 107.53 158.25V164H106.189V162.818H106.121C106.03 163.008 105.878 163.21 105.666 163.426C105.454 163.642 105.172 163.826 104.82 163.977C104.467 164.129 104.037 164.205 103.53 164.205ZM103.734 163C104.265 163 104.712 162.896 105.075 162.688C105.443 162.479 105.719 162.21 105.905 161.881C106.094 161.551 106.189 161.205 106.189 160.841V159.614C106.132 159.682 106.007 159.744 105.814 159.801C105.625 159.854 105.405 159.902 105.155 159.943C104.909 159.981 104.668 160.015 104.433 160.045C104.202 160.072 104.015 160.095 103.871 160.114C103.522 160.159 103.196 160.233 102.893 160.335C102.594 160.434 102.352 160.583 102.166 160.784C101.984 160.981 101.893 161.25 101.893 161.591C101.893 162.057 102.066 162.409 102.411 162.648C102.759 162.883 103.2 163 103.734 163ZM116.523 155.273C116.455 154.697 116.178 154.25 115.693 153.932C115.208 153.614 114.614 153.455 113.909 153.455C113.394 153.455 112.943 153.538 112.557 153.705C112.174 153.871 111.875 154.1 111.659 154.392C111.447 154.684 111.341 155.015 111.341 155.386C111.341 155.697 111.415 155.964 111.562 156.188C111.714 156.407 111.907 156.591 112.142 156.739C112.377 156.883 112.623 157.002 112.881 157.097C113.138 157.187 113.375 157.261 113.591 157.318L114.773 157.636C115.076 157.716 115.413 157.826 115.784 157.966C116.159 158.106 116.517 158.297 116.858 158.54C117.203 158.778 117.487 159.085 117.71 159.46C117.934 159.835 118.045 160.295 118.045 160.841C118.045 161.47 117.881 162.038 117.551 162.545C117.225 163.053 116.748 163.456 116.119 163.756C115.494 164.055 114.735 164.205 113.841 164.205C113.008 164.205 112.286 164.07 111.676 163.801C111.07 163.532 110.593 163.157 110.244 162.676C109.9 162.195 109.705 161.636 109.659 161H111.114C111.152 161.439 111.299 161.803 111.557 162.091C111.818 162.375 112.148 162.587 112.545 162.727C112.947 162.864 113.379 162.932 113.841 162.932C114.379 162.932 114.862 162.845 115.29 162.67C115.718 162.492 116.057 162.246 116.307 161.932C116.557 161.614 116.682 161.242 116.682 160.818C116.682 160.432 116.574 160.117 116.358 159.875C116.142 159.633 115.858 159.436 115.506 159.284C115.153 159.133 114.773 159 114.364 158.886L112.932 158.477C112.023 158.216 111.303 157.843 110.773 157.358C110.242 156.873 109.977 156.239 109.977 155.455C109.977 154.803 110.153 154.235 110.506 153.75C110.862 153.261 111.339 152.883 111.938 152.614C112.54 152.341 113.212 152.205 113.955 152.205C114.705 152.205 115.371 152.339 115.955 152.608C116.538 152.873 117 153.237 117.341 153.699C117.686 154.161 117.867 154.686 117.886 155.273H116.523ZM123.839 164.182C122.999 164.182 122.273 163.996 121.663 163.625C121.057 163.25 120.589 162.727 120.26 162.057C119.934 161.383 119.771 160.598 119.771 159.705C119.771 158.811 119.934 158.023 120.26 157.341C120.589 156.655 121.048 156.121 121.635 155.739C122.226 155.352 122.915 155.159 123.703 155.159C124.158 155.159 124.607 155.235 125.05 155.386C125.493 155.538 125.896 155.784 126.26 156.125C126.624 156.462 126.913 156.909 127.129 157.466C127.345 158.023 127.453 158.708 127.453 159.523V160.091H120.726V158.932H126.089C126.089 158.439 125.991 158 125.794 157.614C125.601 157.227 125.324 156.922 124.964 156.699C124.608 156.475 124.188 156.364 123.703 156.364C123.169 156.364 122.707 156.496 122.317 156.761C121.93 157.023 121.633 157.364 121.425 157.784C121.216 158.205 121.112 158.655 121.112 159.136V159.909C121.112 160.568 121.226 161.127 121.453 161.585C121.684 162.04 122.004 162.386 122.413 162.625C122.822 162.86 123.298 162.977 123.839 162.977C124.192 162.977 124.51 162.928 124.794 162.83C125.082 162.727 125.33 162.576 125.538 162.375C125.747 162.17 125.908 161.917 126.021 161.614L127.317 161.977C127.18 162.417 126.951 162.803 126.629 163.136C126.307 163.466 125.91 163.723 125.436 163.909C124.963 164.091 124.43 164.182 123.839 164.182ZM133.288 155.273V156.409H128.766V155.273H133.288ZM130.084 153.182H131.425V161.5C131.425 161.879 131.48 162.163 131.589 162.352C131.703 162.538 131.847 162.663 132.021 162.727C132.199 162.788 132.387 162.818 132.584 162.818C132.732 162.818 132.853 162.811 132.947 162.795C133.042 162.777 133.118 162.761 133.175 162.75L133.447 163.955C133.357 163.989 133.23 164.023 133.067 164.057C132.904 164.095 132.697 164.114 132.447 164.114C132.069 164.114 131.697 164.032 131.334 163.869C130.974 163.706 130.675 163.458 130.436 163.125C130.201 162.792 130.084 162.371 130.084 161.864V153.182Z" fill="black"/>
  <rect x="37.5" y="94.5" width="572" height="81" rx="7.5" stroke="#4A86E8"/>
  <!-- Rs 1 image -->
  <g clip-path="url(#clip1_365_4607)">
  <path d="M53.8417 87.2706C53.4397 87.2915 53.0459 87.3942 52.6833 87.5727L36.8755 95.3567C36.4664 95.5581 36.1069 95.8511 35.8238 96.2139C35.5406 96.5768 35.3411 97.0002 35.24 97.4527L31.3401 114.938C31.2501 115.34 31.24 115.758 31.3105 116.164C31.381 116.571 31.5306 116.96 31.7505 117.306C31.8038 117.391 31.8612 117.473 31.9224 117.552L42.8638 131.572C43.1471 131.935 43.5066 132.228 43.9157 132.429C44.3249 132.63 44.7731 132.735 45.2272 132.735L62.7736 132.731C63.2275 132.731 63.6757 132.627 64.0848 132.426C64.494 132.225 64.8536 131.933 65.137 131.57L76.0744 117.548C76.3578 117.185 76.5575 116.762 76.6586 116.309C76.7598 115.856 76.7598 115.386 76.6587 114.933L72.7528 97.4485C72.6517 96.996 72.4522 96.5726 72.169 96.2098C71.8859 95.8469 71.5264 95.5539 71.1172 95.3525L55.3075 87.5727C54.8513 87.3481 54.3473 87.2443 53.8417 87.2706Z" fill="#326CE5"/>
  <path d="M53.8336 86.0043C53.4098 86.0272 52.9946 86.1363 52.6125 86.3252L35.9233 94.5404C35.4914 94.753 35.1119 95.0623 34.813 95.4454C34.5141 95.8285 34.3035 96.2754 34.1968 96.7531L30.0806 115.211C29.9852 115.636 29.9744 116.077 30.0487 116.507C30.123 116.937 30.281 117.347 30.5132 117.713C30.5697 117.802 30.6304 117.889 30.6952 117.972L42.2452 132.773C42.5442 133.156 42.9237 133.465 43.3556 133.677C43.7875 133.89 44.2607 134 44.74 134L63.2629 133.996C63.742 133.996 64.2151 133.886 64.647 133.674C65.0789 133.462 65.4585 133.153 65.7576 132.771L77.3036 117.967C77.6025 117.584 77.8131 117.138 77.9198 116.66C78.0266 116.182 78.0267 115.686 77.9202 115.209L73.798 96.749C73.691 96.2717 73.4803 95.8251 73.1814 95.4424C72.8825 95.0597 72.5031 94.7507 72.0715 94.5384L55.3823 86.3231C54.9003 86.0858 54.3678 85.9762 53.8336 86.0043V86.0043ZM53.8417 87.2711C54.3473 87.2447 54.8513 87.3486 55.3074 87.5732L71.1172 95.353C71.5263 95.5544 71.8858 95.8474 72.169 96.2102C72.4521 96.5731 72.6517 96.9965 72.7528 97.449L76.6587 114.934C76.7598 115.387 76.7598 115.857 76.6586 116.309C76.5575 116.762 76.3578 117.186 76.0744 117.549L65.137 131.571C64.8536 131.933 64.494 132.226 64.0848 132.426C63.6757 132.627 63.2275 132.731 62.7736 132.731L45.2272 132.735C44.7731 132.735 44.3249 132.631 43.9157 132.43C43.5066 132.228 43.147 131.936 42.8638 131.573L31.9223 117.553C31.8612 117.474 31.8038 117.392 31.7505 117.307C31.5306 116.96 31.381 116.572 31.3105 116.165C31.24 115.758 31.25 115.341 31.3401 114.938L35.24 97.4532C35.3411 97.0007 35.5406 96.5773 35.8237 96.2144C36.1069 95.8516 36.4664 95.5586 36.8755 95.3572L52.6833 87.5732C53.0459 87.3947 53.4397 87.292 53.8417 87.2711L53.8417 87.2711Z" fill="white"/>
  <path d="M51.2034 128.52V124.511H51.7985V125.116H51.8403C51.9134 124.918 52.0456 124.757 52.237 124.634C52.4284 124.51 52.6442 124.448 52.8843 124.448C52.9296 124.448 52.9861 124.449 53.054 124.451C53.1218 124.453 53.1732 124.455 53.208 124.459V125.085C53.1871 125.08 53.1392 125.072 53.0644 125.062C52.9913 125.049 52.9139 125.043 52.8321 125.043C52.6372 125.043 52.4632 125.084 52.3101 125.166C52.1587 125.246 52.0387 125.357 51.9499 125.5C51.8629 125.641 51.8194 125.802 51.8194 125.983V128.52H51.2034ZM56.7779 125.409L56.2246 125.565C56.1898 125.473 56.1384 125.384 56.0706 125.297C56.0045 125.208 55.914 125.135 55.7991 125.077C55.6843 125.02 55.5373 124.991 55.358 124.991C55.1127 124.991 54.9082 125.048 54.7447 125.161C54.5828 125.272 54.5019 125.414 54.5019 125.586C54.5019 125.739 54.5576 125.86 54.669 125.949C54.7803 126.038 54.9543 126.112 55.191 126.171L55.7861 126.317C56.1445 126.404 56.4116 126.537 56.5874 126.716C56.7631 126.894 56.851 127.123 56.851 127.403C56.851 127.633 56.7849 127.838 56.6526 128.019C56.5221 128.2 56.3394 128.343 56.1045 128.447C55.8696 128.551 55.5964 128.604 55.2849 128.604C54.876 128.604 54.5376 128.515 54.2696 128.337C54.0017 128.16 53.832 127.901 53.7607 127.56L54.3453 127.413C54.401 127.629 54.5063 127.791 54.6611 127.899C54.8177 128.007 55.0222 128.061 55.2745 128.061C55.5616 128.061 55.7896 128 55.9583 127.878C56.1289 127.754 56.2141 127.606 56.2141 127.434C56.2141 127.295 56.1654 127.178 56.068 127.084C55.9705 126.989 55.8209 126.917 55.619 126.87L54.9509 126.714C54.5837 126.627 54.314 126.492 54.1417 126.309C53.9712 126.125 53.8859 125.894 53.8859 125.618C53.8859 125.391 53.9495 125.191 54.0765 125.017C54.2052 124.843 54.3801 124.707 54.6011 124.608C54.8238 124.508 55.0761 124.459 55.358 124.459C55.7548 124.459 56.0662 124.546 56.2924 124.72C56.5204 124.894 56.6822 125.123 56.7779 125.409Z" fill="white"/>
  <path fill-rule="evenodd" clip-rule="evenodd" d="M49.231 96.5601H66.5968V109.131H49.231V96.5601Z" fill="#326CE5" stroke="white" stroke-width="0.30625" stroke-miterlimit="10" stroke-linecap="square" stroke-linejoin="round" stroke-dasharray="0.73 0.73"/>
  <path fill-rule="evenodd" clip-rule="evenodd" d="M45.1353 100.431H62.5011V113.002H45.1353V100.431Z" fill="#326CE5" stroke="white" stroke-width="0.30625" stroke-miterlimit="10" stroke-linecap="square" stroke-linejoin="round" stroke-dasharray="0.73 0.73"/>
  <path fill-rule="evenodd" clip-rule="evenodd" d="M41.04 104.302H58.4059V116.873H41.04V104.302Z" fill="white"/>
  <path fill-rule="evenodd" clip-rule="evenodd" d="M41.04 104.302H58.4059V116.873H41.04V104.302Z" stroke="white" stroke-width="0.243086" stroke-miterlimit="10" stroke-linejoin="round"/>
  </g>
  <!-- Rs 1 arrow -->
  <path d="M24 135L16.1827 130.487L16.1827 139.513L24 135ZM1 135H0.218266L0.218266 135.782H1L1 135ZM1 26L1 25.2183H0.218266L0.218266 26H1ZM24 25.2183H22.5625V26.7817H24V25.2183ZM19.6875 25.2183H16.8125V26.7817H19.6875V25.2183ZM13.9375 25.2183H11.0625V26.7817H13.9375V25.2183ZM8.1875 25.2183H5.3125V26.7817H8.1875V25.2183ZM2.4375 25.2183H1L1 26.7817H2.4375V25.2183ZM0.218266 26L0.218266 27.6029H1.78173L1.78173 26H0.218266ZM0.218266 30.8088L0.218266 34.0147H1.78173L1.78173 30.8088H0.218266ZM0.218266 37.2206L0.218266 40.4265H1.78173L1.78173 37.2206H0.218266ZM0.218266 43.6324L0.218266 46.8382H1.78173L1.78173 43.6324H0.218266ZM0.218266 50.0441L0.218266 53.25H1.78173L1.78173 50.0441H0.218266ZM0.218266 56.4559L0.218266 59.6618H1.78173L1.78173 56.4559H0.218266ZM0.218266 62.8676L0.218266 66.0735H1.78173L1.78173 62.8676H0.218266ZM0.218266 69.2794L0.218266 72.4853H1.78173L1.78173 69.2794H0.218266ZM0.218266 75.6912L0.218266 78.8971H1.78173L1.78173 75.6912H0.218266ZM0.218266 82.1029L0.218266 85.3088H1.78173L1.78173 82.1029H0.218266ZM0.218266 88.5147L0.218266 91.7206H1.78173L1.78173 88.5147H0.218266ZM0.218266 94.9265L0.218266 98.1324H1.78173L1.78173 94.9265H0.218266ZM0.218266 101.338L0.218266 104.544H1.78173L1.78173 101.338H0.218266ZM0.218266 107.75L0.218266 110.956H1.78173L1.78173 107.75H0.218266ZM0.218266 114.162L0.218266 117.368H1.78173L1.78173 114.162H0.218266ZM0.218266 120.574L0.218266 123.779H1.78173L1.78173 120.574H0.218266ZM0.218266 126.985L0.218266 130.191H1.78173L1.78173 126.985H0.218266ZM0.218266 133.397L0.218266 135H1.78173L1.78173 133.397H0.218266ZM1 135.782H2.4375V134.218H1L1 135.782ZM5.3125 135.782H8.1875V134.218H5.3125V135.782ZM11.0625 135.782H13.9375V134.218H11.0625V135.782ZM16.8125 135.782H19.6875L19.6875 134.218H16.8125V135.782Z" fill="#326CE5"/>
  <!-- Pod 1-1 -->
  <path d="M169 123.43L188.5 134.859V158.336L169 146.907V123.43Z" fill="#68BCFB"/>
  <path d="M208 123.328L188.5 134.758V158.336L208 146.907V123.328Z" fill="#1793EF"/>
  <path d="M169 123.43L188.5 112L208 123.43L188.5 134.859L169 123.43Z" fill="#A8D9FD"/>
  <!-- Pod 1-2 -->
  <path d="M260 123.43L279.5 134.859V158.336L260 146.907V123.43Z" fill="#68BCFB"/>
  <path d="M299 123.328L279.5 134.758V158.336L299 146.907V123.328Z" fill="#1793EF"/>
  <path d="M260 123.43L279.5 112L299 123.43L279.5 134.859L260 123.43Z" fill="#A8D9FD"/>
  <!-- Pod 1-3 -->
  <path d="M351 123.43L370.5 134.859V158.336L351 146.907V123.43Z" fill="#68BCFB"/>
  <path d="M390 123.328L370.5 134.758V158.336L390 146.907V123.328Z" fill="#1793EF"/>
  <path d="M351 123.43L370.5 112L390 123.43L370.5 134.859L351 123.43Z" fill="#A8D9FD"/>
  <!-- Pod 1-4 -->
  <path d="M442 123.43L461.5 134.859V158.336L442 146.907V123.43Z" fill="#68BCFB"/>
  <path d="M481 123.328L461.5 134.758V158.336L481 146.907V123.328Z" fill="#1793EF"/>
  <path d="M442 123.43L461.5 112L481 123.43L461.5 134.859L442 123.43Z" fill="#A8D9FD"/>
  <!-- Pod 1-5 -->
  <path d="M533 123.43L552.5 134.859V158.336L533 146.907V123.43Z" fill="#68BCFB"/>
  <path d="M572 123.328L552.5 134.758V158.336L572 146.907V123.328Z" fill="#1793EF"/>
  <path d="M533 123.43L552.5 112L572 123.43L552.5 134.859L533 123.43Z" fill="#A8D9FD"/>
</svg>
