<svg width="257" height="256" viewBox="0 0 257 256" fill="none" xmlns="http://www.w3.org/2000/svg">
<path d="M128 249.898C60.785 249.898 6.09961 195.217 6.09961 128C6.09961 60.7825 60.785 6.10231 128 6.10231C195.215 6.10231 249.9 60.7877 249.9 128.003C249.9 195.217 195.215 249.898 128 249.898Z" fill="#85EA2D"/>
<path d="M128 12.2021C191.955 12.2021 243.798 64.0448 243.798 128C243.798 191.953 191.955 243.798 128 243.798C64.0473 243.798 12.2021 191.953 12.2021 128C12.2021 64.0473 64.0473 12.2021 128 12.2021ZM128 0C57.4205 0 0 57.4205 0 128C0 198.579 57.4205 256 128 256C198.579 256 256.003 198.579 256.003 128C256.003 57.4205 198.579 0 128 0Z" fill="#173647"/>
<path d="M80.599 86.6195C80.205 90.9998 80.7449 95.5286 80.4532 99.9576C80.1078 104.389 79.5654 108.769 78.6801 113.15C77.4494 119.4 73.5603 124.126 68.1974 128.064C78.634 134.857 79.8135 145.388 80.5018 156.071C80.8472 161.83 80.6988 167.638 81.2899 173.346C81.7325 177.775 83.4545 178.909 88.0344 179.055C89.9047 179.103 91.8211 179.055 93.9909 179.055V192.738C80.4558 195.051 69.2823 191.213 66.5241 179.745C65.6362 175.562 65.0452 171.279 64.8507 166.947C64.5539 162.37 65.0452 157.793 64.7024 153.215C63.7173 140.663 62.0926 136.431 50.085 135.84V120.237C50.9702 120.04 51.8069 119.892 52.6922 119.795C59.2883 119.449 62.0926 117.43 63.5203 110.934C64.2111 107.293 64.6051 103.601 64.751 99.8603C65.2448 92.7243 65.0478 85.4399 66.2759 78.3526C67.9979 68.1642 74.2997 63.2414 84.7849 62.6503C87.7376 62.5019 90.7414 62.6503 94.1367 62.6503V76.6306C92.709 76.7304 91.4783 76.9249 90.199 76.9249C81.6839 76.6281 81.2387 79.5321 80.599 86.6195ZM96.9896 119.006H96.7925C91.8698 118.761 87.6378 122.599 87.3896 127.522C87.144 132.493 90.9819 136.727 95.9047 136.971H96.4957C101.37 137.267 105.551 133.524 105.847 128.652V128.161C105.947 123.19 101.961 119.106 96.9896 119.006ZM127.852 119.006C123.077 118.858 119.088 122.599 118.942 127.325C118.942 127.621 118.942 127.867 118.994 128.161C118.994 133.527 122.635 136.973 128.148 136.973C133.562 136.973 136.96 133.429 136.96 127.867C136.909 122.502 133.314 118.958 127.852 119.006ZM159.453 119.006C154.433 118.907 150.247 122.896 150.101 127.916C150.101 132.936 154.136 136.971 159.156 136.971H159.256C163.785 137.759 168.362 133.378 168.659 128.113C168.902 123.238 164.473 119.006 159.453 119.006ZM202.817 119.743C197.106 119.498 194.25 117.579 192.825 112.162C191.937 108.718 191.397 105.123 191.2 101.58C190.806 94.9836 190.855 88.3389 190.412 81.7427C189.379 66.0917 178.059 60.629 161.618 63.3335V76.9198C164.225 76.9198 166.244 76.9198 168.262 76.9684C171.758 77.017 174.416 78.3475 174.759 82.2366C175.104 85.7802 175.104 89.3725 175.45 92.9674C176.14 100.106 176.532 107.339 177.763 114.378C178.847 120.186 182.834 124.518 187.803 128.061C179.093 133.918 176.532 142.285 176.089 151.688C175.844 158.135 175.695 164.632 175.352 171.131C175.056 177.036 172.991 178.955 167.034 179.103C165.361 179.152 163.736 179.3 161.866 179.4V193.329C165.361 193.329 168.559 193.526 171.757 193.329C181.7 192.738 187.705 187.915 189.675 178.267C190.512 172.95 191.003 167.587 191.152 162.222C191.495 157.299 191.449 152.327 191.94 147.456C192.677 139.826 196.172 136.676 203.802 136.185C204.541 136.085 205.229 135.939 205.92 135.694V120.089C204.638 119.94 203.75 119.795 202.817 119.743Z" fill="#173647"/>
</svg>
