<svg width="208" height="104" viewBox="0 0 208 104" fill="none" xmlns="http://www.w3.org/2000/svg">
<path d="M156.842 75.1937H142.542L128.129 54.5619L122.703 60.0299V75.1376H111.229V27.3345H122.703V47.2334L141.525 27.3345H155.203L135.929 46.7826L156.842 75.1937ZM175.493 75.1937L159.611 27.3345H172.215L181.711 61.2135H182.446L191.376 27.3345H204.15L187.928 75.1937H175.493Z" fill="#353558"/>
<path d="M50.3 4.10938L4.00903 28.1234V76.0958L50.3 100.054L96.4211 76.0958V28.1234L50.3 4.10938Z" fill="#EC1A3B"/>
<path d="M47.1347 35.6772V80.4928L35.8301 74.6301V41.5399L21.3042 49.0938V37.0868L50.2431 22.0918L61.7736 28.0673L47.1347 35.6772ZM70.2515 71.6987L58.7777 77.6742V41.5966L70.2515 35.6772V71.6987Z" fill="white"/>
</svg>
