<svg width="170" height="79" viewBox="0 0 170 79" fill="none" xmlns="http://www.w3.org/2000/svg">
<path d="M72.0488 51.3526H78.359V74.667H72.0488V51.3526ZM72.0488 41.052H78.359V45.7709H72.0488V41.052ZM94.0504 70.1103C93.7636 70.1487 93.4745 70.1666 93.1851 70.1638C92.9078 70.1751 92.6312 70.1292 92.3726 70.029C92.1139 69.9287 91.8788 69.7763 91.682 69.5813C91.3122 69.1929 91.1273 68.5465 91.1273 67.6421V55.771H95.0839V51.3526H91.1273V45.6419H84.8375V51.3526H81.4226V55.7692H84.8375V67.6642C84.8375 70.2498 85.4242 72.1386 86.5976 73.3306C87.7722 74.5226 89.4473 75.1187 91.6228 75.1187C92.2784 75.1226 92.933 75.0683 93.5789 74.9564C94.2058 74.8409 94.8232 74.6789 95.4259 74.4716L94.9083 69.9241C94.6309 70.0016 94.3499 70.0642 94.0652 70.1085L94.0504 70.1103ZM108.682 50.9396C105.354 50.9249 102.739 52.0309 100.838 54.2576C98.9357 56.4844 97.9848 59.3428 97.9848 62.8328V63.6955C97.9848 67.0565 98.9708 69.8031 100.943 71.9352C102.915 74.0686 105.639 75.1352 109.115 75.1352C110.89 75.1537 112.654 74.8901 114.347 74.361C115.946 73.8449 117.214 73.2059 118.15 72.444L116.444 68.5656C115.478 69.1179 114.452 69.5589 113.386 69.8799C112.212 70.1896 110.982 70.3352 109.788 70.3112C108.075 70.3112 106.782 69.8154 105.909 68.8237C105.038 67.8332 104.551 66.5404 104.448 64.9453L104.513 64.8163H118.454V61.5462C118.454 58.2995 117.614 55.7176 115.935 53.8005C114.257 51.8834 111.853 50.9249 108.725 50.9249L108.682 50.9396ZM112.251 60.6577H104.556L104.513 60.5508C104.657 59.113 105.071 57.9603 105.756 57.0927C106.44 56.2239 107.416 55.7895 108.684 55.7895C109.938 55.7895 110.846 56.1809 111.408 56.9637C111.97 57.7465 112.251 58.8205 112.251 60.1858V60.6577ZM138.758 63.3858C137.353 62.2725 135.217 61.4282 132.35 60.8531C130.476 60.4943 129.233 60.0887 128.621 59.6365C128.038 59.242 127.696 58.5821 127.702 57.8798C127.698 57.5242 127.777 57.1726 127.93 56.8516C128.083 56.5306 128.308 56.2487 128.587 56.0272C129.179 55.5234 129.979 55.2715 130.987 55.2715C132.125 55.2715 132.996 55.5664 133.601 56.1563C134.212 56.7572 134.541 57.5867 134.507 58.442H140.603L140.647 58.313C140.719 56.2153 139.865 54.4629 138.087 53.0558C136.307 51.6487 133.94 50.9452 130.987 50.9452C128.165 50.9452 125.903 51.6487 124.202 53.0558C122.501 54.4641 121.65 56.1661 121.65 58.1618C121.65 60.058 122.36 61.5591 123.78 62.6651C125.198 63.7711 127.276 64.5969 130.016 65.1425C131.832 65.5161 133.075 65.9505 133.746 66.4458C134.415 66.941 134.75 67.5339 134.751 68.2246C134.779 68.973 134.437 69.6845 133.833 70.1324C133.22 70.5994 132.33 70.8329 131.163 70.8329C129.909 70.8329 128.894 70.5527 128.116 69.9923C127.339 69.432 126.928 68.5269 126.883 67.2771H121.114L121.072 67.4061C120.985 69.4178 121.846 71.2102 123.654 72.7831C125.463 74.3561 127.923 75.1426 131.035 75.1426C133.988 75.1426 136.365 74.4747 138.166 73.1389C139.966 71.8031 140.866 70.0864 140.866 67.9886C140.866 66.0224 140.163 64.4888 138.758 63.3877V63.3858ZM161.582 63.3858C160.177 62.2725 158.041 61.4282 155.174 60.8531C153.301 60.4943 152.057 60.0887 151.445 59.6365C150.862 59.242 150.52 58.5821 150.526 57.8798C150.523 57.5242 150.601 57.1726 150.754 56.8516C150.908 56.5306 151.133 56.2487 151.412 56.0272C152.003 55.5234 152.803 55.2715 153.811 55.2715C154.949 55.2715 155.821 55.5664 156.426 56.1563C157.036 56.7572 157.365 57.5867 157.332 58.442H163.427L163.472 58.313C163.543 56.2153 162.69 54.4629 160.911 53.0558C159.131 51.6487 156.765 50.9452 153.811 50.9452C150.989 50.9452 148.727 51.6487 147.026 53.0558C145.325 54.4641 144.475 56.1661 144.475 58.1618C144.475 60.058 145.185 61.5591 146.605 62.6651C148.022 63.7711 150.101 64.5969 152.841 65.1425C154.656 65.5161 155.899 65.9505 156.57 66.4458C157.239 66.941 157.574 67.5339 157.576 68.2246C157.603 68.973 157.261 69.6845 156.657 70.1324C156.044 70.5994 155.154 70.8329 153.987 70.8329C152.734 70.8329 151.718 70.5527 150.94 69.9923C150.164 69.432 149.753 68.5269 149.709 67.2771H143.94L143.898 67.4061C143.811 69.4178 144.672 71.2102 146.481 72.7831C148.289 74.3561 150.749 75.1426 153.861 75.1426C156.815 75.1426 159.192 74.4747 160.992 73.1389C162.792 71.8031 163.692 70.0864 163.692 67.9886C163.692 66.0224 162.989 64.4888 161.584 63.3877L161.582 63.3858Z" fill="#F16827"/>
<path d="M52.8206 47.7709L52.828 47.7304L55.4645 32.3386L52.8206 47.7709ZM71.8677 32.3017L63.313 47.7212L71.8732 32.3035L81.223 15.3946L71.8677 32.3017ZM72.1598 2.05629L69.4124 7.06094L72.1598 2.05629ZM20.6226 28.4104L31.113 17.1661L20.6226 28.4104ZM22.856 32.475L34.4429 23.2989L22.856 32.475ZM22.856 32.475L22.0795 31.063L22.856 32.475L31.0983 47.559L22.856 32.475ZM25.7476 27.1238L31.1149 17.1845L40.9139 35.1662L31.1149 17.1753L22.8172 2.05444L31.113 17.1808L25.7476 27.1238ZM49.8957 51.6659L49.9327 51.736L51.4857 54.5839L49.8957 51.6659ZM60.8595 22.5689L55.4608 32.3146L49.452 43.3414L55.4608 32.3183L60.8595 22.5689Z" fill="#284E64"/>
<path d="M39.333 62.7039L47.1297 76.9436L51.4191 54.9526L39.333 62.7039Z" fill="#F16827"/>
<path d="M51.4875 54.6025L44.6097 41.9941L39.333 62.704L51.4209 54.9509L51.4875 54.6025Z" fill="#F48029"/>
<path d="M31.0962 47.559L39.3311 62.7057L44.6077 41.9958L31.0962 47.559Z" fill="#F89A2E"/>
<path d="M31.0962 47.5591L44.6077 41.9922L34.4426 23.2971L31.0962 47.5591Z" fill="#F16827"/>
<path d="M52.8205 47.771L55.4644 32.3386L47.4033 47.1222L51.4838 54.6024L52.8205 47.771Z" fill="#F89921"/>
<path d="M22.856 32.477L31.0964 47.561L34.4428 23.3027L22.856 32.477Z" fill="#F89A2E"/>
<path d="M63.3071 47.7212L71.8674 32.3018L52.8296 47.7305L63.3071 47.7212Z" fill="#F48029"/>
<path d="M31.1149 17.1846L22.856 32.475L34.4428 23.2989L31.1149 17.1846ZM52.8298 47.7304L63.801 17.2823L55.4663 32.3368L52.8298 47.7304Z" fill="#F4AE5C"/>
<path d="M22.8559 32.477L31.1148 17.1865L20.6206 28.4124L22.0812 31.0631L22.8559 32.477Z" fill="#CD4E27"/>
<path d="M71.8656 32.3017L63.799 17.2822L52.8297 47.7304L71.8656 32.3017ZM20.6224 28.4104L31.1128 17.1661L22.8151 2.03784L20.6187 28.3938L20.6224 28.4104Z" fill="#F16938"/>
<path d="M71.8656 32.3018L72.1614 2.05642L63.8008 17.2824L71.8656 32.3018ZM22.815 2.05273H6.31201L20.6223 28.4087L22.815 2.05273Z" fill="#F89A2E"/>
<path d="M72.1613 2.05458V2.05642L71.8655 32.3018L88.5978 2.05273L72.1613 2.05458ZM52.8296 47.7305L52.8222 47.7711L47.1313 76.9418L63.309 47.725L52.8296 47.7305Z" fill="#CD4E27"/>
</svg>
