<svg width="355" height="520" viewBox="0 0 355 520" fill="none" xmlns="http://www.w3.org/2000/svg">
<path d="M215.208 383.442C195.398 378.544 175.244 386.655 164.824 403.689C159.817 411.938 157.583 421.573 158.447 431.184C159.312 440.795 163.23 449.876 169.628 457.099C183.511 472.542 204.507 476.785 223.351 467.987C225.16 467.145 226.689 465.273 229.06 466.084C229.559 475.787 228.28 481.122 224.131 486.55C212.806 501.369 191.904 499.84 181.265 483.399C177.085 476.941 172.322 475.194 166.977 478.158C161.33 481.309 160.269 486.862 164.169 493.632C169.564 503.087 178.162 510.301 188.409 513.973C190.25 514.659 190 514.659 192.808 515.72C196.022 516.968 205.911 517.28 210.497 516.437C212.479 516.026 214.428 515.473 216.331 514.784C235.424 509.075 248.808 492.259 249.276 472.324C249.619 456.756 249.682 441.189 249.245 425.621C248.887 415.858 245.378 406.473 239.243 398.87C233.108 391.267 224.676 385.854 215.209 383.442H215.208ZM178.083 427.275C178.024 422.211 179.469 417.243 182.234 413.001C185 408.758 188.961 405.431 193.618 403.44C198.275 401.45 203.417 400.885 208.395 401.818C213.372 402.75 217.961 405.138 221.581 408.68C225.201 412.221 227.69 416.757 228.731 421.713C229.773 426.669 229.321 431.822 227.434 436.522C225.546 441.221 222.306 445.254 218.125 448.112C213.944 450.97 209.01 452.523 203.946 452.576C200.585 452.618 197.249 451.996 194.129 450.746C191.009 449.497 188.166 447.643 185.763 445.293C183.361 442.942 181.446 440.141 180.128 437.049C178.81 433.957 178.115 430.636 178.083 427.275V427.275Z" fill="white"/>
<path d="M346.207 413.829C339.343 392.614 318.223 379.137 296.603 382.319C274.109 385.626 257.543 404.22 257.138 426.588C256.763 448.52 272.549 467.551 294.668 471.794C316.101 475.912 338.033 463.277 345.645 442.53C346.394 440.44 348.204 436.041 348.422 432.828C348.825 428.424 348.637 423.985 347.86 419.631C347.407 417.67 346.855 415.734 346.207 413.829V413.829ZM302.499 452.576C297.514 452.476 292.67 450.906 288.573 448.064C284.477 445.222 281.311 441.233 279.472 436.599C277.633 431.964 277.203 426.89 278.236 422.012C279.269 417.135 281.719 412.67 285.278 409.179C288.838 405.688 293.349 403.326 298.246 402.388C303.143 401.451 308.208 401.98 312.806 403.909C317.403 405.838 321.329 409.081 324.091 413.232C326.853 417.384 328.328 422.258 328.331 427.244C328.306 430.605 327.616 433.929 326.303 437.023C324.99 440.118 323.078 442.923 320.678 445.277C318.278 447.631 315.436 449.487 312.317 450.74C309.197 451.992 305.861 452.616 302.499 452.576V452.576Z" fill="white"/>
<path d="M96.47 417.572C90.5112 391.241 64.742 376.391 39.2224 384.378C13.578 392.427 0.287755 420.255 10.3958 444.808C20.1606 468.58 49.736 479.468 73.0406 467.832C75.786 466.459 77.8451 464.462 80.4968 468.58C82.8367 472.199 86.9236 473.385 91.3536 471.606C95.6589 469.859 97.5308 466.584 97.4995 462.06C97.4685 455.602 97.4995 449.144 97.4995 441.033C97.094 434.294 98.3419 425.84 96.47 417.572ZM52.3878 452.576C37.8497 452.389 26.4314 441.064 26.8369 427.243C27.2113 413.516 39.1912 402.005 53.0117 402.067C66.9259 402.129 77.9698 413.797 77.7826 428.211C77.6267 442.406 66.8323 452.763 52.3878 452.576Z" fill="white"/>
<path d="M161.174 391.21C160.675 384.69 155.184 381.352 146.667 382.288C136.838 383.269 127.596 387.422 120.336 394.12C113.075 400.817 108.192 409.695 106.422 419.413C104.925 427.212 106.079 435.168 105.736 441.719C105.736 448.77 105.705 454.51 105.736 460.251C105.798 468.144 109.292 472.511 115.532 472.574C121.771 472.667 125.578 468.237 125.671 460.469C125.765 449.487 125.578 438.475 125.734 427.493C125.921 413.766 135.436 402.847 149.007 402.285C157.056 401.942 161.58 396.607 161.174 391.21Z" fill="#FEFEFE"/>
<path d="M155.245 289.527C155.276 289.527 155.306 289.618 155.306 289.8C155.336 291.072 155.367 292.315 155.397 293.588C155.579 292.618 155.761 291.648 155.973 290.648C155.821 288.8 154.367 289.739 155.245 289.527Z" fill="#FEFEFE"/>
<path d="M234.761 185.89C234.731 185.92 234.67 185.92 234.64 185.95C234.67 185.98 234.731 186.011 234.761 186.041C234.731 186.011 234.761 185.95 234.761 185.89Z" fill="#FEFEFE"/>
<path d="M184.67 58.6765V58.7064H184.761C184.731 58.7064 184.7 58.6765 184.67 58.6765Z" fill="#FEFEFE"/>
<path d="M227.246 314.163C227.64 309.769 227.428 305.315 227.973 300.951C229.185 291.345 228.034 281.527 230.549 272.042C231.791 267.133 227.822 261.375 232.913 257.072L231.64 252.89C230.216 250.527 230.943 248.224 231.791 245.92C231.701 237.496 231.791 229.072 233.307 220.738C233.761 209.163 234.246 197.587 234.701 185.981C234.67 185.95 234.61 185.92 234.579 185.89C209.822 197.253 186.488 181.344 182.518 162.253C179.912 149.708 181.306 137.859 191.094 128.283C192.731 126.677 194.124 124.829 195.64 123.071C199.64 99.1011 196.852 77.1009 176.367 59.9493C179.427 58.1917 182.185 59.1917 184.67 58.7372V58.7073C159.548 52.4042 129.063 69.5862 118.972 95.8288C115.834 103.584 114.418 111.928 114.821 120.284C139.73 108.738 162.064 122.526 168.215 143.526C174.609 165.375 157.579 188.496 134.942 188.83C128.46 188.861 122.012 187.9 115.821 185.981C116.275 198.042 116.74 210.102 117.215 222.163C118.094 230.072 119.033 237.951 118.639 245.921C118.7 247.8 118.76 249.678 118.821 251.557C118.76 252.8 118.7 254.042 118.639 255.315C120.488 262.891 120.882 270.679 121.457 278.436C121.402 278.237 121.362 278.035 121.336 277.83C121.366 278.042 121.427 278.224 121.457 278.436C122.063 291.618 122.427 304.83 123.366 318.012C123.76 323.467 121.791 326.194 116.76 327.588C110.821 329.255 104.972 331.255 99.0935 333.134C106.851 334.109 114.675 334.454 122.488 334.164C130.882 333.982 134.7 330.255 135.518 321.921C136.033 316.618 136.488 311.315 136.973 306.012C137.518 296.406 138.063 286.77 138.609 277.164H139.791V304.588C139.942 308.74 140.003 312.921 140.276 317.073C141.488 336.437 142.064 336.316 122.76 340.225C122.318 340.362 121.892 340.545 121.488 340.77C122.639 341.528 123.791 342.285 124.942 343.073C125.117 343.101 125.284 343.168 125.43 343.267C125.577 343.367 125.7 343.497 125.791 343.649C130.397 343.679 135.033 344.073 139.579 343.649C147.851 342.861 151.761 338.437 152.367 330.225C152.73 324.952 153.276 319.679 153.73 314.406C153.003 307.406 154.064 300.527 155.367 293.649C155.337 292.376 155.306 291.133 155.276 289.861C155.276 289.679 155.215 289.558 155.215 289.588C154.336 289.8 155.791 288.861 155.942 290.709C156.094 289.891 156.276 289.073 156.427 288.255V320.012C156.518 323.74 156.639 327.437 156.7 331.164C156.852 344.649 156.003 345.861 143.155 349.71C139.609 350.77 135.912 351.407 132.397 352.588C129.851 353.467 126.609 352.982 124.215 355.982C134.67 355.588 144.458 356.77 154.185 355.194C164.246 353.558 168.246 349.497 170.306 339.679C171.821 332.467 172.458 325.043 175.215 317.74C175.528 318.238 175.792 318.766 176.003 319.315C177.397 326.134 178.791 332.982 180.125 339.8C182.003 349.346 185.882 353.407 195.579 355.104C205.61 356.831 215.761 355.649 226.155 355.891C224.67 353.346 222.337 353.77 220.458 353.225C214.004 351.346 207.428 349.74 201.094 347.558C196.488 345.952 193.185 343.013 193.246 337.346C193.397 321.831 193.306 306.315 193.306 290.8H195.185C195.852 300.527 196.64 310.224 197.155 319.952C198.337 342.437 201.003 344.891 223.579 343.649C224.852 341.528 227.973 343.194 229.155 340.922C223.731 340.891 219.004 338.285 214.034 336.619C212.694 336.157 211.544 335.264 210.766 334.08C209.987 332.896 209.623 331.486 209.731 330.073C209.973 314.134 209.367 298.133 211.519 282.255C212.822 295.588 213.852 308.952 214.882 322.285C215.367 328.528 218.185 333.406 224.731 333.831C233.579 334.437 242.458 333.982 251.337 333.982C246.721 331.839 241.937 330.076 237.034 328.709C226.185 325.225 226.246 325.194 227.246 314.164L227.246 314.163ZM159.003 86.7981C158.983 88.9298 158.128 90.9687 156.62 92.4761C155.113 93.9836 153.074 94.8391 150.942 94.8587C146.185 94.9496 142.609 92.2223 142.518 86.0405C143.033 81.5556 145.548 78.495 150.882 78.3738C156.548 78.2829 159.094 82.101 159.003 86.7981ZM195.428 219.345C195.458 231.617 186.064 242.314 175.336 242.284C165.215 242.254 154.882 230.314 155.245 219.041C154.7 215.708 154.124 212.344 153.367 207.678C160.609 212.617 166.7 217.678 174.852 217.86C183.185 218.011 189.73 213.738 196.549 208.738C198.003 212.738 194.337 215.86 195.428 219.345Z" fill="#FE733E"/>
<path d="M118.669 245.89C118.063 245.678 117.488 245.405 116.912 245.193C108.609 241.799 101.427 236.587 94.7601 230.799C70.6993 210.011 54.8204 183.981 50.9719 152.405C46.6082 116.526 54.6385 83.4041 78.5781 54.9493C100.427 29.0097 128.275 13.8884 161.518 10.4035C198.458 6.55503 231.64 16.8884 259.579 42.4038C282.883 63.6767 296.489 90.0405 299.974 121.041C302.943 147.435 298.186 172.95 284.61 196.132C272.277 217.193 255.852 234.284 233.64 245.102C233.034 245.405 232.428 245.708 231.822 245.981C230.973 248.284 230.216 250.587 231.67 252.951C232.144 252.441 232.673 251.983 233.246 251.587C266.792 233.83 290.065 207.435 300.943 170.708C301.883 167.587 303.337 166.041 306.822 166.405C311.55 166.89 312.822 163.738 312.822 159.799C312.852 144.677 312.862 129.566 312.852 114.465C312.852 111.223 312.064 107.647 308.701 107.283C302.519 106.556 301.761 102.041 300.519 97.6467C293.246 72.0707 279.246 50.7978 258.458 34.4644C215.73 0.918631 168.821 -5.14203 119.608 17.5248C83.0323 34.3431 59.7291 63.5252 49.1836 102.586C48.5169 105.01 48.8199 107.889 44.6987 107.041C38.8198 105.829 36.6077 109.283 36.5774 114.495C36.4865 129.617 36.5472 144.708 36.5472 159.829C36.5472 164.859 39.0927 167.526 43.9412 166.344C48.3958 165.253 49.4564 167.465 50.3655 170.859C54.305 185.226 60.8927 198.73 69.7899 210.678C82.8203 228.345 98.6992 242.527 118.881 251.557C118.821 249.678 118.76 247.769 118.669 245.89L118.669 245.89Z" fill="#B5D2F3"/>
<path d="M118.7 255.284C114.215 267.86 102.275 267.557 92.1237 270.709C99.7601 272.678 107.518 274.951 115.154 273.648C119.7 272.86 120.578 274.496 121.245 277.193C121.306 277.406 121.336 277.618 121.397 277.83C121.427 278.012 121.488 278.224 121.518 278.436C120.942 270.648 120.548 262.89 118.7 255.284Z" fill="#FE684B"/>
<path d="M230.549 272.072C240.246 276.466 249.398 272.042 258.761 270.769C249.61 266.89 237.761 268.89 232.943 257.102C227.822 261.405 231.791 267.163 230.549 272.072Z" fill="#FE6446"/>
<path d="M110.184 343.588H125.821C125.548 343.406 125.245 343.224 124.972 343.012C123.821 342.254 122.669 341.497 121.518 340.709C118.094 340.527 114.881 341.285 110.184 343.588Z" fill="#FE733E"/>
<path d="M223.579 343.588H238.791C235.701 341.8 232.67 340.285 229.155 340.86C227.973 343.164 224.822 341.467 223.579 343.588Z" fill="#FE733E"/>
<path d="M233.67 245.072C255.883 234.284 272.277 217.193 284.64 196.102C298.216 172.92 302.974 147.405 300.004 121.011C296.519 89.98 282.943 63.6161 259.61 42.3736C231.67 16.8886 198.488 6.52481 161.549 10.4036C128.336 13.8581 100.457 29.0098 78.6085 54.9494C54.6386 83.4042 46.6385 116.526 51.0022 152.405C54.8507 184.011 70.7296 210.011 94.7904 230.799C101.487 236.587 108.669 241.83 116.942 245.193C117.518 245.436 118.094 245.678 118.7 245.89C119.094 237.92 118.154 230.042 117.275 222.132C116.669 221.708 116.063 221.284 115.457 220.829C109.306 216.375 104.033 210.89 98.7299 205.496C97.1238 203.86 95.1238 202.466 95.1238 199.799C91.548 202.375 88.9722 200.587 86.8813 197.738C75.2448 181.859 68.2145 164.253 67.2751 144.435C66.4266 126.92 68.0023 109.889 75.366 93.4951C84.7298 72.6768 99.1238 56.7676 118.457 44.9493C121.73 42.9493 123.609 44.7373 125.882 46.2221C126.96 46.1797 128.017 45.9093 128.983 45.4288C129.95 44.9483 130.803 44.2685 131.488 43.4341L131.215 42.7978C129.276 38.7068 129.185 34.0705 133.851 32.9795C138.548 31.8583 141.215 35.6765 141.245 40.6159C176.306 29.1007 208.913 33.7674 238.337 56.2222C260.337 73.0102 272.943 95.5255 276.792 122.98C281.762 158.284 269.822 187.556 245.216 212.314C242.312 215.293 238.983 217.825 235.337 219.829C234.701 220.163 234.064 220.466 233.428 220.769C231.913 229.102 231.822 237.527 231.913 245.951C232.458 245.678 233.034 245.375 233.67 245.072Z" fill="#E2F5FC"/>
<path d="M245.155 212.345C269.731 187.587 281.671 158.314 276.731 123.011C272.883 95.5256 260.277 73.0102 238.276 56.2525C208.852 33.7978 176.215 29.1614 141.185 40.6463C141.124 40.6762 141.063 40.7372 141.003 40.7674C138.245 42.525 136.094 46.3129 132.124 43.9492C131.882 43.7976 131.669 43.6765 131.427 43.4947C130.745 44.3315 129.892 45.0131 128.925 45.4938C127.958 45.9746 126.9 46.2435 125.821 46.2826C125.73 46.6462 125.609 46.9796 125.488 47.3432C122.972 54.4038 115.427 56.2523 110.366 60.4948C96.6389 71.9797 86.457 85.7374 80.4569 102.404C70.8205 129.253 72.7902 155.556 85.6994 180.95C87.8426 185.069 90.326 189.002 93.1237 192.708C94.6486 194.727 95.3426 197.254 95.0631 199.769V199.859C95.0631 202.496 97.0631 203.92 98.6692 205.556C104.003 210.95 109.245 216.435 115.397 220.89C116.003 221.314 116.609 221.769 117.215 222.193C116.76 210.132 116.296 198.072 115.821 186.011C115.791 186.011 115.791 185.981 115.76 185.981C105.275 179.102 97.5782 170.314 96.2449 157.223C94.5782 141.071 101.366 129.132 114.578 120.435C114.639 120.404 114.7 120.344 114.76 120.313C114.352 111.957 115.769 103.612 118.912 95.8587C129.003 69.6464 159.488 52.4342 184.609 58.7373C184.626 58.7352 184.642 58.7369 184.658 58.742C184.674 58.7472 184.688 58.7558 184.7 58.7671C201.367 61.4641 215.064 69.0702 224.882 83.04C232.731 94.2219 236.791 106.555 235.943 120.313C245.398 127.495 253.034 135.919 254.276 148.374C255.943 165.132 248.792 177.374 234.701 185.92V186.071C234.246 197.647 233.761 209.223 233.307 220.829C233.973 220.526 234.61 220.223 235.216 219.89C238.898 217.901 242.25 215.356 245.155 212.344L245.155 212.345Z" fill="#CDECF6"/>
<path d="M204.337 118.95C214.731 113.829 224.822 116.586 234.852 119.889C235.216 120.011 235.61 120.132 235.973 120.253C236.822 106.465 232.761 94.1315 224.913 82.98C215.094 69.0102 201.397 61.404 184.73 58.707H184.64C182.155 59.1919 179.397 58.1616 176.336 59.9192C196.821 77.0708 199.64 99.071 195.609 123.041C196.246 122.738 196.852 122.465 197.488 122.162C199.821 121.101 202.094 120.071 204.337 118.95Z" fill="#FE6B3C"/>
<path d="M254.337 148.344C253.095 135.889 245.458 127.465 236.004 120.283C235.64 120.162 235.246 120.041 234.882 119.92C224.822 116.617 214.761 113.859 204.367 118.98C202.124 120.101 199.821 121.162 197.549 122.223C196.912 122.526 196.306 122.798 195.67 123.101C194.155 124.829 192.761 126.708 191.124 128.314C181.306 137.889 179.943 149.738 182.549 162.284C186.518 181.405 209.852 197.314 234.64 185.981C234.67 185.951 234.731 185.951 234.761 185.92C248.852 177.344 256.034 165.071 254.337 148.344ZM217.276 181.829C213.495 181.797 209.757 181.018 206.277 179.538C202.797 178.058 199.644 175.906 196.997 173.205C194.351 170.503 192.264 167.306 190.857 163.796C189.449 160.286 188.748 156.533 188.793 152.752C188.839 148.971 189.631 145.236 191.124 141.761C192.616 138.287 194.78 135.141 197.491 132.504C200.202 129.868 203.407 127.793 206.922 126.397C210.436 125.002 214.192 124.315 217.973 124.374C234.094 124.495 246.428 137.192 246.307 153.496C246.186 169.678 233.579 181.981 217.276 181.829Z" fill="#FE6142"/>
<path d="M114.609 120.374C101.397 129.071 94.6086 141.011 96.2753 157.162C97.6086 170.253 105.306 179.041 115.791 185.92C115.821 185.92 115.821 185.95 115.851 185.95C122.042 187.872 128.491 188.832 134.973 188.799C157.579 188.465 174.64 165.374 168.246 143.495C162.094 122.495 139.73 108.707 114.851 120.253C114.765 120.281 114.683 120.321 114.609 120.374L114.609 120.374ZM132.669 181.829C116.154 181.89 103.366 169.223 103.427 152.799C103.457 136.677 116.033 124.192 132.245 124.101C136.064 124.028 139.86 124.713 143.413 126.117C146.965 127.521 150.204 129.616 152.941 132.28C155.678 134.945 157.859 138.127 159.357 141.641C160.855 145.155 161.641 148.931 161.669 152.751C161.697 156.57 160.967 160.358 159.52 163.893C158.074 167.429 155.94 170.642 153.243 173.347C150.545 176.052 147.338 178.194 143.806 179.65C140.275 181.106 136.489 181.847 132.669 181.829Z" fill="#FE6143"/>
<path d="M159.064 221.708C157.942 220.587 157.124 219.072 155.245 219.042C154.882 230.314 165.185 242.254 175.337 242.284C186.094 242.314 195.458 231.617 195.428 219.345C191.367 221.435 188.791 225.739 184.124 227.011C174.821 229.557 166.276 228.92 159.064 221.708Z" fill="#070909"/>
<path d="M196.549 208.738C189.73 213.738 183.215 218.011 174.852 217.86C166.67 217.708 160.609 212.617 153.367 207.678C154.154 212.344 154.7 215.678 155.245 219.041C157.124 219.102 157.942 220.587 159.064 221.708C166.245 228.92 174.821 229.557 184.124 227.011C188.791 225.738 191.367 221.466 195.427 219.344C194.337 215.86 198.003 212.738 196.549 208.738Z" fill="#FDFCFB"/>
<path d="M150.882 78.4039C145.518 78.4948 143.003 81.5555 142.518 86.0707C142.609 92.2525 146.185 94.9495 150.942 94.8889C153.074 94.8693 155.113 94.0138 156.62 92.5063C158.128 90.9989 158.983 88.96 159.003 86.8282C159.094 82.1009 156.548 78.2827 150.882 78.4039Z" fill="#FEA777"/>
<path d="M95.0632 199.738C95.3427 197.223 94.6487 194.697 93.1238 192.678C90.3366 188.964 87.8538 185.033 85.6995 180.92C72.7903 155.526 70.7902 129.223 80.457 102.374C86.457 85.7071 96.6389 71.9494 110.366 60.4645C115.427 56.222 122.972 54.4038 125.488 47.3129C125.617 46.9653 125.728 46.6113 125.821 46.2523C123.548 44.7674 121.669 42.9795 118.397 44.9795C99.0632 56.7977 84.6691 72.7069 75.3054 93.5253C67.9417 109.919 66.366 126.95 67.2144 144.465C68.1841 164.253 75.1842 181.89 86.8206 197.769C88.9116 200.617 91.5176 202.405 95.0631 199.829L95.0632 199.738Z" fill="#FDFEFE"/>
<path d="M140.972 40.7674C141.033 40.7375 141.094 40.6765 141.154 40.6463C141.094 35.7068 138.457 31.8886 133.76 33.0099C129.094 34.1311 129.185 38.7675 131.124 42.8281L131.397 43.4645C131.619 43.6302 131.852 43.782 132.094 43.919C136.063 46.313 138.215 42.4948 140.973 40.7675L140.972 40.7674Z" fill="#FBFDFE"/>
<path d="M246.307 153.526C246.428 137.253 234.094 124.556 217.973 124.404C214.192 124.345 210.436 125.033 206.922 126.428C203.407 127.823 200.202 129.898 197.491 132.535C194.78 135.171 192.616 138.317 191.124 141.791C189.631 145.266 188.839 149.001 188.793 152.782C188.748 156.563 189.449 160.317 190.856 163.826C192.264 167.336 194.351 170.533 196.997 173.235C199.644 175.936 202.797 178.089 206.277 179.569C209.757 181.049 213.495 181.827 217.276 181.859C233.579 181.981 246.185 169.678 246.307 153.526ZM218.7 156.677C213.246 156.768 210.064 153.677 209.579 148.314C209.504 147.097 209.682 145.877 210.104 144.733C210.525 143.589 211.179 142.545 212.026 141.667C212.872 140.789 213.892 140.097 215.02 139.635C216.148 139.172 217.36 138.949 218.579 138.98C223.913 139.374 226.913 142.495 227.549 148.071C226.822 153.041 224.276 156.586 218.7 156.677V156.677Z" fill="#FEFEFE"/>
<path d="M132.245 124.132C128.459 124.089 124.702 124.801 121.194 126.226C117.686 127.651 114.498 129.762 111.815 132.433C109.132 135.105 107.008 138.285 105.568 141.787C104.128 145.289 103.4 149.042 103.427 152.829C103.397 169.253 116.154 181.92 132.67 181.859C136.489 181.877 140.275 181.136 143.806 179.68C147.338 178.224 150.545 176.082 153.243 173.377C155.94 170.672 158.074 167.459 159.52 163.924C160.967 160.388 161.697 156.601 161.669 152.781C161.641 148.961 160.855 145.185 159.357 141.671C157.859 138.157 155.678 134.975 152.941 132.311C150.204 129.646 146.965 127.551 143.413 126.147C139.86 124.743 136.064 124.058 132.245 124.132V124.132ZM132.275 156.677C126.881 156.738 123.639 153.647 123.215 148.223C123.15 147.004 123.341 145.785 123.776 144.644C124.21 143.503 124.878 142.466 125.737 141.598C126.596 140.731 127.627 140.053 128.763 139.607C129.899 139.161 131.117 138.958 132.336 139.011C137.609 139.465 140.7 142.526 141.185 148.102C140.518 153.223 137.73 156.617 132.275 156.677V156.677Z" fill="#FEFEFE"/>
<path d="M218.579 138.98C217.359 138.944 216.145 139.163 215.014 139.624C213.883 140.085 212.862 140.777 212.014 141.656C211.167 142.535 210.513 143.581 210.093 144.727C209.674 145.874 209.499 147.095 209.579 148.314C210.064 153.708 213.246 156.768 218.7 156.677C224.246 156.586 226.822 153.041 227.549 148.071C226.913 142.495 223.913 139.374 218.579 138.98Z" fill="#090B0B"/>
<path d="M132.336 139.011C131.117 138.958 129.9 139.161 128.763 139.607C127.627 140.053 126.596 140.731 125.737 141.598C124.878 142.466 124.21 143.503 123.776 144.644C123.341 145.785 123.15 147.004 123.215 148.223C123.639 153.647 126.882 156.738 132.276 156.677C137.73 156.617 140.518 153.223 141.185 148.101C140.67 142.495 137.579 139.435 132.336 139.011Z" fill="#090C0C"/>
</svg>
