<svg width="1218" height="240" viewBox="0 0 1218 240" fill="none" xmlns="http://www.w3.org/2000/svg">
  <path d="M938 52C938 45.3726 943.373 40 950 40H1166C1172.63 40 1178 45.3726 1178 52V188C1178 194.627 1172.63 200 1166 200H950C943.373 200 938 194.627 938 188V52Z" fill="#0093FF" fill-opacity="0.4"/>
  <rect x="971" y="88" width="184.18" height="63.3826" rx="6" stroke="#B3B3B3" stroke-width="4" stroke-miterlimit="0" stroke-linecap="round"/>
  <path d="M1042.44 117.42C1042.38 116.883 1042.13 116.466 1041.69 116.17C1041.25 115.871 1040.7 115.722 1040.03 115.722C1039.55 115.722 1039.14 115.797 1038.79 115.949C1038.44 116.097 1038.17 116.301 1037.98 116.562C1037.79 116.82 1037.69 117.114 1037.69 117.443C1037.69 117.72 1037.76 117.958 1037.89 118.159C1038.02 118.36 1038.19 118.528 1038.4 118.665C1038.62 118.797 1038.85 118.909 1039.1 119C1039.34 119.087 1039.58 119.159 1039.81 119.216L1040.94 119.511C1041.32 119.602 1041.7 119.725 1042.09 119.881C1042.48 120.036 1042.84 120.241 1043.17 120.494C1043.5 120.748 1043.77 121.062 1043.98 121.438C1044.19 121.812 1044.29 122.261 1044.29 122.784C1044.29 123.443 1044.12 124.028 1043.78 124.54C1043.44 125.051 1042.95 125.455 1042.31 125.75C1041.67 126.045 1040.89 126.193 1039.98 126.193C1039.11 126.193 1038.36 126.055 1037.72 125.778C1037.09 125.502 1036.59 125.11 1036.23 124.602C1035.87 124.091 1035.67 123.485 1035.63 122.784H1037.39C1037.43 123.205 1037.56 123.555 1037.8 123.835C1038.04 124.112 1038.35 124.318 1038.73 124.455C1039.11 124.587 1039.52 124.653 1039.97 124.653C1040.47 124.653 1040.91 124.576 1041.3 124.42C1041.69 124.261 1041.99 124.042 1042.22 123.761C1042.44 123.477 1042.55 123.146 1042.55 122.767C1042.55 122.422 1042.45 122.14 1042.26 121.92C1042.06 121.701 1041.8 121.519 1041.47 121.375C1041.14 121.231 1040.76 121.104 1040.35 120.994L1038.97 120.619C1038.04 120.366 1037.3 119.992 1036.76 119.5C1036.21 119.008 1035.94 118.356 1035.94 117.545C1035.94 116.875 1036.13 116.29 1036.49 115.79C1036.85 115.29 1037.35 114.902 1037.97 114.625C1038.59 114.345 1039.29 114.205 1040.07 114.205C1040.86 114.205 1041.55 114.343 1042.15 114.619C1042.76 114.896 1043.24 115.277 1043.59 115.761C1043.93 116.242 1044.12 116.795 1044.13 117.42H1042.44ZM1049.84 126.176C1048.98 126.176 1048.24 125.992 1047.62 125.625C1047 125.254 1046.52 124.733 1046.18 124.062C1045.85 123.388 1045.68 122.598 1045.68 121.693C1045.68 120.799 1045.85 120.011 1046.18 119.33C1046.52 118.648 1046.99 118.116 1047.59 117.733C1048.2 117.35 1048.91 117.159 1049.72 117.159C1050.21 117.159 1050.69 117.241 1051.15 117.403C1051.61 117.566 1052.03 117.822 1052.39 118.17C1052.76 118.519 1053.05 118.972 1053.26 119.528C1053.48 120.081 1053.58 120.754 1053.58 121.545V122.148H1046.64V120.875H1051.92C1051.92 120.428 1051.83 120.032 1051.64 119.688C1051.46 119.339 1051.21 119.064 1050.88 118.864C1050.55 118.663 1050.17 118.562 1049.73 118.562C1049.25 118.562 1048.84 118.68 1048.48 118.915C1048.13 119.146 1047.85 119.449 1047.66 119.824C1047.47 120.195 1047.38 120.598 1047.38 121.034V122.028C1047.38 122.612 1047.48 123.108 1047.68 123.517C1047.89 123.926 1048.18 124.239 1048.55 124.455C1048.92 124.667 1049.36 124.773 1049.85 124.773C1050.18 124.773 1050.47 124.727 1050.74 124.636C1051 124.542 1051.23 124.402 1051.42 124.216C1051.62 124.03 1051.76 123.801 1051.87 123.528L1053.47 123.818C1053.35 124.292 1053.11 124.706 1052.78 125.062C1052.45 125.415 1052.04 125.689 1051.54 125.886C1051.04 126.08 1050.47 126.176 1049.84 126.176ZM1055.29 126V117.273H1056.93V118.659H1057.02C1057.18 118.189 1057.46 117.82 1057.86 117.551C1058.27 117.278 1058.73 117.142 1059.24 117.142C1059.35 117.142 1059.47 117.146 1059.61 117.153C1059.76 117.161 1059.88 117.17 1059.96 117.182V118.807C1059.89 118.788 1059.77 118.767 1059.6 118.744C1059.42 118.718 1059.25 118.705 1059.07 118.705C1058.67 118.705 1058.32 118.79 1058 118.96C1057.69 119.127 1057.44 119.36 1057.26 119.659C1057.08 119.955 1056.99 120.292 1056.99 120.67V126H1055.29ZM1068.99 117.273L1065.82 126H1064L1060.83 117.273H1062.66L1064.87 123.989H1064.96L1067.16 117.273H1068.99ZM1070.41 126V117.273H1072.11V126H1070.41ZM1071.27 115.926C1070.97 115.926 1070.72 115.828 1070.5 115.631C1070.3 115.43 1070.19 115.191 1070.19 114.915C1070.19 114.634 1070.3 114.396 1070.5 114.199C1070.72 113.998 1070.97 113.898 1071.27 113.898C1071.56 113.898 1071.81 113.998 1072.02 114.199C1072.23 114.396 1072.34 114.634 1072.34 114.915C1072.34 115.191 1072.23 115.43 1072.02 115.631C1071.81 115.828 1071.56 115.926 1071.27 115.926ZM1077.89 126.176C1077.05 126.176 1076.32 125.985 1075.71 125.602C1075.1 125.216 1074.64 124.684 1074.31 124.006C1073.99 123.328 1073.82 122.551 1073.82 121.676C1073.82 120.79 1073.99 120.008 1074.32 119.33C1074.66 118.648 1075.13 118.116 1075.73 117.733C1076.34 117.35 1077.05 117.159 1077.88 117.159C1078.54 117.159 1079.13 117.282 1079.65 117.528C1080.17 117.771 1080.59 118.112 1080.9 118.551C1081.23 118.991 1081.42 119.504 1081.48 120.091H1079.82C1079.73 119.682 1079.52 119.33 1079.2 119.034C1078.88 118.739 1078.45 118.591 1077.9 118.591C1077.43 118.591 1077.02 118.716 1076.66 118.966C1076.31 119.212 1076.03 119.564 1075.84 120.023C1075.64 120.477 1075.54 121.015 1075.54 121.636C1075.54 122.273 1075.64 122.822 1075.83 123.284C1076.02 123.746 1076.3 124.104 1076.65 124.358C1077 124.612 1077.42 124.739 1077.9 124.739C1078.23 124.739 1078.52 124.68 1078.78 124.562C1079.04 124.441 1079.27 124.269 1079.44 124.045C1079.63 123.822 1079.75 123.553 1079.82 123.239H1081.48C1081.42 123.803 1081.23 124.307 1080.93 124.75C1080.62 125.193 1080.21 125.542 1079.69 125.795C1079.18 126.049 1078.58 126.176 1077.89 126.176ZM1086.88 126.176C1086.02 126.176 1085.28 125.992 1084.66 125.625C1084.04 125.254 1083.56 124.733 1083.23 124.062C1082.89 123.388 1082.73 122.598 1082.73 121.693C1082.73 120.799 1082.89 120.011 1083.23 119.33C1083.56 118.648 1084.03 118.116 1084.64 117.733C1085.24 117.35 1085.95 117.159 1086.76 117.159C1087.25 117.159 1087.73 117.241 1088.19 117.403C1088.65 117.566 1089.07 117.822 1089.44 118.17C1089.8 118.519 1090.09 118.972 1090.31 119.528C1090.52 120.081 1090.62 120.754 1090.62 121.545V122.148H1083.69V120.875H1088.96C1088.96 120.428 1088.87 120.032 1088.69 119.688C1088.5 119.339 1088.25 119.064 1087.92 118.864C1087.59 118.663 1087.21 118.562 1086.77 118.562C1086.29 118.562 1085.88 118.68 1085.52 118.915C1085.17 119.146 1084.9 119.449 1084.7 119.824C1084.51 120.195 1084.42 120.598 1084.42 121.034V122.028C1084.42 122.612 1084.52 123.108 1084.73 123.517C1084.93 123.926 1085.22 124.239 1085.6 124.455C1085.97 124.667 1086.4 124.773 1086.9 124.773C1087.22 124.773 1087.51 124.727 1087.78 124.636C1088.04 124.542 1088.27 124.402 1088.46 124.216C1088.66 124.03 1088.81 123.801 1088.91 123.528L1090.52 123.818C1090.39 124.292 1090.16 124.706 1089.82 125.062C1089.49 125.415 1089.08 125.689 1088.58 125.886C1088.08 126.08 1087.52 126.176 1086.88 126.176Z" fill="white" fill-opacity="0.8"/>
  <path d="M950 41H1166V39H950V41ZM1177 52V188H1179V52H1177ZM1166 199H950V201H1166V199ZM939 188V52H937V188H939ZM950 199C943.925 199 939 194.075 939 188H937C937 195.18 942.82 201 950 201V199ZM1177 188C1177 194.075 1172.08 199 1166 199V201C1173.18 201 1179 195.18 1179 188H1177ZM1166 41C1172.08 41 1177 45.9249 1177 52H1179C1179 44.8203 1173.18 39 1166 39V41ZM950 39C942.82 39 937 44.8203 937 52H939C939 45.9249 943.925 41 950 41V39Z" fill="#BDE3FF"/>
  <rect x="586" y="88" width="184.18" height="63.3826" rx="6" stroke="#B3B3B3" stroke-width="4" stroke-miterlimit="0" stroke-linecap="round"/>
  <path d="M655.013 114.364H656.763V122.614C656.763 123.36 656.615 123.998 656.32 124.528C656.028 125.059 655.617 125.464 655.087 125.744C654.556 126.021 653.935 126.159 653.223 126.159C652.568 126.159 651.979 126.04 651.456 125.801C650.937 125.562 650.526 125.216 650.223 124.761C649.924 124.303 649.774 123.746 649.774 123.091H651.519C651.519 123.413 651.592 123.691 651.74 123.926C651.892 124.161 652.098 124.345 652.36 124.477C652.625 124.606 652.928 124.67 653.269 124.67C653.64 124.67 653.954 124.593 654.212 124.438C654.473 124.278 654.672 124.045 654.808 123.739C654.945 123.432 655.013 123.057 655.013 122.614V114.364ZM662.767 126.176C661.907 126.176 661.167 125.992 660.546 125.625C659.928 125.254 659.451 124.733 659.114 124.062C658.781 123.388 658.614 122.598 658.614 121.693C658.614 120.799 658.781 120.011 659.114 119.33C659.451 118.648 659.921 118.116 660.523 117.733C661.129 117.35 661.837 117.159 662.648 117.159C663.14 117.159 663.618 117.241 664.08 117.403C664.542 117.566 664.957 117.822 665.324 118.17C665.692 118.519 665.981 118.972 666.193 119.528C666.406 120.081 666.512 120.754 666.512 121.545V122.148H659.574V120.875H664.847C664.847 120.428 664.756 120.032 664.574 119.688C664.392 119.339 664.137 119.064 663.807 118.864C663.481 118.663 663.099 118.562 662.659 118.562C662.182 118.562 661.765 118.68 661.409 118.915C661.057 119.146 660.784 119.449 660.591 119.824C660.402 120.195 660.307 120.598 660.307 121.034V122.028C660.307 122.612 660.409 123.108 660.614 123.517C660.822 123.926 661.112 124.239 661.483 124.455C661.854 124.667 662.288 124.773 662.784 124.773C663.106 124.773 663.4 124.727 663.665 124.636C663.93 124.542 664.159 124.402 664.353 124.216C664.546 124.03 664.693 123.801 664.796 123.528L666.404 123.818C666.275 124.292 666.044 124.706 665.711 125.062C665.381 125.415 664.966 125.689 664.466 125.886C663.97 126.08 663.404 126.176 662.767 126.176ZM669.919 120.818V126H668.221V117.273H669.851V118.693H669.959C670.16 118.231 670.474 117.86 670.902 117.58C671.334 117.299 671.878 117.159 672.533 117.159C673.128 117.159 673.649 117.284 674.096 117.534C674.543 117.78 674.889 118.148 675.135 118.636C675.382 119.125 675.505 119.729 675.505 120.449V126H673.806V120.653C673.806 120.021 673.641 119.527 673.311 119.17C672.982 118.811 672.529 118.631 671.954 118.631C671.56 118.631 671.209 118.716 670.902 118.886C670.599 119.057 670.359 119.307 670.181 119.636C670.007 119.962 669.919 120.356 669.919 120.818ZM679.17 123.04L679.158 120.966H679.454L682.931 117.273H684.965L680.999 121.477H680.732L679.17 123.04ZM677.607 126V114.364H679.306V126H677.607ZM683.118 126L679.993 121.852L681.164 120.665L685.204 126H683.118ZM686.337 126V117.273H688.036V126H686.337ZM687.195 115.926C686.9 115.926 686.646 115.828 686.434 115.631C686.226 115.43 686.121 115.191 686.121 114.915C686.121 114.634 686.226 114.396 686.434 114.199C686.646 113.998 686.9 113.898 687.195 113.898C687.491 113.898 687.743 113.998 687.951 114.199C688.163 114.396 688.269 114.634 688.269 114.915C688.269 115.191 688.163 115.43 687.951 115.631C687.743 115.828 687.491 115.926 687.195 115.926ZM691.845 120.818V126H690.146V117.273H691.776V118.693H691.884C692.085 118.231 692.399 117.86 692.828 117.58C693.259 117.299 693.803 117.159 694.458 117.159C695.053 117.159 695.574 117.284 696.021 117.534C696.468 117.78 696.814 118.148 697.06 118.636C697.307 119.125 697.43 119.729 697.43 120.449V126H695.731V120.653C695.731 120.021 695.566 119.527 695.237 119.17C694.907 118.811 694.454 118.631 693.879 118.631C693.485 118.631 693.134 118.716 692.828 118.886C692.524 119.057 692.284 119.307 692.106 119.636C691.932 119.962 691.845 120.356 691.845 120.818ZM706.072 119.403L704.532 119.676C704.468 119.479 704.366 119.292 704.225 119.114C704.089 118.936 703.903 118.79 703.669 118.676C703.434 118.562 703.14 118.506 702.788 118.506C702.307 118.506 701.905 118.614 701.583 118.83C701.261 119.042 701.1 119.316 701.1 119.653C701.1 119.945 701.208 120.18 701.424 120.358C701.64 120.536 701.989 120.682 702.47 120.795L703.856 121.114C704.659 121.299 705.258 121.585 705.652 121.972C706.045 122.358 706.242 122.86 706.242 123.477C706.242 124 706.091 124.466 705.788 124.875C705.489 125.28 705.07 125.598 704.532 125.83C703.998 126.061 703.379 126.176 702.674 126.176C701.697 126.176 700.9 125.968 700.282 125.551C699.665 125.131 699.286 124.534 699.146 123.761L700.788 123.511C700.89 123.939 701.1 124.263 701.419 124.483C701.737 124.699 702.152 124.807 702.663 124.807C703.22 124.807 703.665 124.691 703.998 124.46C704.331 124.225 704.498 123.939 704.498 123.602C704.498 123.33 704.396 123.1 704.191 122.915C703.991 122.729 703.682 122.589 703.265 122.494L701.788 122.17C700.973 121.985 700.371 121.689 699.981 121.284C699.595 120.879 699.402 120.366 699.402 119.744C699.402 119.229 699.545 118.778 699.833 118.392C700.121 118.006 700.519 117.705 701.027 117.489C701.534 117.269 702.116 117.159 702.771 117.159C703.714 117.159 704.456 117.364 704.998 117.773C705.54 118.178 705.898 118.722 706.072 119.403Z" fill="white" fill-opacity="0.8"/>
  <path d="M254.75 90.871L218.889 141.871C216.445 145.869 219.323 151 224.008 151H359.77C361.86 151 363.799 149.912 364.889 148.129L400.751 97.129C403.195 93.1309 400.317 88 395.631 88H259.87C257.78 88 255.84 89.0876 254.75 90.871Z" stroke="#B3B3B3" stroke-width="4" stroke-miterlimit="0" stroke-linecap="round"/>
  <path d="M270.57 126V114.364H274.718C275.619 114.364 276.367 114.519 276.962 114.83C277.561 115.14 278.008 115.57 278.303 116.119C278.598 116.665 278.746 117.295 278.746 118.011C278.746 118.723 278.597 119.35 278.297 119.892C278.002 120.43 277.555 120.848 276.956 121.148C276.362 121.447 275.614 121.597 274.712 121.597H271.57V120.085H274.553C275.121 120.085 275.583 120.004 275.939 119.841C276.299 119.678 276.562 119.441 276.729 119.131C276.896 118.82 276.979 118.447 276.979 118.011C276.979 117.572 276.894 117.191 276.723 116.869C276.557 116.547 276.294 116.301 275.934 116.131C275.578 115.956 275.11 115.869 274.53 115.869H272.326V126H270.57ZM276.314 120.75L279.189 126H277.189L274.371 120.75H276.314ZM284.222 126.176C283.362 126.176 282.622 125.992 282.001 125.625C281.383 125.254 280.906 124.733 280.569 124.062C280.235 123.388 280.069 122.598 280.069 121.693C280.069 120.799 280.235 120.011 280.569 119.33C280.906 118.648 281.376 118.116 281.978 117.733C282.584 117.35 283.292 117.159 284.103 117.159C284.595 117.159 285.073 117.241 285.535 117.403C285.997 117.566 286.412 117.822 286.779 118.17C287.146 118.519 287.436 118.972 287.648 119.528C287.86 120.081 287.966 120.754 287.966 121.545V122.148H281.029V120.875H286.302C286.302 120.428 286.211 120.032 286.029 119.688C285.847 119.339 285.591 119.064 285.262 118.864C284.936 118.663 284.554 118.562 284.114 118.562C283.637 118.562 283.22 118.68 282.864 118.915C282.512 119.146 282.239 119.449 282.046 119.824C281.857 120.195 281.762 120.598 281.762 121.034V122.028C281.762 122.612 281.864 123.108 282.069 123.517C282.277 123.926 282.567 124.239 282.938 124.455C283.309 124.667 283.743 124.773 284.239 124.773C284.561 124.773 284.855 124.727 285.12 124.636C285.385 124.542 285.614 124.402 285.807 124.216C286.001 124.03 286.148 123.801 286.251 123.528L287.859 123.818C287.73 124.292 287.499 124.706 287.165 125.062C286.836 125.415 286.421 125.689 285.921 125.886C285.425 126.08 284.859 126.176 284.222 126.176ZM289.675 129.273V117.273H291.335V118.688H291.477C291.575 118.506 291.717 118.295 291.903 118.057C292.088 117.818 292.346 117.61 292.675 117.432C293.005 117.25 293.441 117.159 293.982 117.159C294.687 117.159 295.316 117.337 295.869 117.693C296.422 118.049 296.855 118.562 297.17 119.233C297.488 119.903 297.647 120.71 297.647 121.653C297.647 122.597 297.49 123.405 297.175 124.08C296.861 124.75 296.429 125.267 295.88 125.631C295.331 125.991 294.704 126.17 293.999 126.17C293.469 126.17 293.035 126.081 292.698 125.903C292.365 125.725 292.103 125.517 291.914 125.278C291.725 125.04 291.579 124.828 291.477 124.642H291.374V129.273H289.675ZM291.34 121.636C291.34 122.25 291.429 122.788 291.607 123.25C291.785 123.712 292.043 124.074 292.38 124.335C292.717 124.593 293.13 124.722 293.619 124.722C294.126 124.722 294.55 124.587 294.891 124.318C295.232 124.045 295.49 123.676 295.664 123.21C295.842 122.744 295.931 122.22 295.931 121.636C295.931 121.061 295.844 120.544 295.67 120.085C295.499 119.627 295.242 119.265 294.897 119C294.556 118.735 294.13 118.602 293.619 118.602C293.126 118.602 292.71 118.729 292.369 118.983C292.031 119.237 291.776 119.591 291.602 120.045C291.427 120.5 291.34 121.03 291.34 121.636ZM303.051 126.176C302.232 126.176 301.518 125.989 300.909 125.614C300.299 125.239 299.825 124.714 299.488 124.04C299.151 123.366 298.982 122.578 298.982 121.676C298.982 120.771 299.151 119.979 299.488 119.301C299.825 118.623 300.299 118.097 300.909 117.722C301.518 117.347 302.232 117.159 303.051 117.159C303.869 117.159 304.583 117.347 305.193 117.722C305.802 118.097 306.276 118.623 306.613 119.301C306.95 119.979 307.119 120.771 307.119 121.676C307.119 122.578 306.95 123.366 306.613 124.04C306.276 124.714 305.802 125.239 305.193 125.614C304.583 125.989 303.869 126.176 303.051 126.176ZM303.056 124.75C303.587 124.75 304.026 124.61 304.374 124.33C304.723 124.049 304.98 123.676 305.147 123.21C305.318 122.744 305.403 122.231 305.403 121.67C305.403 121.114 305.318 120.602 305.147 120.136C304.98 119.667 304.723 119.29 304.374 119.006C304.026 118.722 303.587 118.58 303.056 118.58C302.522 118.58 302.079 118.722 301.727 119.006C301.378 119.29 301.119 119.667 300.948 120.136C300.782 120.602 300.698 121.114 300.698 121.67C300.698 122.231 300.782 122.744 300.948 123.21C301.119 123.676 301.378 124.049 301.727 124.33C302.079 124.61 302.522 124.75 303.056 124.75ZM315.379 119.403L313.839 119.676C313.775 119.479 313.672 119.292 313.532 119.114C313.396 118.936 313.21 118.79 312.975 118.676C312.741 118.562 312.447 118.506 312.095 118.506C311.614 118.506 311.212 118.614 310.89 118.83C310.568 119.042 310.407 119.316 310.407 119.653C310.407 119.945 310.515 120.18 310.731 120.358C310.947 120.536 311.295 120.682 311.777 120.795L313.163 121.114C313.966 121.299 314.564 121.585 314.958 121.972C315.352 122.358 315.549 122.86 315.549 123.477C315.549 124 315.398 124.466 315.095 124.875C314.795 125.28 314.377 125.598 313.839 125.83C313.305 126.061 312.686 126.176 311.981 126.176C311.004 126.176 310.206 125.968 309.589 125.551C308.972 125.131 308.593 124.534 308.453 123.761L310.095 123.511C310.197 123.939 310.407 124.263 310.725 124.483C311.044 124.699 311.458 124.807 311.97 124.807C312.527 124.807 312.972 124.691 313.305 124.46C313.638 124.225 313.805 123.939 313.805 123.602C313.805 123.33 313.703 123.1 313.498 122.915C313.297 122.729 312.989 122.589 312.572 122.494L311.095 122.17C310.28 121.985 309.678 121.689 309.288 121.284C308.902 120.879 308.708 120.366 308.708 119.744C308.708 119.229 308.852 118.778 309.14 118.392C309.428 118.006 309.826 117.705 310.333 117.489C310.841 117.269 311.422 117.159 312.078 117.159C313.021 117.159 313.763 117.364 314.305 117.773C314.847 118.178 315.205 118.722 315.379 119.403ZM317.241 126V117.273H318.94V126H317.241ZM318.099 115.926C317.804 115.926 317.55 115.828 317.338 115.631C317.129 115.43 317.025 115.191 317.025 114.915C317.025 114.634 317.129 114.396 317.338 114.199C317.55 113.998 317.804 113.898 318.099 113.898C318.395 113.898 318.646 113.998 318.855 114.199C319.067 114.396 319.173 114.634 319.173 114.915C319.173 115.191 319.067 115.43 318.855 115.631C318.646 115.828 318.395 115.926 318.099 115.926ZM325.123 117.273V118.636H320.356V117.273H325.123ZM321.635 115.182H323.334V123.438C323.334 123.767 323.383 124.015 323.481 124.182C323.58 124.345 323.707 124.456 323.862 124.517C324.021 124.574 324.193 124.602 324.379 124.602C324.515 124.602 324.635 124.593 324.737 124.574C324.839 124.555 324.919 124.54 324.976 124.528L325.282 125.932C325.184 125.97 325.044 126.008 324.862 126.045C324.68 126.087 324.453 126.11 324.18 126.114C323.733 126.121 323.317 126.042 322.93 125.875C322.544 125.708 322.231 125.451 321.993 125.102C321.754 124.754 321.635 124.316 321.635 123.79V115.182ZM330.409 126.176C329.591 126.176 328.877 125.989 328.267 125.614C327.657 125.239 327.184 124.714 326.847 124.04C326.509 123.366 326.341 122.578 326.341 121.676C326.341 120.771 326.509 119.979 326.847 119.301C327.184 118.623 327.657 118.097 328.267 117.722C328.877 117.347 329.591 117.159 330.409 117.159C331.227 117.159 331.941 117.347 332.551 117.722C333.161 118.097 333.634 118.623 333.972 119.301C334.309 119.979 334.477 120.771 334.477 121.676C334.477 122.578 334.309 123.366 333.972 124.04C333.634 124.714 333.161 125.239 332.551 125.614C331.941 125.989 331.227 126.176 330.409 126.176ZM330.415 124.75C330.945 124.75 331.384 124.61 331.733 124.33C332.081 124.049 332.339 123.676 332.506 123.21C332.676 122.744 332.761 122.231 332.761 121.67C332.761 121.114 332.676 120.602 332.506 120.136C332.339 119.667 332.081 119.29 331.733 119.006C331.384 118.722 330.945 118.58 330.415 118.58C329.881 118.58 329.437 118.722 329.085 119.006C328.737 119.29 328.477 119.667 328.307 120.136C328.14 120.602 328.057 121.114 328.057 121.67C328.057 122.231 328.14 122.744 328.307 123.21C328.477 123.676 328.737 124.049 329.085 124.33C329.437 124.61 329.881 124.75 330.415 124.75ZM336.198 126V117.273H337.84V118.659H337.93C338.09 118.189 338.37 117.82 338.771 117.551C339.177 117.278 339.635 117.142 340.146 117.142C340.252 117.142 340.377 117.146 340.521 117.153C340.669 117.161 340.785 117.17 340.868 117.182V118.807C340.8 118.788 340.679 118.767 340.504 118.744C340.33 118.718 340.156 118.705 339.982 118.705C339.58 118.705 339.222 118.79 338.908 118.96C338.597 119.127 338.351 119.36 338.169 119.659C337.987 119.955 337.896 120.292 337.896 120.67V126H336.198ZM343.502 129.273C343.248 129.273 343.017 129.252 342.808 129.21C342.6 129.172 342.445 129.131 342.343 129.085L342.752 127.693C343.062 127.777 343.339 127.813 343.581 127.801C343.824 127.79 344.038 127.699 344.223 127.528C344.413 127.358 344.579 127.08 344.723 126.693L344.933 126.114L341.74 117.273H343.558L345.769 124.045H345.86L348.07 117.273H349.894L346.297 127.165C346.13 127.619 345.918 128.004 345.661 128.318C345.403 128.636 345.096 128.875 344.74 129.034C344.384 129.193 343.971 129.273 343.502 129.273Z" fill="white" fill-opacity="0.8"/>
  <path d="M386.387 118.191C385.559 118.191 384.887 118.863 384.887 119.691C384.887 120.52 385.559 121.191 386.387 121.191V118.191ZM453.194 121.191C454.022 121.191 454.694 120.52 454.694 119.691C454.694 118.863 454.022 118.191 453.194 118.191V121.191ZM515.194 118.191C514.365 118.191 513.694 118.863 513.694 119.691C513.694 120.52 514.365 121.191 515.194 121.191V118.191ZM567 126.352C567 127.18 568.015 127.766 568.732 127.352L580.268 120.691C580.985 120.277 580.985 119.106 580.268 118.691L568.732 112.031C568.015 111.617 567 112.203 567 113.031V126.352ZM386.387 121.191H453.194V118.191H386.387V121.191ZM515.194 121.191H568.5V118.191H515.194V121.191Z" fill="#F24822"/>
  <path d="M472.054 114.055V125.691H470.44L464.526 117.157H464.418V125.691H462.662V114.055H464.287L470.207 122.6H470.315V114.055H472.054ZM477.979 125.868C477.161 125.868 476.447 125.68 475.837 125.305C475.227 124.93 474.754 124.405 474.416 123.731C474.079 123.057 473.911 122.269 473.911 121.368C473.911 120.462 474.079 119.671 474.416 118.993C474.754 118.315 475.227 117.788 475.837 117.413C476.447 117.038 477.161 116.85 477.979 116.85C478.797 116.85 479.511 117.038 480.121 117.413C480.731 117.788 481.204 118.315 481.541 118.993C481.879 119.671 482.047 120.462 482.047 121.368C482.047 122.269 481.879 123.057 481.541 123.731C481.204 124.405 480.731 124.93 480.121 125.305C479.511 125.68 478.797 125.868 477.979 125.868ZM477.985 124.441C478.515 124.441 478.954 124.301 479.303 124.021C479.651 123.741 479.909 123.368 480.076 122.902C480.246 122.436 480.331 121.922 480.331 121.362C480.331 120.805 480.246 120.294 480.076 119.828C479.909 119.358 479.651 118.981 479.303 118.697C478.954 118.413 478.515 118.271 477.985 118.271C477.451 118.271 477.007 118.413 476.655 118.697C476.307 118.981 476.047 119.358 475.877 119.828C475.71 120.294 475.627 120.805 475.627 121.362C475.627 121.922 475.71 122.436 475.877 122.902C476.047 123.368 476.307 123.741 476.655 124.021C477.007 124.301 477.451 124.441 477.985 124.441ZM487.841 116.964V118.328H483.074V116.964H487.841ZM484.353 114.873H486.051V123.129C486.051 123.458 486.101 123.707 486.199 123.873C486.298 124.036 486.425 124.148 486.58 124.208C486.739 124.265 486.911 124.294 487.097 124.294C487.233 124.294 487.353 124.284 487.455 124.265C487.557 124.246 487.637 124.231 487.694 124.22L488 125.623C487.902 125.661 487.762 125.699 487.58 125.737C487.398 125.779 487.171 125.801 486.898 125.805C486.451 125.813 486.034 125.733 485.648 125.566C485.262 125.4 484.949 125.142 484.711 124.794C484.472 124.445 484.353 124.008 484.353 123.481V114.873ZM489.545 125.691V116.964H491.243V125.691H489.545ZM490.402 115.618C490.107 115.618 489.853 115.519 489.641 115.322C489.433 115.121 489.329 114.883 489.329 114.606C489.329 114.326 489.433 114.087 489.641 113.89C489.853 113.69 490.107 113.589 490.402 113.589C490.698 113.589 490.95 113.69 491.158 113.89C491.37 114.087 491.476 114.326 491.476 114.606C491.476 114.883 491.37 115.121 491.158 115.322C490.95 115.519 490.698 115.618 490.402 115.618ZM497.506 116.964V118.328H492.574V116.964H497.506ZM493.927 125.691V115.953C493.927 115.407 494.046 114.955 494.285 114.595C494.523 114.231 494.84 113.96 495.234 113.782C495.628 113.6 496.056 113.51 496.518 113.51C496.859 113.51 497.15 113.538 497.393 113.595C497.635 113.648 497.815 113.697 497.932 113.743L497.535 115.118C497.455 115.095 497.353 115.068 497.228 115.038C497.103 115.004 496.951 114.987 496.773 114.987C496.36 114.987 496.065 115.089 495.887 115.294C495.713 115.498 495.626 115.794 495.626 116.18V125.691H493.927ZM500.157 128.964C499.903 128.964 499.672 128.943 499.464 128.902C499.255 128.864 499.1 128.822 498.998 128.777L499.407 127.385C499.718 127.468 499.994 127.504 500.237 127.493C500.479 127.481 500.693 127.39 500.879 127.22C501.068 127.049 501.235 126.771 501.379 126.385L501.589 125.805L498.396 116.964H500.214L502.424 123.737H502.515L504.725 116.964H506.549L502.952 126.856C502.786 127.311 502.574 127.695 502.316 128.01C502.059 128.328 501.752 128.566 501.396 128.725C501.04 128.885 500.627 128.964 500.157 128.964Z" fill="white" fill-opacity="0.8"/>
  <path d="M774.18 118.191C773.351 118.191 772.68 118.863 772.68 119.691C772.68 120.52 773.351 121.191 774.18 121.191V118.191ZM834.59 121.191C835.418 121.191 836.09 120.52 836.09 119.691C836.09 118.863 835.418 118.191 834.59 118.191V121.191ZM906.59 118.191C905.761 118.191 905.09 118.863 905.09 119.691C905.09 120.52 905.761 121.191 906.59 121.191V118.191ZM952 126.352C952 127.18 953.014 127.766 953.732 127.352L965.268 120.691C965.985 120.277 965.985 119.106 965.268 118.691L953.732 112.031C953.014 111.617 952 112.203 952 113.031V126.352ZM774.18 121.191H834.59V118.191H774.18V121.191ZM906.59 121.191H953.5V118.191H906.59V121.191Z" fill="#B3B3B3"/>
  <path d="M851.768 114.055H853.529V121.708C853.529 122.523 853.338 123.244 852.955 123.873C852.572 124.498 852.035 124.991 851.341 125.35C850.648 125.707 849.836 125.885 848.904 125.885C847.976 125.885 847.165 125.707 846.472 125.35C845.779 124.991 845.241 124.498 844.858 123.873C844.476 123.244 844.285 122.523 844.285 121.708V114.055H846.04V121.566C846.04 122.093 846.156 122.561 846.387 122.97C846.622 123.379 846.953 123.701 847.381 123.936C847.809 124.167 848.317 124.282 848.904 124.282C849.495 124.282 850.004 124.167 850.432 123.936C850.864 123.701 851.194 123.379 851.421 122.97C851.652 122.561 851.768 122.093 851.768 121.566V114.055ZM855.769 128.964V116.964H857.428V118.379H857.57C857.669 118.197 857.811 117.987 857.996 117.748C858.182 117.51 858.44 117.301 858.769 117.123C859.099 116.941 859.534 116.85 860.076 116.85C860.78 116.85 861.409 117.029 861.962 117.385C862.515 117.741 862.949 118.254 863.263 118.924C863.582 119.595 863.741 120.402 863.741 121.345C863.741 122.288 863.583 123.097 863.269 123.771C862.955 124.441 862.523 124.958 861.974 125.322C861.424 125.682 860.797 125.862 860.093 125.862C859.563 125.862 859.129 125.773 858.792 125.595C858.458 125.417 858.197 125.208 858.008 124.97C857.818 124.731 857.672 124.519 857.57 124.333H857.468V128.964H855.769ZM857.434 121.328C857.434 121.941 857.523 122.479 857.701 122.941C857.879 123.404 858.137 123.765 858.474 124.027C858.811 124.284 859.224 124.413 859.712 124.413C860.22 124.413 860.644 124.279 860.985 124.01C861.326 123.737 861.583 123.368 861.758 122.902C861.936 122.436 862.025 121.911 862.025 121.328C862.025 120.752 861.938 120.235 861.763 119.777C861.593 119.318 861.335 118.957 860.991 118.691C860.65 118.426 860.224 118.294 859.712 118.294C859.22 118.294 858.803 118.421 858.462 118.674C858.125 118.928 857.869 119.282 857.695 119.737C857.521 120.191 857.434 120.722 857.434 121.328ZM868.735 125.862C868.031 125.862 867.402 125.682 866.849 125.322C866.3 124.958 865.868 124.441 865.553 123.771C865.243 123.097 865.087 122.288 865.087 121.345C865.087 120.402 865.245 119.595 865.559 118.924C865.877 118.254 866.313 117.741 866.866 117.385C867.419 117.029 868.046 116.85 868.746 116.85C869.288 116.85 869.724 116.941 870.053 117.123C870.387 117.301 870.644 117.51 870.826 117.748C871.012 117.987 871.156 118.197 871.258 118.379H871.36V114.055H873.059V125.691H871.4V124.333H871.258C871.156 124.519 871.008 124.731 870.815 124.97C870.625 125.208 870.364 125.417 870.031 125.595C869.697 125.773 869.265 125.862 868.735 125.862ZM869.11 124.413C869.599 124.413 870.012 124.284 870.349 124.027C870.69 123.765 870.947 123.404 871.121 122.941C871.3 122.479 871.389 121.941 871.389 121.328C871.389 120.722 871.301 120.191 871.127 119.737C870.953 119.282 870.697 118.928 870.36 118.674C870.023 118.421 869.606 118.294 869.11 118.294C868.599 118.294 868.173 118.426 867.832 118.691C867.491 118.957 867.233 119.318 867.059 119.777C866.889 120.235 866.803 120.752 866.803 121.328C866.803 121.911 866.89 122.436 867.065 122.902C867.239 123.368 867.496 123.737 867.837 124.01C868.182 124.279 868.606 124.413 869.11 124.413ZM877.847 125.885C877.294 125.885 876.794 125.782 876.347 125.578C875.901 125.369 875.546 125.068 875.285 124.674C875.027 124.28 874.899 123.797 874.899 123.225C874.899 122.733 874.993 122.328 875.183 122.01C875.372 121.691 875.628 121.44 875.95 121.254C876.272 121.068 876.632 120.928 877.029 120.833C877.427 120.739 877.832 120.667 878.245 120.618C878.768 120.557 879.192 120.508 879.518 120.47C879.844 120.428 880.08 120.362 880.228 120.271C880.376 120.18 880.45 120.032 880.45 119.828V119.788C880.45 119.292 880.31 118.907 880.029 118.635C879.753 118.362 879.34 118.225 878.791 118.225C878.219 118.225 877.768 118.352 877.438 118.606C877.113 118.856 876.887 119.135 876.762 119.441L875.166 119.078C875.355 118.547 875.632 118.119 875.995 117.794C876.363 117.464 876.785 117.225 877.262 117.078C877.74 116.926 878.241 116.85 878.768 116.85C879.116 116.85 879.486 116.892 879.876 116.975C880.27 117.055 880.637 117.203 880.978 117.419C881.323 117.635 881.605 117.943 881.825 118.345C882.044 118.743 882.154 119.26 882.154 119.896V125.691H880.495V124.498H880.427C880.317 124.718 880.152 124.934 879.933 125.146C879.713 125.358 879.431 125.534 879.086 125.674C878.741 125.815 878.329 125.885 877.847 125.885ZM878.217 124.521C878.686 124.521 879.088 124.428 879.421 124.243C879.758 124.057 880.014 123.815 880.188 123.515C880.366 123.212 880.455 122.888 880.455 122.544V121.419C880.395 121.479 880.277 121.536 880.103 121.589C879.933 121.638 879.738 121.682 879.518 121.72C879.298 121.754 879.084 121.786 878.876 121.816C878.668 121.843 878.493 121.866 878.353 121.885C878.024 121.926 877.722 121.996 877.45 122.095C877.181 122.193 876.965 122.335 876.802 122.521C876.643 122.703 876.563 122.945 876.563 123.248C876.563 123.669 876.719 123.987 877.029 124.203C877.34 124.415 877.736 124.521 878.217 124.521ZM888.315 116.964V118.328H883.548V116.964H888.315ZM884.826 114.873H886.525V123.129C886.525 123.458 886.574 123.707 886.673 123.873C886.771 124.036 886.898 124.148 887.054 124.208C887.213 124.265 887.385 124.294 887.571 124.294C887.707 124.294 887.826 124.284 887.929 124.265C888.031 124.246 888.11 124.231 888.167 124.22L888.474 125.623C888.376 125.661 888.235 125.699 888.054 125.737C887.872 125.779 887.644 125.801 887.372 125.805C886.925 125.813 886.508 125.733 886.122 125.566C885.735 125.4 885.423 125.142 885.184 124.794C884.946 124.445 884.826 124.008 884.826 123.481V114.873ZM893.686 125.868C892.826 125.868 892.085 125.684 891.464 125.316C890.847 124.945 890.37 124.424 890.032 123.754C889.699 123.08 889.532 122.29 889.532 121.385C889.532 120.491 889.699 119.703 890.032 119.021C890.37 118.339 890.839 117.807 891.442 117.424C892.048 117.042 892.756 116.85 893.567 116.85C894.059 116.85 894.536 116.932 894.998 117.095C895.46 117.258 895.875 117.513 896.243 117.862C896.61 118.21 896.9 118.663 897.112 119.22C897.324 119.773 897.43 120.445 897.43 121.237V121.839H890.493V120.566H895.765C895.765 120.119 895.674 119.724 895.493 119.379C895.311 119.03 895.055 118.756 894.726 118.555C894.4 118.354 894.017 118.254 893.578 118.254C893.101 118.254 892.684 118.371 892.328 118.606C891.976 118.837 891.703 119.14 891.51 119.515C891.32 119.886 891.226 120.29 891.226 120.725V121.72C891.226 122.303 891.328 122.799 891.532 123.208C891.741 123.618 892.031 123.93 892.402 124.146C892.773 124.358 893.207 124.464 893.703 124.464C894.025 124.464 894.318 124.419 894.584 124.328C894.849 124.233 895.078 124.093 895.271 123.907C895.464 123.722 895.612 123.493 895.714 123.22L897.322 123.51C897.193 123.983 896.962 124.398 896.629 124.754C896.299 125.106 895.885 125.381 895.385 125.578C894.888 125.771 894.322 125.868 893.686 125.868Z" fill="white" fill-opacity="0.8"/>
  <path d="M42 118C41.1716 118 40.5 118.672 40.5 119.5C40.5 120.328 41.1716 121 42 121V118ZM110.626 121C111.455 121 112.126 120.328 112.126 119.5C112.126 118.672 111.455 118 110.626 118V121ZM164.626 118C163.798 118 163.126 118.672 163.126 119.5C163.126 120.328 163.798 121 164.626 121V118ZM218.253 126.16C218.253 126.989 219.267 127.574 219.985 127.16L231.521 120.5C232.238 120.086 232.238 118.914 231.521 118.5L219.985 111.84C219.267 111.426 218.253 112.011 218.253 112.84V126.16ZM42 121H110.626V118H42V121ZM164.626 121H219.753V118H164.626V121Z" fill="#B3B3B3"/>
  <path d="M120.235 128.773V116.773H121.894V118.188H122.037C122.135 118.006 122.277 117.795 122.463 117.557C122.648 117.318 122.906 117.11 123.235 116.932C123.565 116.75 124.001 116.659 124.542 116.659C125.247 116.659 125.876 116.837 126.429 117.193C126.982 117.549 127.415 118.062 127.73 118.733C128.048 119.403 128.207 120.21 128.207 121.153C128.207 122.097 128.05 122.905 127.735 123.58C127.421 124.25 126.989 124.767 126.44 125.131C125.891 125.491 125.264 125.67 124.559 125.67C124.029 125.67 123.595 125.581 123.258 125.403C122.925 125.225 122.663 125.017 122.474 124.778C122.285 124.54 122.139 124.328 122.037 124.142H121.934V128.773H120.235ZM121.9 121.136C121.9 121.75 121.989 122.288 122.167 122.75C122.345 123.212 122.603 123.574 122.94 123.835C123.277 124.093 123.69 124.222 124.179 124.222C124.686 124.222 125.11 124.087 125.451 123.818C125.792 123.545 126.05 123.176 126.224 122.71C126.402 122.244 126.491 121.72 126.491 121.136C126.491 120.561 126.404 120.044 126.23 119.585C126.059 119.127 125.802 118.765 125.457 118.5C125.116 118.235 124.69 118.102 124.179 118.102C123.686 118.102 123.269 118.229 122.929 118.483C122.591 118.737 122.336 119.091 122.162 119.545C121.987 120 121.9 120.53 121.9 121.136ZM135.463 121.881V116.773H137.167V125.5H135.497V123.989H135.406C135.205 124.455 134.883 124.843 134.44 125.153C134.001 125.46 133.453 125.614 132.798 125.614C132.237 125.614 131.741 125.491 131.309 125.244C130.881 124.994 130.544 124.625 130.298 124.136C130.056 123.648 129.934 123.044 129.934 122.324V116.773H131.633V122.119C131.633 122.714 131.798 123.187 132.128 123.54C132.457 123.892 132.885 124.068 133.412 124.068C133.73 124.068 134.046 123.989 134.361 123.83C134.679 123.67 134.942 123.43 135.15 123.108C135.362 122.786 135.467 122.377 135.463 121.881ZM145.814 118.903L144.274 119.176C144.21 118.979 144.107 118.792 143.967 118.614C143.831 118.436 143.645 118.29 143.41 118.176C143.176 118.062 142.882 118.006 142.53 118.006C142.049 118.006 141.647 118.114 141.325 118.33C141.003 118.542 140.842 118.816 140.842 119.153C140.842 119.445 140.95 119.68 141.166 119.858C141.382 120.036 141.73 120.182 142.212 120.295L143.598 120.614C144.401 120.799 144.999 121.085 145.393 121.472C145.787 121.858 145.984 122.36 145.984 122.977C145.984 123.5 145.833 123.966 145.53 124.375C145.23 124.78 144.812 125.098 144.274 125.33C143.74 125.561 143.121 125.676 142.416 125.676C141.439 125.676 140.641 125.468 140.024 125.051C139.407 124.631 139.028 124.034 138.888 123.261L140.53 123.011C140.632 123.439 140.842 123.763 141.16 123.983C141.479 124.199 141.893 124.307 142.405 124.307C142.962 124.307 143.407 124.191 143.74 123.96C144.073 123.725 144.24 123.439 144.24 123.102C144.24 122.83 144.138 122.6 143.933 122.415C143.732 122.229 143.424 122.089 143.007 121.994L141.53 121.67C140.715 121.485 140.113 121.189 139.723 120.784C139.337 120.379 139.143 119.866 139.143 119.244C139.143 118.729 139.287 118.278 139.575 117.892C139.863 117.506 140.261 117.205 140.768 116.989C141.276 116.769 141.857 116.659 142.513 116.659C143.456 116.659 144.198 116.864 144.74 117.273C145.282 117.678 145.64 118.222 145.814 118.903ZM149.375 120.318V125.5H147.676V113.864H149.352V118.193H149.46C149.665 117.723 149.977 117.35 150.398 117.074C150.818 116.797 151.367 116.659 152.045 116.659C152.644 116.659 153.167 116.782 153.614 117.028C154.064 117.275 154.413 117.642 154.659 118.131C154.909 118.616 155.034 119.222 155.034 119.949V125.5H153.335V120.153C153.335 119.513 153.17 119.017 152.841 118.665C152.511 118.309 152.053 118.131 151.466 118.131C151.064 118.131 150.705 118.216 150.386 118.386C150.072 118.557 149.824 118.807 149.642 119.136C149.464 119.462 149.375 119.856 149.375 120.318Z" fill="white" fill-opacity="0.8"/>
  <g clip-path="url(#clip0_1_2)">
  <path d="M762.574 162.211C762.574 176.652 751.15 188.371 737.05 188.371C722.95 188.371 711.527 176.652 711.527 162.211C711.527 147.768 722.95 136.05 737.05 136.05C751.15 136.05 762.574 147.768 762.574 162.211" fill="#D33833"/>
  <path d="M712.576 168.689C712.576 168.689 710.724 141.414 735.815 140.63L734.065 137.7L720.459 142.28L716.569 146.757L713.173 153.277L711.238 160.869L711.815 165.945" fill="#EF3D3A"/>
  <path d="M719.574 144.364C715.108 148.965 712.329 155.299 712.329 162.313C712.329 169.328 715.108 175.662 719.574 180.262C724.062 184.863 730.216 187.69 737.05 187.69C743.884 187.69 750.038 184.863 754.525 180.263C758.992 175.662 761.771 169.328 761.771 162.313C761.771 155.299 758.992 148.965 754.525 144.364C750.038 139.784 743.884 136.937 737.05 136.937C730.237 136.937 724.062 139.763 719.574 144.364V144.364ZM718.442 181.356C713.688 176.487 710.744 169.741 710.744 162.313C710.744 154.886 713.688 148.139 718.442 143.25C723.197 138.381 729.784 135.348 737.05 135.348C744.316 135.348 750.903 138.381 755.657 143.25C760.412 148.119 763.356 154.865 763.356 162.313C763.356 169.74 760.412 176.487 755.657 181.356C750.903 186.245 744.316 189.258 737.05 189.258C729.784 189.258 723.197 186.245 718.442 181.356V181.356Z" fill="#231F20"/>
  <path d="M747.795 162.354L743.905 162.932L738.656 163.531L735.26 163.613L731.946 163.51L729.414 162.726L727.17 160.291L725.421 155.319L725.03 154.246L722.704 153.462L721.345 151.214L720.378 147.995L721.448 145.169L723.98 144.281L726.018 145.251L726.985 147.397L728.158 147.211L728.549 146.716L728.158 144.467L728.055 141.641L728.632 137.741L728.611 135.513L730.381 132.666L733.489 130.417L738.923 128.086L744.954 128.973L750.203 132.769L752.632 136.668L754.196 139.495L754.588 146.51L753.414 152.555L751.273 157.919L749.256 160.787" fill="#F0D6B7"/>
  <path d="M744.501 179.21L730.607 179.788V182.119L731.781 190.31L731.204 190.991L721.489 187.669L720.81 186.493L719.842 175.476L717.557 168.874L717.063 167.306L724.844 161.942L727.273 160.972L729.414 163.613L731.266 165.264L733.407 165.944L734.374 166.233L735.547 171.309L736.433 172.381L738.676 171.597L737.112 174.63L745.551 178.632L744.501 179.21" fill="#335061"/>
  <path d="M721.448 145.21L723.98 144.323L726.017 145.293L726.985 147.438L728.158 147.253L728.446 146.077L727.87 143.828L728.446 138.464L727.952 135.534L729.702 133.492L733.489 130.479L732.418 129.015L727.067 131.655L724.823 133.409L723.568 136.132L721.633 138.773L721.057 141.889L721.448 145.21" fill="#6D6B6D"/>
  <path d="M725.441 136.049C725.441 136.049 726.902 132.439 732.727 130.685C738.552 128.932 733.016 129.427 733.016 129.427L726.696 131.861L724.268 134.296L723.197 136.235L725.441 136.049M722.518 144.529C722.518 144.529 720.48 137.7 728.261 136.73L727.973 135.554L722.621 136.813L721.057 141.888L721.448 145.21L722.518 144.529" fill="#DCD9D8"/>
  <path d="M725.626 153.586L726.902 152.348C726.902 152.348 727.478 152.41 727.581 153.091C727.684 153.772 727.972 159.92 732.151 163.221C732.542 163.531 729.043 162.726 729.043 162.726L725.934 157.857M743.513 151.729C743.513 151.729 743.739 148.779 744.542 149.006C745.345 149.233 745.345 150.038 745.345 150.038C745.345 150.038 743.41 151.275 743.513 151.729M751.582 140.919C751.582 140.919 749.976 141.249 749.832 142.672C749.688 144.096 751.582 142.961 751.87 142.858M739.829 141.022C739.829 141.022 737.688 141.311 737.688 142.672C737.688 144.034 740.117 143.931 740.796 143.353M726.614 147.356C726.614 147.356 722.93 145.107 722.539 147.253C722.148 149.398 721.283 150.945 723.115 153.194L721.859 152.802L720.686 149.79L720.295 146.86L722.539 144.529L725.07 144.715L726.532 145.891L726.614 147.356M728.364 141.208C728.364 141.208 730.01 132.625 738.367 130.974C745.242 129.613 748.865 131.263 750.223 132.831C750.223 132.831 744.089 125.528 738.264 127.756C732.439 130.005 728.158 134.09 728.261 136.71C728.425 141.207 728.363 141.207 728.363 141.207M750.902 133.801C750.902 133.801 748.083 133.698 747.979 136.235C747.979 136.235 747.979 136.627 748.165 137.019C748.165 137.019 750.408 134.482 751.767 135.843" fill="#F7E4CD"/>
  <path d="M738.573 137.288C738.573 137.288 738.079 133.409 734.786 135.658C732.645 137.123 732.851 139.165 733.222 139.557C733.613 139.949 733.51 140.733 733.798 140.197C734.086 139.66 734.004 137.907 735.074 137.411C736.124 136.916 737.894 136.38 738.573 137.288" fill="#F7E4CD"/>
  <path d="M729.434 163.613L720.295 167.698C720.295 167.698 724.082 182.8 722.147 187.483L720.789 186.988L720.686 181.232L718.154 170.339L717.084 167.327L726.614 160.89L729.434 163.613M730.36 171.969L731.657 173.557V179.396H730.113C730.113 179.396 729.928 175.311 729.928 174.816C729.928 174.321 730.113 172.567 730.113 172.567M730.402 180.283L726.017 180.469L727.273 181.356L730.381 181.851" fill="#49728B"/>
  <path d="M745.366 179.314L748.968 179.21L749.853 188.164L746.169 188.66L745.366 179.313" fill="#335061"/>
  <path d="M746.333 179.314L751.767 179.025C751.767 179.025 754.011 173.372 754.011 173.083C754.011 172.794 755.946 164.892 755.946 164.892L751.561 160.312L750.676 159.528L748.35 161.86V170.917L746.333 179.314" fill="#335061"/>
  <path d="M748.762 178.633L745.366 179.314L745.86 182.037C747.115 182.615 749.256 181.067 749.256 181.067M748.865 161.571L755.678 166.646L755.863 164.314L750.718 159.549L748.865 161.571" fill="#49728B"/>
  <path d="M733.778 198.501L731.76 190.31L730.752 184.265L730.587 179.788L739.706 179.293H745.366L744.852 189.526L745.737 197.428L745.634 198.893L738.244 199.47L733.778 198.501" fill="white"/>
  <path d="M744.11 179.211C744.11 179.211 743.616 189.341 745.078 196.562C745.078 196.562 742.155 198.418 737.894 198.893L746.066 198.604L747.033 198.026L745.86 182.058L745.551 178.633" fill="#DCD9D8"/>
  <path d="M749.997 187.401L753.784 186.328L760.968 185.936L762.039 182.615L760.104 176.859L757.86 176.57L754.752 177.54L751.788 179.004L750.203 178.715L748.968 179.211" fill="white"/>
  <path d="M749.935 185.441C749.935 185.441 752.467 184.265 752.858 184.368L751.788 179.004L753.043 178.509C753.043 178.509 753.929 183.584 753.929 184.162C753.929 184.162 759.363 184.451 759.856 184.451C759.856 184.451 761.03 182.202 760.742 179.87L761.812 182.986L761.915 184.739L760.351 187.071L758.601 187.463L755.678 187.36L754.711 186.101L751.314 186.596L750.244 186.988" fill="#DCD9D8"/>
  <path d="M746.107 178.53L743.966 173.083L741.722 169.864C741.722 169.864 742.217 168.503 742.896 168.503H745.139L747.28 169.287L747.095 172.897L746.107 178.53" fill="white"/>
  <path d="M746.539 176.673C746.539 176.673 743.822 171.412 743.822 170.628C743.822 170.628 744.316 169.452 744.995 169.741C745.675 170.03 747.136 170.814 747.136 170.814V168.957L743.822 168.276L741.578 168.565L745.366 177.56L746.148 177.663" fill="#DCD9D8"/>
  <path d="M734.642 163.819L731.945 163.53L729.414 162.747V163.634L730.648 164.996L734.539 166.749" fill="white"/>
  <path d="M730.299 164.108C730.299 164.108 733.304 165.367 734.292 165.078L734.395 166.254L731.678 165.676L730.031 164.5L730.299 164.108" fill="#DCD9D8"/>
  <path d="M749.997 168.833C748.35 168.792 746.848 168.585 745.551 168.214C745.633 167.678 745.469 167.162 745.613 166.77C745.983 166.502 746.58 166.502 747.136 166.44C746.662 166.213 745.983 166.11 745.448 166.254C745.427 165.883 745.263 165.656 745.16 165.367C746.086 165.037 748.268 162.871 749.503 163.572C750.1 163.923 750.347 165.862 750.388 166.832C750.429 167.616 750.306 168.4 749.997 168.833" fill="#D33833"/>
  <path d="M749.997 168.833C748.35 168.792 746.848 168.585 745.551 168.214C745.633 167.678 745.469 167.162 745.613 166.77C745.983 166.502 746.58 166.502 747.136 166.44C746.662 166.213 745.983 166.11 745.448 166.254C745.427 165.883 745.263 165.656 745.16 165.367C746.086 165.037 748.268 162.871 749.503 163.572C750.1 163.923 750.347 165.862 750.388 166.832C750.429 167.616 750.306 168.4 749.997 168.833V168.833Z" fill="black" stroke="#D33833" stroke-width="2.10877"/>
  <path d="M742.114 166.13C742.114 166.254 742.114 166.378 742.093 166.502C741.579 166.832 740.755 166.832 740.179 167.121C741.002 167.162 741.661 167.368 742.237 167.636C742.217 167.946 742.217 168.276 742.196 168.586C741.249 169.225 740.385 170.195 739.273 170.814C738.738 171.103 736.906 171.845 736.35 171.701C736.042 171.618 736.001 171.226 735.877 170.855C735.61 170.071 734.992 168.792 734.93 167.595C734.868 166.089 734.704 163.551 736.33 163.861C737.647 164.108 739.17 164.707 740.179 165.264C740.817 165.635 741.167 166.048 742.114 166.13" fill="#D33833"/>
  <path d="M742.114 166.13C742.114 166.254 742.114 166.378 742.093 166.502C741.579 166.832 740.755 166.832 740.179 167.121C741.002 167.162 741.661 167.368 742.237 167.636C742.217 167.946 742.217 168.276 742.196 168.586C741.249 169.225 740.385 170.195 739.273 170.814C738.738 171.103 736.906 171.845 736.35 171.701C736.042 171.618 736.001 171.226 735.877 170.855C735.61 170.071 734.992 168.792 734.93 167.595C734.868 166.089 734.704 163.551 736.33 163.861C737.647 164.108 739.17 164.707 740.179 165.264C740.817 165.635 741.167 166.048 742.114 166.13V166.13Z" fill="black" stroke="#D33833" stroke-width="2.10877"/>
  <path d="M743.04 167.925C742.896 167.1 742.731 166.873 742.793 166.151C744.996 164.686 745.387 168.668 743.04 167.925" fill="#D33833"/>
  <path d="M743.04 167.925C742.896 167.1 742.731 166.873 742.793 166.151C744.996 164.686 745.387 168.668 743.04 167.925H743.04Z" fill="black" stroke="#D33833" stroke-width="2.10877"/>
  <path d="M746.21 168.585C746.21 168.585 745.531 167.616 746.024 167.327C746.519 167.038 746.992 167.327 747.28 166.832C747.568 166.336 747.28 166.048 747.383 165.47C747.486 164.892 747.959 164.789 748.453 164.686C748.947 164.583 750.306 164.397 750.491 164.872L749.915 163.118L748.742 162.726L745.057 164.872L744.872 165.945V168.09M736 171.804C735.877 170.277 735.754 168.771 735.63 167.244C735.424 164.975 736.165 165.367 738.141 165.367C738.45 165.367 739.994 165.718 740.097 165.945C740.632 167.038 739.211 166.79 740.714 167.616C741.97 168.297 744.213 167.203 743.699 165.656C743.41 165.305 742.217 165.553 741.784 165.326L739.5 164.15C738.532 163.654 736.309 162.912 735.28 163.613C732.666 165.388 735.445 169.844 736.371 171.701" fill="#EF3D3A"/>
  <path d="M738.573 137.288C735.918 136.669 734.601 138.402 733.798 140.197C733.078 140.032 733.366 139.041 733.551 138.546C734.024 137.247 735.939 135.493 737.503 135.74C738.162 135.823 739.067 136.442 738.573 137.288M751.479 140.3H751.603C752.2 141.538 752.714 142.858 753.476 143.972C752.961 145.169 749.647 146.2 749.688 144.096C750.409 143.787 751.644 144.034 752.282 143.622C751.912 142.611 751.397 141.744 751.479 140.3M739.911 140.341C740.488 141.393 740.673 142.487 741.476 143.271C741.846 143.622 742.546 144.055 742.196 145.045C742.114 145.272 741.517 145.788 741.167 145.891C739.911 146.262 736.968 145.974 737.956 144.385C739.005 144.426 740.405 145.066 741.188 144.302C740.591 143.353 739.52 141.455 739.911 140.341ZM751.006 150.946C749.112 152.163 746.992 153.504 743.863 153.194C743.205 152.617 742.937 151.317 743.596 150.471C743.925 151.049 743.719 152.122 744.666 152.287C746.436 152.596 748.495 151.193 749.771 150.719C750.553 149.378 749.709 148.903 748.989 148.037C747.527 146.283 745.592 144.096 745.654 141.476C746.251 141.043 746.292 142.136 746.374 142.322C747.136 144.096 749.051 146.386 750.429 147.913C750.779 148.284 751.335 148.656 751.397 148.903C751.582 149.605 750.924 150.471 751.006 150.946M725.935 149.667C725.338 149.316 725.194 147.83 724.494 147.789C723.486 147.727 723.671 149.729 723.671 150.904C722.992 150.286 722.868 148.346 723.362 147.356C722.786 147.067 722.539 147.665 722.209 147.872C722.642 144.88 726.594 146.489 725.935 149.667M752.2 152.204C751.315 153.896 750.059 155.753 747.465 155.815C747.404 155.278 747.363 154.432 747.465 154.102C749.462 153.896 750.697 152.885 752.2 152.204ZM739.767 153.298C741.414 154.164 744.46 154.267 746.724 154.205C746.848 154.701 746.848 155.319 746.848 155.918C743.946 156.042 740.529 155.319 739.767 153.298ZM739.459 154.907C740.611 157.795 744.543 157.465 747.856 157.383C747.712 157.754 747.404 158.208 746.992 158.352C745.922 158.786 742.999 159.116 741.517 158.332C740.591 157.837 739.973 156.702 739.459 156.042C739.232 155.732 737.997 154.928 739.459 154.907" fill="#231F20"/>
  <path d="M750.862 170.813C749.524 173.124 748.227 175.497 746.642 177.519C747.301 175.559 747.589 172.258 747.692 169.741C749.092 169.08 750.285 169.885 750.862 170.814" fill="#81B0C4"/>
  <path d="M758.086 179.107C756.584 179.417 755.534 180.882 754.052 180.779C754.875 179.644 756.275 179.149 758.086 179.107M758.745 181.459C757.51 181.583 756.069 181.789 754.834 181.686C755.431 180.779 757.695 181.108 758.745 181.459ZM759.177 183.502C757.798 183.523 756.09 183.502 754.772 183.399C755.555 182.553 758.292 183.089 759.177 183.502Z" fill="#231F20"/>
  <path d="M748.268 189.072C748.474 190.805 749.153 192.559 749.071 194.457C748.309 194.704 747.877 194.931 746.848 194.931C746.786 193.322 746.56 190.847 746.621 189.299C747.115 189.34 747.856 188.948 748.268 189.072" fill="#DCD9D8"/>
  <path d="M746.045 163.489C745.345 163.943 744.768 164.5 744.089 164.995C742.607 165.078 741.804 164.892 740.734 164.046C740.755 163.985 740.858 164.005 740.858 163.923C742.442 164.624 744.46 163.634 746.045 163.489" fill="#F0D6B7"/>
  <path d="M737.771 174.28C738.203 172.402 739.911 171.412 741.455 170.38C743.04 172.402 744.007 175.002 745.078 177.519C742.546 176.755 739.973 175.538 737.771 174.28" fill="#81B0C4"/>
  <path d="M746.621 189.32C746.56 190.867 746.765 193.322 746.848 194.952C747.877 194.952 748.309 194.725 749.071 194.478C749.153 192.579 748.474 190.826 748.268 189.093C747.856 188.948 747.115 189.34 746.621 189.32V189.32ZM730.731 180.572C731.41 186.782 732.378 191.981 734.168 197.49C738.141 198.707 742.916 198.81 746.436 197.717C745.798 194.622 746.066 190.847 745.695 187.525C745.407 185.028 745.551 182.532 745.16 179.994C740.899 179.107 734.889 179.788 730.731 180.572ZM746.169 180.036C746.127 182.697 746.292 185.338 746.498 187.999C747.527 187.855 748.206 187.752 749.153 187.525C748.844 184.966 748.886 182.058 748.248 179.788C747.527 179.809 746.889 179.788 746.169 180.036V180.036ZM751.335 179.602C750.841 179.499 750.285 179.602 749.832 179.602C750.059 181.769 750.573 184.162 750.759 186.452C751.479 186.473 751.87 186.122 752.467 186.019C752.508 184.017 752.302 181.253 751.335 179.602ZM759.177 186.782C760.701 186.411 761.647 184.554 761.215 182.635C760.927 181.356 760.433 178.922 759.877 178.096C759.486 177.498 758.395 176.693 757.51 177.25C756.09 178.158 753.599 178.426 752.57 179.52C753.084 181.253 753.249 183.605 753.455 185.792C755.225 185.895 757.386 185.297 758.869 185.936C757.839 186.266 756.522 186.266 755.637 186.761C756.378 187.112 758.066 187.05 759.177 186.782V186.782ZM745.057 177.519C743.987 175.002 743.019 172.402 741.434 170.38C739.891 171.412 738.203 172.402 737.75 174.28C739.973 175.538 742.546 176.755 745.057 177.519ZM747.692 169.741C747.589 172.258 747.301 175.559 746.642 177.519C748.227 175.476 749.524 173.124 750.862 170.813C750.285 169.885 749.091 169.08 747.692 169.741L747.692 169.741ZM744.707 168.689C744.11 168.626 743.596 169.39 742.813 169.06C742.628 169.266 742.463 169.473 742.278 169.679C744.007 171.783 744.81 174.754 746.148 177.209C746.868 174.837 746.786 172.258 746.951 169.679C745.963 169.72 745.407 168.75 744.707 168.688V168.689ZM742.793 166.151C742.731 166.873 742.896 167.1 743.04 167.925C745.386 168.668 744.995 164.686 742.793 166.151ZM740.179 165.284C739.17 164.727 737.647 164.129 736.33 163.881C734.704 163.572 734.868 166.11 734.93 167.616C734.992 168.812 735.609 170.071 735.877 170.875C736 171.247 736.041 171.639 736.35 171.721C736.906 171.845 738.758 171.123 739.273 170.834C740.385 170.236 741.249 169.266 742.196 168.606C742.217 168.296 742.217 167.966 742.237 167.657C741.661 167.368 741.023 167.182 740.179 167.141C740.735 166.852 741.578 166.852 742.093 166.522C742.093 166.398 742.093 166.275 742.114 166.151C741.167 166.048 740.817 165.635 740.179 165.284ZM730.505 163.531C729.661 164.397 732.871 165.552 733.88 165.614C733.88 165.078 734.189 164.562 734.127 164.17C732.913 163.964 731.328 164.108 730.505 163.531ZM740.879 163.923C740.879 164.005 740.776 163.985 740.755 164.046C741.846 164.892 742.649 165.078 744.11 164.995C744.769 164.521 745.366 163.943 746.066 163.489C744.46 163.634 742.443 164.624 740.879 163.923H740.879ZM750.388 166.811C750.347 165.862 750.1 163.902 749.503 163.551C748.268 162.829 746.086 165.016 745.16 165.346C745.263 165.635 745.428 165.862 745.448 166.233C746.004 166.089 746.662 166.192 747.136 166.419C746.58 166.481 745.983 166.481 745.613 166.749C745.489 167.141 745.654 167.657 745.551 168.193C746.848 168.565 748.35 168.75 749.997 168.812C750.306 168.4 750.429 167.616 750.388 166.811V166.811ZM729.084 164.356C728.817 164.17 727.026 161.839 726.779 161.942C723.547 163.221 720.522 165.429 717.825 167.533C720.398 173.083 721.448 179.871 721.633 186.411C724.577 187.793 727.17 189.794 731.184 190.001C730.71 186.72 730.299 183.77 730.031 180.675C729.023 180.242 727.582 180.696 726.635 180.551C726.635 179.417 728.076 180.056 728.199 179.293C728.282 178.715 727.396 178.674 727.685 177.766C728.426 178.034 728.817 178.633 729.599 178.86C730.319 177.292 729.599 174.507 729.702 173.186C729.722 172.939 729.825 171.824 730.381 172.01C730.875 172.175 730.36 175.002 730.402 176.239C730.443 177.395 730.257 178.488 730.731 179.21C734.601 178.674 738.532 178.344 742.731 178.22C741.805 177.828 740.714 177.457 739.52 176.776C738.861 176.405 736.824 175.641 736.638 175.022C736.33 174.032 737.42 173.516 737.606 172.67C735.65 173.743 735.28 171.639 734.806 170.174C734.395 168.833 734.148 167.822 734.045 167.058C732.336 166.192 730.525 165.387 729.084 164.356V164.356ZM748.68 162.21C751.376 160.911 751.87 167.1 750.8 169.101C750.964 169.699 751.52 169.926 751.747 170.463C750.244 173.165 748.577 175.682 747.033 178.344C748.165 177.622 749.812 178.22 751.15 177.684C751.644 177.498 751.994 176.363 752.364 175.456C753.393 172.98 754.464 169.844 754.937 167.492C755.04 166.956 755.349 165.779 755.266 165.305C755.143 164.438 753.99 163.799 753.393 163.283C752.302 162.293 751.623 161.447 750.47 160.518C750.038 161.199 749.05 161.653 748.68 162.21V162.21ZM722.93 138.257C721.654 139.681 721.921 142.322 722.065 144.22C724.391 142.755 727.458 144.344 727.438 146.819C728.549 146.798 727.849 145.437 727.643 144.55C726.985 141.682 728.755 138.587 727.726 135.967C725.729 136.132 724.103 136.937 722.93 138.257V138.257ZM732.11 130.025C729.208 130.851 725.482 132.976 724.288 135.596C725.215 135.451 725.853 134.997 726.758 134.936C727.108 134.915 727.561 135.08 727.952 134.977C728.734 134.771 729.414 132.996 730.01 132.336C730.587 131.696 731.287 131.408 731.76 130.83C732.069 130.686 732.522 130.686 732.542 130.232C732.419 130.087 732.275 129.984 732.11 130.025V130.025ZM747.239 130.809C744.213 129.097 739.108 127.818 735.897 129.427C733.304 130.727 729.805 132.872 728.611 135.575C729.722 138.195 728.282 140.588 728.178 143.25C728.137 144.673 728.837 145.891 728.899 147.438C728.508 148.078 727.355 148.14 726.553 148.098C726.285 146.737 725.812 145.21 724.412 145.045C722.436 144.818 720.974 146.469 720.892 148.181C720.789 150.203 722.436 153.545 724.782 153.318C725.688 153.236 725.914 152.328 726.902 152.328C727.438 153.401 726.079 153.731 725.935 154.494C725.894 154.7 726.038 155.464 726.141 155.835C726.573 157.589 727.52 159.879 728.446 161.22C729.64 162.932 731.966 163.18 734.477 163.345C734.93 162.375 736.577 162.458 737.647 162.705C736.35 162.19 735.156 160.952 734.168 159.858C733.036 158.6 731.884 157.259 731.822 155.608C733.983 158.6 735.753 161.22 739.664 162.54C742.628 163.531 746.086 162.086 748.371 160.477C749.318 159.817 749.873 158.744 750.553 157.795C753.064 154.164 754.237 149.006 753.99 143.993C753.887 141.93 753.887 139.866 753.187 138.484C752.467 137.04 750.018 135.72 748.577 137.04C748.309 135.616 749.771 134.75 751.479 135.266C750.265 133.677 748.989 131.8 747.239 130.809V130.809ZM752.879 177.457C755.246 176.281 759.651 174.3 761.112 177.457C761.668 178.633 762.306 180.593 762.574 181.81C762.965 183.502 762.141 187.092 760.392 187.648C758.848 188.144 757.057 188.123 755.205 187.752C754.978 187.566 754.752 187.257 754.567 186.926C753.249 186.885 751.994 186.989 750.964 187.546C751.067 188.536 750.409 188.68 749.771 188.887C749.318 190.723 750.697 193.116 750.368 194.766C750.141 195.963 748.68 196.149 747.609 196.355C747.568 197.015 747.651 197.572 747.733 198.129C747.486 199.037 746.395 199.553 745.345 199.677C741.908 200.089 736.7 200.275 733.407 199.078C732.48 196.809 731.76 194.065 730.998 191.486C727.787 191.837 725.173 190.104 722.724 188.948C721.88 188.556 720.707 188.329 720.377 187.649C720.069 186.989 720.192 185.73 720.11 184.554C719.925 181.521 719.739 178.591 718.957 175.497C718.607 174.094 717.969 172.877 717.537 171.536C717.125 170.298 716.425 168.75 716.24 167.512C715.973 165.676 717.702 165.573 718.793 164.768C720.501 163.531 721.839 162.85 723.691 161.736C724.247 161.406 725.894 160.58 726.079 160.188C726.45 159.425 725.441 158.352 725.173 157.754C724.741 156.805 724.515 156 724.453 155.072C722.909 154.824 721.715 153.896 721.016 152.864C719.842 151.131 719.019 147.933 720.048 145.52C720.131 145.334 720.522 144.942 720.583 144.653C720.707 144.075 720.357 143.312 720.336 142.693C720.233 139.536 720.872 136.813 722.992 135.864C723.856 132.419 726.943 131.284 729.846 129.571C730.937 128.932 732.131 128.519 733.366 128.065C737.791 126.436 744.604 126.745 748.289 129.53C749.853 130.706 752.344 133.202 753.229 135.018C755.596 139.784 755.411 147.768 753.764 153.586C753.537 154.37 753.229 155.505 752.776 156.454C752.467 157.114 751.5 158.414 751.603 158.992C751.726 159.59 753.826 161.179 754.279 161.612C755.081 162.396 756.625 163.428 756.748 164.418C756.893 165.47 756.296 166.914 755.987 167.925C754.999 171.309 754.011 174.424 752.879 177.457V177.457Z" fill="#231F20"/>
  <path d="M737.132 154.02C737.256 153.855 737.956 153.587 738.944 154.061C738.944 154.061 737.77 154.247 737.873 156.207L737.379 156.103C737.4 156.124 736.885 154.35 737.132 154.02Z" fill="#F7E4CD"/>
  <path d="M745.654 170.772C745.654 171.061 745.407 171.309 745.118 171.309C744.83 171.309 744.583 171.061 744.583 170.772C744.583 170.483 744.83 170.236 745.118 170.236C745.427 170.236 745.654 170.483 745.654 170.772ZM746.189 173.269C746.189 173.558 745.942 173.805 745.654 173.805C745.366 173.805 745.118 173.558 745.118 173.269C745.118 172.98 745.366 172.732 745.654 172.732C745.963 172.732 746.189 172.959 746.189 173.269Z" fill="#1D1919"/>
  </g>
  <path d="M393.095 157.862L372.138 136.905C370.931 135.698 368.974 135.698 367.766 136.905L363.414 141.258L368.934 146.778C370.217 146.344 371.688 146.635 372.711 147.658C373.739 148.687 374.027 150.171 373.583 151.459L378.904 156.779C380.191 156.335 381.676 156.622 382.704 157.652C384.141 159.088 384.141 161.416 382.704 162.854C381.267 164.291 378.939 164.291 377.501 162.854C376.42 161.772 376.153 160.184 376.701 158.853L371.738 153.891V166.949C372.088 167.123 372.419 167.354 372.711 167.645C374.147 169.082 374.147 171.409 372.711 172.848C371.274 174.284 368.945 174.284 367.509 172.848C366.073 171.409 366.073 169.081 367.509 167.645C367.865 167.29 368.276 167.022 368.714 166.842V153.662C368.276 153.483 367.866 153.217 367.509 152.86C366.421 151.772 366.16 150.174 366.717 148.838L361.276 143.396L346.905 157.765C345.698 158.973 345.698 160.93 346.905 162.138L367.863 183.095C369.07 184.302 371.027 184.302 372.235 183.095L393.095 162.235C394.302 161.028 394.302 159.069 393.095 157.862Z" fill="#F05133"/>
  <rect x="938" y="8" width="32.4531" height="26" rx="2" fill="#0093FF"/>
  <rect x="938.5" y="8.5" width="31.4531" height="25" rx="1.5" stroke="black" stroke-opacity="0.14902"/>
  <path d="M942.969 24V16H943.938V19.5625H948.203V16H949.172V24H948.203V20.4219H943.938V24H942.969ZM953.424 24.125C952.882 24.125 952.407 23.9961 951.998 23.7383C951.592 23.4805 951.274 23.1198 951.045 22.6562C950.818 22.1927 950.705 21.651 950.705 21.0312C950.705 20.4062 950.818 19.8607 951.045 19.3945C951.274 18.9284 951.592 18.5664 951.998 18.3086C952.407 18.0508 952.882 17.9219 953.424 17.9219C953.965 17.9219 954.439 18.0508 954.846 18.3086C955.255 18.5664 955.572 18.9284 955.799 19.3945C956.028 19.8607 956.143 20.4062 956.143 21.0312C956.143 21.651 956.028 22.1927 955.799 22.6562C955.572 23.1198 955.255 23.4805 954.846 23.7383C954.439 23.9961 953.965 24.125 953.424 24.125ZM953.424 23.2969C953.835 23.2969 954.174 23.1914 954.439 22.9805C954.705 22.7695 954.902 22.4922 955.029 22.1484C955.157 21.8047 955.221 21.4323 955.221 21.0312C955.221 20.6302 955.157 20.2565 955.029 19.9102C954.902 19.5638 954.705 19.2839 954.439 19.0703C954.174 18.8568 953.835 18.75 953.424 18.75C953.012 18.75 952.674 18.8568 952.408 19.0703C952.143 19.2839 951.946 19.5638 951.818 19.9102C951.691 20.2565 951.627 20.6302 951.627 21.0312C951.627 21.4323 951.691 21.8047 951.818 22.1484C951.946 22.4922 952.143 22.7695 952.408 22.9805C952.674 23.1914 953.012 23.2969 953.424 23.2969ZM961.8 19.3437L960.972 19.5781C960.92 19.4401 960.843 19.306 960.741 19.1758C960.642 19.043 960.507 18.9336 960.335 18.8477C960.163 18.7617 959.943 18.7187 959.675 18.7187C959.308 18.7187 959.002 18.8034 958.757 18.9727C958.515 19.1393 958.394 19.3516 958.394 19.6094C958.394 19.8385 958.477 20.0195 958.644 20.1523C958.81 20.2852 959.071 20.3958 959.425 20.4844L960.315 20.7031C960.852 20.8333 961.252 21.0326 961.515 21.3008C961.778 21.5664 961.909 21.9089 961.909 22.3281C961.909 22.6719 961.81 22.9792 961.612 23.25C961.417 23.5208 961.144 23.7344 960.792 23.8906C960.44 24.0469 960.032 24.125 959.565 24.125C958.953 24.125 958.447 23.9922 958.046 23.7266C957.645 23.4609 957.391 23.0729 957.284 22.5625L958.159 22.3437C958.243 22.6667 958.4 22.9089 958.632 23.0703C958.866 23.2318 959.172 23.3125 959.55 23.3125C959.979 23.3125 960.321 23.2214 960.573 23.0391C960.828 22.8542 960.956 22.6328 960.956 22.375C960.956 22.1667 960.883 21.9922 960.737 21.8516C960.591 21.7083 960.368 21.6016 960.065 21.5312L959.065 21.2969C958.516 21.1667 958.112 20.9648 957.854 20.6914C957.599 20.4154 957.472 20.0703 957.472 19.6562C957.472 19.3177 957.567 19.0182 957.757 18.7578C957.95 18.4974 958.211 18.293 958.542 18.1445C958.875 17.9961 959.253 17.9219 959.675 17.9219C960.269 17.9219 960.735 18.0521 961.073 18.3125C961.414 18.5729 961.657 18.9167 961.8 19.3437ZM965.906 18V18.7812H962.797V18H965.906ZM963.703 16.5625H964.625V22.2812C964.625 22.5417 964.663 22.737 964.738 22.8672C964.816 22.9948 964.915 23.0807 965.035 23.125C965.158 23.1667 965.286 23.1875 965.422 23.1875C965.523 23.1875 965.607 23.1823 965.672 23.1719C965.737 23.1589 965.789 23.1484 965.828 23.1406L966.016 23.9687C965.953 23.9922 965.866 24.0156 965.754 24.0391C965.642 24.0651 965.5 24.0781 965.328 24.0781C965.068 24.0781 964.813 24.0221 964.563 23.9102C964.315 23.7982 964.109 23.6276 963.945 23.3984C963.784 23.1693 963.703 22.8802 963.703 22.5312V16.5625Z" fill="white"/>
  <defs>
  <clipPath id="clip0_1_2">
  <rect width="53.1133" height="72.9868" fill="white" transform="translate(710.559 127.013)"/>
  </clipPath>
  </defs>
  </svg>
  