<svg width="302" height="493" viewBox="0 0 302 493" fill="none" xmlns="http://www.w3.org/2000/svg">
<path d="M295.752 200.13C295.752 282.246 230.796 348.877 150.626 348.877C70.4558 348.877 5.50125 282.246 5.50125 200.13C5.50125 118.013 70.457 51.3809 150.626 51.3809C230.798 51.3809 295.753 118.013 295.753 200.13" fill="#D33833"/>
<path d="M11.4696 236.964C11.4696 236.964 0.93653 81.8828 143.604 77.4233L133.656 60.7654L56.2946 86.8081L34.1752 112.264L14.8642 149.334L3.86172 192.504L7.13959 221.363" fill="#EF3D3A"/>
<path d="M51.2616 98.6568C25.8655 124.817 10.0648 160.832 10.0648 200.716C10.0648 240.601 25.8655 276.614 51.2616 302.774C76.7756 328.934 111.771 345.005 150.626 345.005C189.483 345.005 224.477 328.934 249.991 302.775C275.388 276.614 291.187 240.601 291.187 200.716C291.187 160.83 275.388 124.817 249.991 98.6568C224.478 72.6141 189.483 56.4267 150.626 56.4267C111.887 56.4267 76.7768 72.497 51.2616 98.6568V98.6568ZM44.825 308.992C17.7906 281.307 1.05331 242.947 1.05331 200.716C1.05331 158.485 17.7906 120.124 44.825 92.3223C71.8606 64.6374 109.313 47.3931 150.627 47.3931C191.941 47.3931 229.393 64.6374 256.428 92.3223C283.463 120.007 300.2 158.367 300.2 200.716C300.2 242.946 283.463 281.307 256.428 308.992C229.393 336.794 191.941 353.921 150.626 353.921C109.313 353.921 71.8606 336.794 44.825 308.992V308.992Z" fill="#231F20"/>
<path d="M211.72 200.95L189.6 204.234L159.756 207.637L140.445 208.106L121.602 207.52L107.206 203.063L94.4483 189.219L84.5003 160.947L82.2769 154.847L69.0522 150.39L61.3264 137.604L55.8263 119.302L61.9126 103.232L76.3086 98.1873L87.8949 103.701L93.395 115.902L100.066 114.845L102.29 112.03L100.066 99.2431L99.4813 83.1715L102.758 61.0007L102.641 48.3316L112.706 32.143L130.379 19.3558L161.277 6.10034L195.569 11.1438L225.413 32.7294L239.224 54.9002L248.118 70.9718L250.342 110.856L243.671 145.228L231.498 175.729L220.03 192.035" fill="#F0D6B7"/>
<path d="M192.994 296.792L113.994 300.076V313.332L120.665 359.904L117.387 363.775L62.1462 344.888L58.2844 338.202L52.7832 275.559L39.792 238.02L36.9836 229.104L81.2236 198.605L95.0345 193.091L107.206 208.105L117.739 217.491L129.912 221.362L135.412 223.005L142.083 251.863L147.116 257.963L159.872 253.505L150.978 270.748L198.963 293.507L192.994 296.791" fill="#335061"/>
<path d="M61.9126 103.466L76.3085 98.4226L87.8949 103.935L93.395 116.136L100.066 115.081L101.706 108.394L98.4279 95.6065L101.705 65.1067L98.8962 48.4487L108.844 36.8354L130.379 19.7081L124.292 11.3792L93.8632 26.3938L81.1068 36.3661L73.9672 51.8501L62.9659 66.8659L59.6892 84.5796L61.9126 103.466" fill="#6D6B6D"/>
<path d="M84.6182 51.3807C84.6182 51.3807 92.9267 30.852 126.049 20.8809C159.169 10.9098 127.688 13.7247 127.688 13.7247L91.7554 27.5677L77.9469 41.4096L71.8606 52.4365L84.6182 51.3807M67.9989 99.5954C67.9989 99.5954 56.4113 60.7654 100.651 55.2526L99.013 48.5658L68.5839 55.722L59.6892 84.5808L61.9126 103.466L67.9989 99.5954" fill="#DCD9D8"/>
<path d="M85.6716 151.095L92.9267 144.055C92.9267 144.055 96.2046 144.408 96.7896 148.278C97.3747 152.15 99.013 187.108 122.772 205.878C124.995 207.637 105.099 203.062 105.099 203.062L87.4255 175.377M187.376 140.536C187.376 140.536 188.663 123.761 193.228 125.052C197.792 126.342 197.792 130.916 197.792 130.916C197.792 130.916 186.791 137.955 187.376 140.536M233.255 79.0668C233.255 79.0668 224.125 80.9431 223.306 89.038C222.487 97.1317 233.254 90.6801 234.893 90.0937M166.427 79.6532C166.427 79.6532 154.254 81.2954 154.254 89.038C154.254 96.7794 168.065 96.193 171.927 92.9087M91.2884 115.667C91.2884 115.667 70.3402 102.88 68.1169 115.081C65.8935 127.28 60.9773 136.078 71.3935 148.865L64.254 146.636L57.5838 129.509L55.3593 112.851L68.1169 99.5955L82.5116 100.651L90.8213 107.338L91.2896 115.667M101.238 80.709C101.238 80.709 110.599 31.9079 158.117 22.5232C197.206 14.7806 217.805 24.1665 225.53 33.0807C225.53 33.0807 190.653 -8.446 157.531 4.22304C124.41 17.0103 100.066 40.2369 100.651 55.1356C101.588 80.7078 101.236 80.7078 101.236 80.7078M229.392 38.5947C229.392 38.5947 213.358 38.0083 212.772 52.4366C212.772 52.4366 212.772 54.6663 213.827 56.8948C213.827 56.8948 226.583 42.4654 234.308 50.208" fill="#F7E4CD"/>
<path d="M159.287 58.4198C159.287 58.4198 156.479 36.3661 137.753 49.1522C125.58 57.4811 126.75 69.0944 128.858 71.3241C131.082 73.5527 130.497 78.0098 132.135 74.9608C133.773 71.9105 133.305 61.9394 139.391 59.1233C145.36 56.3083 155.426 53.2593 159.287 58.4198" fill="#F7E4CD"/>
<path d="M107.324 208.106L55.3569 231.332C55.3569 231.332 76.8924 317.202 65.8899 343.831L58.1665 341.016L57.5814 308.287L43.1855 246.349L37.0992 229.22L91.2872 192.62L107.321 208.105M112.589 255.615L119.962 264.649V297.846H111.186C111.186 297.846 110.132 274.62 110.132 271.805C110.132 268.989 111.186 259.018 111.186 259.018M112.824 302.891L87.8949 303.947L95.0345 308.992L112.706 311.808" fill="#49728B"/>
<path d="M197.91 297.378L218.39 296.792L223.423 347.703L202.474 350.52L197.909 297.377" fill="#335061"/>
<path d="M203.41 297.378L234.308 295.735C234.308 295.735 247.065 263.593 247.065 261.951C247.065 260.307 258.067 215.379 258.067 215.379L233.138 189.337L228.105 184.88L214.88 198.135V249.634L203.41 297.378" fill="#335061"/>
<path d="M217.22 293.506L197.909 297.378L200.719 312.864C207.857 316.148 220.03 307.349 220.03 307.349M217.805 196.493L256.545 225.351L257.598 212.094L228.339 184.997L217.806 196.493" fill="#49728B"/>
<path d="M132.018 406.476L120.549 359.904L114.814 325.532L113.877 300.076L165.724 297.261H197.909L194.984 355.446L200.016 400.375L199.431 408.704L157.414 411.99L132.018 406.476" fill="white"/>
<path d="M190.77 296.792C190.77 296.792 187.961 354.391 196.271 395.449C196.271 395.449 179.652 406.006 155.424 408.704L201.889 407.062L207.389 403.778L200.719 312.98L198.963 293.506" fill="#DCD9D8"/>
<path d="M224.243 343.363L245.777 337.263L286.624 335.034L292.71 316.148L281.708 283.418L268.951 281.776L251.279 287.29L234.425 295.619L225.413 293.976L218.39 296.792" fill="white"/>
<path d="M223.892 332.219C223.892 332.219 238.287 325.533 240.511 326.119L234.425 295.619L241.564 292.803C241.564 292.803 246.597 321.662 246.597 324.946C246.597 324.946 277.494 326.588 280.303 326.588C280.303 326.588 286.974 313.801 285.336 300.546L291.422 318.259L292.007 328.23L283.112 341.486L273.164 343.716L256.545 343.129L251.044 335.973L231.733 338.788L225.647 341.018" fill="#DCD9D8"/>
<path d="M202.122 292.92L189.95 261.951L177.193 243.65C177.193 243.65 180.003 235.908 183.865 235.908H196.622L208.795 240.365L207.74 260.895L202.122 292.92" fill="white"/>
<path d="M204.581 282.363C204.581 282.363 189.131 252.449 189.131 247.991C189.131 247.991 191.941 241.304 195.803 242.947C199.666 244.59 207.975 249.048 207.975 249.048V238.489L189.131 234.618L176.375 236.261L197.909 287.407L202.356 287.994" fill="#DCD9D8"/>
<path d="M136.933 209.279L121.602 207.636L107.206 203.179V208.223L114.228 215.966L136.348 225.937" fill="white"/>
<path d="M112.239 210.921C112.239 210.921 129.325 218.078 134.944 216.435L135.528 223.122L120.08 219.837L110.717 213.15L112.239 210.921" fill="#DCD9D8"/>
<path d="M224.243 237.786C214.88 237.55 206.336 236.378 198.963 234.266C199.431 231.216 198.494 228.284 199.314 226.054C201.421 224.529 204.814 224.529 207.974 224.178C205.282 222.887 201.421 222.3 198.377 223.122C198.26 221.011 197.324 219.72 196.738 218.077C202.006 216.2 214.412 203.883 221.433 207.871C224.828 209.865 226.233 220.892 226.466 226.406C226.7 230.863 225.998 235.322 224.243 237.786" fill="#D33833"/>
<path d="M224.243 237.786C214.88 237.55 206.336 236.378 198.963 234.266C199.431 231.216 198.494 228.284 199.314 226.054C201.421 224.529 204.814 224.529 207.974 224.178C205.282 222.887 201.421 222.3 198.377 223.122C198.26 221.011 197.324 219.72 196.738 218.077C202.006 216.2 214.412 203.883 221.433 207.871C224.828 209.865 226.233 220.892 226.466 226.406C226.7 230.863 225.998 235.322 224.243 237.786V237.786Z" fill="black" stroke="#D33833" stroke-width="11.9904"/>
<path d="M179.418 222.417C179.418 223.122 179.418 223.824 179.3 224.529C176.375 226.406 171.692 226.406 168.416 228.048C173.098 228.283 176.843 229.455 180.12 230.98C180.002 232.741 180.002 234.618 179.886 236.377C174.502 240.014 169.587 245.528 163.267 249.047C160.224 250.69 149.808 254.913 146.648 254.091C144.891 253.622 144.658 251.393 143.956 249.282C142.434 244.825 138.923 237.55 138.571 230.746C138.22 222.183 137.285 207.754 146.53 209.513C154.02 210.921 162.681 214.324 168.416 217.491C172.044 219.602 174.034 221.948 179.418 222.417" fill="#D33833"/>
<path d="M179.418 222.417C179.418 223.122 179.418 223.824 179.3 224.529C176.375 226.406 171.692 226.406 168.416 228.048C173.098 228.283 176.843 229.455 180.12 230.98C180.002 232.741 180.002 234.618 179.886 236.377C174.502 240.014 169.587 245.528 163.267 249.047C160.224 250.69 149.808 254.913 146.648 254.091C144.891 253.622 144.658 251.393 143.956 249.282C142.434 244.825 138.923 237.55 138.571 230.746C138.22 222.183 137.285 207.754 146.53 209.513C154.02 210.921 162.681 214.324 168.416 217.491C172.044 219.602 174.034 221.948 179.418 222.417V222.417Z" fill="black" stroke="#D33833" stroke-width="11.9904"/>
<path d="M184.685 232.624C183.865 227.93 182.928 226.642 183.28 222.535C195.803 214.206 198.026 236.847 184.683 232.624" fill="#D33833"/>
<path d="M184.685 232.624C183.865 227.93 182.928 226.642 183.28 222.535C195.803 214.206 198.026 236.847 184.683 232.624H184.685Z" fill="black" stroke="#D33833" stroke-width="11.9904"/>
<path d="M202.707 236.377C202.707 236.377 198.846 230.863 201.654 229.221C204.464 227.579 207.155 229.221 208.794 226.406C210.433 223.59 208.794 221.949 209.379 218.664C209.964 215.379 212.655 214.793 215.465 214.207C218.274 213.619 225.998 212.563 227.051 215.262L223.775 205.29L217.103 203.062L196.154 215.262L195.101 221.363V233.563M144.658 254.678C143.956 245.996 143.254 237.433 142.551 228.752C141.381 215.849 145.594 218.076 156.829 218.076C158.585 218.076 167.362 220.072 167.948 221.363C170.992 227.579 162.915 226.171 171.459 230.863C178.598 234.735 191.356 228.518 188.429 219.72C186.79 217.725 180.003 219.133 177.545 217.842L164.554 211.156C159.054 208.34 146.413 204.117 140.561 208.106C125.697 218.194 141.498 243.534 146.764 254.091" fill="#EF3D3A"/>
<path d="M159.287 58.4198C144.19 54.9002 136.7 64.7543 132.135 74.9595C128.038 74.022 129.677 68.3909 130.731 65.576C133.422 58.1857 144.307 48.2134 153.201 49.6215C156.946 50.0908 162.096 53.6104 159.287 58.4198M232.669 75.5459H233.371C236.766 82.5851 239.691 90.0936 244.022 96.4281C241.097 103.232 222.253 109.097 222.487 97.1315C226.583 95.3723 233.606 96.7792 237.234 94.4336C235.128 88.6855 232.201 83.7579 232.669 75.5471M166.895 75.7824C170.172 81.7646 171.224 87.9821 175.789 92.4404C177.896 94.4336 181.875 96.8975 179.886 102.527C179.418 103.818 176.023 106.752 174.034 107.338C166.895 109.449 150.158 107.807 155.776 98.7737C161.744 99.009 169.704 102.646 174.151 98.3043C170.757 92.9085 164.671 82.1157 166.895 75.7824ZM229.978 136.077C219.21 142.999 207.154 150.625 189.366 148.865C185.621 145.58 184.099 138.189 187.844 133.381C189.716 136.665 188.546 142.765 193.931 143.703C203.996 145.463 215.699 137.485 222.955 134.789C227.402 127.163 222.605 124.465 218.508 119.538C210.199 109.566 199.197 97.1315 199.548 82.234C202.942 79.7701 203.176 85.9876 203.644 87.0434C207.974 97.1315 218.86 110.153 226.7 118.834C228.69 120.946 231.85 123.057 232.201 124.465C233.254 128.453 229.51 133.379 229.978 136.079M87.4255 128.805C84.032 126.811 83.2134 118.365 79.2338 118.13C73.499 117.778 74.5523 129.158 74.5523 135.843C70.6906 132.325 69.9876 121.297 72.7972 115.667C69.5205 114.024 68.1145 117.426 66.2426 118.599C68.7007 101.59 91.1716 110.739 87.4267 128.805M236.766 143.234C231.733 152.854 224.593 163.411 209.847 163.763C209.496 160.713 209.262 155.904 209.847 154.026C221.2 152.854 228.222 147.105 236.766 143.234ZM166.075 149.451C175.438 154.379 192.759 154.965 205.634 154.613C206.336 157.429 206.336 160.947 206.336 164.35C189.834 165.053 170.405 160.947 166.075 149.451ZM164.32 158.602C170.874 175.024 193.228 173.148 212.07 172.679C211.252 174.79 209.496 177.371 207.155 178.192C201.069 180.655 184.45 182.533 176.023 178.075C170.757 175.26 167.245 168.807 164.32 165.053C163.032 163.294 156.011 158.719 164.32 158.602" fill="#231F20"/>
<path d="M229.158 249.047C221.55 262.185 214.178 275.676 205.167 287.172C208.911 276.028 210.549 257.259 211.135 242.947C219.093 239.193 225.881 243.768 229.158 249.048" fill="#81B0C4"/>
<path d="M270.238 296.206C261.695 297.965 255.725 306.294 247.299 305.707C251.98 299.255 259.939 296.44 270.238 296.206M273.983 309.578C266.961 310.283 258.769 311.455 251.747 310.869C255.14 305.707 268.015 307.584 273.983 309.578ZM276.441 321.193C268.6 321.31 258.885 321.193 251.395 320.605C255.842 315.796 271.408 318.846 276.441 321.193Z" fill="#231F20"/>
<path d="M214.412 352.865C215.582 362.719 219.445 372.691 218.977 383.483C214.645 384.89 212.188 386.181 206.336 386.181C205.985 377.03 204.697 362.954 205.049 354.156C207.857 354.39 212.07 352.162 214.412 352.865" fill="#DCD9D8"/>
<path d="M201.772 207.403C197.792 209.982 194.516 213.15 190.653 215.966C182.226 216.435 177.662 215.379 171.577 210.57C171.693 210.218 172.278 210.335 172.278 209.865C181.29 213.854 192.759 208.223 201.772 207.402" fill="#F0D6B7"/>
<path d="M154.723 268.755C157.181 258.079 166.895 252.449 175.672 246.584C184.683 258.08 190.185 272.861 196.271 287.172C181.875 282.832 167.245 275.911 154.723 268.755" fill="#81B0C4"/>
<path d="M205.049 354.273C204.697 363.071 205.867 377.031 206.336 386.298C212.188 386.298 214.645 385.008 218.976 383.6C219.445 372.807 215.582 362.836 214.412 352.982C212.07 352.162 207.857 354.39 205.049 354.273V354.273ZM114.696 304.534C118.559 339.844 124.059 369.405 134.24 400.727C156.829 407.648 183.982 408.235 203.996 402.017C200.367 384.422 201.889 362.954 199.782 344.067C198.143 329.873 198.963 315.678 196.739 301.249C172.512 296.205 138.338 300.076 114.696 304.534ZM202.474 301.484C202.239 316.617 203.176 331.632 204.347 346.765C210.197 345.944 214.06 345.358 219.445 344.067C217.688 329.52 217.923 312.98 214.295 300.076C210.199 300.194 206.569 300.076 202.474 301.483V301.484ZM231.85 299.02C229.041 298.434 225.881 299.02 223.306 299.02C224.593 311.338 227.52 324.946 228.573 337.967C232.669 338.084 234.893 336.09 238.287 335.504C238.521 324.124 237.351 308.405 231.85 299.02ZM276.441 339.844C285.102 337.732 290.486 327.175 288.027 316.265C286.389 308.992 283.581 295.15 280.42 290.456C278.196 287.055 271.993 282.479 266.961 285.647C258.885 290.808 244.724 292.334 238.873 298.551C241.798 308.405 242.734 321.779 243.904 334.213C253.97 334.8 266.258 331.399 274.686 335.034C268.833 336.912 261.343 336.912 256.31 339.727C260.524 341.721 270.121 341.37 276.441 339.845V339.844ZM196.154 287.172C190.068 272.861 184.568 258.08 175.555 246.584C166.777 252.448 157.181 258.08 154.606 268.755C167.245 275.911 181.876 282.832 196.154 287.172ZM211.134 242.947C210.549 257.258 208.911 276.028 205.166 287.172C214.177 275.559 221.551 262.185 229.158 249.047C225.881 243.768 219.093 239.192 211.135 242.946L211.134 242.947ZM194.164 236.965C190.77 236.612 187.844 240.953 183.396 239.075C182.343 240.248 181.407 241.422 180.353 242.595C190.185 254.559 194.749 271.454 202.357 285.413C206.454 271.923 205.985 257.258 206.922 242.595C201.304 242.829 198.144 237.316 194.164 236.964V236.965ZM183.28 222.534C182.928 226.64 183.865 227.931 184.683 232.624C198.026 236.847 195.803 214.205 183.28 222.534ZM168.415 217.608C162.681 214.44 154.021 211.038 146.53 209.631C137.285 207.871 138.22 222.3 138.571 230.865C138.923 237.667 142.434 244.823 143.956 249.399C144.658 251.51 144.891 253.739 146.648 254.208C149.808 254.913 160.341 250.807 163.267 249.164C169.587 245.762 174.502 240.249 179.886 236.495C180.003 234.735 180.003 232.858 180.12 231.099C176.843 229.455 173.215 228.401 168.415 228.167C171.577 226.523 176.375 226.523 179.3 224.647C179.3 223.943 179.3 223.239 179.418 222.534C174.034 221.948 172.044 219.602 168.415 217.608ZM113.409 207.637C108.611 212.563 126.867 219.133 132.603 219.485C132.603 216.435 134.358 213.503 134.007 211.273C127.102 210.101 118.09 210.921 113.409 207.637ZM172.396 209.865C172.396 210.335 171.81 210.218 171.693 210.57C177.896 215.379 182.46 216.434 190.77 215.966C194.516 213.268 197.909 209.984 201.889 207.402C192.759 208.223 181.29 213.854 172.395 209.865H172.396ZM226.466 226.289C226.233 220.892 224.827 209.748 221.433 207.754C214.412 203.648 202.006 216.083 196.739 217.96C197.324 219.602 198.261 220.892 198.377 223.004C201.539 222.183 205.282 222.77 207.974 224.06C204.814 224.412 201.421 224.412 199.314 225.937C198.611 228.166 199.548 231.099 198.963 234.149C206.336 236.26 214.88 237.316 224.243 237.667C225.998 235.322 226.7 230.863 226.466 226.289V226.289ZM105.333 212.329C103.811 211.273 93.6297 198.017 92.2249 198.603C73.8505 205.878 56.6461 218.43 41.3136 230.394C55.9431 261.951 61.9126 300.546 62.9659 337.732C79.7032 345.592 94.4483 356.971 117.271 358.144C114.579 339.493 112.239 322.716 110.717 305.12C104.983 302.657 96.7896 305.238 91.4063 304.416C91.4063 297.965 99.598 301.601 100.3 297.261C100.769 293.976 95.7351 293.742 97.3747 288.58C101.588 290.105 103.811 293.506 108.259 294.797C112.356 285.882 108.259 270.046 108.844 262.537C108.962 261.13 109.546 254.795 112.706 255.85C115.516 256.789 112.589 272.861 112.824 279.899C113.057 286.468 112.004 292.686 114.696 296.792C136.7 293.742 159.054 291.864 182.928 291.161C177.662 288.932 171.459 286.821 164.671 282.949C160.926 280.837 149.339 276.497 148.286 272.978C146.53 267.347 152.733 264.415 153.786 259.604C142.668 265.704 140.561 253.74 137.87 245.41C135.528 237.784 134.125 232.037 133.54 227.696C123.825 222.77 113.526 218.194 105.333 212.329V212.329ZM216.752 200.128C232.084 192.739 234.893 227.931 228.807 239.311C229.743 242.712 232.903 244.003 234.191 247.052C225.647 262.42 216.168 276.731 207.389 291.864C213.827 287.758 223.19 291.161 230.796 288.111C233.606 287.055 235.596 280.603 237.702 275.442C243.553 261.364 249.639 243.532 252.332 230.161C252.917 227.111 254.672 220.423 254.204 217.725C253.502 212.799 246.947 209.162 243.553 206.229C237.351 200.598 233.488 195.79 226.933 190.51C224.477 194.381 218.859 196.961 216.752 200.13V200.128ZM70.339 63.9327C63.0827 72.0276 64.6043 87.0434 65.424 97.835C78.6487 89.5072 96.0878 98.5396 95.9699 112.617C102.29 112.499 98.3112 104.757 97.1411 99.7124C93.395 83.4068 103.461 65.8101 97.6082 50.9125C86.2566 51.8501 77.0104 56.4254 70.339 63.9339V63.9327ZM122.537 17.1273C106.036 21.8196 84.8518 33.9023 78.0637 48.7998C83.3302 47.9794 86.9584 45.3985 92.1081 45.0462C94.098 44.9291 96.6728 45.8679 98.8962 45.2815C103.343 44.1087 107.206 34.0193 110.599 30.2656C113.877 26.629 117.856 24.9869 120.549 21.7026C122.304 20.8809 124.877 20.8809 124.995 18.3001C124.293 17.4784 123.474 16.8932 122.537 17.1273V17.1273ZM208.559 21.5844C191.356 11.8485 162.33 4.57526 144.073 13.7247C129.325 21.115 109.43 33.3147 102.641 48.684C108.961 63.5804 100.769 77.1881 100.183 92.321C99.9495 100.416 103.929 107.338 104.28 116.136C102.056 119.773 95.5016 120.124 90.9381 119.89C89.4165 112.146 86.7248 103.466 78.7655 102.527C67.5306 101.238 59.221 110.622 58.7527 120.359C58.1677 131.856 67.5306 150.859 80.8721 149.569C86.0218 149.1 87.3099 143.938 92.9267 143.938C95.9698 150.039 88.2464 151.915 87.4266 156.255C87.1919 157.429 88.0117 161.769 88.5967 163.88C91.0548 173.852 96.4381 186.873 101.705 194.498C108.493 204.234 121.719 205.642 135.997 206.581C138.571 201.067 147.934 201.536 154.02 202.945C146.648 200.013 139.86 192.973 134.241 186.756C127.804 179.6 121.25 171.975 120.899 162.591C133.188 179.6 143.253 194.498 165.49 202.007C182.343 207.637 202.006 199.425 214.997 190.275C220.38 186.521 223.54 180.421 227.403 175.024C241.681 154.379 248.352 125.051 246.947 96.5452C246.362 84.8149 246.362 73.0833 242.383 65.2237C238.287 57.0118 224.36 49.5045 216.167 57.0118C214.645 48.9181 222.955 43.9904 232.668 46.9236C225.765 37.8912 218.508 27.2154 208.559 21.5844V21.5844ZM240.628 286.821C254.087 280.134 279.133 268.872 287.442 286.821C290.604 293.506 294.231 304.651 295.752 311.572C297.975 321.192 293.294 341.604 283.346 344.77C274.568 347.586 264.387 347.469 253.853 345.358C252.565 344.302 251.279 342.542 250.225 340.664C242.735 340.43 235.596 341.018 229.743 344.185C230.328 349.815 226.583 350.636 222.955 351.81C220.38 362.25 228.222 375.857 226.35 385.242C225.062 392.046 216.752 393.102 210.667 394.275C210.432 398.029 210.9 401.197 211.369 404.364C209.965 409.526 203.761 412.458 197.792 413.162C178.248 415.508 148.637 416.564 129.912 409.76C124.644 396.857 120.549 381.254 116.217 366.591C97.9597 368.584 83.0967 358.73 69.169 352.162C64.3707 349.933 57.6994 348.642 55.8263 344.771C54.0712 341.018 54.773 333.861 54.3048 327.175C53.2515 309.93 52.1981 293.272 47.7514 275.676C45.7616 267.699 42.1334 260.778 39.6753 253.154C37.3351 246.115 33.3554 237.316 32.3021 230.277C30.7806 219.838 40.6118 219.25 46.8149 214.675C56.5293 207.637 64.136 203.765 74.669 197.43C77.8301 195.554 87.1919 190.862 88.2452 188.632C90.353 184.293 84.6182 178.193 83.0967 174.79C80.6385 169.395 79.3505 164.819 79.0002 159.539C70.2223 158.132 63.4342 152.854 59.4557 146.988C52.7832 137.134 48.1017 118.951 53.9544 105.226C54.4227 104.171 56.6461 101.941 56.9976 100.299C57.6994 97.0145 55.7096 92.6733 55.5928 89.1549C55.0077 71.2059 58.6359 55.7208 70.6905 50.325C75.6056 30.735 93.1603 24.2834 109.664 14.5464C115.867 10.9098 122.655 8.56419 129.677 5.98215C154.839 -3.28436 193.579 -1.52517 214.529 14.3111C223.423 20.998 237.584 35.1921 242.617 45.5155C256.076 72.614 255.024 118.013 245.661 151.094C244.373 155.551 242.617 162.003 240.043 167.4C238.287 171.154 232.786 178.544 233.371 181.828C234.074 185.231 246.012 194.263 248.587 196.727C253.152 201.184 261.928 207.05 262.63 212.682C263.45 218.664 260.057 226.876 258.301 232.624C252.682 251.863 247.065 269.576 240.628 286.821V286.821Z" fill="#231F20"/>
<path d="M151.096 153.557C151.797 152.618 155.776 151.094 161.394 153.792C161.394 153.792 154.723 154.848 155.308 165.993L152.499 165.406C152.617 165.524 149.691 155.434 151.096 153.557Z" fill="#F7E4CD"/>
<path d="M199.548 248.812C199.548 250.455 198.144 251.863 196.504 251.863C194.866 251.863 193.461 250.455 193.461 248.812C193.461 247.169 194.866 245.762 196.504 245.762C198.261 245.762 199.548 247.169 199.548 248.812ZM202.591 263.007C202.591 264.65 201.187 266.057 199.548 266.057C197.909 266.057 196.504 264.65 196.504 263.007C196.504 261.363 197.909 259.956 199.548 259.956C201.304 259.956 202.591 261.247 202.591 263.007Z" fill="#1D1919"/>
<path d="M43.1867 442.489C42.2501 442.608 41.4316 442.724 40.7286 442.842C40.0268 442.959 39.3249 443.076 38.3884 443.311C37.3351 443.545 36.7489 444.015 36.5153 444.718C36.2818 445.423 36.0471 446.125 36.0471 447.065V475.687C36.0468 478.204 35.4871 480.689 34.4087 482.962C33.3554 485.19 31.9506 486.949 30.0787 488.474C28.2057 489.881 26.0991 491.055 23.7589 491.759C21.4176 492.463 18.9595 492.933 16.3846 492.933C11.8199 492.933 8.19289 491.877 5.38329 489.647C2.57487 487.419 1.17007 484.485 1.17007 480.615C1.17007 478.386 1.75511 476.509 3.04314 474.984C4.32999 473.459 6.08628 472.755 8.30966 472.755C10.4163 472.755 12.0546 473.342 13.3426 474.633C14.6295 475.922 15.2145 477.448 15.2145 479.208C15.2145 480.733 14.6295 482.258 13.5762 483.547C12.5229 484.838 11.236 486.129 9.83123 487.185V487.654C10.0648 488.122 10.533 488.591 11.2349 488.944C11.9378 489.296 12.7564 489.413 13.4594 489.413C16.3846 489.413 18.7259 488.357 20.3643 486.245C22.0038 484.134 22.8224 480.967 22.8224 476.744V447.416C22.8224 446.595 22.7044 445.774 22.4709 445.187C22.2373 444.601 21.5344 444.132 20.4811 443.662C19.7792 443.311 18.8427 443.076 17.7894 442.842C16.7361 442.606 15.9175 442.489 15.2145 442.372V439.556H42.8352V442.489H43.1867V442.489ZM86.4901 482.844C85.6715 484.251 84.6182 485.541 83.447 486.832C82.2769 488.122 80.8721 489.061 79.3505 489.999C77.7122 490.938 76.0738 491.643 74.4355 492.111C72.796 492.58 70.8073 492.814 68.7007 492.814C65.0725 492.814 62.0294 492.346 59.3377 491.289C56.7629 490.234 54.5395 488.944 52.9011 487.185C51.1448 485.424 49.9748 483.43 49.0382 481.084C48.185 478.633 47.75 476.055 47.7514 473.459C47.7514 470.996 48.2196 468.532 49.155 466.304C50.0915 464.074 51.3796 461.962 53.0179 460.203C54.6562 458.444 56.7629 457.035 59.3377 455.98C62.0121 454.885 64.8751 454.326 67.7642 454.337C71.1588 454.337 73.9684 454.807 76.1906 455.628C78.4152 456.449 80.1703 457.622 81.5751 459.03C82.9787 460.437 83.9152 462.081 84.6182 463.957C85.2033 465.834 85.5536 467.829 85.5536 469.939V472.286H60.8593C60.8593 477.33 61.7958 481.084 63.7845 483.665C65.6576 486.246 68.8175 487.536 72.9139 487.536C75.2553 487.536 77.2439 486.949 79.117 485.659C80.9869 484.391 82.5797 482.754 83.7985 480.849L86.4901 482.843V482.844ZM72.5636 468.883C72.5636 467.475 72.4468 465.95 72.3301 464.425C72.2121 462.9 71.9786 461.61 71.5103 460.671C71.042 459.499 70.5749 458.677 69.7552 458.09C69.0534 457.504 68.1157 457.269 67.0635 457.269C65.1905 457.269 63.6689 458.207 62.6168 460.085C61.4455 461.961 60.8593 465.011 60.7437 469.117L72.5636 468.883V468.883ZM138.103 491.525H116.101V488.827C116.569 488.827 117.154 488.708 117.74 488.591C118.442 488.474 118.909 488.357 119.262 488.24C119.729 488.005 120.08 487.536 120.314 487.066C120.549 486.597 120.665 485.776 120.665 484.838V467.712C120.665 465.249 120.197 463.372 119.262 462.082C118.324 460.791 117.037 460.204 115.164 460.204C114.228 460.204 113.292 460.323 112.472 460.674C111.653 460.908 110.833 461.377 110.014 461.963C109.313 462.433 108.727 462.902 108.259 463.489C107.791 463.958 107.439 464.427 107.206 464.895V484.487C107.206 485.308 107.324 486.012 107.557 486.598C107.791 487.186 108.259 487.655 108.727 487.889C109.079 488.123 109.546 488.359 110.131 488.476L111.887 488.828V491.526H89.65V488.828C90.2351 488.828 90.8201 488.71 91.5231 488.593C92.1081 488.476 92.6932 488.359 93.1614 488.241C93.9812 488.006 94.4483 487.537 94.801 486.95C95.0345 486.364 95.268 485.661 95.268 484.722V463.372C95.268 462.668 95.0345 461.846 94.683 461.143C94.3315 460.438 93.7465 459.852 93.1614 459.383C92.6932 459.149 92.2249 458.796 91.5219 458.679C90.8058 458.439 90.0548 458.32 89.2997 458.327V455.629L106.738 454.69L107.323 455.277V460.557H107.441C108.294 459.853 109.114 459.108 109.898 458.327C110.76 457.579 111.658 456.874 112.589 456.215C113.526 455.629 114.696 455.16 116.101 454.69C117.504 454.221 119.144 454.104 120.782 454.104C124.762 454.104 127.687 455.277 129.677 457.506C131.667 459.735 132.602 462.785 132.602 466.539V484.487C132.602 485.425 132.72 486.13 132.953 486.598C133.188 487.186 133.773 487.537 134.475 487.889C134.827 488.007 135.295 488.241 135.88 488.359C136.465 488.477 137.05 488.593 137.87 488.711V491.525H138.103V491.525ZM188.429 491.525H171.225C169.411 488.275 167.458 485.105 165.374 482.023C163.617 479.442 161.979 476.978 160.457 474.867L158.351 476.744V484.721C158.351 485.541 158.469 486.363 158.702 486.832C158.936 487.419 159.404 487.771 160.224 488.122C160.692 488.357 161.16 488.474 161.745 488.591C162.33 488.71 162.915 488.827 163.5 488.827V491.525H140.795V488.827C141.381 488.827 141.966 488.708 142.668 488.591C143.253 488.474 143.838 488.357 144.307 488.24C145.126 488.005 145.593 487.536 145.945 486.949C146.179 486.363 146.413 485.659 146.413 484.721V443.897C146.413 443.076 146.179 442.254 145.828 441.434C145.476 440.612 145.009 439.909 144.306 439.439C143.838 439.205 143.136 438.853 142.2 438.736C141.263 438.501 140.445 438.383 139.625 438.383V435.686L157.766 434.747L158.351 435.333V473.106C160.107 471.464 162.214 469.588 164.437 467.476C166.66 465.365 168.533 463.604 169.82 462.198C170.64 461.376 171.108 460.79 171.108 460.32C171.225 459.851 171.225 459.617 171.225 459.5C171.225 459.03 170.874 458.678 170.055 458.444C169.235 458.209 168.182 457.856 166.544 457.622V455.041H185.035V457.622C182.578 458.326 180.706 458.912 179.418 459.5C178.13 460.086 176.725 460.907 175.205 461.845C174.21 462.521 173.234 463.225 172.278 463.957C171.342 464.66 170.289 465.6 169.002 466.655C171.342 470.174 173.566 473.342 175.555 476.275C177.545 479.207 179.652 482.375 181.875 485.659C182.578 486.832 183.514 487.536 184.685 488.005C185.855 488.357 186.908 488.591 188.078 488.71V491.523H188.429V491.525ZM211.837 491.525H188.781V488.827C189.366 488.827 190.068 488.708 190.653 488.591C191.238 488.474 191.823 488.357 192.174 488.24C192.994 488.005 193.462 487.536 193.814 486.949C194.164 486.363 194.281 485.659 194.281 484.721V463.37C194.281 462.549 194.047 461.727 193.696 461.142C193.389 460.505 192.901 459.974 192.292 459.617C191.823 459.381 191.238 459.03 190.303 458.795C189.366 458.561 188.546 458.326 187.844 458.326V455.628L205.751 454.689L206.336 455.276V484.37C206.336 485.191 206.57 485.895 206.921 486.598C207.272 487.186 207.857 487.655 208.442 487.889C208.911 488.123 209.496 488.359 210.082 488.476C210.667 488.594 211.252 488.711 211.954 488.828V491.526H211.836L211.837 491.525ZM206.57 441.669C206.57 443.545 205.867 445.07 204.464 446.36C203.059 447.651 201.303 448.355 199.431 448.355C197.441 448.355 195.803 447.651 194.281 446.36C192.877 445.07 192.174 443.428 192.174 441.668C192.174 439.792 192.876 438.266 194.281 436.858C195.685 435.569 197.442 434.864 199.431 434.864C201.421 434.864 203.059 435.569 204.464 436.858C205.867 438.149 206.57 439.79 206.57 441.668V441.669ZM263.45 491.525H241.447V488.827C241.916 488.827 242.501 488.708 243.086 488.591C243.788 488.474 244.256 488.357 244.607 488.24C245.076 488.005 245.426 487.536 245.661 487.066C245.894 486.597 246.012 485.776 246.012 484.838V467.712C246.012 465.249 245.544 463.372 244.607 462.082C243.671 460.791 242.384 460.204 240.511 460.204C239.574 460.204 238.638 460.323 237.819 460.674C236.999 461.025 236.18 461.377 235.361 461.963C234.659 462.433 234.074 462.902 233.606 463.489C233.138 463.958 232.786 464.427 232.553 464.895V484.487C232.553 485.308 232.669 486.012 232.903 486.598C233.138 487.186 233.606 487.655 234.074 487.889C234.425 488.123 234.893 488.359 235.478 488.476L237.234 488.828V491.526H214.997V488.828C215.582 488.828 216.167 488.71 216.87 488.593C217.455 488.476 218.04 488.359 218.508 488.241C219.327 488.006 219.795 487.537 220.147 486.95C220.38 486.364 220.615 485.661 220.615 484.722V463.372C220.615 462.668 220.38 461.846 220.03 461.143C219.678 460.438 219.093 459.852 218.508 459.383C218.04 459.149 217.572 458.796 216.869 458.679C216.152 458.439 215.401 458.32 214.645 458.327V455.629L232.084 454.69L232.669 455.277V460.557H232.787C233.641 459.853 234.461 459.108 235.244 458.327C236.106 457.579 237.005 456.874 237.936 456.215C238.873 455.629 240.043 455.16 241.447 454.69C242.851 454.221 244.491 454.104 246.129 454.104C250.107 454.104 253.034 455.277 255.022 457.506C257.013 459.735 257.949 462.785 257.949 466.539V484.487C257.949 485.425 258.067 486.13 258.3 486.598C258.535 487.186 259.12 487.537 259.822 487.889C260.173 488.007 260.642 488.241 261.225 488.359C261.812 488.477 262.397 488.593 263.216 488.711V491.525H263.45V491.525ZM283.696 492.814C281.356 492.814 279.016 492.463 276.793 491.759C274.568 491.055 272.813 490.352 271.526 489.53L270.473 491.994H267.663L267.195 478.386H269.887C270.238 479.442 270.823 480.732 271.76 482.14C272.579 483.547 273.633 484.721 274.685 485.894C275.893 486.99 277.229 487.936 278.665 488.71C280.186 489.413 281.708 489.882 283.347 489.882C285.571 489.882 287.209 489.413 288.262 488.591C289.316 487.771 289.901 486.363 289.901 484.604C289.901 483.665 289.666 482.843 289.198 482.14C288.731 481.553 288.028 480.967 287.209 480.497C286.272 480.028 285.219 479.559 284.048 479.208C282.878 478.856 281.474 478.503 279.836 477.917C278.196 477.448 276.793 476.978 275.621 476.392C274.451 475.922 273.164 475.101 271.993 474.045C270.94 473.107 270.005 471.933 269.42 470.644C268.717 469.353 268.483 467.712 268.483 465.834C268.483 462.432 269.887 459.616 272.813 457.505C275.738 455.394 279.484 454.337 284.166 454.337C286.389 454.337 288.379 454.573 290.252 455.041C292.124 455.511 293.646 455.98 294.934 456.567L295.752 454.455H298.561L299.147 466.89H296.572C295.752 464.309 294.231 462.196 292.241 460.32C290.134 458.444 287.911 457.505 285.571 457.505C283.698 457.505 282.176 457.856 281.123 458.678C280.069 459.5 279.483 460.555 279.483 461.962C279.483 463.84 280.303 465.131 281.824 465.951C283.346 466.773 285.571 467.595 288.379 468.297C292.709 469.471 295.869 470.996 297.976 472.872C299.965 474.867 301.019 477.329 301.019 480.262C301.019 484.251 299.497 487.419 296.337 489.531C292.826 491.642 288.729 492.814 283.698 492.814H283.696Z" fill="white"/>
</svg>
