<svg width="1154" height="546" viewBox="0 0 1154 546" fill="none" xmlns="http://www.w3.org/2000/svg">
  <path d="M491 201C491 194.373 496.373 189 503 189H1103C1109.63 189 1115 194.373 1115 201V495C1115 501.627 1109.63 507 1103 507H503C496.373 507 491 501.627 491 495V201Z" fill="#0093FF" fill-opacity="0.4"/>
  <path d="M503 190H1103V188H503V190ZM1114 201V495H1116V201H1114ZM1103 506H503V508H1103V506ZM492 495V201H490V495H492ZM503 506C496.925 506 492 501.075 492 495H490C490 502.18 495.82 508 503 508V506ZM1114 495C1114 501.075 1109.08 506 1103 506V508C1110.18 508 1116 502.18 1116 495H1114ZM1103 190C1109.08 190 1114 194.925 1114 201H1116C1116 193.82 1110.18 188 1103 188V190ZM503 188C495.82 188 490 193.82 490 201H492C492 194.925 496.925 190 503 190V188Z" fill="#BDE3FF"/>
  <path d="M700.18 237H528C524.686 237 522 239.686 522 243V294.383C522 297.696 524.686 300.383 528 300.383H700.18C703.494 300.383 706.18 297.696 706.18 294.383V243C706.18 239.686 703.494 237 700.18 237Z" stroke="#A864FF" stroke-width="4" stroke-miterlimit="0" stroke-linecap="round"/>
  <path d="M575.68 268.761L573.464 268.898C573.426 268.708 573.344 268.538 573.219 268.386C573.094 268.231 572.93 268.108 572.725 268.017C572.524 267.922 572.284 267.875 572.003 267.875C571.628 267.875 571.312 267.955 571.055 268.114C570.797 268.269 570.668 268.477 570.668 268.739C570.668 268.947 570.752 269.123 570.918 269.267C571.085 269.411 571.371 269.527 571.776 269.614L573.356 269.932C574.204 270.106 574.837 270.386 575.253 270.773C575.67 271.159 575.878 271.667 575.878 272.295C575.878 272.867 575.71 273.369 575.373 273.801C575.039 274.233 574.581 274.57 573.998 274.812C573.418 275.051 572.75 275.17 571.992 275.17C570.837 275.17 569.916 274.93 569.231 274.449C568.549 273.964 568.149 273.305 568.032 272.472L570.413 272.347C570.485 272.699 570.659 272.968 570.935 273.153C571.212 273.335 571.566 273.426 571.998 273.426C572.422 273.426 572.763 273.345 573.021 273.182C573.282 273.015 573.414 272.801 573.418 272.54C573.414 272.32 573.322 272.14 573.14 272C572.958 271.856 572.678 271.746 572.299 271.67L570.788 271.369C569.935 271.199 569.301 270.903 568.884 270.483C568.471 270.062 568.265 269.527 568.265 268.875C568.265 268.314 568.416 267.831 568.719 267.426C569.026 267.021 569.456 266.708 570.009 266.489C570.566 266.269 571.217 266.159 571.964 266.159C573.066 266.159 573.933 266.392 574.566 266.858C575.202 267.324 575.574 267.958 575.68 268.761ZM578.721 278.273C578.414 278.273 578.126 278.248 577.857 278.199C577.592 278.153 577.372 278.095 577.198 278.023L577.744 276.216C578.028 276.303 578.283 276.35 578.511 276.358C578.742 276.366 578.941 276.313 579.107 276.199C579.278 276.085 579.416 275.892 579.522 275.619L579.664 275.25L576.533 266.273H579.079L580.886 272.682H580.977L582.8 266.273H585.363L581.971 275.943C581.808 276.413 581.586 276.822 581.306 277.17C581.03 277.523 580.679 277.794 580.255 277.983C579.831 278.176 579.319 278.273 578.721 278.273ZM593.687 268.761L591.471 268.898C591.433 268.708 591.352 268.538 591.227 268.386C591.102 268.231 590.937 268.108 590.732 268.017C590.532 267.922 590.291 267.875 590.011 267.875C589.636 267.875 589.32 267.955 589.062 268.114C588.804 268.269 588.676 268.477 588.676 268.739C588.676 268.947 588.759 269.123 588.926 269.267C589.092 269.411 589.378 269.527 589.784 269.614L591.363 269.932C592.212 270.106 592.844 270.386 593.261 270.773C593.678 271.159 593.886 271.667 593.886 272.295C593.886 272.867 593.717 273.369 593.38 273.801C593.047 274.233 592.589 274.57 592.005 274.812C591.426 275.051 590.757 275.17 589.999 275.17C588.844 275.17 587.924 274.93 587.238 274.449C586.556 273.964 586.157 273.305 586.039 272.472L588.42 272.347C588.492 272.699 588.666 272.968 588.943 273.153C589.219 273.335 589.573 273.426 590.005 273.426C590.429 273.426 590.77 273.345 591.028 273.182C591.289 273.015 591.422 272.801 591.426 272.54C591.422 272.32 591.329 272.14 591.147 272C590.965 271.856 590.685 271.746 590.306 271.67L588.795 271.369C587.943 271.199 587.308 270.903 586.892 270.483C586.479 270.062 586.272 269.527 586.272 268.875C586.272 268.314 586.424 267.831 586.727 267.426C587.034 267.021 587.464 266.708 588.017 266.489C588.573 266.269 589.225 266.159 589.971 266.159C591.073 266.159 591.941 266.392 592.573 266.858C593.21 267.324 593.581 267.958 593.687 268.761ZM599.876 266.273V268.091H594.62V266.273H599.876ZM595.814 264.182H598.234V272.318C598.234 272.542 598.268 272.716 598.336 272.841C598.404 272.962 598.499 273.047 598.62 273.097C598.745 273.146 598.889 273.17 599.052 273.17C599.166 273.17 599.279 273.161 599.393 273.142C599.507 273.119 599.594 273.102 599.654 273.091L600.035 274.892C599.914 274.93 599.743 274.973 599.524 275.023C599.304 275.076 599.037 275.108 598.723 275.119C598.139 275.142 597.628 275.064 597.189 274.886C596.753 274.708 596.414 274.432 596.172 274.057C595.929 273.682 595.81 273.208 595.814 272.636V264.182ZM605.16 275.17C604.263 275.17 603.49 274.989 602.842 274.625C602.198 274.258 601.702 273.739 601.353 273.068C601.005 272.394 600.831 271.597 600.831 270.676C600.831 269.778 601.005 268.991 601.353 268.312C601.702 267.634 602.192 267.106 602.825 266.727C603.461 266.348 604.208 266.159 605.064 266.159C605.639 266.159 606.175 266.252 606.672 266.438C607.172 266.619 607.607 266.894 607.978 267.261C608.353 267.629 608.645 268.091 608.853 268.648C609.062 269.201 609.166 269.848 609.166 270.591V271.256H601.797V269.756H606.888C606.888 269.407 606.812 269.098 606.66 268.83C606.509 268.561 606.299 268.35 606.03 268.199C605.764 268.044 605.456 267.966 605.103 267.966C604.736 267.966 604.41 268.051 604.126 268.222C603.846 268.388 603.626 268.614 603.467 268.898C603.308 269.178 603.227 269.491 603.223 269.835V271.261C603.223 271.693 603.302 272.066 603.461 272.381C603.624 272.695 603.853 272.938 604.149 273.108C604.444 273.278 604.795 273.364 605.2 273.364C605.469 273.364 605.715 273.326 605.939 273.25C606.162 273.174 606.353 273.061 606.513 272.909C606.672 272.758 606.793 272.572 606.876 272.352L609.115 272.5C609.001 273.038 608.768 273.508 608.416 273.909C608.067 274.307 607.617 274.617 607.064 274.841C606.514 275.061 605.88 275.17 605.16 275.17ZM610.57 275V266.273H612.876V267.812H612.979C613.16 267.301 613.463 266.898 613.888 266.602C614.312 266.307 614.82 266.159 615.41 266.159C616.009 266.159 616.518 266.309 616.939 266.608C617.359 266.903 617.64 267.305 617.78 267.812H617.871C618.049 267.312 618.371 266.913 618.837 266.614C619.306 266.311 619.861 266.159 620.501 266.159C621.316 266.159 621.977 266.419 622.484 266.938C622.996 267.453 623.251 268.184 623.251 269.131V275H620.837V269.608C620.837 269.123 620.708 268.759 620.45 268.517C620.193 268.275 619.871 268.153 619.484 268.153C619.045 268.153 618.702 268.294 618.456 268.574C618.21 268.85 618.087 269.216 618.087 269.67V275H615.74V269.557C615.74 269.129 615.617 268.788 615.371 268.534C615.128 268.28 614.808 268.153 614.41 268.153C614.141 268.153 613.899 268.222 613.683 268.358C613.471 268.491 613.302 268.678 613.177 268.92C613.052 269.159 612.99 269.439 612.99 269.761V275H610.57ZM628.203 275.142C627.54 275.142 626.94 274.972 626.402 274.631C625.868 274.286 625.444 273.78 625.129 273.114C624.819 272.443 624.663 271.621 624.663 270.648C624.663 269.648 624.824 268.816 625.146 268.153C625.468 267.487 625.896 266.989 626.43 266.659C626.968 266.326 627.557 266.159 628.197 266.159C628.686 266.159 629.093 266.242 629.419 266.409C629.749 266.572 630.014 266.777 630.215 267.023C630.419 267.265 630.574 267.504 630.68 267.739H630.754V263.364H633.169V275H630.783V273.602H630.68C630.567 273.845 630.406 274.085 630.197 274.324C629.993 274.559 629.726 274.754 629.396 274.909C629.071 275.064 628.673 275.142 628.203 275.142ZM628.97 273.216C629.36 273.216 629.69 273.11 629.959 272.898C630.232 272.682 630.44 272.381 630.584 271.994C630.732 271.608 630.805 271.155 630.805 270.636C630.805 270.117 630.733 269.667 630.59 269.284C630.446 268.902 630.237 268.606 629.965 268.398C629.692 268.189 629.36 268.085 628.97 268.085C628.572 268.085 628.237 268.193 627.965 268.409C627.692 268.625 627.485 268.924 627.345 269.307C627.205 269.689 627.135 270.133 627.135 270.636C627.135 271.144 627.205 271.593 627.345 271.983C627.489 272.369 627.696 272.672 627.965 272.892C628.237 273.108 628.572 273.216 628.97 273.216ZM640.421 269.261V271.182H635.114V269.261H640.421ZM646.25 275.17C645.356 275.17 644.587 274.981 643.943 274.602C643.303 274.22 642.811 273.689 642.466 273.011C642.125 272.333 641.955 271.553 641.955 270.67C641.955 269.777 642.127 268.992 642.472 268.318C642.82 267.64 643.315 267.112 643.955 266.733C644.595 266.35 645.356 266.159 646.239 266.159C647 266.159 647.667 266.297 648.239 266.574C648.811 266.85 649.264 267.239 649.597 267.739C649.93 268.239 650.114 268.826 650.148 269.5H647.864C647.8 269.064 647.629 268.714 647.353 268.449C647.08 268.18 646.722 268.045 646.279 268.045C645.904 268.045 645.576 268.148 645.296 268.352C645.019 268.553 644.803 268.847 644.648 269.233C644.493 269.619 644.415 270.087 644.415 270.636C644.415 271.193 644.491 271.667 644.642 272.057C644.798 272.447 645.015 272.744 645.296 272.949C645.576 273.153 645.904 273.256 646.279 273.256C646.555 273.256 646.803 273.199 647.023 273.085C647.247 272.972 647.43 272.807 647.574 272.591C647.722 272.371 647.818 272.108 647.864 271.801H650.148C650.11 272.468 649.928 273.055 649.603 273.562C649.281 274.066 648.836 274.46 648.267 274.744C647.699 275.028 647.027 275.17 646.25 275.17ZM654.738 275.142C654.075 275.142 653.474 274.972 652.937 274.631C652.402 274.286 651.978 273.78 651.664 273.114C651.353 272.443 651.198 271.621 651.198 270.648C651.198 269.648 651.359 268.816 651.681 268.153C652.003 267.487 652.431 266.989 652.965 266.659C653.503 266.326 654.092 266.159 654.732 266.159C655.221 266.159 655.628 266.242 655.954 266.409C656.283 266.572 656.548 266.777 656.749 267.023C656.954 267.265 657.109 267.504 657.215 267.739H657.289V263.364H659.704V275H657.317V273.602H657.215C657.101 273.845 656.94 274.085 656.732 274.324C656.527 274.559 656.26 274.754 655.931 274.909C655.605 275.064 655.207 275.142 654.738 275.142ZM655.505 273.216C655.895 273.216 656.224 273.11 656.493 272.898C656.766 272.682 656.974 272.381 657.118 271.994C657.266 271.608 657.34 271.155 657.34 270.636C657.34 270.117 657.268 269.667 657.124 269.284C656.98 268.902 656.772 268.606 656.499 268.398C656.226 268.189 655.895 268.085 655.505 268.085C655.107 268.085 654.772 268.193 654.499 268.409C654.226 268.625 654.02 268.924 653.88 269.307C653.74 269.689 653.669 270.133 653.669 270.636C653.669 271.144 653.74 271.593 653.88 271.983C654.024 272.369 654.23 272.672 654.499 272.892C654.772 273.108 655.107 273.216 655.505 273.216Z" fill="white"/>
  <path d="M1085.18 237H913C909.686 237 907 239.686 907 243V294.383C907 297.696 909.686 300.383 913 300.383H1085.18C1088.49 300.383 1091.18 297.696 1091.18 294.383V243C1091.18 239.686 1088.49 237 1085.18 237Z" stroke="#B3B3B3" stroke-width="4" stroke-miterlimit="0" stroke-linecap="round"/>
  <path d="M974.487 268.403L972.948 268.676C972.883 268.479 972.781 268.292 972.641 268.114C972.504 267.936 972.319 267.79 972.084 267.676C971.849 267.562 971.556 267.506 971.203 267.506C970.722 267.506 970.321 267.614 969.999 267.83C969.677 268.042 969.516 268.316 969.516 268.653C969.516 268.945 969.624 269.18 969.84 269.358C970.056 269.536 970.404 269.682 970.885 269.795L972.271 270.114C973.074 270.299 973.673 270.585 974.067 270.972C974.461 271.358 974.658 271.86 974.658 272.477C974.658 273 974.506 273.466 974.203 273.875C973.904 274.28 973.485 274.598 972.948 274.83C972.413 275.061 971.794 275.176 971.09 275.176C970.112 275.176 969.315 274.968 968.698 274.551C968.08 274.131 967.701 273.534 967.561 272.761L969.203 272.511C969.306 272.939 969.516 273.263 969.834 273.483C970.152 273.699 970.567 273.807 971.078 273.807C971.635 273.807 972.08 273.691 972.413 273.46C972.747 273.225 972.913 272.939 972.913 272.602C972.913 272.33 972.811 272.1 972.607 271.915C972.406 271.729 972.097 271.589 971.681 271.494L970.203 271.17C969.389 270.985 968.787 270.689 968.396 270.284C968.01 269.879 967.817 269.366 967.817 268.744C967.817 268.229 967.961 267.778 968.249 267.392C968.537 267.006 968.934 266.705 969.442 266.489C969.949 266.269 970.531 266.159 971.186 266.159C972.129 266.159 972.872 266.364 973.413 266.773C973.955 267.178 974.313 267.722 974.487 268.403ZM977.424 278.273C977.17 278.273 976.939 278.252 976.73 278.21C976.522 278.172 976.367 278.131 976.264 278.085L976.674 276.693C976.984 276.777 977.261 276.813 977.503 276.801C977.746 276.79 977.96 276.699 978.145 276.528C978.335 276.358 978.501 276.08 978.645 275.693L978.855 275.114L975.662 266.273H977.48L979.691 273.045H979.782L981.992 266.273H983.816L980.219 276.165C980.052 276.619 979.84 277.004 979.583 277.318C979.325 277.636 979.018 277.875 978.662 278.034C978.306 278.193 977.893 278.273 977.424 278.273ZM991.776 268.403L990.236 268.676C990.172 268.479 990.07 268.292 989.929 268.114C989.793 267.936 989.607 267.79 989.373 267.676C989.138 267.562 988.844 267.506 988.492 267.506C988.011 267.506 987.609 267.614 987.287 267.83C986.965 268.042 986.804 268.316 986.804 268.653C986.804 268.945 986.912 269.18 987.128 269.358C987.344 269.536 987.693 269.682 988.174 269.795L989.56 270.114C990.363 270.299 990.962 270.585 991.356 270.972C991.749 271.358 991.946 271.86 991.946 272.477C991.946 273 991.795 273.466 991.492 273.875C991.193 274.28 990.774 274.598 990.236 274.83C989.702 275.061 989.083 275.176 988.378 275.176C987.401 275.176 986.604 274.968 985.986 274.551C985.369 274.131 984.99 273.534 984.85 272.761L986.492 272.511C986.594 272.939 986.804 273.263 987.123 273.483C987.441 273.699 987.856 273.807 988.367 273.807C988.924 273.807 989.369 273.691 989.702 273.46C990.035 273.225 990.202 272.939 990.202 272.602C990.202 272.33 990.1 272.1 989.895 271.915C989.695 271.729 989.386 271.589 988.969 271.494L987.492 271.17C986.677 270.985 986.075 270.689 985.685 270.284C985.299 269.879 985.106 269.366 985.106 268.744C985.106 268.229 985.249 267.778 985.537 267.392C985.825 267.006 986.223 266.705 986.731 266.489C987.238 266.269 987.82 266.159 988.475 266.159C989.418 266.159 990.16 266.364 990.702 266.773C991.244 267.178 991.602 267.722 991.776 268.403ZM997.712 266.273V267.636H992.945V266.273H997.712ZM994.224 264.182H995.922V272.438C995.922 272.767 995.972 273.015 996.07 273.182C996.169 273.345 996.296 273.456 996.451 273.517C996.61 273.574 996.782 273.602 996.968 273.602C997.104 273.602 997.224 273.593 997.326 273.574C997.428 273.555 997.508 273.54 997.564 273.528L997.871 274.932C997.773 274.97 997.633 275.008 997.451 275.045C997.269 275.087 997.042 275.11 996.769 275.114C996.322 275.121 995.905 275.042 995.519 274.875C995.133 274.708 994.82 274.451 994.582 274.102C994.343 273.754 994.224 273.316 994.224 272.79V264.182ZM1003.08 275.176C1002.22 275.176 1001.48 274.992 1000.86 274.625C1000.24 274.254 999.767 273.733 999.43 273.062C999.096 272.388 998.93 271.598 998.93 270.693C998.93 269.799 999.096 269.011 999.43 268.33C999.767 267.648 1000.24 267.116 1000.84 266.733C1001.44 266.35 1002.15 266.159 1002.96 266.159C1003.46 266.159 1003.93 266.241 1004.4 266.403C1004.86 266.566 1005.27 266.822 1005.64 267.17C1006.01 267.519 1006.3 267.972 1006.51 268.528C1006.72 269.081 1006.83 269.754 1006.83 270.545V271.148H999.89V269.875H1005.16C1005.16 269.428 1005.07 269.032 1004.89 268.688C1004.71 268.339 1004.45 268.064 1004.12 267.864C1003.8 267.663 1003.41 267.562 1002.98 267.562C1002.5 267.562 1002.08 267.68 1001.73 267.915C1001.37 268.146 1001.1 268.449 1000.91 268.824C1000.72 269.195 1000.62 269.598 1000.62 270.034V271.028C1000.62 271.612 1000.73 272.108 1000.93 272.517C1001.14 272.926 1001.43 273.239 1001.8 273.455C1002.17 273.667 1002.6 273.773 1003.1 273.773C1003.42 273.773 1003.72 273.727 1003.98 273.636C1004.25 273.542 1004.48 273.402 1004.67 273.216C1004.86 273.03 1005.01 272.801 1005.11 272.528L1006.72 272.818C1006.59 273.292 1006.36 273.706 1006.03 274.062C1005.7 274.415 1005.28 274.689 1004.78 274.886C1004.29 275.08 1003.72 275.176 1003.08 275.176ZM1008.54 275V266.273H1010.17V267.693H1010.27C1010.46 267.212 1010.75 266.837 1011.17 266.568C1011.58 266.295 1012.07 266.159 1012.65 266.159C1013.23 266.159 1013.72 266.295 1014.12 266.568C1014.51 266.841 1014.81 267.216 1015 267.693H1015.09C1015.3 267.227 1015.63 266.856 1016.08 266.58C1016.54 266.299 1017.08 266.159 1017.71 266.159C1018.5 266.159 1019.14 266.407 1019.64 266.903C1020.15 267.4 1020.4 268.148 1020.4 269.148V275H1018.7V269.307C1018.7 268.716 1018.54 268.288 1018.22 268.023C1017.9 267.758 1017.51 267.625 1017.06 267.625C1016.51 267.625 1016.08 267.795 1015.77 268.136C1015.47 268.473 1015.31 268.907 1015.31 269.438V275H1013.62V269.199C1013.62 268.725 1013.47 268.345 1013.18 268.057C1012.88 267.769 1012.5 267.625 1012.02 267.625C1011.7 267.625 1011.41 267.71 1011.13 267.881C1010.86 268.047 1010.65 268.28 1010.48 268.58C1010.32 268.879 1010.24 269.225 1010.24 269.619V275H1008.54ZM1025.77 275.17C1025.06 275.17 1024.43 274.991 1023.88 274.631C1023.33 274.267 1022.9 273.75 1022.59 273.08C1022.28 272.405 1022.12 271.597 1022.12 270.653C1022.12 269.71 1022.28 268.903 1022.59 268.233C1022.91 267.562 1023.35 267.049 1023.9 266.693C1024.45 266.337 1025.08 266.159 1025.78 266.159C1026.32 266.159 1026.76 266.25 1027.09 266.432C1027.42 266.61 1027.68 266.818 1027.86 267.057C1028.04 267.295 1028.19 267.506 1028.29 267.688H1028.39V263.364H1030.09V275H1028.43V273.642H1028.29C1028.19 273.828 1028.04 274.04 1027.85 274.278C1027.66 274.517 1027.4 274.725 1027.06 274.903C1026.73 275.081 1026.3 275.17 1025.77 275.17ZM1026.14 273.722C1026.63 273.722 1027.04 273.593 1027.38 273.335C1027.72 273.074 1027.98 272.712 1028.15 272.25C1028.33 271.788 1028.42 271.25 1028.42 270.636C1028.42 270.03 1028.33 269.5 1028.16 269.045C1027.99 268.591 1027.73 268.237 1027.39 267.983C1027.06 267.729 1026.64 267.602 1026.14 267.602C1025.63 267.602 1025.21 267.735 1024.86 268C1024.52 268.265 1024.27 268.627 1024.09 269.085C1023.92 269.544 1023.84 270.061 1023.84 270.636C1023.84 271.22 1023.92 271.744 1024.1 272.21C1024.27 272.676 1024.53 273.045 1024.87 273.318C1025.21 273.587 1025.64 273.722 1026.14 273.722Z" fill="white"/>
  <path d="M710.18 267.191C709.352 267.191 708.68 267.863 708.68 268.691C708.68 269.52 709.352 270.191 710.18 270.191V267.191ZM770.59 270.191C771.418 270.191 772.09 269.52 772.09 268.691C772.09 267.863 771.418 267.191 770.59 267.191V270.191ZM842.59 267.191C841.762 267.191 841.09 267.863 841.09 268.691C841.09 269.52 841.762 270.191 842.59 270.191V267.191ZM888 275.352C888 276.18 889.015 276.766 889.732 276.352L901.268 269.691C901.985 269.277 901.985 268.106 901.268 267.691L889.732 261.031C889.015 260.617 888 261.203 888 262.031V275.352ZM710.18 270.191H770.59V267.191H710.18V270.191ZM842.59 270.191H889.5V267.191H842.59V270.191Z" fill="#B3B3B3"/>
  <path d="M787.768 263.055H789.529V270.708C789.529 271.523 789.338 272.244 788.955 272.873C788.573 273.498 788.035 273.991 787.342 274.35C786.649 274.707 785.836 274.885 784.904 274.885C783.976 274.885 783.166 274.707 782.472 274.35C781.779 273.991 781.241 273.498 780.859 272.873C780.476 272.244 780.285 271.523 780.285 270.708V263.055H782.041V270.566C782.041 271.093 782.156 271.561 782.387 271.97C782.622 272.379 782.954 272.701 783.382 272.936C783.81 273.167 784.317 273.282 784.904 273.282C785.495 273.282 786.005 273.167 786.433 272.936C786.865 272.701 787.194 272.379 787.421 271.97C787.652 271.561 787.768 271.093 787.768 270.566V263.055ZM791.77 277.964V265.964H793.429V267.379H793.571C793.669 267.197 793.811 266.987 793.997 266.748C794.182 266.51 794.44 266.301 794.77 266.123C795.099 265.941 795.535 265.85 796.076 265.85C796.781 265.85 797.41 266.029 797.963 266.385C798.516 266.741 798.949 267.254 799.264 267.924C799.582 268.595 799.741 269.402 799.741 270.345C799.741 271.288 799.584 272.097 799.27 272.771C798.955 273.441 798.523 273.958 797.974 274.322C797.425 274.682 796.798 274.862 796.093 274.862C795.563 274.862 795.129 274.773 794.792 274.595C794.459 274.417 794.198 274.208 794.008 273.97C793.819 273.731 793.673 273.519 793.571 273.333H793.468V277.964H791.77ZM793.434 270.328C793.434 270.941 793.523 271.479 793.701 271.941C793.879 272.404 794.137 272.765 794.474 273.027C794.811 273.284 795.224 273.413 795.713 273.413C796.22 273.413 796.645 273.279 796.985 273.01C797.326 272.737 797.584 272.368 797.758 271.902C797.936 271.436 798.025 270.911 798.025 270.328C798.025 269.752 797.938 269.235 797.764 268.777C797.593 268.318 797.336 267.957 796.991 267.691C796.65 267.426 796.224 267.294 795.713 267.294C795.22 267.294 794.804 267.421 794.463 267.674C794.126 267.928 793.87 268.282 793.696 268.737C793.521 269.191 793.434 269.722 793.434 270.328ZM804.736 274.862C804.031 274.862 803.402 274.682 802.849 274.322C802.3 273.958 801.868 273.441 801.554 272.771C801.243 272.097 801.088 271.288 801.088 270.345C801.088 269.402 801.245 268.595 801.559 267.924C801.878 267.254 802.313 266.741 802.866 266.385C803.419 266.029 804.046 265.85 804.747 265.85C805.289 265.85 805.724 265.941 806.054 266.123C806.387 266.301 806.645 266.51 806.826 266.748C807.012 266.987 807.156 267.197 807.258 267.379H807.361V263.055H809.059V274.691H807.4V273.333H807.258C807.156 273.519 807.008 273.731 806.815 273.97C806.626 274.208 806.364 274.417 806.031 274.595C805.698 274.773 805.266 274.862 804.736 274.862ZM805.111 273.413C805.599 273.413 806.012 273.284 806.349 273.027C806.69 272.765 806.948 272.404 807.122 271.941C807.3 271.479 807.389 270.941 807.389 270.328C807.389 269.722 807.302 269.191 807.128 268.737C806.953 268.282 806.698 267.928 806.361 267.674C806.023 267.421 805.607 267.294 805.111 267.294C804.599 267.294 804.173 267.426 803.832 267.691C803.491 267.957 803.234 268.318 803.059 268.777C802.889 269.235 802.804 269.752 802.804 270.328C802.804 270.911 802.891 271.436 803.065 271.902C803.239 272.368 803.497 272.737 803.838 273.01C804.183 273.279 804.607 273.413 805.111 273.413ZM813.848 274.885C813.295 274.885 812.795 274.782 812.348 274.578C811.901 274.369 811.547 274.068 811.285 273.674C811.028 273.28 810.899 272.797 810.899 272.225C810.899 271.733 810.994 271.328 811.183 271.01C811.373 270.691 811.628 270.44 811.95 270.254C812.272 270.068 812.632 269.928 813.03 269.833C813.427 269.739 813.833 269.667 814.246 269.618C814.768 269.557 815.193 269.508 815.518 269.47C815.844 269.428 816.081 269.362 816.229 269.271C816.376 269.18 816.45 269.032 816.45 268.828V268.788C816.45 268.292 816.31 267.907 816.03 267.635C815.753 267.362 815.34 267.225 814.791 267.225C814.219 267.225 813.768 267.352 813.439 267.606C813.113 267.856 812.888 268.135 812.763 268.441L811.166 268.078C811.355 267.547 811.632 267.119 811.996 266.794C812.363 266.464 812.785 266.225 813.263 266.078C813.74 265.926 814.242 265.85 814.768 265.85C815.117 265.85 815.486 265.892 815.876 265.975C816.27 266.055 816.638 266.203 816.979 266.419C817.323 266.635 817.605 266.943 817.825 267.345C818.045 267.743 818.155 268.26 818.155 268.896V274.691H816.496V273.498H816.427C816.318 273.718 816.153 273.934 815.933 274.146C815.713 274.358 815.431 274.534 815.087 274.674C814.742 274.815 814.329 274.885 813.848 274.885ZM814.217 273.521C814.687 273.521 815.088 273.428 815.422 273.243C815.759 273.057 816.015 272.815 816.189 272.515C816.367 272.212 816.456 271.888 816.456 271.544V270.419C816.395 270.479 816.278 270.536 816.104 270.589C815.933 270.638 815.738 270.682 815.518 270.72C815.299 270.754 815.085 270.786 814.876 270.816C814.668 270.843 814.494 270.866 814.354 270.885C814.024 270.926 813.723 270.996 813.45 271.095C813.181 271.193 812.965 271.335 812.802 271.521C812.643 271.703 812.564 271.945 812.564 272.248C812.564 272.669 812.719 272.987 813.03 273.203C813.34 273.415 813.736 273.521 814.217 273.521ZM824.315 265.964V267.328H819.548V265.964H824.315ZM820.827 263.873H822.526V272.129C822.526 272.458 822.575 272.707 822.673 272.873C822.772 273.036 822.899 273.148 823.054 273.208C823.213 273.265 823.385 273.294 823.571 273.294C823.707 273.294 823.827 273.284 823.929 273.265C824.031 273.246 824.111 273.231 824.168 273.22L824.474 274.623C824.376 274.661 824.236 274.699 824.054 274.737C823.872 274.779 823.645 274.801 823.372 274.805C822.925 274.813 822.509 274.733 822.122 274.566C821.736 274.4 821.423 274.142 821.185 273.794C820.946 273.445 820.827 273.008 820.827 272.481V263.873ZM829.686 274.868C828.826 274.868 828.086 274.684 827.465 274.316C826.847 273.945 826.37 273.424 826.033 272.754C825.7 272.08 825.533 271.29 825.533 270.385C825.533 269.491 825.7 268.703 826.033 268.021C826.37 267.339 826.84 266.807 827.442 266.424C828.048 266.042 828.756 265.85 829.567 265.85C830.059 265.85 830.537 265.932 830.999 266.095C831.461 266.258 831.876 266.513 832.243 266.862C832.61 267.21 832.9 267.663 833.112 268.22C833.325 268.773 833.431 269.445 833.431 270.237V270.839H826.493V269.566H831.766C831.766 269.119 831.675 268.724 831.493 268.379C831.311 268.03 831.056 267.756 830.726 267.555C830.4 267.354 830.018 267.254 829.578 267.254C829.101 267.254 828.684 267.371 828.328 267.606C827.976 267.837 827.703 268.14 827.51 268.515C827.321 268.886 827.226 269.29 827.226 269.725V270.72C827.226 271.303 827.328 271.799 827.533 272.208C827.741 272.618 828.031 272.93 828.402 273.146C828.773 273.358 829.207 273.464 829.703 273.464C830.025 273.464 830.319 273.419 830.584 273.328C830.849 273.233 831.078 273.093 831.271 272.907C831.465 272.722 831.612 272.493 831.715 272.22L833.323 272.51C833.194 272.983 832.963 273.398 832.629 273.754C832.3 274.106 831.885 274.381 831.385 274.578C830.889 274.771 830.323 274.868 829.686 274.868Z" fill="white"/>
  <path d="M1085.18 394H913C909.686 394 907 396.686 907 400V451.383C907 454.696 909.686 457.383 913 457.383H1085.18C1088.49 457.383 1091.18 454.696 1091.18 451.383V400C1091.18 396.686 1088.49 394 1085.18 394Z" stroke="#B3B3B3" stroke-width="4" stroke-miterlimit="0" stroke-linecap="round"/>
  <path d="M978.438 423.42C978.378 422.883 978.128 422.466 977.688 422.17C977.249 421.871 976.696 421.722 976.029 421.722C975.552 421.722 975.139 421.797 974.791 421.949C974.442 422.097 974.171 422.301 973.978 422.562C973.789 422.82 973.694 423.114 973.694 423.443C973.694 423.72 973.758 423.958 973.887 424.159C974.02 424.36 974.192 424.528 974.404 424.665C974.62 424.797 974.851 424.909 975.097 425C975.344 425.087 975.58 425.159 975.808 425.216L976.944 425.511C977.315 425.602 977.696 425.725 978.086 425.881C978.476 426.036 978.838 426.241 979.171 426.494C979.505 426.748 979.774 427.062 979.978 427.438C980.186 427.812 980.291 428.261 980.291 428.784C980.291 429.443 980.12 430.028 979.779 430.54C979.442 431.051 978.952 431.455 978.308 431.75C977.668 432.045 976.893 432.193 975.984 432.193C975.113 432.193 974.359 432.055 973.722 431.778C973.086 431.502 972.588 431.11 972.228 430.602C971.868 430.091 971.669 429.485 971.632 428.784H973.393C973.427 429.205 973.563 429.555 973.802 429.835C974.044 430.112 974.353 430.318 974.728 430.455C975.107 430.587 975.522 430.653 975.972 430.653C976.469 430.653 976.91 430.576 977.296 430.42C977.686 430.261 977.993 430.042 978.217 429.761C978.44 429.477 978.552 429.146 978.552 428.767C978.552 428.422 978.453 428.14 978.257 427.92C978.063 427.701 977.8 427.519 977.467 427.375C977.137 427.231 976.764 427.104 976.347 426.994L974.972 426.619C974.041 426.366 973.302 425.992 972.757 425.5C972.215 425.008 971.944 424.356 971.944 423.545C971.944 422.875 972.126 422.29 972.489 421.79C972.853 421.29 973.346 420.902 973.967 420.625C974.588 420.345 975.289 420.205 976.069 420.205C976.857 420.205 977.552 420.343 978.154 420.619C978.76 420.896 979.238 421.277 979.586 421.761C979.935 422.242 980.116 422.795 980.132 423.42H978.438ZM985.838 432.176C984.978 432.176 984.237 431.992 983.616 431.625C982.999 431.254 982.521 430.733 982.184 430.062C981.851 429.388 981.684 428.598 981.684 427.693C981.684 426.799 981.851 426.011 982.184 425.33C982.521 424.648 982.991 424.116 983.593 423.733C984.199 423.35 984.908 423.159 985.718 423.159C986.211 423.159 986.688 423.241 987.15 423.403C987.612 423.566 988.027 423.822 988.394 424.17C988.762 424.519 989.052 424.972 989.264 425.528C989.476 426.081 989.582 426.754 989.582 427.545V428.148H982.644V426.875H987.917C987.917 426.428 987.826 426.032 987.644 425.688C987.463 425.339 987.207 425.064 986.877 424.864C986.552 424.663 986.169 424.562 985.73 424.562C985.252 424.562 984.836 424.68 984.48 424.915C984.127 425.146 983.855 425.449 983.661 425.824C983.472 426.195 983.377 426.598 983.377 427.034V428.028C983.377 428.612 983.48 429.108 983.684 429.517C983.893 429.926 984.182 430.239 984.554 430.455C984.925 430.667 985.358 430.773 985.855 430.773C986.177 430.773 986.47 430.727 986.735 430.636C987.001 430.542 987.23 430.402 987.423 430.216C987.616 430.03 987.764 429.801 987.866 429.528L989.474 429.818C989.345 430.292 989.114 430.706 988.781 431.062C988.451 431.415 988.036 431.689 987.536 431.886C987.04 432.08 986.474 432.176 985.838 432.176ZM991.291 432V423.273H992.933V424.659H993.024C993.183 424.189 993.463 423.82 993.865 423.551C994.27 423.278 994.728 423.142 995.24 423.142C995.346 423.142 995.471 423.146 995.615 423.153C995.762 423.161 995.878 423.17 995.961 423.182V424.807C995.893 424.788 995.772 424.767 995.598 424.744C995.423 424.718 995.249 424.705 995.075 424.705C994.673 424.705 994.316 424.79 994.001 424.96C993.691 425.127 993.444 425.36 993.262 425.659C993.081 425.955 992.99 426.292 992.99 426.67V432H991.291ZM1004.99 423.273L1001.82 432H1000L996.834 423.273H998.658L1000.87 429.989H1000.96L1003.16 423.273H1004.99ZM1006.41 432V423.273H1008.11V432H1006.41ZM1007.27 421.926C1006.97 421.926 1006.72 421.828 1006.5 421.631C1006.3 421.43 1006.19 421.191 1006.19 420.915C1006.19 420.634 1006.3 420.396 1006.5 420.199C1006.72 419.998 1006.97 419.898 1007.27 419.898C1007.56 419.898 1007.81 419.998 1008.02 420.199C1008.23 420.396 1008.34 420.634 1008.34 420.915C1008.34 421.191 1008.23 421.43 1008.02 421.631C1007.81 421.828 1007.56 421.926 1007.27 421.926ZM1013.89 432.176C1013.05 432.176 1012.32 431.985 1011.71 431.602C1011.1 431.216 1010.64 430.684 1010.31 430.006C1009.99 429.328 1009.82 428.551 1009.82 427.676C1009.82 426.79 1009.99 426.008 1010.32 425.33C1010.66 424.648 1011.13 424.116 1011.73 423.733C1012.34 423.35 1013.05 423.159 1013.88 423.159C1014.54 423.159 1015.13 423.282 1015.65 423.528C1016.17 423.771 1016.59 424.112 1016.9 424.551C1017.23 424.991 1017.42 425.504 1017.48 426.091H1015.82C1015.73 425.682 1015.52 425.33 1015.2 425.034C1014.88 424.739 1014.45 424.591 1013.9 424.591C1013.43 424.591 1013.02 424.716 1012.66 424.966C1012.31 425.212 1012.03 425.564 1011.84 426.023C1011.64 426.477 1011.54 427.015 1011.54 427.636C1011.54 428.273 1011.64 428.822 1011.83 429.284C1012.02 429.746 1012.3 430.104 1012.65 430.358C1013 430.612 1013.42 430.739 1013.9 430.739C1014.23 430.739 1014.52 430.68 1014.78 430.562C1015.04 430.441 1015.27 430.269 1015.44 430.045C1015.63 429.822 1015.75 429.553 1015.82 429.239H1017.48C1017.42 429.803 1017.23 430.307 1016.93 430.75C1016.62 431.193 1016.21 431.542 1015.69 431.795C1015.18 432.049 1014.58 432.176 1013.89 432.176ZM1022.88 432.176C1022.02 432.176 1021.28 431.992 1020.66 431.625C1020.04 431.254 1019.56 430.733 1019.23 430.062C1018.89 429.388 1018.73 428.598 1018.73 427.693C1018.73 426.799 1018.89 426.011 1019.23 425.33C1019.56 424.648 1020.03 424.116 1020.64 423.733C1021.24 423.35 1021.95 423.159 1022.76 423.159C1023.25 423.159 1023.73 423.241 1024.19 423.403C1024.65 423.566 1025.07 423.822 1025.44 424.17C1025.8 424.519 1026.09 424.972 1026.31 425.528C1026.52 426.081 1026.62 426.754 1026.62 427.545V428.148H1019.69V426.875H1024.96C1024.96 426.428 1024.87 426.032 1024.69 425.688C1024.5 425.339 1024.25 425.064 1023.92 424.864C1023.59 424.663 1023.21 424.562 1022.77 424.562C1022.29 424.562 1021.88 424.68 1021.52 424.915C1021.17 425.146 1020.9 425.449 1020.7 425.824C1020.51 426.195 1020.42 426.598 1020.42 427.034V428.028C1020.42 428.612 1020.52 429.108 1020.73 429.517C1020.93 429.926 1021.22 430.239 1021.6 430.455C1021.97 430.667 1022.4 430.773 1022.9 430.773C1023.22 430.773 1023.51 430.727 1023.78 430.636C1024.04 430.542 1024.27 430.402 1024.46 430.216C1024.66 430.03 1024.81 429.801 1024.91 429.528L1026.52 429.818C1026.39 430.292 1026.16 430.706 1025.82 431.062C1025.49 431.415 1025.08 431.689 1024.58 431.886C1024.08 432.08 1023.52 432.176 1022.88 432.176Z" fill="white"/>
  <path d="M1000.59 304.383C1000.59 303.554 999.918 302.883 999.09 302.883C998.262 302.883 997.59 303.554 997.59 304.383H1000.59ZM997.59 318.421C997.59 319.25 998.262 319.921 999.09 319.921C999.918 319.921 1000.59 319.25 1000.59 318.421H997.59ZM1000.59 358.421C1000.59 357.593 999.918 356.921 999.09 356.921C998.262 356.921 997.59 357.593 997.59 358.421H1000.59ZM992.43 375C991.601 375 991.016 376.015 991.43 376.732L998.09 388.268C998.504 388.985 999.676 388.985 1000.09 388.268L1006.75 376.732C1007.16 376.015 1006.58 375 1005.75 375H992.43ZM997.59 304.383V318.421H1000.59V304.383H997.59ZM997.59 358.421V376.5H1000.59V358.421H997.59Z" fill="#B3B3B3"/>
  <path d="M970.105 332.785H972.236L975.941 341.83H976.077L979.781 332.785H981.912V344.421H980.242V336.001H980.134L976.702 344.404H975.316L971.884 335.995H971.776V344.421H970.105V332.785ZM986.692 344.615C986.139 344.615 985.639 344.512 985.192 344.308C984.745 344.099 984.391 343.798 984.13 343.404C983.872 343.01 983.743 342.527 983.743 341.955C983.743 341.463 983.838 341.058 984.027 340.74C984.217 340.421 984.472 340.169 984.794 339.984C985.116 339.798 985.476 339.658 985.874 339.563C986.272 339.469 986.677 339.397 987.09 339.348C987.613 339.287 988.037 339.238 988.363 339.2C988.688 339.158 988.925 339.092 989.073 339.001C989.221 338.91 989.294 338.762 989.294 338.558V338.518C989.294 338.022 989.154 337.637 988.874 337.365C988.597 337.092 988.185 336.955 987.635 336.955C987.063 336.955 986.613 337.082 986.283 337.336C985.957 337.586 985.732 337.865 985.607 338.171L984.01 337.808C984.2 337.277 984.476 336.849 984.84 336.524C985.207 336.194 985.63 335.955 986.107 335.808C986.584 335.656 987.086 335.58 987.613 335.58C987.961 335.58 988.33 335.622 988.721 335.705C989.114 335.785 989.482 335.933 989.823 336.149C990.167 336.365 990.45 336.673 990.669 337.075C990.889 337.473 990.999 337.99 990.999 338.626V344.421H989.34V343.228H989.272C989.162 343.448 988.997 343.664 988.777 343.876C988.558 344.088 988.275 344.264 987.931 344.404C987.586 344.544 987.173 344.615 986.692 344.615ZM987.061 343.251C987.531 343.251 987.933 343.158 988.266 342.973C988.603 342.787 988.859 342.544 989.033 342.245C989.211 341.942 989.3 341.618 989.3 341.274V340.149C989.239 340.209 989.122 340.266 988.948 340.319C988.777 340.368 988.582 340.412 988.363 340.45C988.143 340.484 987.929 340.516 987.721 340.546C987.512 340.573 987.338 340.596 987.198 340.615C986.868 340.656 986.567 340.726 986.294 340.825C986.025 340.923 985.81 341.065 985.647 341.251C985.488 341.433 985.408 341.675 985.408 341.978C985.408 342.399 985.563 342.717 985.874 342.933C986.185 343.145 986.58 343.251 987.061 343.251ZM994.785 339.24V344.421H993.086V335.694H994.716V337.115H994.824C995.025 336.652 995.339 336.281 995.768 336.001C996.199 335.721 996.743 335.58 997.398 335.58C997.993 335.58 998.514 335.705 998.961 335.955C999.408 336.202 999.754 336.569 1000 337.058C1000.25 337.546 1000.37 338.151 1000.37 338.87V344.421H998.671V339.075C998.671 338.442 998.506 337.948 998.177 337.592C997.847 337.232 997.394 337.052 996.819 337.052C996.425 337.052 996.074 337.137 995.768 337.308C995.464 337.478 995.224 337.728 995.046 338.058C994.872 338.384 994.785 338.777 994.785 339.24ZM1005.01 344.615C1004.46 344.615 1003.96 344.512 1003.51 344.308C1003.07 344.099 1002.71 343.798 1002.45 343.404C1002.19 343.01 1002.06 342.527 1002.06 341.955C1002.06 341.463 1002.16 341.058 1002.35 340.74C1002.54 340.421 1002.79 340.169 1003.11 339.984C1003.44 339.798 1003.8 339.658 1004.19 339.563C1004.59 339.469 1005 339.397 1005.41 339.348C1005.93 339.287 1006.36 339.238 1006.68 339.2C1007.01 339.158 1007.24 339.092 1007.39 339.001C1007.54 338.91 1007.61 338.762 1007.61 338.558V338.518C1007.61 338.022 1007.47 337.637 1007.19 337.365C1006.92 337.092 1006.5 336.955 1005.96 336.955C1005.38 336.955 1004.93 337.082 1004.6 337.336C1004.28 337.586 1004.05 337.865 1003.93 338.171L1002.33 337.808C1002.52 337.277 1002.8 336.849 1003.16 336.524C1003.53 336.194 1003.95 335.955 1004.43 335.808C1004.9 335.656 1005.41 335.58 1005.93 335.58C1006.28 335.58 1006.65 335.622 1007.04 335.705C1007.43 335.785 1007.8 335.933 1008.14 336.149C1008.49 336.365 1008.77 336.673 1008.99 337.075C1009.21 337.473 1009.32 337.99 1009.32 338.626V344.421H1007.66V343.228H1007.59C1007.48 343.448 1007.32 343.664 1007.1 343.876C1006.88 344.088 1006.6 344.264 1006.25 344.404C1005.91 344.544 1005.49 344.615 1005.01 344.615ZM1005.38 343.251C1005.85 343.251 1006.25 343.158 1006.59 342.973C1006.92 342.787 1007.18 342.544 1007.35 342.245C1007.53 341.942 1007.62 341.618 1007.62 341.274V340.149C1007.56 340.209 1007.44 340.266 1007.27 340.319C1007.1 340.368 1006.9 340.412 1006.68 340.45C1006.46 340.484 1006.25 340.516 1006.04 340.546C1005.83 340.573 1005.66 340.596 1005.52 340.615C1005.19 340.656 1004.89 340.726 1004.61 340.825C1004.35 340.923 1004.13 341.065 1003.97 341.251C1003.81 341.433 1003.73 341.675 1003.73 341.978C1003.73 342.399 1003.88 342.717 1004.19 342.933C1004.5 343.145 1004.9 343.251 1005.38 343.251ZM1015.06 347.876C1014.37 347.876 1013.77 347.785 1013.27 347.603C1012.78 347.421 1012.37 347.181 1012.06 346.882C1011.74 346.582 1011.51 346.255 1011.35 345.899L1012.81 345.296C1012.92 345.463 1013.05 345.639 1013.22 345.825C1013.4 346.014 1013.63 346.175 1013.93 346.308C1014.23 346.44 1014.61 346.507 1015.08 346.507C1015.73 346.507 1016.26 346.349 1016.68 346.035C1017.1 345.724 1017.31 345.228 1017.31 344.546V342.83H1017.2C1017.1 343.016 1016.95 343.223 1016.76 343.45C1016.57 343.677 1016.31 343.874 1015.97 344.041C1015.64 344.207 1015.21 344.291 1014.67 344.291C1013.98 344.291 1013.36 344.13 1012.81 343.808C1012.26 343.482 1011.82 343.003 1011.5 342.37C1011.18 341.734 1011.02 340.952 1011.02 340.024C1011.02 339.096 1011.18 338.3 1011.5 337.637C1011.81 336.974 1012.25 336.467 1012.8 336.115C1013.36 335.759 1013.98 335.58 1014.68 335.58C1015.23 335.58 1015.66 335.671 1016 335.853C1016.33 336.031 1016.59 336.24 1016.77 336.478C1016.96 336.717 1017.11 336.927 1017.21 337.109H1017.34V335.694H1019V344.615C1019 345.365 1018.83 345.98 1018.48 346.461C1018.13 346.942 1017.66 347.298 1017.06 347.529C1016.47 347.76 1015.81 347.876 1015.06 347.876ZM1015.05 342.882C1015.54 342.882 1015.95 342.768 1016.29 342.541C1016.63 342.31 1016.88 341.98 1017.06 341.552C1017.24 341.12 1017.33 340.603 1017.33 340.001C1017.33 339.414 1017.24 338.897 1017.06 338.45C1016.89 338.003 1016.63 337.654 1016.3 337.404C1015.96 337.151 1015.54 337.024 1015.05 337.024C1014.54 337.024 1014.11 337.156 1013.77 337.421C1013.43 337.683 1013.17 338.039 1013 338.49C1012.83 338.94 1012.74 339.444 1012.74 340.001C1012.74 340.573 1012.83 341.075 1013 341.507C1013.18 341.938 1013.43 342.276 1013.77 342.518C1014.12 342.76 1014.54 342.882 1015.05 342.882ZM1024.87 344.598C1024.01 344.598 1023.27 344.414 1022.64 344.046C1022.03 343.675 1021.55 343.154 1021.21 342.484C1020.88 341.81 1020.71 341.02 1020.71 340.115C1020.71 339.221 1020.88 338.433 1021.21 337.751C1021.55 337.069 1022.02 336.537 1022.62 336.154C1023.23 335.772 1023.94 335.58 1024.75 335.58C1025.24 335.58 1025.72 335.662 1026.18 335.825C1026.64 335.988 1027.06 336.243 1027.42 336.592C1027.79 336.94 1028.08 337.393 1028.29 337.95C1028.5 338.503 1028.61 339.175 1028.61 339.967V340.569H1021.67V339.296H1026.95C1026.95 338.849 1026.85 338.454 1026.67 338.109C1026.49 337.76 1026.24 337.486 1025.91 337.285C1025.58 337.084 1025.2 336.984 1024.76 336.984C1024.28 336.984 1023.86 337.101 1023.51 337.336C1023.16 337.567 1022.88 337.87 1022.69 338.245C1022.5 338.616 1022.41 339.02 1022.41 339.455V340.45C1022.41 341.033 1022.51 341.529 1022.71 341.938C1022.92 342.348 1023.21 342.66 1023.58 342.876C1023.95 343.088 1024.39 343.194 1024.88 343.194C1025.2 343.194 1025.5 343.149 1025.76 343.058C1026.03 342.963 1026.26 342.823 1026.45 342.637C1026.64 342.452 1026.79 342.223 1026.89 341.95L1028.5 342.24C1028.37 342.713 1028.14 343.128 1027.81 343.484C1027.48 343.836 1027.06 344.111 1026.56 344.308C1026.07 344.501 1025.5 344.598 1024.87 344.598Z" fill="white"/>
  <path d="M558.865 396.878L522.885 448.261C520.448 452.259 523.326 457.383 528.008 457.383H664.191C666.284 457.383 668.226 456.292 669.315 454.505L705.295 403.122C707.732 399.124 704.854 394 700.172 394H563.989C561.896 394 559.954 395.091 558.865 396.878Z" stroke="#B3B3B3" stroke-width="4" stroke-miterlimit="0" stroke-linecap="round"/>
  <path d="M588.133 432V420.364H589.832V424.688H589.934C590.032 424.506 590.175 424.295 590.36 424.057C590.546 423.818 590.803 423.61 591.133 423.432C591.462 423.25 591.898 423.159 592.44 423.159C593.144 423.159 593.773 423.337 594.326 423.693C594.879 424.049 595.313 424.562 595.627 425.233C595.945 425.903 596.104 426.71 596.104 427.653C596.104 428.597 595.947 429.405 595.633 430.08C595.318 430.75 594.887 431.267 594.337 431.631C593.788 431.991 593.161 432.17 592.457 432.17C591.926 432.17 591.493 432.081 591.156 431.903C590.822 431.725 590.561 431.517 590.372 431.278C590.182 431.04 590.036 430.828 589.934 430.642H589.792V432H588.133ZM589.798 427.636C589.798 428.25 589.887 428.788 590.065 429.25C590.243 429.712 590.5 430.074 590.837 430.335C591.175 430.593 591.587 430.722 592.076 430.722C592.584 430.722 593.008 430.587 593.349 430.318C593.69 430.045 593.947 429.676 594.122 429.21C594.3 428.744 594.389 428.22 594.389 427.636C594.389 427.061 594.301 426.544 594.127 426.085C593.957 425.627 593.699 425.265 593.354 425C593.014 424.735 592.587 424.602 592.076 424.602C591.584 424.602 591.167 424.729 590.826 424.983C590.489 425.237 590.233 425.591 590.059 426.045C589.885 426.5 589.798 427.03 589.798 427.636ZM597.836 432V423.273H599.535V432H597.836ZM598.694 421.926C598.399 421.926 598.145 421.828 597.933 421.631C597.724 421.43 597.62 421.191 597.62 420.915C597.62 420.634 597.724 420.396 597.933 420.199C598.145 419.998 598.399 419.898 598.694 419.898C598.99 419.898 599.241 419.998 599.45 420.199C599.662 420.396 599.768 420.634 599.768 420.915C599.768 421.191 599.662 421.43 599.45 421.631C599.241 421.828 598.99 421.926 598.694 421.926ZM603.343 426.818V432H601.645V423.273H603.275V424.693H603.383C603.584 424.231 603.898 423.86 604.326 423.58C604.758 423.299 605.302 423.159 605.957 423.159C606.552 423.159 607.073 423.284 607.52 423.534C607.966 423.78 608.313 424.148 608.559 424.636C608.805 425.125 608.929 425.729 608.929 426.449V432H607.23V426.653C607.23 426.021 607.065 425.527 606.735 425.17C606.406 424.811 605.953 424.631 605.377 424.631C604.984 424.631 604.633 424.716 604.326 424.886C604.023 425.057 603.783 425.307 603.605 425.636C603.43 425.962 603.343 426.356 603.343 426.818ZM613.241 430.409L613.156 431.028C613.099 431.483 613.003 431.956 612.866 432.449C612.734 432.945 612.595 433.405 612.451 433.83C612.311 434.254 612.196 434.591 612.105 434.841H610.9C610.95 434.606 611.018 434.288 611.105 433.886C611.192 433.489 611.277 433.044 611.361 432.551C611.444 432.059 611.506 431.557 611.548 431.045L611.605 430.409H613.241ZM625.875 425.403L624.335 425.676C624.271 425.479 624.169 425.292 624.028 425.114C623.892 424.936 623.706 424.79 623.472 424.676C623.237 424.562 622.943 424.506 622.591 424.506C622.11 424.506 621.708 424.614 621.386 424.83C621.064 425.042 620.903 425.316 620.903 425.653C620.903 425.945 621.011 426.18 621.227 426.358C621.443 426.536 621.792 426.682 622.273 426.795L623.659 427.114C624.462 427.299 625.061 427.585 625.455 427.972C625.849 428.358 626.045 428.86 626.045 429.477C626.045 430 625.894 430.466 625.591 430.875C625.292 431.28 624.873 431.598 624.335 431.83C623.801 432.061 623.182 432.176 622.477 432.176C621.5 432.176 620.703 431.968 620.085 431.551C619.468 431.131 619.089 430.534 618.949 429.761L620.591 429.511C620.693 429.939 620.903 430.263 621.222 430.483C621.54 430.699 621.955 430.807 622.466 430.807C623.023 430.807 623.468 430.691 623.801 430.46C624.135 430.225 624.301 429.939 624.301 429.602C624.301 429.33 624.199 429.1 623.994 428.915C623.794 428.729 623.485 428.589 623.068 428.494L621.591 428.17C620.777 427.985 620.174 427.689 619.784 427.284C619.398 426.879 619.205 426.366 619.205 425.744C619.205 425.229 619.349 424.778 619.636 424.392C619.924 424.006 620.322 423.705 620.83 423.489C621.337 423.269 621.919 423.159 622.574 423.159C623.517 423.159 624.26 423.364 624.801 423.773C625.343 424.178 625.701 424.722 625.875 425.403ZM627.737 432V423.273H629.379V424.659H629.47C629.629 424.189 629.91 423.82 630.311 423.551C630.717 423.278 631.175 423.142 631.686 423.142C631.792 423.142 631.917 423.146 632.061 423.153C632.209 423.161 632.325 423.17 632.408 423.182V424.807C632.34 424.788 632.218 424.767 632.044 424.744C631.87 424.718 631.696 424.705 631.521 424.705C631.12 424.705 630.762 424.79 630.448 424.96C630.137 425.127 629.891 425.36 629.709 425.659C629.527 425.955 629.436 426.292 629.436 426.67V432H627.737ZM637.066 432.176C636.221 432.176 635.494 431.985 634.884 431.602C634.278 431.216 633.812 430.684 633.486 430.006C633.16 429.328 632.997 428.551 632.997 427.676C632.997 426.79 633.164 426.008 633.497 425.33C633.831 424.648 634.3 424.116 634.907 423.733C635.513 423.35 636.227 423.159 637.049 423.159C637.711 423.159 638.302 423.282 638.821 423.528C639.34 423.771 639.759 424.112 640.077 424.551C640.399 424.991 640.59 425.504 640.651 426.091H638.997C638.907 425.682 638.698 425.33 638.372 425.034C638.05 424.739 637.619 424.591 637.077 424.591C636.604 424.591 636.189 424.716 635.833 424.966C635.48 425.212 635.206 425.564 635.009 426.023C634.812 426.477 634.713 427.015 634.713 427.636C634.713 428.273 634.81 428.822 635.003 429.284C635.196 429.746 635.469 430.104 635.821 430.358C636.177 430.612 636.596 430.739 637.077 430.739C637.399 430.739 637.691 430.68 637.952 430.562C638.217 430.441 638.439 430.269 638.617 430.045C638.799 429.822 638.925 429.553 638.997 429.239H640.651C640.59 429.803 640.407 430.307 640.1 430.75C639.793 431.193 639.382 431.542 638.867 431.795C638.355 432.049 637.755 432.176 637.066 432.176Z" fill="white"/>
  <path d="M615.59 304.383C615.59 303.554 614.918 302.883 614.09 302.883C613.262 302.883 612.59 303.554 612.59 304.383H615.59ZM612.59 321.686C612.59 322.514 613.262 323.186 614.09 323.186C614.918 323.186 615.59 322.514 615.59 321.686H612.59ZM615.59 361.686C615.59 360.858 614.918 360.186 614.09 360.186C613.262 360.186 612.59 360.858 612.59 361.686H615.59ZM607.43 379C606.601 379 606.015 380.015 606.43 380.732L613.09 392.268C613.504 392.985 614.676 392.985 615.09 392.268L621.75 380.732C622.164 380.015 621.579 379 620.75 379H607.43ZM612.59 304.383V321.686H615.59V304.383H612.59ZM612.59 361.686V380.5H615.59V361.686H612.59Z" fill="#B3B3B3"/>
  <path d="M595.268 336.05H597.029V343.703C597.029 344.517 596.838 345.239 596.455 345.868C596.073 346.493 595.535 346.985 594.842 347.345C594.149 347.701 593.336 347.879 592.404 347.879C591.476 347.879 590.666 347.701 589.972 347.345C589.279 346.985 588.741 346.493 588.359 345.868C587.976 345.239 587.785 344.517 587.785 343.703V336.05H589.541V343.561C589.541 344.088 589.656 344.555 589.887 344.964C590.122 345.374 590.453 345.696 590.882 345.93C591.31 346.161 591.817 346.277 592.404 346.277C592.995 346.277 593.505 346.161 593.933 345.93C594.364 345.696 594.694 345.374 594.921 344.964C595.152 344.555 595.268 344.088 595.268 343.561V336.05ZM599.269 350.959V338.959H600.929V340.374H601.071C601.169 340.192 601.311 339.981 601.497 339.743C601.682 339.504 601.94 339.296 602.269 339.118C602.599 338.936 603.035 338.845 603.576 338.845C604.281 338.845 604.91 339.023 605.463 339.379C606.016 339.735 606.449 340.249 606.764 340.919C607.082 341.589 607.241 342.396 607.241 343.339C607.241 344.283 607.084 345.091 606.769 345.766C606.455 346.436 606.023 346.953 605.474 347.317C604.925 347.677 604.298 347.856 603.593 347.856C603.063 347.856 602.629 347.767 602.292 347.589C601.959 347.411 601.697 347.203 601.508 346.964C601.319 346.726 601.173 346.514 601.071 346.328H600.968V350.959H599.269ZM600.934 343.322C600.934 343.936 601.023 344.474 601.201 344.936C601.379 345.398 601.637 345.76 601.974 346.021C602.311 346.279 602.724 346.408 603.213 346.408C603.72 346.408 604.144 346.273 604.485 346.004C604.826 345.731 605.084 345.362 605.258 344.896C605.436 344.43 605.525 343.906 605.525 343.322C605.525 342.747 605.438 342.23 605.264 341.771C605.093 341.313 604.836 340.951 604.491 340.686C604.15 340.421 603.724 340.288 603.213 340.288C602.72 340.288 602.304 340.415 601.963 340.669C601.626 340.923 601.37 341.277 601.196 341.731C601.021 342.186 600.934 342.716 600.934 343.322ZM612.235 347.856C611.531 347.856 610.902 347.677 610.349 347.317C609.8 346.953 609.368 346.436 609.054 345.766C608.743 345.091 608.588 344.283 608.588 343.339C608.588 342.396 608.745 341.589 609.059 340.919C609.378 340.249 609.813 339.735 610.366 339.379C610.919 339.023 611.546 338.845 612.247 338.845C612.789 338.845 613.224 338.936 613.554 339.118C613.887 339.296 614.145 339.504 614.326 339.743C614.512 339.981 614.656 340.192 614.758 340.374H614.86V336.05H616.559V347.686H614.9V346.328H614.758C614.656 346.514 614.508 346.726 614.315 346.964C614.126 347.203 613.864 347.411 613.531 347.589C613.198 347.767 612.766 347.856 612.235 347.856ZM612.61 346.408C613.099 346.408 613.512 346.279 613.849 346.021C614.19 345.76 614.448 345.398 614.622 344.936C614.8 344.474 614.889 343.936 614.889 343.322C614.889 342.716 614.802 342.186 614.628 341.731C614.453 341.277 614.198 340.923 613.86 340.669C613.523 340.415 613.107 340.288 612.61 340.288C612.099 340.288 611.673 340.421 611.332 340.686C610.991 340.951 610.734 341.313 610.559 341.771C610.389 342.23 610.304 342.747 610.304 343.322C610.304 343.906 610.391 344.43 610.565 344.896C610.739 345.362 610.997 345.731 611.338 346.004C611.682 346.273 612.107 346.408 612.61 346.408ZM621.348 347.879C620.795 347.879 620.295 347.777 619.848 347.572C619.401 347.364 619.047 347.063 618.785 346.669C618.528 346.275 618.399 345.792 618.399 345.22C618.399 344.728 618.494 344.322 618.683 344.004C618.872 343.686 619.128 343.434 619.45 343.249C619.772 343.063 620.132 342.923 620.53 342.828C620.927 342.733 621.333 342.661 621.746 342.612C622.268 342.552 622.693 342.502 623.018 342.464C623.344 342.423 623.581 342.356 623.729 342.266C623.876 342.175 623.95 342.027 623.95 341.822V341.783C623.95 341.286 623.81 340.902 623.53 340.629C623.253 340.356 622.84 340.22 622.291 340.22C621.719 340.22 621.268 340.347 620.939 340.601C620.613 340.851 620.388 341.129 620.263 341.436L618.666 341.072C618.855 340.542 619.132 340.114 619.496 339.788C619.863 339.459 620.285 339.22 620.763 339.072C621.24 338.921 621.742 338.845 622.268 338.845C622.617 338.845 622.986 338.887 623.376 338.97C623.77 339.05 624.138 339.197 624.479 339.413C624.823 339.629 625.105 339.938 625.325 340.339C625.545 340.737 625.655 341.254 625.655 341.891V347.686H623.996V346.493H623.927C623.818 346.713 623.653 346.928 623.433 347.141C623.213 347.353 622.931 347.529 622.586 347.669C622.242 347.809 621.829 347.879 621.348 347.879ZM621.717 346.516C622.187 346.516 622.588 346.423 622.922 346.237C623.259 346.052 623.515 345.809 623.689 345.51C623.867 345.207 623.956 344.883 623.956 344.538V343.413C623.895 343.474 623.778 343.531 623.604 343.584C623.433 343.633 623.238 343.677 623.018 343.714C622.799 343.749 622.585 343.781 622.376 343.811C622.168 343.838 621.994 343.86 621.854 343.879C621.524 343.921 621.223 343.991 620.95 344.089C620.681 344.188 620.465 344.33 620.302 344.516C620.143 344.697 620.064 344.94 620.064 345.243C620.064 345.663 620.219 345.981 620.53 346.197C620.84 346.41 621.236 346.516 621.717 346.516ZM631.815 338.959V340.322H627.048V338.959H631.815ZM628.327 336.868H630.026V345.124C630.026 345.453 630.075 345.701 630.173 345.868C630.272 346.031 630.399 346.142 630.554 346.203C630.713 346.26 630.885 346.288 631.071 346.288C631.207 346.288 631.327 346.279 631.429 346.26C631.531 346.241 631.611 346.226 631.668 346.214L631.974 347.618C631.876 347.656 631.736 347.694 631.554 347.731C631.372 347.773 631.145 347.796 630.872 347.8C630.425 347.807 630.008 347.728 629.622 347.561C629.236 347.394 628.923 347.137 628.685 346.788C628.446 346.44 628.327 346.002 628.327 345.476V336.868ZM637.186 347.862C636.326 347.862 635.586 347.678 634.965 347.311C634.347 346.94 633.87 346.419 633.533 345.749C633.199 345.074 633.033 344.285 633.033 343.379C633.033 342.485 633.199 341.697 633.533 341.016C633.87 340.334 634.34 339.802 634.942 339.419C635.548 339.036 636.256 338.845 637.067 338.845C637.559 338.845 638.037 338.927 638.499 339.089C638.961 339.252 639.376 339.508 639.743 339.856C640.11 340.205 640.4 340.658 640.612 341.214C640.824 341.767 640.931 342.44 640.931 343.231V343.834H633.993V342.561H639.266C639.266 342.114 639.175 341.718 638.993 341.374C638.811 341.025 638.556 340.75 638.226 340.55C637.9 340.349 637.518 340.249 637.078 340.249C636.601 340.249 636.184 340.366 635.828 340.601C635.476 340.832 635.203 341.135 635.01 341.51C634.821 341.881 634.726 342.285 634.726 342.72V343.714C634.726 344.298 634.828 344.794 635.033 345.203C635.241 345.612 635.531 345.925 635.902 346.141C636.273 346.353 636.707 346.459 637.203 346.459C637.525 346.459 637.819 346.413 638.084 346.322C638.349 346.228 638.578 346.088 638.771 345.902C638.965 345.716 639.112 345.487 639.215 345.214L640.823 345.504C640.694 345.978 640.463 346.392 640.129 346.749C639.8 347.101 639.385 347.375 638.885 347.572C638.389 347.766 637.823 347.862 637.186 347.862Z" fill="white"/>
  <path d="M903 427.191C903.828 427.191 904.5 426.52 904.5 425.691C904.5 424.863 903.828 424.191 903 424.191V427.191ZM834.144 424.191C833.316 424.191 832.644 424.863 832.644 425.691C832.644 426.52 833.316 427.191 834.144 427.191V424.191ZM788.144 427.191C788.973 427.191 789.644 426.52 789.644 425.691C789.644 424.863 788.973 424.191 788.144 424.191V427.191ZM705.871 419.031C705.871 418.203 704.856 417.617 704.139 418.031L692.603 424.691C691.885 425.106 691.885 426.277 692.603 426.691L704.139 433.352C704.856 433.766 705.871 433.18 705.871 432.352V419.031ZM903 424.191H834.144V427.191H903V424.191ZM788.144 424.191H704.371V427.191H788.144V424.191Z" fill="#B3B3B3"/>
  <path d="M805.199 420.055H806.96V427.708C806.96 428.523 806.769 429.244 806.386 429.873C806.004 430.498 805.466 430.991 804.773 431.35C804.079 431.707 803.267 431.885 802.335 431.885C801.407 431.885 800.596 431.707 799.903 431.35C799.21 430.991 798.672 430.498 798.29 429.873C797.907 429.244 797.716 428.523 797.716 427.708V420.055H799.471V427.566C799.471 428.093 799.587 428.561 799.818 428.97C800.053 429.379 800.384 429.701 800.812 429.936C801.24 430.167 801.748 430.282 802.335 430.282C802.926 430.282 803.435 430.167 803.863 429.936C804.295 429.701 804.625 429.379 804.852 428.97C805.083 428.561 805.199 428.093 805.199 427.566V420.055ZM815.74 425.095L814.2 425.368C814.136 425.171 814.034 424.983 813.893 424.805C813.757 424.627 813.571 424.481 813.337 424.368C813.102 424.254 812.808 424.197 812.456 424.197C811.975 424.197 811.573 424.305 811.251 424.521C810.929 424.733 810.768 425.008 810.768 425.345C810.768 425.636 810.876 425.871 811.092 426.049C811.308 426.227 811.657 426.373 812.138 426.487L813.524 426.805C814.327 426.991 814.926 427.277 815.32 427.663C815.713 428.049 815.91 428.551 815.91 429.169C815.91 429.691 815.759 430.157 815.456 430.566C815.157 430.972 814.738 431.29 814.2 431.521C813.666 431.752 813.047 431.868 812.342 431.868C811.365 431.868 810.568 431.659 809.95 431.243C809.333 430.822 808.954 430.225 808.814 429.453L810.456 429.203C810.558 429.631 810.768 429.955 811.087 430.174C811.405 430.39 811.82 430.498 812.331 430.498C812.888 430.498 813.333 430.383 813.666 430.152C813.999 429.917 814.166 429.631 814.166 429.294C814.166 429.021 814.064 428.792 813.859 428.606C813.659 428.421 813.35 428.28 812.933 428.186L811.456 427.862C810.641 427.676 810.039 427.381 809.649 426.975C809.263 426.57 809.07 426.057 809.07 425.436C809.07 424.921 809.213 424.47 809.501 424.083C809.789 423.697 810.187 423.396 810.695 423.18C811.202 422.96 811.784 422.85 812.439 422.85C813.382 422.85 814.124 423.055 814.666 423.464C815.208 423.869 815.566 424.413 815.74 425.095ZM821.364 431.868C820.504 431.868 819.763 431.684 819.142 431.316C818.525 430.945 818.047 430.424 817.71 429.754C817.377 429.08 817.21 428.29 817.21 427.385C817.21 426.491 817.377 425.703 817.71 425.021C818.047 424.339 818.517 423.807 819.119 423.424C819.725 423.042 820.434 422.85 821.244 422.85C821.737 422.85 822.214 422.932 822.676 423.095C823.138 423.258 823.553 423.513 823.921 423.862C824.288 424.21 824.578 424.663 824.79 425.22C825.002 425.773 825.108 426.445 825.108 427.237V427.839H818.171V426.566H823.443C823.443 426.119 823.352 425.724 823.171 425.379C822.989 425.03 822.733 424.756 822.403 424.555C822.078 424.354 821.695 424.254 821.256 424.254C820.778 424.254 820.362 424.371 820.006 424.606C819.653 424.837 819.381 425.14 819.188 425.515C818.998 425.886 818.903 426.29 818.903 426.725V427.72C818.903 428.303 819.006 428.799 819.21 429.208C819.419 429.618 819.708 429.93 820.08 430.146C820.451 430.358 820.885 430.464 821.381 430.464C821.703 430.464 821.996 430.419 822.261 430.328C822.527 430.233 822.756 430.093 822.949 429.907C823.142 429.722 823.29 429.493 823.392 429.22L825 429.51C824.871 429.983 824.64 430.398 824.307 430.754C823.977 431.106 823.563 431.381 823.063 431.578C822.566 431.771 822 431.868 821.364 431.868Z" fill="white"/>
  <path d="M558.75 44.871L522.889 95.871C520.445 99.8691 523.323 105 528.008 105H663.77C665.86 105 667.799 103.912 668.889 102.129L704.751 51.129C707.195 47.1309 704.317 42 699.631 42H563.87C561.78 42 559.84 43.0876 558.75 44.871Z" stroke="#B3B3B3" stroke-width="4" stroke-miterlimit="0" stroke-linecap="round"/>
  <path d="M582.464 68.3635H584.595L588.3 77.409H588.436L592.14 68.3635H594.271V79.9999H592.601V71.5794H592.493L589.061 79.9829H587.675L584.243 71.5738H584.135V79.9999H582.464V68.3635ZM599.051 80.1931C598.498 80.1931 597.998 80.0908 597.551 79.8863C597.104 79.6779 596.75 79.3768 596.489 78.9829C596.231 78.5889 596.102 78.106 596.102 77.534C596.102 77.0416 596.197 76.6363 596.386 76.3181C596.576 75.9999 596.831 75.748 597.153 75.5624C597.475 75.3768 597.835 75.2366 598.233 75.1419C598.631 75.0472 599.036 74.9753 599.449 74.926C599.972 74.8654 600.396 74.8162 600.722 74.7783C601.047 74.7366 601.284 74.6704 601.432 74.5794C601.58 74.4885 601.653 74.3408 601.653 74.1363V74.0965C601.653 73.6003 601.513 73.2158 601.233 72.9431C600.956 72.6704 600.544 72.534 599.994 72.534C599.422 72.534 598.972 72.6609 598.642 72.9147C598.316 73.1647 598.091 73.4431 597.966 73.7499L596.369 73.3863C596.559 72.856 596.835 72.4279 597.199 72.1022C597.566 71.7726 597.989 71.534 598.466 71.3863C598.943 71.2347 599.445 71.159 599.972 71.159C600.32 71.159 600.689 71.2007 601.08 71.284C601.473 71.3635 601.841 71.5113 602.182 71.7272C602.527 71.9431 602.809 72.2518 603.028 72.6533C603.248 73.051 603.358 73.5681 603.358 74.2044V79.9999H601.699V78.8067H601.631C601.521 79.0264 601.356 79.2423 601.136 79.4544C600.917 79.6666 600.634 79.8427 600.29 79.9829C599.945 80.123 599.532 80.1931 599.051 80.1931ZM599.42 78.8294C599.89 78.8294 600.292 78.7366 600.625 78.551C600.962 78.3654 601.218 78.123 601.392 77.8238C601.57 77.5207 601.659 77.1969 601.659 76.8522V75.7272C601.598 75.7878 601.481 75.8446 601.307 75.8976C601.136 75.9469 600.941 75.9904 600.722 76.0283C600.502 76.0624 600.288 76.0946 600.08 76.1249C599.871 76.1514 599.697 76.1741 599.557 76.1931C599.227 76.2347 598.926 76.3048 598.653 76.4033C598.384 76.5018 598.169 76.6438 598.006 76.8294C597.847 77.0113 597.767 77.2537 597.767 77.5567C597.767 77.9772 597.922 78.2954 598.233 78.5113C598.544 78.7234 598.939 78.8294 599.42 78.8294ZM607.144 74.8181V79.9999H605.445V71.2726H607.075V72.6931H607.183C607.384 72.231 607.699 71.8597 608.127 71.5794C608.558 71.2991 609.102 71.159 609.757 71.159C610.352 71.159 610.873 71.284 611.32 71.534C611.767 71.7802 612.113 72.1476 612.359 72.6363C612.606 73.1249 612.729 73.7291 612.729 74.4488V79.9999H611.03V74.6533C611.03 74.0207 610.865 73.5264 610.536 73.1704C610.206 72.8105 609.753 72.6306 609.178 72.6306C608.784 72.6306 608.433 72.7158 608.127 72.8863C607.824 73.0567 607.583 73.3067 607.405 73.6363C607.231 73.962 607.144 74.356 607.144 74.8181ZM614.831 79.9999V71.2726H616.53V79.9999H614.831ZM615.689 69.926C615.394 69.926 615.14 69.8276 614.928 69.6306C614.719 69.4298 614.615 69.1912 614.615 68.9147C614.615 68.6344 614.719 68.3957 614.928 68.1988C615.14 67.998 615.394 67.8976 615.689 67.8976C615.985 67.8976 616.237 67.998 616.445 68.1988C616.657 68.3957 616.763 68.6344 616.763 68.9147C616.763 69.1912 616.657 69.4298 616.445 69.6306C616.237 69.8276 615.985 69.926 615.689 69.926ZM622.793 71.2726V72.6363H617.861V71.2726H622.793ZM619.213 79.9999V70.2613C619.213 69.7158 619.333 69.2632 619.571 68.9033C619.81 68.5397 620.126 68.2688 620.52 68.0908C620.914 67.909 621.342 67.8181 621.804 67.8181C622.145 67.8181 622.437 67.8465 622.679 67.9033C622.922 67.9563 623.102 68.0056 623.219 68.051L622.821 69.426C622.742 69.4033 622.64 69.3768 622.515 69.3465C622.39 69.3124 622.238 69.2954 622.06 69.2954C621.647 69.2954 621.352 69.3976 621.174 69.6022C620.999 69.8067 620.912 70.1022 620.912 70.4885V79.9999H619.213ZM627.787 80.176C626.928 80.176 626.187 79.9923 625.566 79.6249C624.948 79.2537 624.471 78.7329 624.134 78.0624C623.801 77.3882 623.634 76.5984 623.634 75.6931C623.634 74.7991 623.801 74.0113 624.134 73.3294C624.471 72.6476 624.941 72.1154 625.543 71.7329C626.149 71.3503 626.858 71.159 627.668 71.159C628.161 71.159 628.638 71.2404 629.1 71.4033C629.562 71.5662 629.977 71.8219 630.344 72.1704C630.712 72.5188 631.001 72.9715 631.214 73.5283C631.426 74.0813 631.532 74.7537 631.532 75.5454V76.1476H624.594V74.8749H629.867C629.867 74.4279 629.776 74.0321 629.594 73.6874C629.412 73.3389 629.157 73.0643 628.827 72.8635C628.501 72.6628 628.119 72.5624 627.68 72.5624C627.202 72.5624 626.786 72.6798 626.43 72.9147C626.077 73.1457 625.805 73.4488 625.611 73.8238C625.422 74.195 625.327 74.5984 625.327 75.034V76.0283C625.327 76.6116 625.43 77.1079 625.634 77.5169C625.842 77.926 626.132 78.2385 626.503 78.4544C626.875 78.6666 627.308 78.7726 627.805 78.7726C628.126 78.7726 628.42 78.7272 628.685 78.6363C628.95 78.5416 629.18 78.4014 629.373 78.2158C629.566 78.0302 629.714 77.801 629.816 77.5283L631.424 77.8181C631.295 78.2916 631.064 78.7063 630.731 79.0624C630.401 79.4147 629.986 79.6893 629.486 79.8863C628.99 80.0794 628.424 80.176 627.787 80.176ZM639.78 73.4033L638.241 73.676C638.176 73.4791 638.074 73.2916 637.934 73.1135C637.798 72.9355 637.612 72.7897 637.377 72.676C637.142 72.5624 636.849 72.5056 636.496 72.5056C636.015 72.5056 635.614 72.6135 635.292 72.8294C634.97 73.0416 634.809 73.3162 634.809 73.6533C634.809 73.945 634.917 74.1798 635.133 74.3579C635.349 74.5359 635.697 74.6817 636.178 74.7954L637.565 75.1135C638.368 75.2991 638.966 75.5851 639.36 75.9715C639.754 76.3579 639.951 76.8597 639.951 77.4772C639.951 77.9999 639.799 78.4658 639.496 78.8749C639.197 79.2802 638.779 79.5984 638.241 79.8294C637.707 80.0605 637.087 80.176 636.383 80.176C635.405 80.176 634.608 79.9677 633.991 79.551C633.373 79.1306 632.995 78.534 632.854 77.7613L634.496 77.5113C634.599 77.9393 634.809 78.2632 635.127 78.4829C635.445 78.6988 635.86 78.8067 636.371 78.8067C636.928 78.8067 637.373 78.6912 637.707 78.4601C638.04 78.2253 638.207 77.9393 638.207 77.6022C638.207 77.3294 638.104 77.1003 637.9 76.9147C637.699 76.7291 637.39 76.5889 636.974 76.4942L635.496 76.1704C634.682 75.9847 634.08 75.6893 633.69 75.284C633.303 74.8787 633.11 74.3654 633.11 73.7442C633.11 73.2291 633.254 72.7783 633.542 72.3919C633.83 72.0056 634.227 71.7044 634.735 71.4885C635.243 71.2688 635.824 71.159 636.479 71.159C637.423 71.159 638.165 71.3635 638.707 71.7726C639.248 72.1779 639.606 72.7215 639.78 73.4033ZM645.717 71.2726V72.6363H640.95V71.2726H645.717ZM642.228 69.1817H643.927V77.4374C643.927 77.7669 643.976 78.0151 644.075 78.1817C644.173 78.3446 644.3 78.4563 644.455 78.5169C644.614 78.5738 644.787 78.6022 644.972 78.6022C645.109 78.6022 645.228 78.5927 645.33 78.5738C645.433 78.5548 645.512 78.5397 645.569 78.5283L645.876 79.9317C645.777 79.9696 645.637 80.0075 645.455 80.0454C645.274 80.087 645.046 80.1097 644.774 80.1135C644.327 80.1211 643.91 80.0416 643.524 79.8749C643.137 79.7082 642.825 79.4507 642.586 79.1022C642.347 78.7537 642.228 78.3162 642.228 77.7897V69.1817Z" fill="white"/>
  <path d="M190.75 239.871L154.889 290.871C152.445 294.869 155.323 300 160.008 300H295.77C297.86 300 299.799 298.912 300.889 297.129L336.751 246.129C339.195 242.131 336.317 237 331.631 237H195.87C193.78 237 191.84 238.088 190.75 239.871Z" stroke="#B3B3B3" stroke-width="4" stroke-miterlimit="0" stroke-linecap="round"/>
  <path d="M206.57 275V263.364H210.718C211.619 263.364 212.367 263.519 212.962 263.83C213.561 264.14 214.008 264.57 214.303 265.119C214.598 265.665 214.746 266.295 214.746 267.011C214.746 267.723 214.597 268.35 214.297 268.892C214.002 269.43 213.555 269.848 212.956 270.148C212.362 270.447 211.614 270.597 210.712 270.597H207.57V269.085H210.553C211.121 269.085 211.583 269.004 211.939 268.841C212.299 268.678 212.562 268.441 212.729 268.131C212.896 267.82 212.979 267.447 212.979 267.011C212.979 266.572 212.894 266.191 212.723 265.869C212.557 265.547 212.294 265.301 211.934 265.131C211.578 264.956 211.11 264.869 210.53 264.869H208.326V275H206.57ZM212.314 269.75L215.189 275H213.189L210.371 269.75H212.314ZM220.222 275.176C219.362 275.176 218.622 274.992 218.001 274.625C217.383 274.254 216.906 273.733 216.569 273.062C216.235 272.388 216.069 271.598 216.069 270.693C216.069 269.799 216.235 269.011 216.569 268.33C216.906 267.648 217.376 267.116 217.978 266.733C218.584 266.35 219.292 266.159 220.103 266.159C220.595 266.159 221.073 266.241 221.535 266.403C221.997 266.566 222.412 266.822 222.779 267.17C223.146 267.519 223.436 267.972 223.648 268.528C223.86 269.081 223.966 269.754 223.966 270.545V271.148H217.029V269.875H222.302C222.302 269.428 222.211 269.032 222.029 268.688C221.847 268.339 221.591 268.064 221.262 267.864C220.936 267.663 220.554 267.562 220.114 267.562C219.637 267.562 219.22 267.68 218.864 267.915C218.512 268.146 218.239 268.449 218.046 268.824C217.857 269.195 217.762 269.598 217.762 270.034V271.028C217.762 271.612 217.864 272.108 218.069 272.517C218.277 272.926 218.567 273.239 218.938 273.455C219.309 273.667 219.743 273.773 220.239 273.773C220.561 273.773 220.855 273.727 221.12 273.636C221.385 273.542 221.614 273.402 221.807 273.216C222.001 273.03 222.148 272.801 222.251 272.528L223.859 272.818C223.73 273.292 223.499 273.706 223.165 274.062C222.836 274.415 222.421 274.689 221.921 274.886C221.425 275.08 220.859 275.176 220.222 275.176ZM225.675 278.273V266.273H227.335V267.688H227.477C227.575 267.506 227.717 267.295 227.903 267.057C228.088 266.818 228.346 266.61 228.675 266.432C229.005 266.25 229.441 266.159 229.982 266.159C230.687 266.159 231.316 266.337 231.869 266.693C232.422 267.049 232.855 267.562 233.17 268.233C233.488 268.903 233.647 269.71 233.647 270.653C233.647 271.597 233.49 272.405 233.175 273.08C232.861 273.75 232.429 274.267 231.88 274.631C231.331 274.991 230.704 275.17 229.999 275.17C229.469 275.17 229.035 275.081 228.698 274.903C228.365 274.725 228.103 274.517 227.914 274.278C227.725 274.04 227.579 273.828 227.477 273.642H227.374V278.273H225.675ZM227.34 270.636C227.34 271.25 227.429 271.788 227.607 272.25C227.785 272.712 228.043 273.074 228.38 273.335C228.717 273.593 229.13 273.722 229.619 273.722C230.126 273.722 230.55 273.587 230.891 273.318C231.232 273.045 231.49 272.676 231.664 272.21C231.842 271.744 231.931 271.22 231.931 270.636C231.931 270.061 231.844 269.544 231.67 269.085C231.499 268.627 231.242 268.265 230.897 268C230.556 267.735 230.13 267.602 229.619 267.602C229.126 267.602 228.71 267.729 228.369 267.983C228.031 268.237 227.776 268.591 227.602 269.045C227.427 269.5 227.34 270.03 227.34 270.636ZM239.051 275.176C238.232 275.176 237.518 274.989 236.909 274.614C236.299 274.239 235.825 273.714 235.488 273.04C235.151 272.366 234.982 271.578 234.982 270.676C234.982 269.771 235.151 268.979 235.488 268.301C235.825 267.623 236.299 267.097 236.909 266.722C237.518 266.347 238.232 266.159 239.051 266.159C239.869 266.159 240.583 266.347 241.193 266.722C241.802 267.097 242.276 267.623 242.613 268.301C242.95 268.979 243.119 269.771 243.119 270.676C243.119 271.578 242.95 272.366 242.613 273.04C242.276 273.714 241.802 274.239 241.193 274.614C240.583 274.989 239.869 275.176 239.051 275.176ZM239.056 273.75C239.587 273.75 240.026 273.61 240.374 273.33C240.723 273.049 240.98 272.676 241.147 272.21C241.318 271.744 241.403 271.231 241.403 270.67C241.403 270.114 241.318 269.602 241.147 269.136C240.98 268.667 240.723 268.29 240.374 268.006C240.026 267.722 239.587 267.58 239.056 267.58C238.522 267.58 238.079 267.722 237.727 268.006C237.378 268.29 237.119 268.667 236.948 269.136C236.782 269.602 236.698 270.114 236.698 270.67C236.698 271.231 236.782 271.744 236.948 272.21C237.119 272.676 237.378 273.049 237.727 273.33C238.079 273.61 238.522 273.75 239.056 273.75ZM251.379 268.403L249.839 268.676C249.775 268.479 249.672 268.292 249.532 268.114C249.396 267.936 249.21 267.79 248.975 267.676C248.741 267.562 248.447 267.506 248.095 267.506C247.614 267.506 247.212 267.614 246.89 267.83C246.568 268.042 246.407 268.316 246.407 268.653C246.407 268.945 246.515 269.18 246.731 269.358C246.947 269.536 247.295 269.682 247.777 269.795L249.163 270.114C249.966 270.299 250.564 270.585 250.958 270.972C251.352 271.358 251.549 271.86 251.549 272.477C251.549 273 251.398 273.466 251.095 273.875C250.795 274.28 250.377 274.598 249.839 274.83C249.305 275.061 248.686 275.176 247.981 275.176C247.004 275.176 246.206 274.968 245.589 274.551C244.972 274.131 244.593 273.534 244.453 272.761L246.095 272.511C246.197 272.939 246.407 273.263 246.725 273.483C247.044 273.699 247.458 273.807 247.97 273.807C248.527 273.807 248.972 273.691 249.305 273.46C249.638 273.225 249.805 272.939 249.805 272.602C249.805 272.33 249.703 272.1 249.498 271.915C249.297 271.729 248.989 271.589 248.572 271.494L247.095 271.17C246.28 270.985 245.678 270.689 245.288 270.284C244.902 269.879 244.708 269.366 244.708 268.744C244.708 268.229 244.852 267.778 245.14 267.392C245.428 267.006 245.826 266.705 246.333 266.489C246.841 266.269 247.422 266.159 248.078 266.159C249.021 266.159 249.763 266.364 250.305 266.773C250.847 267.178 251.205 267.722 251.379 268.403ZM253.241 275V266.273H254.94V275H253.241ZM254.099 264.926C253.804 264.926 253.55 264.828 253.338 264.631C253.129 264.43 253.025 264.191 253.025 263.915C253.025 263.634 253.129 263.396 253.338 263.199C253.55 262.998 253.804 262.898 254.099 262.898C254.395 262.898 254.646 262.998 254.855 263.199C255.067 263.396 255.173 263.634 255.173 263.915C255.173 264.191 255.067 264.43 254.855 264.631C254.646 264.828 254.395 264.926 254.099 264.926ZM261.123 266.273V267.636H256.356V266.273H261.123ZM257.635 264.182H259.334V272.438C259.334 272.767 259.383 273.015 259.481 273.182C259.58 273.345 259.707 273.456 259.862 273.517C260.021 273.574 260.193 273.602 260.379 273.602C260.515 273.602 260.635 273.593 260.737 273.574C260.839 273.555 260.919 273.54 260.976 273.528L261.282 274.932C261.184 274.97 261.044 275.008 260.862 275.045C260.68 275.087 260.453 275.11 260.18 275.114C259.733 275.121 259.317 275.042 258.93 274.875C258.544 274.708 258.231 274.451 257.993 274.102C257.754 273.754 257.635 273.316 257.635 272.79V264.182ZM266.409 275.176C265.591 275.176 264.877 274.989 264.267 274.614C263.657 274.239 263.184 273.714 262.847 273.04C262.509 272.366 262.341 271.578 262.341 270.676C262.341 269.771 262.509 268.979 262.847 268.301C263.184 267.623 263.657 267.097 264.267 266.722C264.877 266.347 265.591 266.159 266.409 266.159C267.227 266.159 267.941 266.347 268.551 266.722C269.161 267.097 269.634 267.623 269.972 268.301C270.309 268.979 270.477 269.771 270.477 270.676C270.477 271.578 270.309 272.366 269.972 273.04C269.634 273.714 269.161 274.239 268.551 274.614C267.941 274.989 267.227 275.176 266.409 275.176ZM266.415 273.75C266.945 273.75 267.384 273.61 267.733 273.33C268.081 273.049 268.339 272.676 268.506 272.21C268.676 271.744 268.761 271.231 268.761 270.67C268.761 270.114 268.676 269.602 268.506 269.136C268.339 268.667 268.081 268.29 267.733 268.006C267.384 267.722 266.945 267.58 266.415 267.58C265.881 267.58 265.437 267.722 265.085 268.006C264.737 268.29 264.477 268.667 264.307 269.136C264.14 269.602 264.057 270.114 264.057 270.67C264.057 271.231 264.14 271.744 264.307 272.21C264.477 272.676 264.737 273.049 265.085 273.33C265.437 273.61 265.881 273.75 266.415 273.75ZM272.198 275V266.273H273.84V267.659H273.93C274.09 267.189 274.37 266.82 274.771 266.551C275.177 266.278 275.635 266.142 276.146 266.142C276.252 266.142 276.377 266.146 276.521 266.153C276.669 266.161 276.785 266.17 276.868 266.182V267.807C276.8 267.788 276.679 267.767 276.504 267.744C276.33 267.718 276.156 267.705 275.982 267.705C275.58 267.705 275.222 267.79 274.908 267.96C274.597 268.127 274.351 268.36 274.169 268.659C273.987 268.955 273.896 269.292 273.896 269.67V275H272.198ZM279.502 278.273C279.248 278.273 279.017 278.252 278.808 278.21C278.6 278.172 278.445 278.131 278.343 278.085L278.752 276.693C279.062 276.777 279.339 276.813 279.581 276.801C279.824 276.79 280.038 276.699 280.223 276.528C280.413 276.358 280.579 276.08 280.723 275.693L280.933 275.114L277.74 266.273H279.558L281.769 273.045H281.86L284.07 266.273H285.894L282.297 276.165C282.13 276.619 281.918 277.004 281.661 277.318C281.403 277.636 281.096 277.875 280.74 278.034C280.384 278.193 279.971 278.273 279.502 278.273Z" fill="white"/>
  <path d="M329.095 306.862L308.138 285.905C306.931 284.698 304.974 284.698 303.766 285.905L299.414 290.258L304.934 295.778C306.217 295.344 307.688 295.635 308.711 296.658C309.739 297.687 310.027 299.171 309.583 300.459L314.904 305.779C316.191 305.335 317.676 305.622 318.704 306.652C320.141 308.088 320.141 310.416 318.704 311.854C317.267 313.291 314.939 313.291 313.501 311.854C312.42 310.772 312.153 309.184 312.701 307.853L307.738 302.891V315.949C308.088 316.123 308.419 316.354 308.711 316.645C310.147 318.082 310.147 320.409 308.711 321.848C307.274 323.284 304.945 323.284 303.509 321.848C302.073 320.409 302.073 318.081 303.509 316.645C303.865 316.29 304.276 316.022 304.714 315.842V302.662C304.276 302.483 303.866 302.217 303.509 301.86C302.421 300.772 302.16 299.174 302.717 297.838L297.276 292.396L282.905 306.765C281.698 307.973 281.698 309.93 282.905 311.138L303.863 332.095C305.07 333.302 307.027 333.302 308.235 332.095L329.095 311.235C330.302 310.028 330.302 308.069 329.095 306.862Z" fill="#F05133"/>
  <path d="M518 270C518.828 270 519.5 269.328 519.5 268.5C519.5 267.672 518.828 267 518 267V270ZM453.694 267C452.865 267 452.194 267.672 452.194 268.5C452.194 269.328 452.865 270 453.694 270V267ZM386.694 270C387.522 270 388.194 269.328 388.194 268.5C388.194 267.672 387.522 267 386.694 267V270ZM337.387 261.84C337.387 261.011 336.373 260.426 335.655 260.84L324.119 267.5C323.402 267.914 323.402 269.086 324.119 269.5L335.655 276.16C336.373 276.574 337.387 275.989 337.387 275.16V261.84ZM518 267H453.694V270H518V267ZM386.694 267H335.887V270H386.694V267Z" fill="#B3B3B3"/>
  <path d="M396.422 274.5V262.864H400.57C401.475 262.864 402.225 263.028 402.82 263.358C403.414 263.687 403.859 264.138 404.155 264.71C404.45 265.278 404.598 265.919 404.598 266.631C404.598 267.347 404.448 267.991 404.149 268.562C403.854 269.131 403.407 269.581 402.808 269.915C402.214 270.244 401.465 270.409 400.564 270.409H397.712V268.92H400.405C400.977 268.92 401.441 268.822 401.797 268.625C402.153 268.424 402.414 268.152 402.581 267.807C402.748 267.462 402.831 267.07 402.831 266.631C402.831 266.191 402.748 265.801 402.581 265.46C402.414 265.119 402.151 264.852 401.791 264.659C401.435 264.466 400.965 264.369 400.382 264.369H398.178V274.5H396.422ZM409.911 274.676C409.093 274.676 408.379 274.489 407.769 274.114C407.159 273.739 406.685 273.214 406.348 272.54C406.011 271.866 405.843 271.078 405.843 270.176C405.843 269.271 406.011 268.479 406.348 267.801C406.685 267.123 407.159 266.597 407.769 266.222C408.379 265.847 409.093 265.659 409.911 265.659C410.729 265.659 411.443 265.847 412.053 266.222C412.663 266.597 413.136 267.123 413.473 267.801C413.81 268.479 413.979 269.271 413.979 270.176C413.979 271.078 413.81 271.866 413.473 272.54C413.136 273.214 412.663 273.739 412.053 274.114C411.443 274.489 410.729 274.676 409.911 274.676ZM409.916 273.25C410.447 273.25 410.886 273.11 411.235 272.83C411.583 272.549 411.841 272.176 412.007 271.71C412.178 271.244 412.263 270.731 412.263 270.17C412.263 269.614 412.178 269.102 412.007 268.636C411.841 268.167 411.583 267.79 411.235 267.506C410.886 267.222 410.447 267.08 409.916 267.08C409.382 267.08 408.939 267.222 408.587 267.506C408.238 267.79 407.979 268.167 407.808 268.636C407.642 269.102 407.558 269.614 407.558 270.17C407.558 270.731 407.642 271.244 407.808 271.71C407.979 272.176 408.238 272.549 408.587 272.83C408.939 273.11 409.382 273.25 409.916 273.25ZM417.398 262.864V274.5H415.699V262.864H417.398ZM421.206 262.864V274.5H419.508V262.864H421.206ZM423.316 274.5V265.773H425.015V274.5H423.316ZM424.174 264.426C423.878 264.426 423.625 264.328 423.413 264.131C423.204 263.93 423.1 263.691 423.1 263.415C423.1 263.134 423.204 262.896 423.413 262.699C423.625 262.498 423.878 262.398 424.174 262.398C424.469 262.398 424.721 262.498 424.93 262.699C425.142 262.896 425.248 263.134 425.248 263.415C425.248 263.691 425.142 263.93 424.93 264.131C424.721 264.328 424.469 264.426 424.174 264.426ZM428.823 269.318V274.5H427.124V265.773H428.755V267.193H428.863C429.064 266.731 429.378 266.36 429.806 266.08C430.238 265.799 430.782 265.659 431.437 265.659C432.032 265.659 432.552 265.784 432.999 266.034C433.446 266.28 433.793 266.648 434.039 267.136C434.285 267.625 434.408 268.229 434.408 268.949V274.5H432.71V269.153C432.71 268.521 432.545 268.027 432.215 267.67C431.886 267.311 431.433 267.131 430.857 267.131C430.463 267.131 430.113 267.216 429.806 267.386C429.503 267.557 429.263 267.807 429.085 268.136C428.91 268.462 428.823 268.856 428.823 269.318ZM440.17 277.955C439.477 277.955 438.88 277.864 438.38 277.682C437.884 277.5 437.479 277.259 437.164 276.96C436.85 276.661 436.615 276.333 436.46 275.977L437.92 275.375C438.022 275.542 438.159 275.718 438.329 275.903C438.503 276.093 438.738 276.254 439.034 276.386C439.333 276.519 439.717 276.585 440.187 276.585C440.831 276.585 441.363 276.428 441.784 276.114C442.204 275.803 442.414 275.307 442.414 274.625V272.909H442.306C442.204 273.095 442.056 273.301 441.863 273.528C441.674 273.756 441.412 273.953 441.079 274.119C440.746 274.286 440.312 274.369 439.778 274.369C439.088 274.369 438.467 274.208 437.914 273.886C437.365 273.561 436.929 273.081 436.607 272.449C436.289 271.812 436.13 271.03 436.13 270.102C436.13 269.174 436.287 268.379 436.602 267.716C436.92 267.053 437.356 266.545 437.909 266.193C438.462 265.837 439.088 265.659 439.789 265.659C440.331 265.659 440.768 265.75 441.102 265.932C441.435 266.11 441.695 266.318 441.88 266.557C442.07 266.795 442.215 267.006 442.318 267.188H442.443V265.773H444.107V274.693C444.107 275.443 443.933 276.059 443.585 276.54C443.236 277.021 442.765 277.377 442.17 277.608C441.579 277.839 440.912 277.955 440.17 277.955ZM440.153 272.96C440.642 272.96 441.054 272.847 441.392 272.619C441.732 272.388 441.99 272.059 442.164 271.631C442.342 271.199 442.431 270.682 442.431 270.08C442.431 269.492 442.344 268.975 442.17 268.528C441.996 268.081 441.74 267.733 441.403 267.483C441.066 267.229 440.649 267.102 440.153 267.102C439.642 267.102 439.215 267.235 438.874 267.5C438.534 267.761 438.276 268.117 438.102 268.568C437.931 269.019 437.846 269.523 437.846 270.08C437.846 270.652 437.933 271.153 438.107 271.585C438.282 272.017 438.539 272.354 438.88 272.597C439.225 272.839 439.649 272.96 440.153 272.96Z" fill="white"/>
  <path d="M607.43 218C606.601 218 606.015 219.015 606.43 219.732L613.09 231.268C613.504 231.985 614.676 231.985 615.09 231.268L621.75 219.732C622.164 219.015 621.579 218 620.75 218H607.43ZM615.59 167.714C615.59 166.886 614.918 166.214 614.09 166.214C613.261 166.214 612.59 166.886 612.59 167.714H615.59ZM612.59 127.714C612.59 128.542 613.261 129.214 614.09 129.214C614.918 129.214 615.59 128.542 615.59 127.714H612.59ZM615.59 106C615.59 105.172 614.918 104.5 614.09 104.5C613.261 104.5 612.59 105.172 612.59 106H615.59ZM615.59 219.5V167.714H612.59V219.5H615.59ZM615.59 127.714V106H612.59V127.714H615.59Z" fill="#B3B3B3"/>
  <path d="M597.867 142.078V153.714H596.111V142.078H597.867ZM601.81 148.532V153.714H600.111V144.987H601.742V146.407H601.85C602.05 145.945 602.365 145.574 602.793 145.294C603.225 145.013 603.768 144.873 604.424 144.873C605.018 144.873 605.539 144.998 605.986 145.248C606.433 145.494 606.78 145.862 607.026 146.35C607.272 146.839 607.395 147.443 607.395 148.163V153.714H605.696V148.368C605.696 147.735 605.531 147.241 605.202 146.885C604.872 146.525 604.42 146.345 603.844 146.345C603.45 146.345 603.1 146.43 602.793 146.6C602.49 146.771 602.249 147.021 602.071 147.35C601.897 147.676 601.81 148.07 601.81 148.532ZM609.498 156.987V144.987H611.157V146.402H611.299C611.397 146.22 611.539 146.01 611.725 145.771C611.91 145.532 612.168 145.324 612.498 145.146C612.827 144.964 613.263 144.873 613.804 144.873C614.509 144.873 615.138 145.051 615.691 145.407C616.244 145.763 616.677 146.277 616.992 146.947C617.31 147.618 617.469 148.424 617.469 149.368C617.469 150.311 617.312 151.119 616.998 151.794C616.683 152.464 616.251 152.981 615.702 153.345C615.153 153.705 614.526 153.885 613.821 153.885C613.291 153.885 612.857 153.796 612.52 153.618C612.187 153.439 611.926 153.231 611.736 152.993C611.547 152.754 611.401 152.542 611.299 152.356H611.196V156.987H609.498ZM611.162 149.35C611.162 149.964 611.251 150.502 611.429 150.964C611.607 151.426 611.865 151.788 612.202 152.049C612.539 152.307 612.952 152.436 613.441 152.436C613.948 152.436 614.373 152.301 614.713 152.032C615.054 151.76 615.312 151.39 615.486 150.924C615.664 150.458 615.753 149.934 615.753 149.35C615.753 148.775 615.666 148.258 615.492 147.799C615.321 147.341 615.064 146.979 614.719 146.714C614.378 146.449 613.952 146.316 613.441 146.316C612.948 146.316 612.532 146.443 612.191 146.697C611.854 146.951 611.598 147.305 611.424 147.76C611.249 148.214 611.162 148.744 611.162 149.35ZM624.725 150.095V144.987H626.429V153.714H624.759V152.203H624.668C624.467 152.669 624.145 153.057 623.702 153.368C623.263 153.674 622.715 153.828 622.06 153.828C621.5 153.828 621.003 153.705 620.572 153.458C620.143 153.208 619.806 152.839 619.56 152.35C619.318 151.862 619.197 151.258 619.197 150.538V144.987H620.895V150.333C620.895 150.928 621.06 151.402 621.39 151.754C621.719 152.106 622.147 152.282 622.674 152.282C622.992 152.282 623.308 152.203 623.623 152.044C623.941 151.885 624.204 151.644 624.412 151.322C624.625 151 624.729 150.591 624.725 150.095ZM632.61 144.987V146.35H627.843V144.987H632.61ZM629.121 142.896H630.82V151.152C630.82 151.481 630.869 151.729 630.968 151.896C631.066 152.059 631.193 152.171 631.349 152.231C631.508 152.288 631.68 152.316 631.866 152.316C632.002 152.316 632.121 152.307 632.224 152.288C632.326 152.269 632.405 152.254 632.462 152.243L632.769 153.646C632.671 153.684 632.53 153.722 632.349 153.76C632.167 153.801 631.94 153.824 631.667 153.828C631.22 153.835 630.803 153.756 630.417 153.589C630.03 153.422 629.718 153.165 629.479 152.816C629.241 152.468 629.121 152.03 629.121 151.504V142.896Z" fill="white"/>
  <path d="M42 266.5C41.1716 266.5 40.5 267.172 40.5 268C40.5 268.828 41.1716 269.5 42 269.5V266.5ZM78.6263 269.5C79.4547 269.5 80.1263 268.828 80.1263 268C80.1263 267.172 79.4547 266.5 78.6263 266.5V269.5ZM132.626 266.5C131.798 266.5 131.126 267.172 131.126 268C131.126 268.828 131.798 269.5 132.626 269.5V266.5ZM154.253 274.66C154.253 275.489 155.267 276.074 155.985 275.66L167.521 269C168.238 268.586 168.238 267.414 167.521 267L155.985 260.34C155.267 259.926 154.253 260.511 154.253 261.34V274.66ZM42 269.5H78.6263V266.5H42V269.5ZM132.626 269.5H155.753V266.5H132.626V269.5Z" fill="#B3B3B3"/>
  <path d="M88.1921 274V262.364H92.3399C93.2452 262.364 93.9952 262.528 94.5899 262.858C95.1846 263.187 95.6296 263.638 95.9251 264.21C96.2205 264.778 96.3683 265.419 96.3683 266.131C96.3683 266.847 96.2186 267.491 95.9194 268.062C95.6239 268.631 95.177 269.081 94.5785 269.415C93.9838 269.744 93.2357 269.909 92.3342 269.909H89.4819V268.42H92.1751C92.7471 268.42 93.2111 268.322 93.5671 268.125C93.9232 267.924 94.1846 267.652 94.3512 267.307C94.5179 266.962 94.6012 266.57 94.6012 266.131C94.6012 265.691 94.5179 265.301 94.3512 264.96C94.1846 264.619 93.9213 264.352 93.5614 264.159C93.2054 263.966 92.7357 263.869 92.1524 263.869H89.9478V274H88.1921ZM103.643 270.381V265.273H105.347V274H103.677V272.489H103.586C103.385 272.955 103.063 273.343 102.62 273.653C102.18 273.96 101.633 274.114 100.978 274.114C100.417 274.114 99.921 273.991 99.4891 273.744C99.0611 273.494 98.724 273.125 98.4778 272.636C98.2354 272.148 98.1141 271.544 98.1141 270.824V265.273H99.813V270.619C99.813 271.214 99.9778 271.687 100.307 272.04C100.637 272.392 101.065 272.568 101.591 272.568C101.91 272.568 102.226 272.489 102.54 272.33C102.858 272.17 103.122 271.93 103.33 271.608C103.542 271.286 103.646 270.877 103.643 270.381ZM113.994 267.403L112.454 267.676C112.389 267.479 112.287 267.292 112.147 267.114C112.011 266.936 111.825 266.79 111.59 266.676C111.355 266.562 111.062 266.506 110.709 266.506C110.228 266.506 109.827 266.614 109.505 266.83C109.183 267.042 109.022 267.316 109.022 267.653C109.022 267.945 109.13 268.18 109.346 268.358C109.562 268.536 109.91 268.682 110.391 268.795L111.778 269.114C112.581 269.299 113.179 269.585 113.573 269.972C113.967 270.358 114.164 270.86 114.164 271.477C114.164 272 114.012 272.466 113.709 272.875C113.41 273.28 112.992 273.598 112.454 273.83C111.92 274.061 111.3 274.176 110.596 274.176C109.619 274.176 108.821 273.968 108.204 273.551C107.586 273.131 107.208 272.534 107.067 271.761L108.709 271.511C108.812 271.939 109.022 272.263 109.34 272.483C109.658 272.699 110.073 272.807 110.584 272.807C111.141 272.807 111.586 272.691 111.92 272.46C112.253 272.225 112.42 271.939 112.42 271.602C112.42 271.33 112.317 271.1 112.113 270.915C111.912 270.729 111.603 270.589 111.187 270.494L109.709 270.17C108.895 269.985 108.293 269.689 107.903 269.284C107.516 268.879 107.323 268.366 107.323 267.744C107.323 267.229 107.467 266.778 107.755 266.392C108.043 266.006 108.441 265.705 108.948 265.489C109.456 265.269 110.037 265.159 110.692 265.159C111.636 265.159 112.378 265.364 112.92 265.773C113.461 266.178 113.819 266.722 113.994 267.403ZM117.555 268.818V274H115.856V262.364H117.532V266.693H117.64C117.845 266.223 118.157 265.85 118.577 265.574C118.998 265.297 119.547 265.159 120.225 265.159C120.824 265.159 121.346 265.282 121.793 265.528C122.244 265.775 122.593 266.142 122.839 266.631C123.089 267.116 123.214 267.722 123.214 268.449V274H121.515V268.653C121.515 268.013 121.35 267.517 121.021 267.165C120.691 266.809 120.233 266.631 119.646 266.631C119.244 266.631 118.884 266.716 118.566 266.886C118.252 267.057 118.004 267.307 117.822 267.636C117.644 267.962 117.555 268.356 117.555 268.818Z" fill="white"/>
  <path d="M520.453 156H492C490.895 156 490 156.895 490 158V180C490 181.105 490.895 182 492 182H520.453C521.558 182 522.453 181.105 522.453 180V158C522.453 156.895 521.558 156 520.453 156Z" fill="#0093FF"/>
  <path d="M520.453 156.5H492C491.172 156.5 490.5 157.172 490.5 158V180C490.5 180.828 491.172 181.5 492 181.5H520.453C521.282 181.5 521.953 180.828 521.953 180V158C521.953 157.172 521.282 156.5 520.453 156.5Z" stroke="black" stroke-opacity="0.14902"/>
  <path d="M494.969 172V164H495.938V167.562H500.203V164H501.172V172H500.203V168.422H495.938V172H494.969ZM505.424 172.125C504.882 172.125 504.407 171.996 503.998 171.738C503.592 171.48 503.274 171.12 503.045 170.656C502.818 170.193 502.705 169.651 502.705 169.031C502.705 168.406 502.818 167.861 503.045 167.395C503.274 166.928 503.592 166.566 503.998 166.309C504.407 166.051 504.882 165.922 505.424 165.922C505.965 165.922 506.439 166.051 506.846 166.309C507.255 166.566 507.572 166.928 507.799 167.395C508.028 167.861 508.143 168.406 508.143 169.031C508.143 169.651 508.028 170.193 507.799 170.656C507.572 171.12 507.255 171.48 506.846 171.738C506.439 171.996 505.965 172.125 505.424 172.125ZM505.424 171.297C505.835 171.297 506.174 171.191 506.439 170.98C506.705 170.77 506.902 170.492 507.029 170.148C507.157 169.805 507.221 169.432 507.221 169.031C507.221 168.63 507.157 168.257 507.029 167.91C506.902 167.564 506.705 167.284 506.439 167.07C506.174 166.857 505.835 166.75 505.424 166.75C505.012 166.75 504.674 166.857 504.408 167.07C504.143 167.284 503.946 167.564 503.818 167.91C503.691 168.257 503.627 168.63 503.627 169.031C503.627 169.432 503.691 169.805 503.818 170.148C503.946 170.492 504.143 170.77 504.408 170.98C504.674 171.191 505.012 171.297 505.424 171.297ZM513.8 167.344L512.972 167.578C512.92 167.44 512.843 167.306 512.741 167.176C512.642 167.043 512.507 166.934 512.335 166.848C512.163 166.762 511.943 166.719 511.675 166.719C511.308 166.719 511.002 166.803 510.757 166.973C510.515 167.139 510.394 167.352 510.394 167.609C510.394 167.839 510.477 168.02 510.644 168.152C510.81 168.285 511.071 168.396 511.425 168.484L512.315 168.703C512.852 168.833 513.252 169.033 513.515 169.301C513.778 169.566 513.909 169.909 513.909 170.328C513.909 170.672 513.81 170.979 513.612 171.25C513.417 171.521 513.144 171.734 512.792 171.891C512.44 172.047 512.032 172.125 511.565 172.125C510.953 172.125 510.447 171.992 510.046 171.727C509.645 171.461 509.391 171.073 509.284 170.562L510.159 170.344C510.243 170.667 510.4 170.909 510.632 171.07C510.866 171.232 511.172 171.312 511.55 171.312C511.979 171.312 512.321 171.221 512.573 171.039C512.828 170.854 512.956 170.633 512.956 170.375C512.956 170.167 512.883 169.992 512.737 169.852C512.591 169.708 512.368 169.602 512.065 169.531L511.065 169.297C510.516 169.167 510.112 168.965 509.854 168.691C509.599 168.415 509.472 168.07 509.472 167.656C509.472 167.318 509.567 167.018 509.757 166.758C509.95 166.497 510.211 166.293 510.542 166.145C510.875 165.996 511.253 165.922 511.675 165.922C512.269 165.922 512.735 166.052 513.073 166.312C513.414 166.573 513.657 166.917 513.8 167.344ZM517.906 166V166.781H514.797V166H517.906ZM515.703 164.562H516.625V170.281C516.625 170.542 516.663 170.737 516.738 170.867C516.816 170.995 516.915 171.081 517.035 171.125C517.158 171.167 517.286 171.187 517.422 171.187C517.523 171.187 517.607 171.182 517.672 171.172C517.737 171.159 517.789 171.148 517.828 171.141L518.016 171.969C517.953 171.992 517.866 172.016 517.754 172.039C517.642 172.065 517.5 172.078 517.328 172.078C517.068 172.078 516.813 172.022 516.563 171.91C516.315 171.798 516.109 171.628 515.945 171.398C515.784 171.169 515.703 170.88 515.703 170.531V164.562Z" fill="white"/>
</svg>