<svg width="24" height="24" viewBox="0 0 24 24" fill="none" xmlns="http://www.w3.org/2000/svg">
<path fill-rule="evenodd" clip-rule="evenodd" d="M12.0002 5C8.79995 5 6.80031 6.55566 5.99988 9.66697C7.20005 8.11132 8.60008 7.52806 10.2 7.91674C11.1128 8.13845 11.7656 8.78243 12.4874 9.4954C13.6641 10.6564 15.026 12 18.0001 12C21.1999 12 23.2 10.4443 24 7.33349C22.8003 8.88914 21.4003 9.4724 19.8004 9.08326C18.8871 8.86155 18.2343 8.21757 17.5124 7.50506C16.3358 6.34315 14.9743 5 12.0002 5ZM5.99988 12C2.80007 12 0.799953 13.5557 0 16.667C1.20016 15.1113 2.6002 14.5281 4.19964 14.9167C5.11293 15.1385 5.76568 15.7824 6.48757 16.4954C7.66422 17.6564 9.02569 19 12.0002 19C15.2 19 17.2002 17.4448 18.0001 14.3335C16.8 15.8891 15.3999 16.4724 13.8 16.0837C12.8872 15.8615 12.2344 15.2176 11.5126 14.5051C10.3359 13.3441 8.97396 12 5.99988 12Z" fill="#38BDF8"/>
</svg>
